<svg width="243" height="243" viewBox="0 0 243 243" fill="none" xmlns="http://www.w3.org/2000/svg">
<mask id="path-1-inside-1_7_295" fill="white">
<path d="M99.9595 106.224C99.8717 108.177 97.582 109.079 96.0365 108.104C95.8208 107.967 95.0746 107.44 95.1046 107.156C95.1099 107.105 95.5281 106.787 95.5721 106.745C95.7759 106.554 95.9711 106.353 96.1572 106.145C96.7877 105.437 97.3068 104.637 97.7053 103.777C98.2794 104.116 98.8549 104.086 99.3298 104.605C99.7258 105.039 99.9862 105.63 99.9595 106.224ZM89.488 109.211C89.1359 109.211 88.7845 109.183 88.4357 109.137C88.0111 109.081 88.0126 109.211 87.9413 109.626C87.8265 110.295 87.939 110.997 88.2563 111.598C88.7933 112.614 89.8863 113.206 91.0349 113.075C93.2226 112.826 94.1269 110.078 93.4716 108.23C92.2436 108.861 90.8704 109.211 89.488 109.211ZM97.9934 96.7557C98.6397 98.4317 98.7429 100.284 98.3183 102.027C98.8828 102.102 99.3525 102.359 99.9329 102.303C100.452 102.254 100.961 102.073 101.392 101.778C102.258 101.184 102.666 100.161 102.553 99.1289C102.442 98.1298 101.866 97.2451 100.956 96.8026C100.478 96.5698 99.9387 96.4546 99.4077 96.4467C99.2504 96.4444 97.9275 96.5848 97.9934 96.7557ZM81.4007 96.7114C81.6431 96.1375 81.9467 95.5898 82.3007 95.0773C80.4895 94.4053 78.5061 95.4322 78.0959 97.3268C77.7203 99.0616 78.8774 100.946 80.7312 101.055C80.5924 99.5789 80.8242 98.0771 81.4007 96.7114ZM81.1882 103.141C79.1852 104.281 78.9215 107.204 80.3662 108.867C81.9175 110.654 84.8716 110.531 86.2038 108.543C83.8502 107.548 82.0147 105.556 81.1882 103.141ZM93.2347 91.9043C94.7055 92.5253 95.9989 93.537 96.9367 94.8308C97.8756 93.4084 97.7547 91.1235 96.1156 90.2575C94.6816 89.4998 92.4608 90.0602 91.5196 91.3715C92.1069 91.4921 92.6821 91.6711 93.2347 91.9043ZM138.654 140.885C137.851 146.325 136.929 152.047 138.61 157.415C139.159 156.226 139.595 154.734 139.744 153.435C139.982 154.527 139.823 155.558 139.834 156.657C139.842 157.313 139.9 158.582 140.875 158.263C142.072 157.871 142.603 156.367 142.853 155.267C143.14 153.998 143.23 152.595 142.983 151.311C143.893 153.655 144.858 156.241 144.05 158.758C143.72 159.787 143.097 160.699 142.174 161.279C141.43 161.746 140.249 162.193 139.452 161.597C139.783 165.448 138.893 169.297 138.763 173.141C138.695 175.154 138.714 177.168 138.698 179.181C138.683 181.077 138.434 183.048 138.655 184.934C138.739 185.649 138.92 186.373 139.333 186.975C139.856 187.739 140.65 188.258 141.084 189.096C141.687 190.262 141.136 191.908 142.412 192.621C143.51 193.234 144.897 193.435 146.137 193.48C147.182 193.517 149.009 193.495 149.605 192.416C150.331 191.101 148.707 189.168 148.097 188.112C147.166 186.497 146.464 184.703 145.809 182.961C144.52 179.534 143.671 175.903 143.78 172.223C143.939 166.815 145.625 161.576 147.069 156.403C148.031 152.959 148.974 149.509 149.956 146.071C147.912 146.057 145.744 146.355 143.95 145.136C142.258 143.987 141.805 141.833 141.504 139.938C141.369 139.09 141.273 138.236 141.098 137.394C141.066 137.24 141.031 137.087 140.997 136.933C140.953 136.743 140.836 135.667 140.669 135.554C140.576 135.49 140.153 135.607 140.014 135.62C139.866 135.634 139.718 135.648 139.57 135.662C139.348 135.608 139.265 135.695 139.321 135.924C139.152 136.323 139.204 136.943 139.148 137.381C138.999 138.551 138.826 139.718 138.654 140.885ZM86.3223 91.857C87.2306 91.4882 88.1991 91.2739 89.1772 91.214C88.7515 89.4557 86.93 88.437 85.2305 89.0833C83.4787 89.7495 82.8077 91.8334 83.7743 93.4344C84.5301 92.7738 85.3918 92.235 86.3223 91.857ZM194.004 48.3474C193.211 49.1577 192.547 50.0926 192.042 51.1076C191.928 51.3367 191.822 51.5694 191.724 51.806C191.669 51.9411 191.616 52.0773 191.566 52.2147C191.43 52.3857 191.47 52.4922 191.686 52.5346C192.035 52.925 192.73 53.2134 193.157 53.539C193.79 51.8916 194.08 50.1107 194.004 48.3474ZM53.6209 189.446C54.2608 190.642 55.1005 191.864 55.2436 193.247C55.2681 193.484 55.126 194.023 55.2239 194.202C55.3062 194.352 55.65 194.401 55.8584 194.454C56.5026 194.617 57.1695 194.707 57.834 194.715C58.906 194.727 60.4955 194.55 60.9752 193.407C61.3982 192.399 60.9202 191.414 60.4737 190.536C59.2655 188.16 57.986 185.821 56.9052 183.382C55.7953 180.877 55.0542 178.294 54.7252 175.57C54.3554 172.508 54.4579 169.393 54.9532 166.351C55.453 163.28 56.8843 160.537 58.1535 157.731C59.3997 154.976 60.5698 152.196 61.9022 149.479C63.2578 146.715 64.6931 143.99 66.1812 141.295C69.4321 135.408 72.9369 129.667 76.4636 123.943C75.7695 123.881 75.0734 123.84 74.3767 123.823C73.8273 123.81 72.6252 123.623 72.2087 123.945C71.7857 124.273 71.4526 125.021 71.1522 125.467C70.7353 126.087 70.3286 126.713 69.9276 127.343C68.4589 129.65 67.0348 131.987 65.6004 134.315C62.7153 138.997 59.8991 143.728 57.4155 148.638C53.3363 156.703 49.9507 165.548 49.9698 174.706C49.9804 179.921 51.2664 184.805 53.6209 189.446ZM96.3205 98.7341C95.1142 97.1889 93.2074 96.0596 91.1988 96.2074C89.2144 96.3534 87.3293 97.7695 87.1895 99.8552C87.0601 101.787 88.8781 103.67 90.853 102.888C91.6647 102.566 92.3745 101.757 92.1762 100.833C92.0893 100.429 91.8249 100.032 91.3834 99.9961C90.8434 99.9527 90.8058 100.395 90.4385 100.644C89.6725 101.162 88.7422 100.366 89.0226 99.5295C89.3317 98.6068 90.4343 98.0886 91.3459 98.0922C93.4642 98.1008 94.5436 100.467 93.9067 102.287C93.2325 104.214 91.0242 105.272 89.0711 104.881C87.235 104.512 85.7807 102.966 85.396 101.154C84.9221 98.922 85.9951 96.6336 87.8679 95.3918C89.847 94.0794 92.3854 93.9971 94.527 94.9582C92.2103 92.825 88.6732 92.5026 85.9911 94.1389C83.8283 95.4584 82.5073 97.9128 82.589 100.444C82.7527 105.524 88.2995 108.952 92.8212 106.433C94.0383 105.755 95.0418 104.726 95.7178 103.511C96.1134 102.799 96.3989 102.027 96.5511 101.227C96.6356 100.783 96.6781 100.328 96.6752 99.8764C96.6744 99.727 96.6691 99.5771 96.6588 99.4279C96.6302 99.0136 96.5518 99.0303 96.3205 98.7341ZM43.1083 109.855C42.1356 103.235 43.6696 96.3531 47.4226 90.8057C45.0976 93.7558 43.185 97.062 42.039 100.65C40.8248 104.452 40.6615 108.32 41.364 112.235C42.0507 116.064 43.3217 119.867 43.0847 123.802C42.9722 125.669 42.5416 127.527 41.7283 129.216C41.0343 130.657 40.0562 132.409 38.305 132.652C36.311 132.929 35.444 131.119 35.4798 129.42C35.5187 127.574 35.9598 125.701 36.7025 124.015C36.8059 123.78 37.0286 123.034 37.2642 122.92C37.6779 122.72 37.6489 123.089 37.582 123.399C37.3558 124.448 37.0705 125.453 36.9631 126.528C36.8825 127.336 36.4391 131.51 38.1595 130.814C39.2066 130.39 39.678 128.741 40.0375 127.741C40.6928 125.918 40.8475 123.951 40.7024 122.03C40.4077 118.129 39.1013 114.383 38.7346 110.491C37.9412 102.067 42.1264 94.0042 48.3859 88.5746C44.6789 88.7238 41.3414 91.0428 39.3717 94.0976C37.2879 97.3293 36.5483 101.227 36.3157 105.009C36.0282 109.685 36.3458 114.359 35.6581 119.012C34.9713 123.658 33.6777 128.18 32.5797 132.738C30.6591 140.711 29.6032 149.041 32.9412 156.801C33.2976 157.629 33.6961 158.439 34.1313 159.229C34.2995 159.534 34.5011 160.036 34.9456 159.882C35.4732 159.7 35.1945 158.909 35.1539 158.526C34.9266 156.376 35.0441 154.188 35.5986 152.095C36.1846 149.882 37.3392 148.102 38.4385 146.132C38.9931 145.137 39.4381 144.083 39.9292 143.057C40.4426 141.984 41.0177 140.943 41.5507 139.879C43.6133 135.765 45.1917 131.501 45.7799 126.918C45.9316 125.736 46.041 124.548 46.1106 123.358C46.1429 122.805 46.1664 122.252 46.1818 121.699C46.1982 121.106 45.9585 120.538 45.784 119.973C45.0968 117.749 44.3698 115.535 43.8018 113.276C43.5178 112.147 43.2753 111.007 43.1083 109.855ZM123.404 82.7862C122.965 82.7193 122.533 82.5823 122.151 82.353C123.562 83.2004 125.556 81.5671 126.597 80.7551C127.276 80.2255 127.908 79.6153 128.702 79.2584C129.703 78.8089 130.792 78.7996 131.866 78.8747C133.857 79.0138 136.06 79.3157 137.96 78.5214C138.396 78.3392 138.806 78.0928 139.161 77.7807C139.324 77.6373 139.475 77.4803 139.614 77.3133C139.696 77.2149 139.788 77.1155 139.85 77.0026C139.976 76.7707 140.018 76.8346 139.886 76.653C139.655 76.3328 138.916 76.155 138.553 76.0256C138.081 75.8569 137.596 75.7221 137.107 75.6102C135.593 75.2636 132.715 74.6922 131.515 76.0763C133.515 73.7694 136.827 73.6575 139.648 73.5036C143.138 73.3131 146.456 71.7585 148.261 68.643C145.797 70.2432 142.411 69.8062 140.177 68.002C142.81 67.9072 145.368 67.3676 147.885 66.6112C148.906 66.3042 149.947 65.9888 150.855 65.4173C151.385 65.0838 152.26 64.2978 152.943 64.4344C151.095 64.101 149.162 64.2511 147.388 64.8655C150.109 59.9875 157.359 62.951 160.702 58.8693C158.041 59.3269 155.413 59.3128 153.216 57.5346C156.152 57.5516 159.126 57.1008 161.911 56.1654C164.476 55.3041 166.75 53.7759 169.289 52.8478C166.942 52.3061 163.831 54.1671 161.807 52.3338C164.188 52.9216 166.443 51.2998 168.62 50.6155C169.751 50.2603 170.928 50.0573 172.111 50.0045C172.743 49.9763 173.376 49.9909 174.006 50.0477C174.463 50.0892 175.341 50.4099 175.752 50.2537C174.654 49.7666 173.667 49.016 172.928 48.0669C174.893 49.0102 177.142 48.4307 179.173 48.0637C180.19 47.88 181.232 47.7428 182.267 47.8263C182.765 47.8665 183.261 47.9553 183.733 48.1237C184.234 48.3023 184.61 48.6028 185.136 48.6668C184.313 50.2164 183.506 51.798 182.992 53.4815C182.75 54.271 182.573 55.0878 182.539 55.9145C182.528 56.1814 182.428 56.7993 182.692 56.9507C182.994 57.1247 183.155 56.7719 183.261 56.5695C184.093 54.988 184.44 53.1854 185.176 51.5597C185.923 49.9106 186.877 48.3898 188.01 46.98C188.198 49.8277 189.058 52.7976 188.295 55.6271C188.214 55.9268 188.114 56.2227 187.992 56.5082C187.88 56.7708 187.628 57.0822 187.615 57.373C187.583 58.0778 188.361 58.0694 188.695 57.6315C189.506 56.569 189.816 55.048 189.96 53.7525C195.033 56.5315 197.761 62.004 200.822 66.6505C202.409 69.0608 204.172 71.3781 206.392 73.2441C208.57 75.0753 210.768 76.8243 212.033 79.4497C212.517 80.4541 212.932 81.5459 213.013 82.6666C213.131 84.3133 212.62 85.886 211.89 87.339C211.263 86.9566 210.701 86.5906 210.268 85.9778C209.85 85.3863 209.352 84.3345 209.736 83.6135C209.869 83.363 210.135 83.1297 210.434 83.183C210.743 83.2382 210.742 83.5016 210.887 83.6897C211.132 84.0096 211.326 83.9031 211.431 83.5159C211.537 83.1249 211.344 82.6946 211.069 82.4222C210.506 81.8645 209.625 81.9341 209.023 82.3966C208.298 82.9524 208.087 83.9061 208.205 84.7749C208.43 86.443 209.687 87.931 211.304 88.4075C210.989 88.9322 210.369 90.1755 209.661 90.0882C208.908 89.9954 208.105 89.3244 207.568 88.8334C206.279 87.6566 205.339 86.1497 203.98 85.0408C203.79 84.8857 202.244 83.675 202.334 84.5199C202.362 84.7852 202.857 85.1439 203.023 85.343C203.319 85.6986 203.597 86.0682 203.869 86.4427C204.9 87.866 205.834 89.434 207.297 90.4654C206.724 90.475 206.229 90.4825 205.719 90.2131C205.18 89.9284 204.657 89.6141 204.13 89.3086C203.4 88.8853 202.655 88.5026 201.9 88.1268C199.978 87.1695 198.189 86.0197 196.161 85.2821C192.016 83.7747 186.965 83.6552 183.549 80.5693C181.987 79.158 180.992 77.0641 181.095 74.9376C181.116 74.5078 181.327 74.0242 181.308 73.6118C181.273 72.8664 180.675 73.4768 180.486 73.7834C179.923 74.6985 179.717 75.795 179.79 76.8593C179.866 77.97 180.231 79.0503 180.809 79.9993C181.056 80.4036 181.339 80.7851 181.651 81.1405C181.767 81.2721 182.109 81.5169 182.171 81.6788C182.26 81.9076 182.031 82.3049 181.924 82.5742C181.026 84.8546 180.08 87.1162 179.089 89.3578C177.994 91.8356 176.844 94.2888 175.642 96.7166C175.531 96.9406 175.374 97.4845 175.189 97.626C175.005 97.7658 174.812 97.6157 174.67 97.3773C174.439 96.9893 174.539 96.4687 174.605 96.0504C174.823 94.6608 175.094 93.277 175.371 91.8981C174.665 93.0247 174.016 94.2237 173.235 95.2987C172.848 95.8308 172.106 96.2064 171.899 95.356C171.762 94.7923 171.879 94.1533 171.957 93.5887C172.121 92.3961 172.477 91.2539 173.115 90.2262C172.059 91.9285 170.47 93.2532 169.64 95.1088C169.277 95.9205 169.082 96.8604 169.456 97.7052C169.98 98.8878 171.523 99.2313 172.474 98.3305C172.139 99.2775 172.554 100.482 173.552 100.814C172.013 103.738 170.401 106.624 168.708 109.461C167.942 110.745 167.084 111.99 166.418 113.33C165.769 114.637 165.54 115.958 165.296 117.382C164.801 120.268 163.829 123.025 162.321 125.54C161.58 126.774 160.725 127.941 159.769 129.017C159.341 129.497 158.893 129.96 158.426 130.403C158.167 130.648 157.902 130.887 157.632 131.12C157.571 131.173 157.36 131.391 157.305 131.396C157.203 131.404 156.867 130.964 156.769 130.865C154.91 128.972 152.811 126.148 154.693 123.546C155.422 122.538 157.154 122.297 157.525 123.77C157.653 124.278 157.514 124.805 157.221 125.226C157.077 125.433 156.881 125.561 156.965 125.858C157.042 126.133 157.333 126.274 157.6 126.198C158.077 126.061 158.467 125.375 158.639 124.953C158.878 124.369 158.92 123.711 158.746 123.103C158.393 121.863 157.155 120.999 155.878 121C153.176 121.001 151.666 124.259 151.827 126.592C151.943 128.273 152.792 129.789 153.791 131.107C154.062 131.465 154.348 131.81 154.648 132.145C154.923 132.453 155.366 132.77 155.424 133.174C155.493 133.656 155.326 134.504 154.9 134.814C154.226 135.304 153.469 134.2 153.133 133.748C152.524 132.932 152.042 132.116 151.253 131.45C151.807 132.373 152.112 133.398 152.474 134.404C152.646 134.882 153.074 135.665 152.665 136.13C151.964 136.928 151.067 135.64 150.702 135.148C149.942 134.119 149.195 133.079 148.464 132.029C148.785 133.303 149.185 134.583 149.43 135.873C149.57 136.606 149.291 137.396 148.488 136.882C147.986 136.56 147.603 136.026 147.241 135.562C146.529 134.648 145.985 133.627 145.696 132.501C145.839 134.454 145.876 136.533 146.683 138.352C147.043 139.163 147.602 139.926 148.446 140.273C149.683 140.781 151.094 139.955 151.102 138.573C151.533 139.428 152.606 139.962 153.522 139.57C154.347 139.218 154.754 138.253 154.658 137.394C156.211 139.12 157.814 137.172 158.142 135.534C160.199 137.353 162.438 138.96 164.76 140.423C166.953 141.806 169.336 142.668 171.684 143.736C173.767 144.683 176.251 146.058 176.667 148.536C176.952 150.237 176.483 152.002 176.225 153.685C175.434 158.842 175.453 164.233 173.439 169.127C171.676 173.412 167.595 175.917 163.332 177.263C162.21 177.618 161.061 177.892 159.899 178.081C159.363 178.168 158.598 178.383 158.105 178.095C157.261 177.6 157.789 175.917 158.033 175.222C158.41 174.146 159.01 172.979 159.92 172.257C160.882 171.493 162.189 171.151 163.403 171.218C163.902 171.246 164.347 171.413 164.83 171.494C165.329 171.577 165.744 171.286 166.07 170.933C166.457 170.512 166.652 169.843 166.88 169.326C167.147 168.72 167.398 168.108 167.634 167.489C168.122 166.213 168.546 164.911 168.907 163.593C169.61 161.017 170.205 158.269 170.218 155.588C170.23 153.098 169.282 150.626 166.992 149.403C164.776 148.219 162.212 148.603 159.896 147.821C157.453 146.995 155.537 145.093 153.117 144.196C151.936 143.757 150.713 143.62 149.459 143.651C148.34 143.679 147.179 143.828 146.087 143.509C144.166 142.95 143.989 140.673 143.65 138.986C143.294 137.217 142.803 135.53 142.204 133.826C141.762 132.568 141.29 131.321 140.835 130.068C140.671 129.615 140.563 128.828 139.939 128.838C139.358 128.848 139.312 129.372 139.373 129.81C139.555 131.117 139.899 132.417 140.213 133.698C132.092 134.529 123.775 134.314 115.7 133.145C111.498 132.536 107.37 131.597 103.352 130.223C98.708 128.635 94.1884 126.71 89.5523 125.102C84.4662 123.337 79.1731 121.935 73.7545 121.918C75.6108 119.631 77.8243 117.336 80.5172 116.042C81.7568 115.446 84.1723 114.986 84.1923 117.061C84.1991 117.77 83.7778 118.328 83.1121 118.56C82.7915 118.672 82.4399 118.701 82.1052 118.642C81.7901 118.587 81.5455 118.343 81.2498 118.287C80.958 118.232 80.6616 118.426 80.6653 118.746C80.6689 119.061 81.0114 119.274 81.2493 119.425C81.8863 119.828 82.6755 119.953 83.4124 119.816C84.9379 119.532 85.9301 118.146 85.8344 116.616C85.7345 115.019 84.5374 113.792 82.9739 113.559C81.3845 113.323 79.8708 113.928 78.5035 114.677C72.5931 117.917 69.0578 124.233 65.6376 129.774C61.7536 136.066 57.8264 142.339 54.5716 148.989C49.4128 159.529 45.5206 171.789 48.674 183.516C49.1399 185.249 49.7468 186.936 50.4796 188.573C50.855 189.411 51.2721 190.22 51.702 191.031C52.0802 191.745 52.5912 192.458 52.7711 193.255C53.1421 194.899 50.867 195.179 49.7204 195.288C48.1574 195.436 46.2145 195.596 44.8009 194.766C42.0956 193.177 44.5754 189.899 44.1832 187.601C43.9556 186.266 42.6253 185.462 42.1515 184.271C41.578 182.831 41.9909 180.938 42.142 179.451C42.3436 177.467 42.5546 175.484 42.817 173.507C43.3069 169.816 44.2563 166.152 44.3143 162.417C44.3426 160.589 44.1627 158.751 43.6759 156.985C43.2511 155.445 42.5685 154.039 42.7979 152.395C43.2705 149.01 46.0301 146.374 47.4957 143.403C48.2563 141.86 48.8301 140.218 49.2724 138.558C50.2351 139.528 51.7464 138.944 52.3069 137.839C52.6963 140.38 55.5188 139.201 56.5677 137.816C58.675 135.033 57.0949 131.38 55.7897 128.641C56.132 129.903 56.1462 131.309 55.9542 132.596C55.7885 133.706 55.3702 135.257 54.2053 135.73C53.2564 136.116 53.1042 134.865 53.048 134.207C52.9542 133.111 53.0374 132.072 52.7183 131C52.6802 131.956 52.4424 132.887 52.2052 133.809C52.0726 134.324 52.0324 135.03 51.6755 135.449C51.257 135.94 50.635 135.643 50.4142 135.121C50.0803 134.332 50.2105 133.258 50.2564 132.432C50.4889 128.249 49.6755 124.217 48.4702 120.231C47.2974 116.353 45.8589 112.502 45.4213 108.449C44.9791 104.353 45.5996 100.155 47.1885 96.3541C50.1585 89.2493 56.517 83.8821 63.9949 82.074C68.0523 81.0928 72.27 81.1021 76.4056 81.4711C80.6393 81.8488 84.8572 82.5226 89.0406 83.2642C93.6733 84.0853 98.2893 85.019 102.955 85.6398C105.315 85.9539 107.687 86.1893 110.067 86.2798C111.252 86.3249 112.438 86.3343 113.622 86.3013C113.706 86.2988 113.79 86.2964 113.874 86.2937C114.11 86.2019 114.198 86.2727 114.139 86.5063C114.276 86.7624 114.263 87.0671 114.442 87.3282C114.689 87.6878 115.071 87.9437 115.488 88.0627C114.578 88.2426 113.783 89.0906 113.867 90.0509C113.948 90.975 114.793 91.6626 115.669 91.8044C113.085 93.0876 115.779 95.6328 117.527 96.0101C120.695 96.6942 123.366 94.3193 125.49 92.3268C124.384 93.0413 123.036 93.4853 121.743 93.6902C120.654 93.8629 118.943 93.9432 118.203 92.9125C117.627 92.1105 118.862 91.6051 119.442 91.3709C120.432 90.9704 121.411 90.7292 122.309 90.1176C121.237 90.413 120.13 90.4258 119.03 90.5115C118.525 90.5507 117.663 90.722 117.387 90.1531C116.951 89.2544 118.322 88.8149 118.894 88.5959C120.089 88.1389 121.291 87.6989 122.498 87.2757C121.215 87.2441 119.922 87.2563 118.641 87.1796C118.258 87.1567 117.509 87.0759 117.483 86.5472C117.452 85.9176 118.269 85.9711 118.678 85.9189C121.228 85.594 123.755 85.0753 126.228 84.3736C127.459 84.0244 128.677 83.6281 129.878 83.1859C130.806 82.8437 132.172 82.5417 132.885 81.8107C133.83 80.8406 131.049 80.8801 130.629 80.9205C128.114 81.1626 126.036 83.1882 123.404 82.7862ZM172.061 146.535C172.809 147.23 173.214 148.331 173.578 149.262C173.807 149.848 174.015 150.447 174.188 151.052C174.224 151.179 174.251 151.608 174.415 151.672C174.71 151.788 174.826 151.287 174.882 151.102C175.218 149.981 174.979 148.659 174.415 147.652C174.127 147.137 173.721 146.66 173.189 146.389C172.958 146.271 172.703 146.182 172.44 146.183C172.302 146.183 171.774 146.264 172.061 146.535ZM194.994 67.3689C194.546 66.654 193.853 66.0214 193.096 65.6415C192.564 65.3743 192.598 65.6737 192.466 66.1039C192.347 66.4903 192.062 66.8099 191.642 66.8594C190.751 66.9645 190.329 66.0181 190.724 65.3168C190.968 64.8824 190.946 64.6612 190.385 64.6812C189.91 64.6981 189.416 64.798 188.958 64.914C188.624 64.9985 187.971 65.1165 187.712 65.3552C187.42 65.6235 187.621 65.8539 187.822 66.1236C188.359 66.843 189.072 67.4309 189.878 67.8262C190.783 68.2706 191.801 68.4561 192.806 68.3719C193.144 68.3433 195.394 68.0137 194.994 67.3689ZM184.298 59.3847C184.659 61.495 187.011 62.532 188.867 62.9151C190.754 63.3046 192.9 63.3304 194.423 64.6738C194.739 64.9526 195.007 65.2818 195.201 65.6563C195.344 65.9308 195.526 66.3861 195.92 66.1266C196.654 65.642 195.533 63.9048 195.162 63.4734C193.762 61.8492 191.619 61.4599 189.612 61.1277C188.534 60.9492 187.444 60.7692 186.434 60.3357C185.933 60.1208 185.457 59.8417 185.048 59.4798C184.943 59.3872 184.187 58.7387 184.298 59.3847ZM113.097 102.282C111.388 103.037 110.153 104.461 110.258 106.42C110.349 108.13 111.459 109.765 113.197 110.126C114.86 110.472 116.752 109.509 117.355 107.899C117.447 107.654 117.68 107.003 117.495 106.76C117.262 106.456 117.086 106.797 116.969 106.97C116.54 107.602 116.003 108.085 115.262 108.315C114.42 108.576 113.48 108.487 112.862 107.808C112.322 107.214 112.091 106.271 112.335 105.501C112.768 104.137 114.491 103.705 115.73 103.58C117.691 103.381 119.652 103.687 121.609 103.788C122.64 103.84 123.673 103.808 124.699 103.697C125.123 103.652 125.545 103.594 125.966 103.525C126.283 103.473 127.035 103.268 126.431 102.965C126.276 102.888 125.855 102.947 125.679 102.939C125.346 102.925 125.014 102.908 124.682 102.886C124.106 102.849 123.529 102.802 122.956 102.732C121.893 102.602 120.845 102.377 119.792 102.185C117.607 101.786 115.23 101.482 113.097 102.282ZM57.2836 115.282C58.201 115.564 60.0417 115.728 60.1506 114.344C60.2652 112.888 58.3756 112.823 57.3993 112.958C58.0797 112.366 58.8258 111.187 57.9952 110.38C57.1493 109.558 56.0316 110.499 55.5559 111.235C55.3251 110.353 54.364 109.103 53.3408 109.849C52.3369 110.581 53.019 112.036 53.5636 112.816C52.6507 112.449 50.8204 112.069 50.5778 113.496C50.349 114.843 52.1268 115.149 53.0791 115.109C52.5145 115.784 51.9267 117.085 52.9022 117.709C53.8234 118.298 54.7595 117.392 55.1379 116.61C55.4613 117.421 56.3726 118.566 57.3653 117.921C58.3281 117.296 57.8329 115.991 57.2836 115.282ZM65.1931 122.657C64.7156 122.405 64.154 122.458 63.6389 122.529C64.1603 122.076 64.7284 121.191 64.1286 120.555C63.4795 119.867 62.581 120.614 62.2075 121.192C62.0244 120.491 61.233 119.499 60.444 120.15C59.7264 120.742 60.2437 121.823 60.6604 122.419C59.9592 122.137 58.6725 121.838 58.3645 122.843C58.0272 123.942 59.5429 124.231 60.2843 124.199C59.8553 124.712 59.4087 125.662 60.089 126.182C60.7974 126.723 61.5862 125.978 61.8828 125.365C62.1379 126.007 62.8767 126.908 63.6442 126.361C64.3556 125.854 63.97 124.878 63.5491 124.334C64.1536 124.52 64.9781 124.659 65.4874 124.175C65.9885 123.698 65.7662 122.96 65.1931 122.657ZM70.5494 110.601C70.5223 109.981 68.8207 110.694 68.5475 110.824C67.8264 111.164 67.1833 111.663 66.6501 112.254C66.1156 112.847 65.6858 113.538 65.4135 114.289C65.1946 114.893 64.8197 116.123 65.1462 116.744C65.4898 117.399 65.9952 116.187 66.1438 115.94C66.5548 115.258 66.9909 114.591 67.4721 113.956C67.989 113.273 68.5566 112.633 69.1617 112.027C69.4198 111.769 69.6874 111.52 69.9553 111.272C70.1182 111.122 70.561 110.864 70.5494 110.601ZM74.356 92.4557C73.7414 91.1 72.1065 90.5264 70.708 90.7033C68.9433 90.9267 67.4976 92.1113 66.2159 93.2551C66.8358 90.9517 66.6948 87.2194 63.6521 86.7523C60.6539 86.2921 59.626 89.916 59.6646 92.1933C58.6137 91.2663 57.307 90.4742 55.8614 90.4941C54.6019 90.5113 53.2962 91.1414 52.8271 92.3717C51.6528 95.4524 55.2764 97.66 57.6269 98.571C55.1 99.1088 51.0615 100.635 51.9732 104.025C52.3573 105.454 53.8234 106.214 55.225 106.218C56.951 106.224 58.5885 105.28 59.9389 104.287C59.7011 106.553 60.279 110.137 63.227 110.218C66.166 110.298 66.9556 106.817 66.6359 104.546C68.5412 105.849 72.3317 106.996 73.4455 104.038C74.4878 101.269 71.6191 99.2469 69.3804 98.5003C70.7915 98.0735 72.2526 97.4578 73.3216 96.412C74.341 95.4153 74.9814 93.8357 74.356 92.4557ZM75.378 85.7939C76.504 85.7794 77.6287 85.8469 78.7462 85.9824C79.3294 86.0531 79.9108 86.1713 80.4948 86.2278C80.8223 86.2594 81.218 86.2531 80.9814 85.7942C80.8094 85.4603 80.1545 85.1553 79.8405 84.978C79.4313 84.7469 79.0003 84.5565 78.5568 84.4016C77.5284 84.0424 76.4338 83.8791 75.3457 83.9001C74.2942 83.9205 73.2424 84.1095 72.2566 84.4785C71.8171 84.643 71.3893 84.8415 70.9845 85.0796C70.6338 85.2859 69.9883 85.6121 69.7778 85.9852C69.3066 86.8204 71.6744 86.1444 72.0162 86.0911C73.1291 85.9175 74.2517 85.8111 75.378 85.7939ZM98.1049 110.392C101.061 109.961 102.831 106.53 101.205 103.953C103.507 103.194 104.828 100.888 104.373 98.5182C103.896 96.0283 101.645 94.4797 99.1623 94.5584C99.8716 92.3929 99.1457 89.7667 97.0825 88.629C95.0476 87.507 92.2484 88.037 90.5753 89.587C89.4472 87.478 86.9984 86.4809 84.7303 87.252C82.3418 88.064 80.9874 90.5274 81.5651 92.9881C79.1104 92.802 76.891 94.3553 76.2866 96.7469C75.7076 99.0378 76.7853 101.54 78.966 102.541C77.1654 104.584 77.0697 107.71 78.7285 109.855C80.4678 112.103 83.6845 112.694 86.1116 111.192C86.6187 113.557 88.788 115.214 91.2139 114.963C93.71 114.704 95.3804 112.392 95.5726 110.006C96.358 110.368 97.2463 110.516 98.1049 110.392ZM118.637 116.044C121.733 115.884 124.809 115.328 127.767 114.403C127.993 114.333 129.495 114.023 129.002 113.595C128.839 113.453 128.265 113.661 128.064 113.698C127.64 113.775 127.215 113.847 126.789 113.914C125.264 114.153 123.728 114.325 122.187 114.422C119.05 114.619 115.879 114.507 112.77 114.032C109.876 113.59 106.848 112.633 103.929 113.406C101.372 114.084 99.0301 116.181 99.218 119.016C99.4002 121.767 101.854 124.03 104.657 123.508C105.881 123.28 107.042 122.564 107.668 121.465C107.834 121.173 108.107 120.435 107.5 120.708C107.309 120.795 107.085 121.114 106.9 121.249C106.639 121.44 106.353 121.598 106.054 121.72C103.832 122.624 101.321 121.205 101.391 118.683C101.484 115.373 105.883 115.057 108.279 115.33C109.968 115.522 111.635 115.844 113.331 115.98C115.095 116.121 116.871 116.152 118.637 116.044ZM131.209 129.281C129.968 129.693 128.565 129.787 127.27 129.667C126.152 129.564 124.58 129.233 124.042 128.096C123.604 127.171 124.844 126.949 125.498 126.856C126.587 126.7 127.629 126.725 128.681 126.347C127.57 126.365 126.494 126.1 125.408 125.908C124.909 125.82 124.032 125.77 123.907 125.15C123.709 124.171 125.146 124.088 125.756 124.019C127.027 123.876 128.301 123.75 129.576 123.642C128.32 123.285 127.037 122.977 125.798 122.565C125.22 122.373 124.482 121.787 125.232 121.302C125.73 120.98 126.423 120.919 126.996 120.835C128.189 120.66 129.386 120.683 130.553 121.01C128.847 119.957 126.826 118.972 124.79 118.881C123.86 118.84 122.838 119.038 122.176 119.744C121.354 120.621 121.553 122.042 122.591 122.651C121.731 122.601 120.811 123.135 120.566 123.988C120.287 124.955 120.96 125.937 121.831 126.319C119.257 126.863 120.707 129.695 122.184 130.633C125.09 132.48 128.566 130.728 131.209 129.281ZM135.281 97.6459C136.034 97.3284 136.318 96.4831 135.806 95.8209C135.223 95.0677 134.169 95.1351 133.326 95.2516C134.006 94.6596 134.752 93.4806 133.922 92.6738C133.076 91.852 131.958 92.7926 131.482 93.5287C131.252 92.6463 130.291 91.3964 129.267 92.1429C128.263 92.8752 128.945 94.3303 129.49 95.1095C128.577 94.7426 126.747 94.3627 126.504 95.7899C126.275 97.1369 128.053 97.4431 129.006 97.4023C128.441 98.078 127.853 99.3789 128.829 100.003C129.75 100.592 130.686 99.6852 131.064 98.9034C131.387 99.7147 132.299 100.859 133.292 100.215C134.254 99.5898 133.759 98.2851 133.21 97.5755C133.861 97.7759 134.629 97.9204 135.281 97.6459ZM152.556 112.103C152.325 111.613 151.799 111.324 151.264 111.347C151.241 111.348 150.942 111.424 150.903 111.409C150.827 111.381 150.707 111.178 150.625 111.118C150.373 110.934 150.079 110.879 149.773 110.922C149.245 110.997 148.709 111.324 148.279 111.623C148.153 111.71 147.71 112.185 147.56 112.193C147.421 112.2 146.895 111.675 146.743 111.584C146.547 111.467 146.026 111.341 145.906 111.189C145.756 110.999 145.877 110.507 145.881 110.197C145.888 109.681 145.887 109.043 145.651 108.572C145.546 108.364 145.402 108.188 145.197 108.072C145.049 107.989 144.728 108.015 144.623 107.932C144.436 107.784 144.371 107.38 144.14 107.195C143.913 107.014 143.626 106.906 143.335 106.901C142.792 106.893 142.301 107.24 142.094 107.737C141.989 107.989 142.012 108.155 141.841 108.318C141.653 108.497 141.452 108.537 141.311 108.783C141.035 109.263 141.157 109.92 141.269 110.43C141.335 110.729 141.432 111.018 141.54 111.303C141.656 111.61 141.668 111.503 141.491 111.733C141.378 111.879 141.136 111.99 140.997 112.112C140.788 112.293 140.594 112.491 140.419 112.705C140.252 112.908 140.271 112.985 140.052 112.982C139.916 112.981 139.731 112.84 139.599 112.788C139.082 112.586 138.486 112.386 137.924 112.373C137.298 112.358 137.183 112.658 136.792 113.022C136.593 113.207 136.777 113.082 136.551 113.17C136.417 113.223 136.258 113.22 136.119 113.278C135.846 113.392 135.622 113.581 135.47 113.835C135.189 114.306 135.249 114.896 135.587 115.32C135.752 115.526 136.106 115.605 136.24 115.781C136.348 115.923 136.299 116.276 136.431 116.467C136.743 116.919 137.348 117.029 137.855 117.102C138.109 117.138 138.365 117.153 138.621 117.153C138.794 117.152 138.966 117.143 139.138 117.132C139.492 117.11 139.464 117.09 139.578 117.421C139.685 117.729 139.821 118.026 139.985 118.308C140.053 118.423 140.168 118.551 140.219 118.669C140.373 119.026 140.318 118.74 140.178 119.015C139.91 119.542 139.366 119.966 139.078 120.513C138.845 120.954 138.67 121.455 138.942 121.924C138.995 122.016 139.097 122.089 139.146 122.177C139.299 122.453 139.207 122.201 139.224 122.462C139.244 122.769 139.162 123.019 139.291 123.33C139.5 123.83 140.004 124.156 140.546 124.133C140.811 124.123 141.065 124.029 141.281 123.878C141.368 123.818 141.53 123.587 141.61 123.565C141.719 123.534 141.956 123.646 142.085 123.638C143.195 123.566 143.614 121.931 143.832 121.064C143.932 120.665 143.944 120.754 144.347 120.747C144.677 120.741 145.008 120.699 145.33 120.625C145.335 120.624 145.71 120.495 145.747 120.51C145.824 120.542 145.963 120.924 146.016 121.015C146.178 121.295 146.357 121.566 146.555 121.822C146.834 122.183 147.18 122.629 147.609 122.811C147.871 122.922 148.133 122.951 148.408 122.859C148.477 122.836 148.697 122.685 148.735 122.686C148.811 122.689 149.118 122.909 149.213 122.938C149.789 123.113 150.434 122.894 150.748 122.371C150.914 122.092 150.965 121.762 150.91 121.445C150.885 121.296 150.796 121.163 150.769 121.021C150.727 120.803 150.747 120.871 150.813 120.63C151.02 119.88 150.711 119.405 150.171 118.873C149.958 118.662 149.724 118.474 149.479 118.301C149.336 118.2 148.774 117.956 148.733 117.825C148.682 117.661 149.066 116.787 149.098 116.577C149.12 116.438 149.086 116.212 149.149 116.094C149.254 115.894 149.469 115.92 149.728 115.861C150.29 115.731 150.878 115.547 151.379 115.254C151.646 115.099 151.894 114.904 152.018 114.613C152.133 114.344 151.965 114.036 152.039 113.816C152.109 113.604 152.49 113.395 152.59 113.128C152.714 112.798 152.707 112.424 152.556 112.103ZM161.573 111.359C161.139 111.13 160.626 111.177 160.159 111.242C160.631 110.831 161.153 110.022 160.604 109.447C160.011 108.824 159.198 109.497 158.857 110.025C158.695 109.406 158.053 108.551 157.326 109.029C156.575 109.523 157.06 110.583 157.45 111.142C156.804 110.882 155.554 110.608 155.35 111.593C155.149 112.559 156.424 112.79 157.107 112.761C156.7 113.248 156.293 114.182 157.01 114.611C157.657 114.997 158.299 114.364 158.561 113.821C158.789 114.393 159.392 115.162 160.094 114.767C160.824 114.357 160.47 113.391 160.077 112.883C160.626 113.052 161.378 113.179 161.84 112.739C162.292 112.309 162.095 111.634 161.573 111.359ZM169.758 82.5871C169.282 81.1892 168.244 79.9513 166.822 79.4623C165.429 78.983 163.764 79.3616 162.81 80.5161C161.888 81.6318 161.97 83.3066 163.057 84.2898C163.35 84.5542 164.41 85.2148 164.795 84.8024C165.129 84.4449 164.078 84.1367 163.883 83.9283C163.086 83.0739 163.265 81.7689 164.311 81.2293C165.736 80.4947 167.177 81.5092 167.769 82.8127C169.011 85.5508 167.335 89.1724 165.662 91.3642C164.66 92.6771 163.413 93.8125 162.014 94.6895C161.279 95.1504 160.499 95.5414 159.69 95.8549C159.281 96.0134 158.864 96.1521 158.441 96.2702C157.966 96.4029 157.706 96.2513 157.248 96.0984C158.953 95.5825 160.764 94.8092 161.949 93.4258C163.007 92.1897 163.473 90.2739 162.436 88.8777C161.527 87.6533 159.843 87.2449 158.4 87.5212C156.58 87.8698 155.091 89.0944 153.747 90.2951C154.428 87.7612 154.301 83.7773 151.041 83.1237C149.748 82.8644 148.471 83.548 147.687 84.5526C146.69 85.8305 146.472 87.5481 146.498 89.1204C145.34 88.0991 143.899 87.2227 142.306 87.2389C140.954 87.2527 139.544 87.9026 138.985 89.1945C137.501 92.6239 141.629 95.1633 144.244 96.1768C142.625 96.5214 140.942 96.9479 139.624 98.0031C138.386 98.9944 137.544 100.673 138.004 102.27C138.459 103.848 140.116 104.66 141.668 104.636C143.552 104.607 145.324 103.588 146.801 102.501C146.539 105.01 147.178 108.958 150.431 109.063C151.714 109.104 152.875 108.271 153.541 107.221C154.371 105.915 154.421 104.276 154.211 102.787C156.211 104.155 159.57 105.327 161.353 102.944C163.061 100.659 161.019 97.8967 158.947 96.8107C162.23 96.3728 165.263 94.5092 167.311 91.9317C169.291 89.4382 170.787 85.7675 169.758 82.5871ZM174.006 55.577C173.738 55.0021 171.132 56.8476 170.715 57.0751C170.097 57.4126 169.46 57.7133 168.81 57.9864C168.548 58.0967 167.214 58.3926 167.567 58.8699C167.846 59.2484 169.073 58.9916 169.471 58.922C170.158 58.8019 170.825 58.578 171.451 58.271C172.068 57.9678 172.647 57.5902 173.129 57.0967C173.39 56.8307 174.202 55.9992 174.006 55.577ZM164.544 62.5093C161.871 62.8354 159.002 63.3485 156.836 65.0712C156.369 65.4429 155.942 65.8675 155.59 66.3506C155.487 66.4913 155.239 66.7246 155.365 66.9073C155.533 67.1507 156.046 66.6344 156.195 66.5387C157.306 65.8219 158.565 65.3681 159.849 65.0757C162.733 64.4194 165.735 64.4981 168.597 63.7297C169.819 63.4015 171.019 62.9278 172.064 62.2038C172.54 61.8742 172.983 61.4968 173.367 61.0622C173.509 60.901 174.401 59.8972 173.705 60.0025C173.423 60.0455 172.983 60.4718 172.718 60.6154C172.386 60.795 172.044 60.955 171.694 61.098C171.002 61.3817 170.282 61.5929 169.554 61.7609C167.908 62.1407 166.219 62.3092 164.544 62.5093ZM154.523 70.5134C152.342 72.2061 150.121 74.086 147.336 74.6405C147.09 74.6895 145.713 74.6731 145.888 75.1059C146.056 75.5213 147.557 75.4845 147.93 75.4798C149.382 75.4613 150.806 74.9992 152.095 74.3547C154.582 73.1119 156.59 71.1314 158.93 69.6593C160.045 68.9578 161.259 68.3698 162.548 68.0727C162.882 67.9957 163.22 67.9385 163.562 67.9027C163.724 67.8858 164.2 67.9397 164.303 67.7723C164.6 67.2897 162.968 67.1394 162.692 67.1184C159.592 66.8835 156.862 68.7096 154.523 70.5134ZM141.47 80.7416C144.739 82.1966 148.955 81.8351 152.099 80.2124C155.386 78.5158 157.695 75.4393 160.922 73.6414C161.698 73.209 162.498 72.8164 163.328 72.4964C163.663 72.3674 165.386 72.0613 165.261 71.6344C165.191 71.3989 164.469 71.2858 164.28 71.2483C163.836 71.1597 163.378 71.1367 162.926 71.164C162.024 71.2182 161.139 71.4636 160.321 71.8441C157.175 73.3076 155.069 76.2088 152.386 78.2971C150.774 79.551 148.756 80.2523 146.756 80.5689C145.703 80.7356 144.628 80.7893 143.566 80.6935C143.074 80.6491 142.584 80.5747 142.102 80.4652C142.103 80.4654 141.607 80.3438 141.614 80.3418C141.462 80.383 141.141 80.5948 141.47 80.7416ZM64.4084 94.1517C62.7526 93.5317 60.7848 94.1248 60.077 95.825C59.4486 97.3349 60.1716 99.0618 61.7925 99.502C62.4617 99.6838 63.6796 99.6437 64.0617 98.9276C64.2161 98.6381 64.146 98.2703 63.8985 98.0559C63.532 97.7383 63.2394 97.9575 62.8751 98.0995C62.1964 98.3641 61.3786 97.8926 61.2736 97.174C61.1569 96.3768 61.7362 95.6227 62.4794 95.3984C64.0262 94.9314 65.6527 96.3638 65.8704 97.8409C66.112 99.4795 65.1311 101.097 63.6634 101.794C62.9766 102.12 62.1959 102.263 61.4393 102.173C60.8796 102.107 59.6365 101.678 59.774 102.772C59.8777 103.597 61.2564 103.616 61.869 103.617C62.7675 103.617 63.6657 103.392 64.4625 102.979C67.9681 101.159 68.4539 95.6668 64.4084 94.1517ZM144.234 112.786C142.583 112.786 141.2 114.169 141.2 115.82C141.2 117.471 142.583 118.854 144.234 118.854C145.885 118.854 147.268 117.471 147.268 115.82C147.268 114.169 145.885 112.786 144.234 112.786ZM151.747 91.2872C150.001 90.6331 147.922 91.1856 147.055 92.9188C146.309 94.4109 146.768 96.258 148.318 97.0072C149.151 97.4094 150.382 97.4799 151.129 96.8388C151.88 96.1953 151.158 95.1752 150.286 95.5208C149.846 95.6951 149.555 95.8282 149.069 95.6209C148.659 95.4466 148.354 95.1003 148.282 94.6566C148.144 93.8125 148.727 92.9904 149.5 92.7076C151.249 92.0684 153.138 93.7227 153.368 95.406C153.613 97.1979 152.549 98.9518 150.952 99.7278C150.167 100.109 149.266 100.271 148.399 100.155C148.022 100.104 147.595 99.8738 147.216 99.9656C146.797 100.067 146.539 100.492 146.64 100.909C146.853 101.791 148.437 101.778 149.146 101.755C150.126 101.723 151.102 101.447 151.959 100.971C155.725 98.8815 156.139 92.9339 151.747 91.2872Z"/>
</mask>
<path d="M99.9595 106.224C99.8717 108.177 97.582 109.079 96.0365 108.104C95.8208 107.967 95.0746 107.44 95.1046 107.156C95.1099 107.105 95.5281 106.787 95.5721 106.745C95.7759 106.554 95.9711 106.353 96.1572 106.145C96.7877 105.437 97.3068 104.637 97.7053 103.777C98.2794 104.116 98.8549 104.086 99.3298 104.605C99.7258 105.039 99.9862 105.63 99.9595 106.224ZM89.488 109.211C89.1359 109.211 88.7845 109.183 88.4357 109.137C88.0111 109.081 88.0126 109.211 87.9413 109.626C87.8265 110.295 87.939 110.997 88.2563 111.598C88.7933 112.614 89.8863 113.206 91.0349 113.075C93.2226 112.826 94.1269 110.078 93.4716 108.23C92.2436 108.861 90.8704 109.211 89.488 109.211ZM97.9934 96.7557C98.6397 98.4317 98.7429 100.284 98.3183 102.027C98.8828 102.102 99.3525 102.359 99.9329 102.303C100.452 102.254 100.961 102.073 101.392 101.778C102.258 101.184 102.666 100.161 102.553 99.1289C102.442 98.1298 101.866 97.2451 100.956 96.8026C100.478 96.5698 99.9387 96.4546 99.4077 96.4467C99.2504 96.4444 97.9275 96.5848 97.9934 96.7557ZM81.4007 96.7114C81.6431 96.1375 81.9467 95.5898 82.3007 95.0773C80.4895 94.4053 78.5061 95.4322 78.0959 97.3268C77.7203 99.0616 78.8774 100.946 80.7312 101.055C80.5924 99.5789 80.8242 98.0771 81.4007 96.7114ZM81.1882 103.141C79.1852 104.281 78.9215 107.204 80.3662 108.867C81.9175 110.654 84.8716 110.531 86.2038 108.543C83.8502 107.548 82.0147 105.556 81.1882 103.141ZM93.2347 91.9043C94.7055 92.5253 95.9989 93.537 96.9367 94.8308C97.8756 93.4084 97.7547 91.1235 96.1156 90.2575C94.6816 89.4998 92.4608 90.0602 91.5196 91.3715C92.1069 91.4921 92.6821 91.6711 93.2347 91.9043ZM138.654 140.885C137.851 146.325 136.929 152.047 138.61 157.415C139.159 156.226 139.595 154.734 139.744 153.435C139.982 154.527 139.823 155.558 139.834 156.657C139.842 157.313 139.9 158.582 140.875 158.263C142.072 157.871 142.603 156.367 142.853 155.267C143.14 153.998 143.23 152.595 142.983 151.311C143.893 153.655 144.858 156.241 144.05 158.758C143.72 159.787 143.097 160.699 142.174 161.279C141.43 161.746 140.249 162.193 139.452 161.597C139.783 165.448 138.893 169.297 138.763 173.141C138.695 175.154 138.714 177.168 138.698 179.181C138.683 181.077 138.434 183.048 138.655 184.934C138.739 185.649 138.92 186.373 139.333 186.975C139.856 187.739 140.65 188.258 141.084 189.096C141.687 190.262 141.136 191.908 142.412 192.621C143.51 193.234 144.897 193.435 146.137 193.48C147.182 193.517 149.009 193.495 149.605 192.416C150.331 191.101 148.707 189.168 148.097 188.112C147.166 186.497 146.464 184.703 145.809 182.961C144.52 179.534 143.671 175.903 143.78 172.223C143.939 166.815 145.625 161.576 147.069 156.403C148.031 152.959 148.974 149.509 149.956 146.071C147.912 146.057 145.744 146.355 143.95 145.136C142.258 143.987 141.805 141.833 141.504 139.938C141.369 139.09 141.273 138.236 141.098 137.394C141.066 137.24 141.031 137.087 140.997 136.933C140.953 136.743 140.836 135.667 140.669 135.554C140.576 135.49 140.153 135.607 140.014 135.62C139.866 135.634 139.718 135.648 139.57 135.662C139.348 135.608 139.265 135.695 139.321 135.924C139.152 136.323 139.204 136.943 139.148 137.381C138.999 138.551 138.826 139.718 138.654 140.885ZM86.3223 91.857C87.2306 91.4882 88.1991 91.2739 89.1772 91.214C88.7515 89.4557 86.93 88.437 85.2305 89.0833C83.4787 89.7495 82.8077 91.8334 83.7743 93.4344C84.5301 92.7738 85.3918 92.235 86.3223 91.857ZM194.004 48.3474C193.211 49.1577 192.547 50.0926 192.042 51.1076C191.928 51.3367 191.822 51.5694 191.724 51.806C191.669 51.9411 191.616 52.0773 191.566 52.2147C191.43 52.3857 191.47 52.4922 191.686 52.5346C192.035 52.925 192.73 53.2134 193.157 53.539C193.79 51.8916 194.08 50.1107 194.004 48.3474ZM53.6209 189.446C54.2608 190.642 55.1005 191.864 55.2436 193.247C55.2681 193.484 55.126 194.023 55.2239 194.202C55.3062 194.352 55.65 194.401 55.8584 194.454C56.5026 194.617 57.1695 194.707 57.834 194.715C58.906 194.727 60.4955 194.55 60.9752 193.407C61.3982 192.399 60.9202 191.414 60.4737 190.536C59.2655 188.16 57.986 185.821 56.9052 183.382C55.7953 180.877 55.0542 178.294 54.7252 175.57C54.3554 172.508 54.4579 169.393 54.9532 166.351C55.453 163.28 56.8843 160.537 58.1535 157.731C59.3997 154.976 60.5698 152.196 61.9022 149.479C63.2578 146.715 64.6931 143.99 66.1812 141.295C69.4321 135.408 72.9369 129.667 76.4636 123.943C75.7695 123.881 75.0734 123.84 74.3767 123.823C73.8273 123.81 72.6252 123.623 72.2087 123.945C71.7857 124.273 71.4526 125.021 71.1522 125.467C70.7353 126.087 70.3286 126.713 69.9276 127.343C68.4589 129.65 67.0348 131.987 65.6004 134.315C62.7153 138.997 59.8991 143.728 57.4155 148.638C53.3363 156.703 49.9507 165.548 49.9698 174.706C49.9804 179.921 51.2664 184.805 53.6209 189.446ZM96.3205 98.7341C95.1142 97.1889 93.2074 96.0596 91.1988 96.2074C89.2144 96.3534 87.3293 97.7695 87.1895 99.8552C87.0601 101.787 88.8781 103.67 90.853 102.888C91.6647 102.566 92.3745 101.757 92.1762 100.833C92.0893 100.429 91.8249 100.032 91.3834 99.9961C90.8434 99.9527 90.8058 100.395 90.4385 100.644C89.6725 101.162 88.7422 100.366 89.0226 99.5295C89.3317 98.6068 90.4343 98.0886 91.3459 98.0922C93.4642 98.1008 94.5436 100.467 93.9067 102.287C93.2325 104.214 91.0242 105.272 89.0711 104.881C87.235 104.512 85.7807 102.966 85.396 101.154C84.9221 98.922 85.9951 96.6336 87.8679 95.3918C89.847 94.0794 92.3854 93.9971 94.527 94.9582C92.2103 92.825 88.6732 92.5026 85.9911 94.1389C83.8283 95.4584 82.5073 97.9128 82.589 100.444C82.7527 105.524 88.2995 108.952 92.8212 106.433C94.0383 105.755 95.0418 104.726 95.7178 103.511C96.1134 102.799 96.3989 102.027 96.5511 101.227C96.6356 100.783 96.6781 100.328 96.6752 99.8764C96.6744 99.727 96.6691 99.5771 96.6588 99.4279C96.6302 99.0136 96.5518 99.0303 96.3205 98.7341ZM43.1083 109.855C42.1356 103.235 43.6696 96.3531 47.4226 90.8057C45.0976 93.7558 43.185 97.062 42.039 100.65C40.8248 104.452 40.6615 108.32 41.364 112.235C42.0507 116.064 43.3217 119.867 43.0847 123.802C42.9722 125.669 42.5416 127.527 41.7283 129.216C41.0343 130.657 40.0562 132.409 38.305 132.652C36.311 132.929 35.444 131.119 35.4798 129.42C35.5187 127.574 35.9598 125.701 36.7025 124.015C36.8059 123.78 37.0286 123.034 37.2642 122.92C37.6779 122.72 37.6489 123.089 37.582 123.399C37.3558 124.448 37.0705 125.453 36.9631 126.528C36.8825 127.336 36.4391 131.51 38.1595 130.814C39.2066 130.39 39.678 128.741 40.0375 127.741C40.6928 125.918 40.8475 123.951 40.7024 122.03C40.4077 118.129 39.1013 114.383 38.7346 110.491C37.9412 102.067 42.1264 94.0042 48.3859 88.5746C44.6789 88.7238 41.3414 91.0428 39.3717 94.0976C37.2879 97.3293 36.5483 101.227 36.3157 105.009C36.0282 109.685 36.3458 114.359 35.6581 119.012C34.9713 123.658 33.6777 128.18 32.5797 132.738C30.6591 140.711 29.6032 149.041 32.9412 156.801C33.2976 157.629 33.6961 158.439 34.1313 159.229C34.2995 159.534 34.5011 160.036 34.9456 159.882C35.4732 159.7 35.1945 158.909 35.1539 158.526C34.9266 156.376 35.0441 154.188 35.5986 152.095C36.1846 149.882 37.3392 148.102 38.4385 146.132C38.9931 145.137 39.4381 144.083 39.9292 143.057C40.4426 141.984 41.0177 140.943 41.5507 139.879C43.6133 135.765 45.1917 131.501 45.7799 126.918C45.9316 125.736 46.041 124.548 46.1106 123.358C46.1429 122.805 46.1664 122.252 46.1818 121.699C46.1982 121.106 45.9585 120.538 45.784 119.973C45.0968 117.749 44.3698 115.535 43.8018 113.276C43.5178 112.147 43.2753 111.007 43.1083 109.855ZM123.404 82.7862C122.965 82.7193 122.533 82.5823 122.151 82.353C123.562 83.2004 125.556 81.5671 126.597 80.7551C127.276 80.2255 127.908 79.6153 128.702 79.2584C129.703 78.8089 130.792 78.7996 131.866 78.8747C133.857 79.0138 136.06 79.3157 137.96 78.5214C138.396 78.3392 138.806 78.0928 139.161 77.7807C139.324 77.6373 139.475 77.4803 139.614 77.3133C139.696 77.2149 139.788 77.1155 139.85 77.0026C139.976 76.7707 140.018 76.8346 139.886 76.653C139.655 76.3328 138.916 76.155 138.553 76.0256C138.081 75.8569 137.596 75.7221 137.107 75.6102C135.593 75.2636 132.715 74.6922 131.515 76.0763C133.515 73.7694 136.827 73.6575 139.648 73.5036C143.138 73.3131 146.456 71.7585 148.261 68.643C145.797 70.2432 142.411 69.8062 140.177 68.002C142.81 67.9072 145.368 67.3676 147.885 66.6112C148.906 66.3042 149.947 65.9888 150.855 65.4173C151.385 65.0838 152.26 64.2978 152.943 64.4344C151.095 64.101 149.162 64.2511 147.388 64.8655C150.109 59.9875 157.359 62.951 160.702 58.8693C158.041 59.3269 155.413 59.3128 153.216 57.5346C156.152 57.5516 159.126 57.1008 161.911 56.1654C164.476 55.3041 166.75 53.7759 169.289 52.8478C166.942 52.3061 163.831 54.1671 161.807 52.3338C164.188 52.9216 166.443 51.2998 168.62 50.6155C169.751 50.2603 170.928 50.0573 172.111 50.0045C172.743 49.9763 173.376 49.9909 174.006 50.0477C174.463 50.0892 175.341 50.4099 175.752 50.2537C174.654 49.7666 173.667 49.016 172.928 48.0669C174.893 49.0102 177.142 48.4307 179.173 48.0637C180.19 47.88 181.232 47.7428 182.267 47.8263C182.765 47.8665 183.261 47.9553 183.733 48.1237C184.234 48.3023 184.61 48.6028 185.136 48.6668C184.313 50.2164 183.506 51.798 182.992 53.4815C182.75 54.271 182.573 55.0878 182.539 55.9145C182.528 56.1814 182.428 56.7993 182.692 56.9507C182.994 57.1247 183.155 56.7719 183.261 56.5695C184.093 54.988 184.44 53.1854 185.176 51.5597C185.923 49.9106 186.877 48.3898 188.01 46.98C188.198 49.8277 189.058 52.7976 188.295 55.6271C188.214 55.9268 188.114 56.2227 187.992 56.5082C187.88 56.7708 187.628 57.0822 187.615 57.373C187.583 58.0778 188.361 58.0694 188.695 57.6315C189.506 56.569 189.816 55.048 189.96 53.7525C195.033 56.5315 197.761 62.004 200.822 66.6505C202.409 69.0608 204.172 71.3781 206.392 73.2441C208.57 75.0753 210.768 76.8243 212.033 79.4497C212.517 80.4541 212.932 81.5459 213.013 82.6666C213.131 84.3133 212.62 85.886 211.89 87.339C211.263 86.9566 210.701 86.5906 210.268 85.9778C209.85 85.3863 209.352 84.3345 209.736 83.6135C209.869 83.363 210.135 83.1297 210.434 83.183C210.743 83.2382 210.742 83.5016 210.887 83.6897C211.132 84.0096 211.326 83.9031 211.431 83.5159C211.537 83.1249 211.344 82.6946 211.069 82.4222C210.506 81.8645 209.625 81.9341 209.023 82.3966C208.298 82.9524 208.087 83.9061 208.205 84.7749C208.43 86.443 209.687 87.931 211.304 88.4075C210.989 88.9322 210.369 90.1755 209.661 90.0882C208.908 89.9954 208.105 89.3244 207.568 88.8334C206.279 87.6566 205.339 86.1497 203.98 85.0408C203.79 84.8857 202.244 83.675 202.334 84.5199C202.362 84.7852 202.857 85.1439 203.023 85.343C203.319 85.6986 203.597 86.0682 203.869 86.4427C204.9 87.866 205.834 89.434 207.297 90.4654C206.724 90.475 206.229 90.4825 205.719 90.2131C205.18 89.9284 204.657 89.6141 204.13 89.3086C203.4 88.8853 202.655 88.5026 201.9 88.1268C199.978 87.1695 198.189 86.0197 196.161 85.2821C192.016 83.7747 186.965 83.6552 183.549 80.5693C181.987 79.158 180.992 77.0641 181.095 74.9376C181.116 74.5078 181.327 74.0242 181.308 73.6118C181.273 72.8664 180.675 73.4768 180.486 73.7834C179.923 74.6985 179.717 75.795 179.79 76.8593C179.866 77.97 180.231 79.0503 180.809 79.9993C181.056 80.4036 181.339 80.7851 181.651 81.1405C181.767 81.2721 182.109 81.5169 182.171 81.6788C182.26 81.9076 182.031 82.3049 181.924 82.5742C181.026 84.8546 180.08 87.1162 179.089 89.3578C177.994 91.8356 176.844 94.2888 175.642 96.7166C175.531 96.9406 175.374 97.4845 175.189 97.626C175.005 97.7658 174.812 97.6157 174.67 97.3773C174.439 96.9893 174.539 96.4687 174.605 96.0504C174.823 94.6608 175.094 93.277 175.371 91.8981C174.665 93.0247 174.016 94.2237 173.235 95.2987C172.848 95.8308 172.106 96.2064 171.899 95.356C171.762 94.7923 171.879 94.1533 171.957 93.5887C172.121 92.3961 172.477 91.2539 173.115 90.2262C172.059 91.9285 170.47 93.2532 169.64 95.1088C169.277 95.9205 169.082 96.8604 169.456 97.7052C169.98 98.8878 171.523 99.2313 172.474 98.3305C172.139 99.2775 172.554 100.482 173.552 100.814C172.013 103.738 170.401 106.624 168.708 109.461C167.942 110.745 167.084 111.99 166.418 113.33C165.769 114.637 165.54 115.958 165.296 117.382C164.801 120.268 163.829 123.025 162.321 125.54C161.58 126.774 160.725 127.941 159.769 129.017C159.341 129.497 158.893 129.96 158.426 130.403C158.167 130.648 157.902 130.887 157.632 131.12C157.571 131.173 157.36 131.391 157.305 131.396C157.203 131.404 156.867 130.964 156.769 130.865C154.91 128.972 152.811 126.148 154.693 123.546C155.422 122.538 157.154 122.297 157.525 123.77C157.653 124.278 157.514 124.805 157.221 125.226C157.077 125.433 156.881 125.561 156.965 125.858C157.042 126.133 157.333 126.274 157.6 126.198C158.077 126.061 158.467 125.375 158.639 124.953C158.878 124.369 158.92 123.711 158.746 123.103C158.393 121.863 157.155 120.999 155.878 121C153.176 121.001 151.666 124.259 151.827 126.592C151.943 128.273 152.792 129.789 153.791 131.107C154.062 131.465 154.348 131.81 154.648 132.145C154.923 132.453 155.366 132.77 155.424 133.174C155.493 133.656 155.326 134.504 154.9 134.814C154.226 135.304 153.469 134.2 153.133 133.748C152.524 132.932 152.042 132.116 151.253 131.45C151.807 132.373 152.112 133.398 152.474 134.404C152.646 134.882 153.074 135.665 152.665 136.13C151.964 136.928 151.067 135.64 150.702 135.148C149.942 134.119 149.195 133.079 148.464 132.029C148.785 133.303 149.185 134.583 149.43 135.873C149.57 136.606 149.291 137.396 148.488 136.882C147.986 136.56 147.603 136.026 147.241 135.562C146.529 134.648 145.985 133.627 145.696 132.501C145.839 134.454 145.876 136.533 146.683 138.352C147.043 139.163 147.602 139.926 148.446 140.273C149.683 140.781 151.094 139.955 151.102 138.573C151.533 139.428 152.606 139.962 153.522 139.57C154.347 139.218 154.754 138.253 154.658 137.394C156.211 139.12 157.814 137.172 158.142 135.534C160.199 137.353 162.438 138.96 164.76 140.423C166.953 141.806 169.336 142.668 171.684 143.736C173.767 144.683 176.251 146.058 176.667 148.536C176.952 150.237 176.483 152.002 176.225 153.685C175.434 158.842 175.453 164.233 173.439 169.127C171.676 173.412 167.595 175.917 163.332 177.263C162.21 177.618 161.061 177.892 159.899 178.081C159.363 178.168 158.598 178.383 158.105 178.095C157.261 177.6 157.789 175.917 158.033 175.222C158.41 174.146 159.01 172.979 159.92 172.257C160.882 171.493 162.189 171.151 163.403 171.218C163.902 171.246 164.347 171.413 164.83 171.494C165.329 171.577 165.744 171.286 166.07 170.933C166.457 170.512 166.652 169.843 166.88 169.326C167.147 168.72 167.398 168.108 167.634 167.489C168.122 166.213 168.546 164.911 168.907 163.593C169.61 161.017 170.205 158.269 170.218 155.588C170.23 153.098 169.282 150.626 166.992 149.403C164.776 148.219 162.212 148.603 159.896 147.821C157.453 146.995 155.537 145.093 153.117 144.196C151.936 143.757 150.713 143.62 149.459 143.651C148.34 143.679 147.179 143.828 146.087 143.509C144.166 142.95 143.989 140.673 143.65 138.986C143.294 137.217 142.803 135.53 142.204 133.826C141.762 132.568 141.29 131.321 140.835 130.068C140.671 129.615 140.563 128.828 139.939 128.838C139.358 128.848 139.312 129.372 139.373 129.81C139.555 131.117 139.899 132.417 140.213 133.698C132.092 134.529 123.775 134.314 115.7 133.145C111.498 132.536 107.37 131.597 103.352 130.223C98.708 128.635 94.1884 126.71 89.5523 125.102C84.4662 123.337 79.1731 121.935 73.7545 121.918C75.6108 119.631 77.8243 117.336 80.5172 116.042C81.7568 115.446 84.1723 114.986 84.1923 117.061C84.1991 117.77 83.7778 118.328 83.1121 118.56C82.7915 118.672 82.4399 118.701 82.1052 118.642C81.7901 118.587 81.5455 118.343 81.2498 118.287C80.958 118.232 80.6616 118.426 80.6653 118.746C80.6689 119.061 81.0114 119.274 81.2493 119.425C81.8863 119.828 82.6755 119.953 83.4124 119.816C84.9379 119.532 85.9301 118.146 85.8344 116.616C85.7345 115.019 84.5374 113.792 82.9739 113.559C81.3845 113.323 79.8708 113.928 78.5035 114.677C72.5931 117.917 69.0578 124.233 65.6376 129.774C61.7536 136.066 57.8264 142.339 54.5716 148.989C49.4128 159.529 45.5206 171.789 48.674 183.516C49.1399 185.249 49.7468 186.936 50.4796 188.573C50.855 189.411 51.2721 190.22 51.702 191.031C52.0802 191.745 52.5912 192.458 52.7711 193.255C53.1421 194.899 50.867 195.179 49.7204 195.288C48.1574 195.436 46.2145 195.596 44.8009 194.766C42.0956 193.177 44.5754 189.899 44.1832 187.601C43.9556 186.266 42.6253 185.462 42.1515 184.271C41.578 182.831 41.9909 180.938 42.142 179.451C42.3436 177.467 42.5546 175.484 42.817 173.507C43.3069 169.816 44.2563 166.152 44.3143 162.417C44.3426 160.589 44.1627 158.751 43.6759 156.985C43.2511 155.445 42.5685 154.039 42.7979 152.395C43.2705 149.01 46.0301 146.374 47.4957 143.403C48.2563 141.86 48.8301 140.218 49.2724 138.558C50.2351 139.528 51.7464 138.944 52.3069 137.839C52.6963 140.38 55.5188 139.201 56.5677 137.816C58.675 135.033 57.0949 131.38 55.7897 128.641C56.132 129.903 56.1462 131.309 55.9542 132.596C55.7885 133.706 55.3702 135.257 54.2053 135.73C53.2564 136.116 53.1042 134.865 53.048 134.207C52.9542 133.111 53.0374 132.072 52.7183 131C52.6802 131.956 52.4424 132.887 52.2052 133.809C52.0726 134.324 52.0324 135.03 51.6755 135.449C51.257 135.94 50.635 135.643 50.4142 135.121C50.0803 134.332 50.2105 133.258 50.2564 132.432C50.4889 128.249 49.6755 124.217 48.4702 120.231C47.2974 116.353 45.8589 112.502 45.4213 108.449C44.9791 104.353 45.5996 100.155 47.1885 96.3541C50.1585 89.2493 56.517 83.8821 63.9949 82.074C68.0523 81.0928 72.27 81.1021 76.4056 81.4711C80.6393 81.8488 84.8572 82.5226 89.0406 83.2642C93.6733 84.0853 98.2893 85.019 102.955 85.6398C105.315 85.9539 107.687 86.1893 110.067 86.2798C111.252 86.3249 112.438 86.3343 113.622 86.3013C113.706 86.2988 113.79 86.2964 113.874 86.2937C114.11 86.2019 114.198 86.2727 114.139 86.5063C114.276 86.7624 114.263 87.0671 114.442 87.3282C114.689 87.6878 115.071 87.9437 115.488 88.0627C114.578 88.2426 113.783 89.0906 113.867 90.0509C113.948 90.975 114.793 91.6626 115.669 91.8044C113.085 93.0876 115.779 95.6328 117.527 96.0101C120.695 96.6942 123.366 94.3193 125.49 92.3268C124.384 93.0413 123.036 93.4853 121.743 93.6902C120.654 93.8629 118.943 93.9432 118.203 92.9125C117.627 92.1105 118.862 91.6051 119.442 91.3709C120.432 90.9704 121.411 90.7292 122.309 90.1176C121.237 90.413 120.13 90.4258 119.03 90.5115C118.525 90.5507 117.663 90.722 117.387 90.1531C116.951 89.2544 118.322 88.8149 118.894 88.5959C120.089 88.1389 121.291 87.6989 122.498 87.2757C121.215 87.2441 119.922 87.2563 118.641 87.1796C118.258 87.1567 117.509 87.0759 117.483 86.5472C117.452 85.9176 118.269 85.9711 118.678 85.9189C121.228 85.594 123.755 85.0753 126.228 84.3736C127.459 84.0244 128.677 83.6281 129.878 83.1859C130.806 82.8437 132.172 82.5417 132.885 81.8107C133.83 80.8406 131.049 80.8801 130.629 80.9205C128.114 81.1626 126.036 83.1882 123.404 82.7862ZM172.061 146.535C172.809 147.23 173.214 148.331 173.578 149.262C173.807 149.848 174.015 150.447 174.188 151.052C174.224 151.179 174.251 151.608 174.415 151.672C174.71 151.788 174.826 151.287 174.882 151.102C175.218 149.981 174.979 148.659 174.415 147.652C174.127 147.137 173.721 146.66 173.189 146.389C172.958 146.271 172.703 146.182 172.44 146.183C172.302 146.183 171.774 146.264 172.061 146.535ZM194.994 67.3689C194.546 66.654 193.853 66.0214 193.096 65.6415C192.564 65.3743 192.598 65.6737 192.466 66.1039C192.347 66.4903 192.062 66.8099 191.642 66.8594C190.751 66.9645 190.329 66.0181 190.724 65.3168C190.968 64.8824 190.946 64.6612 190.385 64.6812C189.91 64.6981 189.416 64.798 188.958 64.914C188.624 64.9985 187.971 65.1165 187.712 65.3552C187.42 65.6235 187.621 65.8539 187.822 66.1236C188.359 66.843 189.072 67.4309 189.878 67.8262C190.783 68.2706 191.801 68.4561 192.806 68.3719C193.144 68.3433 195.394 68.0137 194.994 67.3689ZM184.298 59.3847C184.659 61.495 187.011 62.532 188.867 62.9151C190.754 63.3046 192.9 63.3304 194.423 64.6738C194.739 64.9526 195.007 65.2818 195.201 65.6563C195.344 65.9308 195.526 66.3861 195.92 66.1266C196.654 65.642 195.533 63.9048 195.162 63.4734C193.762 61.8492 191.619 61.4599 189.612 61.1277C188.534 60.9492 187.444 60.7692 186.434 60.3357C185.933 60.1208 185.457 59.8417 185.048 59.4798C184.943 59.3872 184.187 58.7387 184.298 59.3847ZM113.097 102.282C111.388 103.037 110.153 104.461 110.258 106.42C110.349 108.13 111.459 109.765 113.197 110.126C114.86 110.472 116.752 109.509 117.355 107.899C117.447 107.654 117.68 107.003 117.495 106.76C117.262 106.456 117.086 106.797 116.969 106.97C116.54 107.602 116.003 108.085 115.262 108.315C114.42 108.576 113.48 108.487 112.862 107.808C112.322 107.214 112.091 106.271 112.335 105.501C112.768 104.137 114.491 103.705 115.73 103.58C117.691 103.381 119.652 103.687 121.609 103.788C122.64 103.84 123.673 103.808 124.699 103.697C125.123 103.652 125.545 103.594 125.966 103.525C126.283 103.473 127.035 103.268 126.431 102.965C126.276 102.888 125.855 102.947 125.679 102.939C125.346 102.925 125.014 102.908 124.682 102.886C124.106 102.849 123.529 102.802 122.956 102.732C121.893 102.602 120.845 102.377 119.792 102.185C117.607 101.786 115.23 101.482 113.097 102.282ZM57.2836 115.282C58.201 115.564 60.0417 115.728 60.1506 114.344C60.2652 112.888 58.3756 112.823 57.3993 112.958C58.0797 112.366 58.8258 111.187 57.9952 110.38C57.1493 109.558 56.0316 110.499 55.5559 111.235C55.3251 110.353 54.364 109.103 53.3408 109.849C52.3369 110.581 53.019 112.036 53.5636 112.816C52.6507 112.449 50.8204 112.069 50.5778 113.496C50.349 114.843 52.1268 115.149 53.0791 115.109C52.5145 115.784 51.9267 117.085 52.9022 117.709C53.8234 118.298 54.7595 117.392 55.1379 116.61C55.4613 117.421 56.3726 118.566 57.3653 117.921C58.3281 117.296 57.8329 115.991 57.2836 115.282ZM65.1931 122.657C64.7156 122.405 64.154 122.458 63.6389 122.529C64.1603 122.076 64.7284 121.191 64.1286 120.555C63.4795 119.867 62.581 120.614 62.2075 121.192C62.0244 120.491 61.233 119.499 60.444 120.15C59.7264 120.742 60.2437 121.823 60.6604 122.419C59.9592 122.137 58.6725 121.838 58.3645 122.843C58.0272 123.942 59.5429 124.231 60.2843 124.199C59.8553 124.712 59.4087 125.662 60.089 126.182C60.7974 126.723 61.5862 125.978 61.8828 125.365C62.1379 126.007 62.8767 126.908 63.6442 126.361C64.3556 125.854 63.97 124.878 63.5491 124.334C64.1536 124.52 64.9781 124.659 65.4874 124.175C65.9885 123.698 65.7662 122.96 65.1931 122.657ZM70.5494 110.601C70.5223 109.981 68.8207 110.694 68.5475 110.824C67.8264 111.164 67.1833 111.663 66.6501 112.254C66.1156 112.847 65.6858 113.538 65.4135 114.289C65.1946 114.893 64.8197 116.123 65.1462 116.744C65.4898 117.399 65.9952 116.187 66.1438 115.94C66.5548 115.258 66.9909 114.591 67.4721 113.956C67.989 113.273 68.5566 112.633 69.1617 112.027C69.4198 111.769 69.6874 111.52 69.9553 111.272C70.1182 111.122 70.561 110.864 70.5494 110.601ZM74.356 92.4557C73.7414 91.1 72.1065 90.5264 70.708 90.7033C68.9433 90.9267 67.4976 92.1113 66.2159 93.2551C66.8358 90.9517 66.6948 87.2194 63.6521 86.7523C60.6539 86.2921 59.626 89.916 59.6646 92.1933C58.6137 91.2663 57.307 90.4742 55.8614 90.4941C54.6019 90.5113 53.2962 91.1414 52.8271 92.3717C51.6528 95.4524 55.2764 97.66 57.6269 98.571C55.1 99.1088 51.0615 100.635 51.9732 104.025C52.3573 105.454 53.8234 106.214 55.225 106.218C56.951 106.224 58.5885 105.28 59.9389 104.287C59.7011 106.553 60.279 110.137 63.227 110.218C66.166 110.298 66.9556 106.817 66.6359 104.546C68.5412 105.849 72.3317 106.996 73.4455 104.038C74.4878 101.269 71.6191 99.2469 69.3804 98.5003C70.7915 98.0735 72.2526 97.4578 73.3216 96.412C74.341 95.4153 74.9814 93.8357 74.356 92.4557ZM75.378 85.7939C76.504 85.7794 77.6287 85.8469 78.7462 85.9824C79.3294 86.0531 79.9108 86.1713 80.4948 86.2278C80.8223 86.2594 81.218 86.2531 80.9814 85.7942C80.8094 85.4603 80.1545 85.1553 79.8405 84.978C79.4313 84.7469 79.0003 84.5565 78.5568 84.4016C77.5284 84.0424 76.4338 83.8791 75.3457 83.9001C74.2942 83.9205 73.2424 84.1095 72.2566 84.4785C71.8171 84.643 71.3893 84.8415 70.9845 85.0796C70.6338 85.2859 69.9883 85.6121 69.7778 85.9852C69.3066 86.8204 71.6744 86.1444 72.0162 86.0911C73.1291 85.9175 74.2517 85.8111 75.378 85.7939ZM98.1049 110.392C101.061 109.961 102.831 106.53 101.205 103.953C103.507 103.194 104.828 100.888 104.373 98.5182C103.896 96.0283 101.645 94.4797 99.1623 94.5584C99.8716 92.3929 99.1457 89.7667 97.0825 88.629C95.0476 87.507 92.2484 88.037 90.5753 89.587C89.4472 87.478 86.9984 86.4809 84.7303 87.252C82.3418 88.064 80.9874 90.5274 81.5651 92.9881C79.1104 92.802 76.891 94.3553 76.2866 96.7469C75.7076 99.0378 76.7853 101.54 78.966 102.541C77.1654 104.584 77.0697 107.71 78.7285 109.855C80.4678 112.103 83.6845 112.694 86.1116 111.192C86.6187 113.557 88.788 115.214 91.2139 114.963C93.71 114.704 95.3804 112.392 95.5726 110.006C96.358 110.368 97.2463 110.516 98.1049 110.392ZM118.637 116.044C121.733 115.884 124.809 115.328 127.767 114.403C127.993 114.333 129.495 114.023 129.002 113.595C128.839 113.453 128.265 113.661 128.064 113.698C127.64 113.775 127.215 113.847 126.789 113.914C125.264 114.153 123.728 114.325 122.187 114.422C119.05 114.619 115.879 114.507 112.77 114.032C109.876 113.59 106.848 112.633 103.929 113.406C101.372 114.084 99.0301 116.181 99.218 119.016C99.4002 121.767 101.854 124.03 104.657 123.508C105.881 123.28 107.042 122.564 107.668 121.465C107.834 121.173 108.107 120.435 107.5 120.708C107.309 120.795 107.085 121.114 106.9 121.249C106.639 121.44 106.353 121.598 106.054 121.72C103.832 122.624 101.321 121.205 101.391 118.683C101.484 115.373 105.883 115.057 108.279 115.33C109.968 115.522 111.635 115.844 113.331 115.98C115.095 116.121 116.871 116.152 118.637 116.044ZM131.209 129.281C129.968 129.693 128.565 129.787 127.27 129.667C126.152 129.564 124.58 129.233 124.042 128.096C123.604 127.171 124.844 126.949 125.498 126.856C126.587 126.7 127.629 126.725 128.681 126.347C127.57 126.365 126.494 126.1 125.408 125.908C124.909 125.82 124.032 125.77 123.907 125.15C123.709 124.171 125.146 124.088 125.756 124.019C127.027 123.876 128.301 123.75 129.576 123.642C128.32 123.285 127.037 122.977 125.798 122.565C125.22 122.373 124.482 121.787 125.232 121.302C125.73 120.98 126.423 120.919 126.996 120.835C128.189 120.66 129.386 120.683 130.553 121.01C128.847 119.957 126.826 118.972 124.79 118.881C123.86 118.84 122.838 119.038 122.176 119.744C121.354 120.621 121.553 122.042 122.591 122.651C121.731 122.601 120.811 123.135 120.566 123.988C120.287 124.955 120.96 125.937 121.831 126.319C119.257 126.863 120.707 129.695 122.184 130.633C125.09 132.48 128.566 130.728 131.209 129.281ZM135.281 97.6459C136.034 97.3284 136.318 96.4831 135.806 95.8209C135.223 95.0677 134.169 95.1351 133.326 95.2516C134.006 94.6596 134.752 93.4806 133.922 92.6738C133.076 91.852 131.958 92.7926 131.482 93.5287C131.252 92.6463 130.291 91.3964 129.267 92.1429C128.263 92.8752 128.945 94.3303 129.49 95.1095C128.577 94.7426 126.747 94.3627 126.504 95.7899C126.275 97.1369 128.053 97.4431 129.006 97.4023C128.441 98.078 127.853 99.3789 128.829 100.003C129.75 100.592 130.686 99.6852 131.064 98.9034C131.387 99.7147 132.299 100.859 133.292 100.215C134.254 99.5898 133.759 98.2851 133.21 97.5755C133.861 97.7759 134.629 97.9204 135.281 97.6459ZM152.556 112.103C152.325 111.613 151.799 111.324 151.264 111.347C151.241 111.348 150.942 111.424 150.903 111.409C150.827 111.381 150.707 111.178 150.625 111.118C150.373 110.934 150.079 110.879 149.773 110.922C149.245 110.997 148.709 111.324 148.279 111.623C148.153 111.71 147.71 112.185 147.56 112.193C147.421 112.2 146.895 111.675 146.743 111.584C146.547 111.467 146.026 111.341 145.906 111.189C145.756 110.999 145.877 110.507 145.881 110.197C145.888 109.681 145.887 109.043 145.651 108.572C145.546 108.364 145.402 108.188 145.197 108.072C145.049 107.989 144.728 108.015 144.623 107.932C144.436 107.784 144.371 107.38 144.14 107.195C143.913 107.014 143.626 106.906 143.335 106.901C142.792 106.893 142.301 107.24 142.094 107.737C141.989 107.989 142.012 108.155 141.841 108.318C141.653 108.497 141.452 108.537 141.311 108.783C141.035 109.263 141.157 109.92 141.269 110.43C141.335 110.729 141.432 111.018 141.54 111.303C141.656 111.61 141.668 111.503 141.491 111.733C141.378 111.879 141.136 111.99 140.997 112.112C140.788 112.293 140.594 112.491 140.419 112.705C140.252 112.908 140.271 112.985 140.052 112.982C139.916 112.981 139.731 112.84 139.599 112.788C139.082 112.586 138.486 112.386 137.924 112.373C137.298 112.358 137.183 112.658 136.792 113.022C136.593 113.207 136.777 113.082 136.551 113.17C136.417 113.223 136.258 113.22 136.119 113.278C135.846 113.392 135.622 113.581 135.47 113.835C135.189 114.306 135.249 114.896 135.587 115.32C135.752 115.526 136.106 115.605 136.24 115.781C136.348 115.923 136.299 116.276 136.431 116.467C136.743 116.919 137.348 117.029 137.855 117.102C138.109 117.138 138.365 117.153 138.621 117.153C138.794 117.152 138.966 117.143 139.138 117.132C139.492 117.11 139.464 117.09 139.578 117.421C139.685 117.729 139.821 118.026 139.985 118.308C140.053 118.423 140.168 118.551 140.219 118.669C140.373 119.026 140.318 118.74 140.178 119.015C139.91 119.542 139.366 119.966 139.078 120.513C138.845 120.954 138.67 121.455 138.942 121.924C138.995 122.016 139.097 122.089 139.146 122.177C139.299 122.453 139.207 122.201 139.224 122.462C139.244 122.769 139.162 123.019 139.291 123.33C139.5 123.83 140.004 124.156 140.546 124.133C140.811 124.123 141.065 124.029 141.281 123.878C141.368 123.818 141.53 123.587 141.61 123.565C141.719 123.534 141.956 123.646 142.085 123.638C143.195 123.566 143.614 121.931 143.832 121.064C143.932 120.665 143.944 120.754 144.347 120.747C144.677 120.741 145.008 120.699 145.33 120.625C145.335 120.624 145.71 120.495 145.747 120.51C145.824 120.542 145.963 120.924 146.016 121.015C146.178 121.295 146.357 121.566 146.555 121.822C146.834 122.183 147.18 122.629 147.609 122.811C147.871 122.922 148.133 122.951 148.408 122.859C148.477 122.836 148.697 122.685 148.735 122.686C148.811 122.689 149.118 122.909 149.213 122.938C149.789 123.113 150.434 122.894 150.748 122.371C150.914 122.092 150.965 121.762 150.91 121.445C150.885 121.296 150.796 121.163 150.769 121.021C150.727 120.803 150.747 120.871 150.813 120.63C151.02 119.88 150.711 119.405 150.171 118.873C149.958 118.662 149.724 118.474 149.479 118.301C149.336 118.2 148.774 117.956 148.733 117.825C148.682 117.661 149.066 116.787 149.098 116.577C149.12 116.438 149.086 116.212 149.149 116.094C149.254 115.894 149.469 115.92 149.728 115.861C150.29 115.731 150.878 115.547 151.379 115.254C151.646 115.099 151.894 114.904 152.018 114.613C152.133 114.344 151.965 114.036 152.039 113.816C152.109 113.604 152.49 113.395 152.59 113.128C152.714 112.798 152.707 112.424 152.556 112.103ZM161.573 111.359C161.139 111.13 160.626 111.177 160.159 111.242C160.631 110.831 161.153 110.022 160.604 109.447C160.011 108.824 159.198 109.497 158.857 110.025C158.695 109.406 158.053 108.551 157.326 109.029C156.575 109.523 157.06 110.583 157.45 111.142C156.804 110.882 155.554 110.608 155.35 111.593C155.149 112.559 156.424 112.79 157.107 112.761C156.7 113.248 156.293 114.182 157.01 114.611C157.657 114.997 158.299 114.364 158.561 113.821C158.789 114.393 159.392 115.162 160.094 114.767C160.824 114.357 160.47 113.391 160.077 112.883C160.626 113.052 161.378 113.179 161.84 112.739C162.292 112.309 162.095 111.634 161.573 111.359ZM169.758 82.5871C169.282 81.1892 168.244 79.9513 166.822 79.4623C165.429 78.983 163.764 79.3616 162.81 80.5161C161.888 81.6318 161.97 83.3066 163.057 84.2898C163.35 84.5542 164.41 85.2148 164.795 84.8024C165.129 84.4449 164.078 84.1367 163.883 83.9283C163.086 83.0739 163.265 81.7689 164.311 81.2293C165.736 80.4947 167.177 81.5092 167.769 82.8127C169.011 85.5508 167.335 89.1724 165.662 91.3642C164.66 92.6771 163.413 93.8125 162.014 94.6895C161.279 95.1504 160.499 95.5414 159.69 95.8549C159.281 96.0134 158.864 96.1521 158.441 96.2702C157.966 96.4029 157.706 96.2513 157.248 96.0984C158.953 95.5825 160.764 94.8092 161.949 93.4258C163.007 92.1897 163.473 90.2739 162.436 88.8777C161.527 87.6533 159.843 87.2449 158.4 87.5212C156.58 87.8698 155.091 89.0944 153.747 90.2951C154.428 87.7612 154.301 83.7773 151.041 83.1237C149.748 82.8644 148.471 83.548 147.687 84.5526C146.69 85.8305 146.472 87.5481 146.498 89.1204C145.34 88.0991 143.899 87.2227 142.306 87.2389C140.954 87.2527 139.544 87.9026 138.985 89.1945C137.501 92.6239 141.629 95.1633 144.244 96.1768C142.625 96.5214 140.942 96.9479 139.624 98.0031C138.386 98.9944 137.544 100.673 138.004 102.27C138.459 103.848 140.116 104.66 141.668 104.636C143.552 104.607 145.324 103.588 146.801 102.501C146.539 105.01 147.178 108.958 150.431 109.063C151.714 109.104 152.875 108.271 153.541 107.221C154.371 105.915 154.421 104.276 154.211 102.787C156.211 104.155 159.57 105.327 161.353 102.944C163.061 100.659 161.019 97.8967 158.947 96.8107C162.23 96.3728 165.263 94.5092 167.311 91.9317C169.291 89.4382 170.787 85.7675 169.758 82.5871ZM174.006 55.577C173.738 55.0021 171.132 56.8476 170.715 57.0751C170.097 57.4126 169.46 57.7133 168.81 57.9864C168.548 58.0967 167.214 58.3926 167.567 58.8699C167.846 59.2484 169.073 58.9916 169.471 58.922C170.158 58.8019 170.825 58.578 171.451 58.271C172.068 57.9678 172.647 57.5902 173.129 57.0967C173.39 56.8307 174.202 55.9992 174.006 55.577ZM164.544 62.5093C161.871 62.8354 159.002 63.3485 156.836 65.0712C156.369 65.4429 155.942 65.8675 155.59 66.3506C155.487 66.4913 155.239 66.7246 155.365 66.9073C155.533 67.1507 156.046 66.6344 156.195 66.5387C157.306 65.8219 158.565 65.3681 159.849 65.0757C162.733 64.4194 165.735 64.4981 168.597 63.7297C169.819 63.4015 171.019 62.9278 172.064 62.2038C172.54 61.8742 172.983 61.4968 173.367 61.0622C173.509 60.901 174.401 59.8972 173.705 60.0025C173.423 60.0455 172.983 60.4718 172.718 60.6154C172.386 60.795 172.044 60.955 171.694 61.098C171.002 61.3817 170.282 61.5929 169.554 61.7609C167.908 62.1407 166.219 62.3092 164.544 62.5093ZM154.523 70.5134C152.342 72.2061 150.121 74.086 147.336 74.6405C147.09 74.6895 145.713 74.6731 145.888 75.1059C146.056 75.5213 147.557 75.4845 147.93 75.4798C149.382 75.4613 150.806 74.9992 152.095 74.3547C154.582 73.1119 156.59 71.1314 158.93 69.6593C160.045 68.9578 161.259 68.3698 162.548 68.0727C162.882 67.9957 163.22 67.9385 163.562 67.9027C163.724 67.8858 164.2 67.9397 164.303 67.7723C164.6 67.2897 162.968 67.1394 162.692 67.1184C159.592 66.8835 156.862 68.7096 154.523 70.5134ZM141.47 80.7416C144.739 82.1966 148.955 81.8351 152.099 80.2124C155.386 78.5158 157.695 75.4393 160.922 73.6414C161.698 73.209 162.498 72.8164 163.328 72.4964C163.663 72.3674 165.386 72.0613 165.261 71.6344C165.191 71.3989 164.469 71.2858 164.28 71.2483C163.836 71.1597 163.378 71.1367 162.926 71.164C162.024 71.2182 161.139 71.4636 160.321 71.8441C157.175 73.3076 155.069 76.2088 152.386 78.2971C150.774 79.551 148.756 80.2523 146.756 80.5689C145.703 80.7356 144.628 80.7893 143.566 80.6935C143.074 80.6491 142.584 80.5747 142.102 80.4652C142.103 80.4654 141.607 80.3438 141.614 80.3418C141.462 80.383 141.141 80.5948 141.47 80.7416ZM64.4084 94.1517C62.7526 93.5317 60.7848 94.1248 60.077 95.825C59.4486 97.3349 60.1716 99.0618 61.7925 99.502C62.4617 99.6838 63.6796 99.6437 64.0617 98.9276C64.2161 98.6381 64.146 98.2703 63.8985 98.0559C63.532 97.7383 63.2394 97.9575 62.8751 98.0995C62.1964 98.3641 61.3786 97.8926 61.2736 97.174C61.1569 96.3768 61.7362 95.6227 62.4794 95.3984C64.0262 94.9314 65.6527 96.3638 65.8704 97.8409C66.112 99.4795 65.1311 101.097 63.6634 101.794C62.9766 102.12 62.1959 102.263 61.4393 102.173C60.8796 102.107 59.6365 101.678 59.774 102.772C59.8777 103.597 61.2564 103.616 61.869 103.617C62.7675 103.617 63.6657 103.392 64.4625 102.979C67.9681 101.159 68.4539 95.6668 64.4084 94.1517ZM144.234 112.786C142.583 112.786 141.2 114.169 141.2 115.82C141.2 117.471 142.583 118.854 144.234 118.854C145.885 118.854 147.268 117.471 147.268 115.82C147.268 114.169 145.885 112.786 144.234 112.786ZM151.747 91.2872C150.001 90.6331 147.922 91.1856 147.055 92.9188C146.309 94.4109 146.768 96.258 148.318 97.0072C149.151 97.4094 150.382 97.4799 151.129 96.8388C151.88 96.1953 151.158 95.1752 150.286 95.5208C149.846 95.6951 149.555 95.8282 149.069 95.6209C148.659 95.4466 148.354 95.1003 148.282 94.6566C148.144 93.8125 148.727 92.9904 149.5 92.7076C151.249 92.0684 153.138 93.7227 153.368 95.406C153.613 97.1979 152.549 98.9518 150.952 99.7278C150.167 100.109 149.266 100.271 148.399 100.155C148.022 100.104 147.595 99.8738 147.216 99.9656C146.797 100.067 146.539 100.492 146.64 100.909C146.853 101.791 148.437 101.778 149.146 101.755C150.126 101.723 151.102 101.447 151.959 100.971C155.725 98.8815 156.139 92.9339 151.747 91.2872Z" fill="#270303" stroke="black" stroke-width="1.62" mask="url(#path-1-inside-1_7_295)"/>
<circle cx="121.5" cy="121.5" r="120.69" stroke="black" stroke-width="1.62" stroke-linecap="square" stroke-dasharray="16.2 16.2"/>
</svg>
