<svg width="243" height="243" viewBox="0 0 243 243" fill="none" xmlns="http://www.w3.org/2000/svg">
<mask id="path-1-inside-1_7_288" fill="white">
<path d="M166.068 189.436C163.976 189.611 161.93 190.407 160.279 191.702C160.15 191.575 159.987 191.48 159.797 191.439C158.905 191.247 158.059 190.562 157.474 189.56C156.89 188.558 156.602 187.349 156.379 186.192C155.989 184.166 155.742 182.06 155.504 180.024C155.158 177.075 154.801 174.025 154 171.08C152.788 166.622 150.61 162.535 148.502 158.582L143.051 148.357C147.13 146.906 150.945 144.517 154.461 141.202C154.875 140.811 155.274 140.408 155.666 139.999C155.095 142.683 154.912 145.03 155.098 147.29C155.425 151.268 156.05 154.374 157.033 156.883C156.976 156.982 156.883 157.057 156.762 157.076C156.608 157.101 156.46 157.031 156.378 156.909C155.629 155.789 155.079 154.548 154.667 153.261C154.574 152.973 154.492 152.68 154.415 152.386C154.377 152.76 154.348 153.135 154.334 153.513C154.283 154.847 154.393 156.202 154.626 157.58L154.627 157.583C154.652 157.733 154.551 157.875 154.401 157.901C154.282 157.921 154.167 157.86 154.113 157.759C153.43 156.487 152.975 155.071 152.758 153.607C152.539 152.143 152.561 150.637 152.774 149.168C152.847 148.632 152.963 148.105 153.088 147.581C152.945 147.804 152.806 148.042 152.673 148.303C151.398 150.817 151.236 154.569 151.498 157.291C151.587 158.219 151.763 159.173 152.296 159.937C152.83 160.702 153.801 161.227 154.702 160.987C155.42 160.795 155.927 160.003 155.832 159.305C156.324 160.193 157.563 160.66 158.486 160.183C158.509 160.171 158.528 160.154 158.55 160.141C159.935 163.326 160.529 166.764 160.891 169.507C161.078 170.928 161.211 172.426 161.339 173.875C161.612 176.967 161.894 180.165 162.735 183.159C163.192 184.783 164.138 186.296 165.055 187.76C165.398 188.308 165.722 188.826 166.011 189.334L166.068 189.436ZM166.883 190.871C164.498 190.88 162.109 191.849 160.422 193.533C160.597 195.159 161.368 196.738 162.578 197.827C164.048 199.15 166.174 199.773 168.126 199.45C169.12 199.286 170.25 198.712 170.381 197.84C170.47 197.248 170.12 196.572 169.689 195.813L166.883 190.871ZM160.168 129.701C160.138 129.684 160.107 129.669 160.078 129.651C158.049 128.428 156.776 126.426 156.398 124.257C155.321 124.624 154.479 125.69 154.274 127.029C154.058 128.437 154.909 129.993 156.211 130.571C157.644 131.207 159.22 130.831 160.168 129.701ZM161.105 89.629C161.465 91.2028 161.309 92.8283 160.679 94.3296C160.715 94.3341 160.749 94.3296 160.785 94.3395C161.073 94.4202 161.346 94.5418 161.598 94.697C162.564 94.9641 163.716 94.6628 164.37 93.8975C165.176 92.9534 165.184 91.3992 164.388 90.4335C163.651 89.538 162.158 89.156 161.074 89.5209C161.083 89.5574 161.096 89.5922 161.105 89.629ZM160.497 87.9623C161.01 87.4332 161.347 86.723 161.406 85.9929C161.471 85.1844 161.269 84.4857 160.82 83.9721C160.785 83.9321 160.74 83.9025 160.702 83.865C159.713 84.2501 158.714 84.6072 157.704 84.9258C158.927 85.6869 159.879 86.7334 160.497 87.9623ZM166.657 115.464C167.185 115.644 167.699 115.876 168.188 116.17C168.477 115.588 168.765 115.006 169.051 114.426C168.14 114.467 167.201 114.814 166.657 115.464ZM167.438 117.44C164.421 115.623 160.484 116.597 158.665 119.615C156.846 122.633 157.822 126.568 160.84 128.388C161.033 128.504 161.23 128.605 161.431 128.697C161.834 128.01 162.231 127.32 162.622 126.63C161.478 126.064 160.622 124.929 160.396 123.622C160.16 122.257 160.599 120.801 161.57 119.728C162.876 118.286 165.025 117.677 167.043 118.182C167.082 118.191 167.12 118.207 167.159 118.218C167.281 117.978 167.403 117.737 167.523 117.498C167.494 117.48 167.468 117.458 167.438 117.44ZM149.483 98.3334C147.683 97.249 146.414 95.5286 145.908 93.489C145.863 93.3069 145.832 93.1237 145.8 92.9408C144.724 93.3083 143.884 94.3735 143.679 95.7111C143.463 97.1189 144.314 98.6751 145.616 99.2531C147.049 99.8911 148.625 99.5138 149.573 98.3836C149.543 98.3661 149.513 98.3514 149.483 98.3334ZM160.962 96.0423C160.694 95.9496 160.436 95.8274 160.194 95.6752C160.136 95.6386 160.091 95.5895 160.047 95.5407C160.022 95.5807 160.002 95.6225 159.976 95.6622C159.248 96.7784 158.305 97.6585 157.247 98.2847C157.608 99.2437 158.584 99.9499 159.579 99.9499C159.579 99.9499 159.581 99.9499 159.582 99.9499C160.628 99.9479 161.633 99.1345 161.823 98.1366C161.972 97.3533 161.592 96.502 160.962 96.0423ZM122.885 197.111L122.775 198.235C122.766 198.345 122.764 198.582 122.766 198.777C122.768 198.978 122.776 199.172 122.79 199.36C122.818 199.735 122.868 200.087 122.953 200.392C123.034 200.7 123.145 200.961 123.28 201.172C123.412 201.386 123.57 201.553 123.783 201.72C124.202 202.047 124.816 202.299 125.479 202.404C126.162 202.516 126.941 202.506 127.791 202.438L129.111 202.313C129.545 202.267 129.962 202.214 130.353 202.145C130.742 202.077 131.111 201.99 131.393 201.889C131.487 201.858 131.553 201.819 131.595 201.788C131.577 201.662 131.479 201.374 131.308 201.017C130.545 199.406 129.703 197.748 128.923 196.03C128.842 195.853 128.765 195.67 128.686 195.491C126.651 195.36 124.569 195.953 122.885 197.111ZM143.592 89.4195C143.915 90.4597 144.709 91.1524 145.684 91.3088C145.731 89.9896 146.107 88.6969 146.807 87.5353C147.087 87.0702 147.411 86.6424 147.771 86.2521C147.343 86.2252 146.916 86.1901 146.492 86.1481C146.022 86.1006 145.556 86.0452 145.092 85.9861C144.999 86.0294 144.905 86.0695 144.818 86.1238C143.76 86.7823 143.222 88.23 143.592 89.4195ZM162.246 115.278C163.127 115.06 164.022 115.005 164.9 115.089C164.849 114.103 164.255 113.13 163.363 112.705C162.279 112.187 160.833 112.512 160.074 113.443C159.419 114.245 159.311 115.454 159.755 116.388C160.506 115.884 161.342 115.502 162.246 115.278ZM147.341 93.1335C147.752 94.7906 148.783 96.1884 150.245 97.0695V97.07C153.083 98.7789 156.814 97.8074 158.739 94.8561C159.451 93.7652 159.814 92.5469 159.815 91.3251C159.72 91.2633 159.636 91.1811 159.576 91.0758C158.765 89.6585 157.495 88.6452 156.092 88.2964C154.616 87.9283 153.001 88.3729 152.07 89.4009C151.411 90.1293 151.099 91.146 151.256 92.0535C151.416 92.9774 152.084 93.7981 152.92 94.096C153.504 94.305 154.191 94.2536 154.754 93.9596C155.082 93.788 155.507 93.4609 155.668 92.8742C155.798 92.3971 155.651 91.8704 155.318 91.6226C155.167 91.5106 154.944 91.4645 154.735 91.4996C154.639 91.5165 154.463 91.5659 154.366 91.711C154.139 92.0503 153.681 92.14 153.342 91.9143C153.003 91.688 152.913 91.2297 153.139 90.8905C153.438 90.4437 153.915 90.1433 154.484 90.0453C155.096 89.9397 155.721 90.0828 156.199 90.4388C157.013 91.0452 157.38 92.2064 157.091 93.2635C156.856 94.1221 156.269 94.8341 155.437 95.2679C154.892 95.5519 154.277 95.6965 153.665 95.6965C153.241 95.6965 152.819 95.6274 152.424 95.4866C151.082 95.008 150.053 93.7593 149.801 92.3049C149.565 90.9404 150.004 89.4847 150.975 88.4108C152.282 86.968 154.43 86.3597 156.448 86.8641C157.3 87.076 158.108 87.4791 158.832 88.0284C158.333 87.2704 157.663 86.6179 156.843 86.1238C156.432 85.8763 156.001 85.6806 155.557 85.5322C154.259 85.8529 152.94 86.0937 151.596 86.2183C151.055 86.2683 150.515 86.2899 149.976 86.2996C149.212 86.8131 148.56 87.4859 148.07 88.2975C147.189 89.7592 146.93 91.4768 147.341 93.1335ZM153.282 99.3895C152.499 99.3895 151.716 99.2641 150.958 99.0119C150.946 99.0289 150.936 99.0478 150.924 99.0647C150.556 99.7287 150.476 100.534 150.715 101.286C150.971 102.094 151.564 102.699 152.343 102.946C153.646 103.36 154.54 102.698 154.957 102.265C155.8 101.393 156.153 100.065 155.883 98.9275C155.044 99.2298 154.164 99.3895 153.282 99.3895ZM66.1968 95.5987C67.0784 95.3802 67.9727 95.3248 68.8506 95.4096C68.8002 94.4232 68.2061 93.4506 67.314 93.0258C66.2301 92.5074 64.7839 92.8332 64.0248 93.7629C63.3695 94.5656 63.2609 95.7753 63.7058 96.7086C64.4568 96.2046 65.2929 95.8227 66.1968 95.5987ZM75.6193 101.159C75.6283 101.196 75.6418 101.231 75.6502 101.268C76.0105 102.842 75.8543 104.467 75.224 105.968C75.2596 105.973 75.2948 105.968 75.3302 105.978C75.6189 106.058 75.8914 106.18 76.1432 106.335C77.1069 106.602 78.261 106.301 78.915 105.536C79.7208 104.592 79.7289 103.037 78.9333 102.072C78.196 101.177 76.7034 100.794 75.6193 101.159ZM60.2327 102.95C60.277 101.657 60.638 100.358 61.3519 99.1732C61.6583 98.665 62.0202 98.2043 62.4208 97.786C61.5108 97.2349 60.2638 97.1997 59.3632 97.7616C58.3057 98.4203 57.7672 99.8679 58.137 101.057C58.4607 102.1 59.2539 102.799 60.2327 102.95ZM162.665 120.719C162.006 121.447 161.693 122.463 161.851 123.371C162 124.232 162.593 124.998 163.349 125.34C163.545 124.99 163.741 124.639 163.936 124.29C164.114 123.973 164.286 123.66 164.459 123.345C164.283 123.372 164.097 123.338 163.937 123.232C163.598 123.006 163.507 122.547 163.733 122.208C164.032 121.761 164.51 121.461 165.079 121.363C165.235 121.336 165.392 121.326 165.547 121.331C165.859 120.743 166.164 120.157 166.465 119.574C165.052 119.3 163.549 119.742 162.665 120.719ZM67.8266 111.027C67.0446 111.027 66.2616 110.902 65.504 110.65C65.4918 110.667 65.4816 110.686 65.4693 110.703C65.1017 111.367 65.0215 112.172 65.2603 112.925C65.5164 113.733 66.1099 114.338 66.8876 114.585C68.1896 114.997 69.0853 114.335 69.5028 113.903C70.345 113.031 70.6982 111.703 70.4284 110.565C69.5888 110.868 68.7091 111.027 67.8266 111.027ZM64.028 109.972V109.972C61.9976 108.748 60.7251 106.744 60.3482 104.573C59.1695 104.976 58.4003 106.203 58.2247 107.349C58.0089 108.758 58.8599 110.313 60.1614 110.891C61.5957 111.528 63.1707 111.152 64.1182 110.022C64.0883 110.005 64.0576 109.99 64.028 109.972ZM68.5361 193.562C67.321 193.84 66.2037 194.509 65.3564 195.424C65.4515 195.97 65.5417 196.502 65.6522 196.999C65.9051 198.171 66.3331 199.134 67.087 199.912C68.5753 201.515 70.9739 202.28 73.127 201.917L73.5254 201.837C73.6441 201.807 73.7624 201.774 73.8795 201.733C74.1131 201.652 74.3393 201.549 74.5452 201.43C74.961 201.194 75.2713 200.869 75.3865 200.6C75.4955 200.323 75.502 200.147 75.3149 199.694C75.2219 199.476 75.0806 199.218 74.9261 198.926L74.4721 198.073C73.7354 196.688 73.0065 195.295 72.2952 193.89C71.1134 193.405 69.7813 193.278 68.5361 193.562ZM174.609 103.317C174.592 103.399 174.582 103.482 174.57 103.564C172.821 106.777 171.289 109.877 169.767 112.972C169.688 112.964 169.61 112.953 169.529 112.949C168.422 112.893 167.135 113.18 166.171 113.891C165.814 112.812 165.039 111.869 163.998 111.373C162.3 110.564 160.12 111.052 158.93 112.51C158.205 113.398 157.906 114.576 158.04 115.7C156.896 115.409 155.64 115.561 154.632 116.188C153.005 117.202 152.208 119.345 152.777 121.176C153.102 122.224 153.77 123.06 154.627 123.574C153.69 124.325 153.019 125.473 152.815 126.805C152.498 128.872 153.701 131.071 155.611 131.92C156.859 132.474 158.214 132.47 159.391 132.011C157.567 134.817 155.541 137.478 153.111 139.77C147.707 144.866 141.576 147.629 134.837 148.013C135.43 146.129 136.216 144.28 137.101 142.506C138.631 139.371 140.492 136.434 142.565 133.366C142.681 133.193 142.696 132.973 142.591 132.788C142.443 132.527 142.112 132.436 141.852 132.584C139.251 134.064 137.049 136.19 135.29 138.639C135.302 138.43 135.311 138.222 135.314 138.021C135.345 135.98 135.375 133.939 135.406 131.898C135.415 131.325 135.363 130.808 135.267 130.34L134.614 132.35C134.289 133.377 133.979 134.411 133.675 135.462C133.357 136.511 133.076 137.577 132.708 138.673L132.706 138.678C132.612 138.959 132.308 139.11 132.028 139.016C131.847 138.954 131.719 138.805 131.677 138.631C131.401 137.465 131.351 136.274 131.398 135.089C131.449 134.108 131.594 133.132 131.813 132.172C131.461 132.971 131.125 133.78 130.816 134.609C130.382 135.782 130.005 136.985 129.61 138.227L129.609 138.23C129.544 138.434 129.326 138.547 129.121 138.482C128.972 138.435 128.872 138.305 128.853 138.16C128.687 136.823 128.754 135.467 128.964 134.133C129.01 133.833 129.068 133.535 129.131 133.238C128.929 133.554 128.735 133.876 128.552 134.207C127.907 135.377 127.397 136.637 126.987 137.973L126.986 137.976C126.941 138.121 126.787 138.203 126.642 138.158C126.526 138.122 126.451 138.017 126.447 137.902C126.409 136.459 126.639 134.989 127.102 133.584C127.564 132.177 128.261 130.841 129.111 129.625C129.417 129.179 129.757 128.76 130.104 128.349C129.876 128.484 129.645 128.633 129.409 128.807C127.141 130.48 125.31 133.76 124.321 136.309C123.984 137.178 123.713 138.11 123.846 139.032C123.979 139.955 124.611 140.86 125.524 141.05C126.244 141.2 127.053 140.733 127.29 140.077C127.342 141.083 128.234 142.044 129.266 142.032C130.181 142.022 130.972 141.248 131.158 140.369C131.276 140.805 131.536 141.204 131.906 141.465C132.324 141.76 132.861 141.863 133.364 141.779C132.644 143.164 132.04 144.609 131.533 146.085C130.905 147.889 130.4 149.861 130.158 151.799C129.664 155.686 129.898 159.429 129.713 162.947C129.669 163.829 129.595 164.695 129.489 165.549C129.376 166.415 129.244 167.201 129.027 168.03C128.612 169.684 127.987 171.393 127.456 173.249C126.42 176.964 125.855 180.829 126.033 184.735C126.075 185.709 126.157 186.685 126.295 187.655C126.432 188.641 126.635 189.634 126.892 190.589C127.215 191.766 127.618 192.9 128.058 194.003C126.282 194.019 124.504 194.492 122.942 195.35C122.939 195.302 122.939 195.258 122.935 195.208C122.922 195.043 122.898 194.862 122.856 194.658C122.83 194.548 122.805 194.444 122.772 194.331C122.726 194.195 122.672 194.061 122.613 193.93C122.535 193.774 122.419 193.595 122.302 193.445C122.185 193.311 122.076 193.197 121.929 193.078C121.632 192.836 121.227 192.657 120.867 192.592C120.268 192.504 119.936 192.577 119.772 192.598C119.764 192.586 119.757 192.577 119.75 192.562C119.679 192.418 119.627 192.238 119.623 191.944C119.605 191.394 119.811 190.395 119.947 189.518L120.424 186.827C120.752 185.028 121.096 183.217 121.408 181.388C122.032 177.734 122.543 173.986 122.499 170.167C122.484 168.47 122.338 166.756 122.096 165.086C122.596 165.094 123.1 164.919 123.467 164.577C124.422 163.689 124.255 162.161 124.014 160.879C123.637 158.873 123.259 156.867 122.882 154.861C122.776 154.298 122.622 153.802 122.435 153.363L122.196 155.462C122.082 156.534 121.986 157.609 121.898 158.699C121.796 159.791 121.734 160.891 121.591 162.039L121.591 162.044C121.589 162.06 121.579 162.073 121.576 162.088C121.366 161.041 121.137 160.003 120.898 158.975C120.066 155.375 119.14 151.86 118.728 148.327C118.294 144.809 118.471 141.231 119.111 137.735C120.469 130.742 123.754 124.169 128.513 118.663C128.636 118.522 128.641 118.314 128.52 118.17C128.387 118.009 128.148 117.988 127.988 118.122C125.129 120.509 122.678 123.44 120.807 126.712C118.905 129.972 117.584 133.567 116.788 137.27C116.151 140.422 115.874 143.668 116.048 146.894C103.468 147.272 91.0094 145.593 78.9793 141.895C79.0039 141.847 79.0316 141.801 79.0558 141.752C79.3574 141.162 79.7033 140.592 79.9675 139.983L80.7948 138.173C81.0663 137.568 81.2831 136.941 81.5293 136.325L81.8877 135.398L82.1942 134.452C83.8678 129.422 84.6663 124.111 84.5837 118.817L84.4962 116.833C84.4635 116.172 84.3684 115.514 84.2937 114.857L84.1763 113.872L84.0031 112.895C83.8822 112.244 83.7664 111.594 83.6153 110.951C83.0171 108.404 82.1402 105.93 80.9926 103.602C80.9538 102.712 80.6495 101.833 80.0721 101.132C79.3154 100.213 78.1051 99.6566 76.8897 99.5562C77.1856 99.0004 77.3711 98.3848 77.4225 97.7492C77.521 96.5346 77.1937 95.4589 76.4764 94.6387C75.7605 93.8199 74.6963 93.3333 73.4797 93.2685C72.3655 93.2079 71.085 93.5002 70.1223 94.2107C69.7652 93.1311 68.9899 92.1884 67.9492 91.6926C66.2508 90.8835 64.0714 91.3721 62.8814 92.8293C62.1559 93.7182 61.8565 94.8953 61.99 96.0191C60.8484 95.7304 59.5907 95.8803 58.5832 96.5082C56.9564 97.5215 56.1588 99.6652 56.7276 101.495C57.0534 102.544 57.7207 103.38 58.5778 103.893C57.6415 104.644 56.9701 105.793 56.766 107.125C56.449 109.192 57.6515 111.391 59.5623 112.24C60.9195 112.842 62.4085 112.791 63.6515 112.204C63.6654 112.595 63.7322 112.987 63.8534 113.37C64.2569 114.642 65.2001 115.596 66.4411 115.991C66.8645 116.125 67.2868 116.191 67.7009 116.191C68.7608 116.191 69.7634 115.758 70.5649 114.928C71.2553 114.213 71.7126 113.301 71.9025 112.345C72.5521 112.798 73.3271 113.063 74.1242 113.063C74.1261 113.063 74.128 113.063 74.1305 113.063C75.878 113.061 77.498 111.737 77.8184 110.05C77.9606 109.301 77.8304 108.529 77.5023 107.856C78.4719 107.712 79.3958 107.246 80.0378 106.493C80.142 106.371 80.2345 106.242 80.3216 106.109C80.7145 107.865 81.0633 109.615 81.3131 111.381C81.6171 113.87 81.8588 116.356 81.8563 118.856C81.8916 123.844 81.1585 128.852 79.569 133.582L79.2805 134.472L78.9414 135.343C78.7086 135.921 78.5059 136.512 78.2496 137.079L77.4704 138.778C77.2231 139.35 76.8955 139.882 76.6126 140.436C76.0571 141.552 75.3534 142.581 74.7111 143.646C74.0232 144.686 73.2801 145.708 72.5208 146.734C71.0024 148.785 69.4007 150.85 67.9908 153.12C67.2873 154.255 66.6341 155.441 66.0802 156.69C65.7415 157.453 65.4507 158.24 65.1986 159.038L65.1447 159.487L64.8926 161.585C64.7719 162.655 64.6684 163.73 64.5736 164.819C64.4646 165.91 64.3954 167.011 64.246 168.157L64.2454 168.163C64.2072 168.456 63.9382 168.663 63.6449 168.625C63.455 168.6 63.3011 168.478 63.2266 168.316C62.7294 167.225 62.4501 166.066 62.2672 164.895C62.1276 163.922 62.0803 162.936 62.1101 161.952C61.9188 162.805 61.7456 163.663 61.603 164.536C61.4041 165.771 61.2673 167.024 61.1203 168.319L61.1199 168.322C61.0958 168.535 60.9032 168.688 60.69 168.664C60.5346 168.646 60.411 168.539 60.3648 168.4C59.9432 167.121 59.7458 165.777 59.6937 164.427C59.6814 164.124 59.6802 163.821 59.6844 163.517C59.5479 163.867 59.4194 164.22 59.3049 164.58C58.8983 165.852 58.6417 167.187 58.4975 168.577L58.4971 168.58C58.4814 168.732 58.346 168.842 58.1947 168.826C58.0742 168.813 57.9797 168.724 57.9543 168.612C57.6374 167.204 57.5784 165.718 57.7612 164.25C57.9418 162.78 58.3671 161.334 58.9657 159.977C59.1795 159.479 59.4321 159.003 59.6929 158.532C59.4952 158.709 59.2976 158.9 59.1001 159.116C57.1984 161.197 56.0367 164.768 55.5601 167.461C55.3976 168.379 55.3119 169.345 55.6207 170.225C55.9296 171.104 56.7252 171.87 57.6572 171.88C58.3933 171.888 59.0961 171.273 59.2023 170.583C59.4481 171.56 60.509 172.33 61.5185 172.119C62.4148 171.932 63.0411 171.019 63.0537 170.121C63.2536 170.526 63.5862 170.867 63.9993 171.051C64.1145 171.103 64.2355 171.137 64.3585 171.164C64.5956 172.978 64.9613 174.766 65.4168 176.499C66.708 181.609 68.7027 186.479 70.9478 191.157C71.0961 191.468 71.2491 191.776 71.4001 192.086C70.3475 191.879 69.2527 191.885 68.2078 192.123C67.0355 192.391 65.9402 192.957 65.0146 193.727C64.9707 193.541 64.9318 193.356 64.8801 193.169C64.7904 192.848 64.5304 192.585 64.1819 192.51C63.6802 192.4 63.1851 192.719 63.0759 193.22L62.9774 193.673C62.9808 193.694 62.9849 193.737 62.9496 193.811C62.9181 193.884 62.8464 193.97 62.7684 194.024C62.6445 194.122 62.4109 194.159 62.118 194.07C61.5662 193.929 60.9322 193.154 60.4718 192.358C59.5349 190.711 59.0149 188.643 58.3782 186.642C57.136 182.629 55.9899 178.587 54.9181 174.525C53.8259 170.458 52.9271 166.388 51.9413 162.257C51.6786 161.195 51.3719 160.213 51.2444 159.281C51.1803 158.818 51.1621 158.372 51.2122 157.959C51.2389 157.753 51.2825 157.555 51.3384 157.363L51.4417 157.082L51.5922 156.715C52.4293 154.741 53.1552 152.718 53.7444 150.651C54.2166 149.006 54.6019 147.334 54.9001 145.645C54.9583 146.048 55.0616 146.44 55.241 146.807C55.6506 147.644 56.5305 148.312 57.4573 148.212C58.1965 148.133 58.8192 147.428 58.8322 146.723C59.1818 147.676 60.335 148.328 61.32 147.998C62.1883 147.707 62.7033 146.727 62.611 145.834C62.8569 146.213 63.2271 146.513 63.6588 146.647C64.3777 146.872 65.2195 146.63 65.7104 146.059C66.5604 145.07 66.2257 143.57 65.844 142.323C65.2469 140.371 64.6496 138.42 64.0525 136.468C63.8848 135.92 63.6768 135.444 63.4422 135.028L63.4373 137.141C63.4428 138.218 63.4659 139.298 63.4994 140.391C63.5188 141.487 63.5789 142.588 63.5648 143.744L63.5647 143.75C63.5611 144.045 63.3183 144.282 63.0225 144.279C62.831 144.276 62.6638 144.173 62.5708 144.021C61.9494 142.995 61.5364 141.878 61.2176 140.735C60.9649 139.786 60.8027 138.812 60.7172 137.832C60.6268 138.701 60.5554 139.573 60.516 140.457C60.463 141.707 60.4739 142.967 60.4794 144.271V144.273C60.4804 144.488 60.307 144.663 60.0924 144.664C59.9359 144.664 59.8006 144.572 59.7384 144.439C59.1699 143.218 58.8166 141.907 58.6068 140.573C58.5592 140.273 58.5226 139.972 58.491 139.67C58.3964 140.033 58.31 140.399 58.2384 140.77C57.9836 142.081 57.8851 143.437 57.9046 144.834L57.9047 144.837C57.9068 144.989 57.7852 145.114 57.633 145.116C57.5119 145.118 57.4077 145.041 57.3695 144.932C56.8899 143.571 56.6573 142.102 56.667 140.622C56.6743 139.141 56.9274 137.656 57.363 136.238C57.5172 135.719 57.7123 135.216 57.9162 134.718C57.7406 134.916 57.5666 135.129 57.3959 135.367C56.5729 136.512 55.9777 138.006 55.5684 139.555C55.5907 139.008 55.6032 138.461 55.605 137.914C55.616 135.758 55.4588 133.6 55.1335 131.469C54.8095 129.336 54.344 127.226 53.7044 125.168C52.4442 121.046 50.5776 117.117 48.2079 113.521C47.6156 112.622 46.9888 111.746 46.334 110.891C46.006 110.463 45.67 110.043 45.327 109.627L44.8073 109.009C44.6316 108.806 44.462 108.606 44.2463 108.379C43.4287 107.543 42.6059 106.905 41.864 106.213C41.4935 105.872 41.145 105.526 40.8552 105.175C40.5652 104.826 40.3371 104.464 40.2422 104.161C40.12 103.777 39.6919 103.396 39.2658 103.466C38.6638 103.565 38.8001 104.012 38.7921 104.543C38.7805 105.323 39.3146 108.08 38.3811 108.456C37.646 108.751 37.7932 108.768 37.3902 109.381C37.2607 109.578 37.0304 109.728 36.7979 109.691C36.483 109.641 36.2328 109.276 35.9252 109.36C35.6634 109.431 35.598 109.764 35.4434 109.987C35.0514 110.553 34.4753 110.203 34.0489 109.934C33.6125 109.659 33.3249 109.191 33.1668 108.7C32.6941 107.231 32.3857 105.412 32.4004 103.868C32.4291 100.834 33.6661 97.838 35.4805 95.2941C37.2662 92.7908 39.5585 90.6243 42.0517 88.7233C41.8094 89.4346 41.8491 90.247 42.3163 90.8221C42.788 91.4027 43.7273 91.5391 44.3249 91.1575C43.7077 91.9684 43.7825 93.2965 44.5988 93.9457C45.3157 94.5154 46.4176 94.4143 47.1167 93.8506C46.9328 94.2632 46.8829 94.7369 47.0049 95.1725C47.208 95.8978 47.8687 96.4724 48.615 96.5733C49.9073 96.7479 50.9836 95.6504 51.8219 94.6516C53.1341 93.0882 54.4462 91.5247 55.7582 89.9613C56.1268 89.5221 56.4125 89.0887 56.634 88.6656L54.8586 89.8119C53.9579 90.403 53.065 91.0101 52.1664 91.6329C51.2574 92.2459 50.3665 92.8959 49.3892 93.5133L49.3845 93.5163C49.1344 93.6743 48.8034 93.5998 48.6454 93.3495C48.5432 93.1877 48.5388 92.9911 48.616 92.8303C49.1378 91.7509 49.8502 90.7962 50.6351 89.9068C51.2943 89.1778 52.0225 88.5118 52.7985 87.9065C52.0206 88.3037 51.2494 88.7187 50.4869 89.1667C49.4096 89.8025 48.3582 90.4978 47.2678 91.2119L47.2655 91.2135C47.086 91.3311 46.8451 91.2809 46.7275 91.1013C46.6418 90.9705 46.6456 90.8067 46.7233 90.6822C47.4381 89.5407 48.3457 88.5305 49.3506 87.6283C49.576 87.4252 49.8089 87.2304 50.0451 87.0394C49.6889 87.1579 49.3348 87.2847 48.9847 87.4266C47.7462 87.9265 46.5552 88.582 45.3936 89.3589L45.3912 89.3606C45.2647 89.4451 45.0936 89.4113 45.009 89.2847C44.9416 89.184 44.9497 89.0545 45.0197 88.9633C45.9007 87.8201 47.0067 86.8249 48.2529 86.0277C49.4992 85.2278 50.8828 84.6316 52.3099 84.2247C52.8291 84.0716 53.3567 83.9616 53.886 83.8615C53.6239 83.8223 53.3503 83.7925 53.0578 83.7785C51.6139 83.7098 49.9934 84.0426 48.4361 84.5644C49.0971 84.1939 49.7637 83.8325 50.4368 83.4835C53.3153 81.9892 56.2794 80.6861 59.3412 79.6705C62.4012 78.6461 65.5511 77.8962 68.7402 77.4191C70.3361 77.1892 71.9407 77.0249 73.5494 76.9284C75.159 76.8457 76.7701 76.8305 78.3809 76.8883C81.612 77.0095 84.8372 77.3975 88.0469 77.9195C94.4712 78.9639 100.818 80.6247 107.265 82.0075C110.489 82.6982 113.737 83.3395 117.03 83.775C120.315 84.2185 123.664 84.4559 126.953 84.52C130.247 84.6059 133.515 84.6298 136.741 84.8928C138.848 85.04 140.942 85.3869 143.079 85.7044C142.125 86.8277 141.74 88.4357 142.181 89.8569C142.507 90.9052 143.175 91.7413 144.032 92.2549C143.095 93.0064 142.424 94.1541 142.22 95.4864C141.903 97.5534 143.105 99.7524 145.016 100.601C146.372 101.203 147.861 101.153 149.105 100.566C149.119 100.957 149.186 101.349 149.308 101.732C149.711 103.003 150.654 103.958 151.895 104.352C152.318 104.486 152.741 104.553 153.155 104.553C154.215 104.553 155.217 104.119 156.018 103.29C156.709 102.575 157.166 101.663 157.357 100.707C158.006 101.16 158.781 101.425 159.578 101.425C159.58 101.425 159.582 101.425 159.584 101.425C161.332 101.422 162.952 100.098 163.272 98.4115C163.415 97.6629 163.285 96.8908 162.957 96.2172C163.926 96.0735 164.85 95.607 165.492 94.8546C166.763 93.3667 166.777 91.0115 165.527 89.4937C164.77 88.575 163.559 88.0177 162.344 87.9173C162.64 87.3615 162.825 86.7464 162.877 86.1113C162.964 85.0297 162.713 84.0596 162.151 83.2805C163.273 82.8158 164.385 82.3285 165.49 81.8392C165.69 82.4958 165.897 83.1391 166.098 83.7614L169.467 94.1537C169.916 95.537 170.411 96.8511 171.406 97.7627C171.534 99.4969 172.157 101.062 173.222 102.167C173.593 102.552 174.073 102.949 174.609 103.317ZM66.3305 128.701C66.4635 129.623 67.0959 130.528 68.0083 130.719C68.7291 130.869 69.5374 130.402 69.7751 129.745C69.8271 130.752 70.7189 131.712 71.7504 131.7C72.666 131.69 73.457 130.916 73.6432 130.037C73.761 130.473 74.0213 130.872 74.3908 131.133C75.0061 131.567 75.8814 131.596 76.5239 131.203C77.6365 130.523 77.7784 128.992 77.7982 127.688C77.8289 125.648 77.8599 123.607 77.8907 121.566C77.8992 120.993 77.8474 120.476 77.752 120.008L77.0986 122.018C76.773 123.045 76.4636 124.079 76.1598 125.13C75.8418 126.179 75.5609 127.245 75.1925 128.341L75.1908 128.346C75.0965 128.627 74.7927 128.778 74.5123 128.683C74.3307 128.622 74.2034 128.473 74.1617 128.299C73.885 127.133 73.8351 125.942 73.8825 124.757C73.9336 123.776 74.078 122.8 74.2977 121.84C73.945 122.639 73.609 123.448 73.3002 124.277C72.8661 125.45 72.4894 126.653 72.0945 127.895L72.0936 127.898C72.0285 128.102 71.81 128.215 71.6055 128.15C71.4563 128.103 71.3561 127.973 71.3376 127.828C71.1714 126.491 71.238 125.135 71.4478 123.801C71.4944 123.501 71.5521 123.203 71.6149 122.906C71.4134 123.222 71.2187 123.544 71.0368 123.875C70.3917 125.045 69.8815 126.305 69.4712 127.641L69.4704 127.644C69.4257 127.789 69.2716 127.871 69.1261 127.826C69.0101 127.79 68.9348 127.685 68.9316 127.57C68.8932 126.127 69.1229 124.657 69.5864 123.252C70.0481 121.845 70.745 120.509 71.595 119.293C71.901 118.847 72.2411 118.428 72.5882 118.016C72.3601 118.152 72.1291 118.301 71.8937 118.475C69.6253 120.148 67.7945 123.427 66.8058 125.977C66.4688 126.846 66.1977 127.778 66.3305 128.701ZM99.98 87.4901C99.0051 87.7448 98.2448 88.8127 98.4653 89.8203C98.6608 90.7149 99.5791 91.3328 100.477 91.3373C100.074 91.5409 99.7359 91.8766 99.5552 92.2913C99.2546 92.9819 99.4036 93.8446 99.9184 94.3944C100.81 95.3463 102.337 95.1754 103.618 94.9308C105.623 94.5478 107.628 94.1648 109.633 93.7817C110.196 93.6741 110.691 93.5188 111.13 93.3305L109.03 93.0976C107.958 92.9866 106.883 92.8931 105.793 92.8084C104.701 92.7094 103.6 92.6503 102.452 92.5115L102.446 92.5108C102.153 92.4753 101.943 92.2084 101.979 91.9147C102.002 91.7245 102.123 91.5694 102.284 91.4935C103.37 90.9864 104.526 90.6964 105.696 90.5028C106.668 90.3541 107.653 90.2979 108.637 90.3188C107.783 90.1353 106.923 89.9698 106.049 89.8354C104.812 89.6478 103.558 89.5226 102.261 89.3873L102.259 89.387C102.045 89.3646 101.89 89.1736 101.912 88.9601C101.929 88.8046 102.035 88.68 102.174 88.6325C103.449 88.1992 104.791 87.9896 106.14 87.9251C106.443 87.91 106.746 87.9061 107.05 87.9074C106.699 87.7743 106.344 87.6489 105.984 87.5376C104.707 87.1426 103.37 86.8983 101.979 86.7668L101.976 86.7666C101.825 86.7524 101.713 86.6179 101.728 86.4664C101.739 86.3457 101.827 86.2505 101.939 86.2241C103.344 85.8943 104.83 85.8218 106.3 85.9911C107.772 86.1583 109.221 86.5703 110.584 87.1566C111.083 87.3659 111.562 87.614 112.035 87.8707C111.857 87.6746 111.663 87.4786 111.446 87.2832C109.347 85.4006 105.766 84.2718 103.069 83.8197C102.149 83.6656 101.182 83.5887 100.305 83.9057C99.429 84.2227 98.6706 85.0253 98.6691 85.9573C98.6681 86.6931 99.2892 87.3902 99.98 87.4901ZM91.2565 102.87C90.3567 103.113 89.4453 103.446 88.7808 104.1C88.1163 104.753 87.7613 105.799 88.1487 106.647C88.4574 107.323 89.3236 107.691 89.9961 107.48C89.2026 108.113 88.9491 109.413 89.5738 110.243C90.1246 110.975 91.2168 111.154 92.0349 110.783C91.7533 111.137 91.586 111.583 91.5947 112.035C91.6093 112.788 92.1044 113.51 92.8015 113.795C94.0085 114.289 95.3259 113.497 96.3881 112.74C98.0507 111.557 99.7135 110.373 101.376 109.189C101.843 108.856 102.229 108.508 102.549 108.154L100.543 108.818C99.5227 109.164 98.506 109.528 97.4797 109.905C96.4458 110.27 95.4204 110.676 94.3194 111.028L94.3141 111.029C94.0322 111.119 93.7307 110.964 93.6406 110.682C93.5823 110.5 93.6275 110.309 93.7425 110.172C94.5187 109.258 95.4481 108.513 96.4311 107.849C97.2522 107.309 98.1241 106.847 99.0273 106.456C98.1745 106.645 97.324 106.854 96.4735 107.096C95.2711 107.441 94.0788 107.85 92.8441 108.267L92.8415 108.268C92.6382 108.337 92.4175 108.228 92.3488 108.025C92.2986 107.876 92.3435 107.719 92.4499 107.618C93.4282 106.692 94.5606 105.942 95.7599 105.321C96.029 105.181 96.3034 105.051 96.5799 104.926C96.2054 104.951 95.8307 104.985 95.4563 105.034C94.1318 105.207 92.8146 105.543 91.4951 106.003L91.4923 106.004C91.3486 106.054 91.1915 105.979 91.1413 105.835C91.1014 105.72 91.1418 105.597 91.2323 105.527C92.3722 104.641 93.6925 103.956 95.0991 103.497C96.5064 103.035 97.9953 102.806 99.4788 102.77C100.02 102.752 100.558 102.778 101.096 102.814C100.852 102.71 100.594 102.613 100.315 102.526C97.6229 101.689 93.8964 102.156 91.2565 102.87ZM85.6088 86.3984L83.5372 86.8155C82.4825 87.0359 81.4294 87.274 80.3652 87.5249C79.2949 87.7628 78.2279 88.0416 77.0925 88.2583L77.087 88.2595C76.7963 88.315 76.5158 88.1243 76.4602 87.8337C76.4242 87.6456 76.4923 87.4611 76.6228 87.3398C77.5035 86.5261 78.516 85.8985 79.5719 85.358C80.452 84.9208 81.3735 84.5676 82.3173 84.2882C81.448 84.3732 80.5786 84.4772 79.7051 84.6149C78.4698 84.8124 77.237 85.0747 75.9606 85.3404L75.958 85.341C75.7479 85.3848 75.542 85.2498 75.4982 85.0397C75.4663 84.8866 75.5298 84.7355 75.6476 84.648C76.7304 83.8472 77.9449 83.2394 79.2103 82.7675C79.4943 82.6609 79.7825 82.5648 80.0721 82.4738C79.6973 82.4535 79.3213 82.442 78.9435 82.4459C77.6078 82.4579 76.2596 82.6319 74.8943 82.93L74.8914 82.9306C74.7427 82.9632 74.5959 82.8689 74.5635 82.7202C74.5376 82.6018 74.5927 82.4843 74.6912 82.425C75.9293 81.6834 77.3227 81.1622 78.7745 80.8763C80.227 80.5879 81.733 80.5395 83.2098 80.6832C83.7489 80.7307 84.2804 80.8215 84.8095 80.922C84.5798 80.7896 84.3363 80.6617 84.0692 80.5418C81.4978 79.3866 77.7421 79.401 75.0356 79.7909C74.1131 79.9237 73.168 80.1449 72.4296 80.7133C71.6912 81.2818 71.2127 82.2773 71.4949 83.1655C71.7199 83.8741 72.5354 84.3434 73.2285 84.2156C72.3645 84.7484 71.9559 86.0086 72.476 86.9077C72.9346 87.7004 73.9972 88.0095 74.854 87.7407C74.5318 88.0573 74.3119 88.4799 74.2661 88.93C74.1898 89.6792 74.5943 90.4558 75.2518 90.8229C76.3905 91.4585 77.7938 90.8309 78.9394 90.2081C80.7326 89.2334 82.526 88.2586 84.3193 87.2839C84.8233 87.0099 85.2479 86.7112 85.6088 86.3984ZM101.508 132.65C101.837 132.181 102.084 131.725 102.268 131.284L100.599 132.579C99.7527 133.246 98.9157 133.928 98.0744 134.627C97.222 135.317 96.3907 136.041 95.4706 136.741L95.4662 136.744C95.2307 136.923 94.8945 136.877 94.7155 136.642C94.5995 136.489 94.5783 136.294 94.6411 136.127C95.0674 135.006 95.6946 133.994 96.3993 133.04C96.9929 132.256 97.6606 131.53 98.3812 130.859C97.6406 131.322 96.9083 131.803 96.1874 132.315C95.1693 133.042 94.182 133.826 93.1577 134.632L93.1554 134.633C92.9868 134.766 92.7425 134.737 92.6098 134.568C92.5131 134.445 92.5026 134.282 92.5692 134.151C93.1822 132.952 93.9991 131.867 94.922 130.881C95.1289 130.659 95.344 130.445 95.5629 130.234C95.2183 130.383 94.8765 130.54 94.54 130.712C93.3493 131.317 92.2197 132.073 91.1299 132.948L91.1277 132.95C91.0091 133.045 90.8356 133.026 90.7405 132.907C90.6645 132.813 90.6616 132.683 90.7233 132.586C91.5019 131.371 92.5175 130.284 93.69 129.382C94.8624 128.477 96.189 127.763 97.5754 127.234C98.0793 127.037 98.5957 126.881 99.1143 126.736C98.8497 126.719 98.5745 126.713 98.2821 126.725C95.4652 126.835 92.1089 128.52 89.8589 130.075C89.0921 130.604 88.3444 131.223 87.9363 132.061C87.5282 132.899 87.5429 134.003 88.1911 134.673C88.7113 135.21 89.659 135.265 90.2211 134.833C89.6766 135.694 89.866 137.011 90.7356 137.587C91.4991 138.092 92.5883 137.896 93.2358 137.274C93.0884 137.701 93.0796 138.177 93.239 138.6C93.5044 139.305 94.2122 139.821 94.9645 139.856C96.267 139.918 97.2442 138.732 97.9928 137.664C99.1643 135.993 100.336 134.322 101.508 132.65ZM117.759 121.097C118.089 120.627 118.336 120.171 118.52 119.73L116.85 121.026C116.004 121.693 115.167 122.375 114.326 123.073C113.473 123.763 112.642 124.487 111.722 125.187L111.718 125.19C111.482 125.37 111.146 125.324 110.967 125.088C110.851 124.936 110.83 124.74 110.893 124.574C111.319 123.453 111.946 122.44 112.651 121.486C113.244 120.703 113.912 119.976 114.633 119.306C113.892 119.769 113.16 120.249 112.439 120.762C111.421 121.488 110.434 122.272 109.409 123.078L109.407 123.08C109.239 123.213 108.994 123.184 108.861 123.015C108.765 122.892 108.754 122.728 108.821 122.598C109.434 121.398 110.251 120.314 111.174 119.327C111.381 119.106 111.596 118.891 111.815 118.681C111.47 118.83 111.128 118.987 110.792 119.158C109.601 119.764 108.471 120.52 107.381 121.395L107.379 121.396C107.26 121.492 107.087 121.473 106.992 121.354C106.916 121.259 106.913 121.13 106.975 121.033C107.753 119.818 108.769 118.731 109.941 117.828C111.114 116.923 112.44 116.21 113.827 115.681C114.331 115.483 114.847 115.328 115.366 115.182C115.101 115.166 114.826 115.16 114.533 115.171C111.717 115.282 108.36 116.967 106.11 118.521C105.344 119.051 104.596 119.669 104.188 120.507C103.78 121.345 103.794 122.45 104.442 123.119C104.963 123.657 105.91 123.711 106.472 123.279C105.928 124.141 106.117 125.457 106.987 126.033C107.75 126.539 108.84 126.343 109.487 125.72C109.34 126.147 109.331 126.624 109.49 127.047C109.756 127.752 110.464 128.267 111.216 128.303C112.518 128.365 113.496 127.178 114.244 126.111C115.416 124.439 116.588 122.768 117.759 121.097ZM128.342 106.556L126.242 106.323C125.17 106.212 124.095 106.118 123.005 106.034C121.913 105.935 120.812 105.876 119.664 105.737L119.658 105.736C119.365 105.701 119.155 105.434 119.191 105.14C119.214 104.95 119.335 104.795 119.496 104.719C120.583 104.212 121.738 103.922 122.908 103.728C123.88 103.58 124.865 103.523 125.849 103.544C124.995 103.361 124.135 103.195 123.261 103.061C122.024 102.873 120.77 102.748 119.473 102.613L119.471 102.612C119.257 102.59 119.102 102.399 119.125 102.186C119.141 102.03 119.247 101.906 119.386 101.858C120.661 101.425 122.003 101.215 123.352 101.151C123.655 101.136 123.958 101.132 124.262 101.133C123.911 101 123.557 100.874 123.196 100.763C121.92 100.368 120.582 100.124 119.191 99.9925L119.188 99.9923C119.037 99.9779 118.925 99.8436 118.94 99.6921C118.951 99.5714 119.039 99.4762 119.151 99.4498C120.556 99.1201 122.042 99.0475 123.512 99.2168C124.984 99.384 126.433 99.796 127.796 100.382C128.295 100.592 128.774 100.84 129.247 101.096C129.069 100.9 128.876 100.704 128.658 100.509C126.56 98.6263 122.978 97.4975 120.281 97.0454C119.362 96.8913 118.394 96.8143 117.518 97.1314C116.641 97.4483 115.883 98.251 115.881 99.1829C115.88 99.9192 116.501 100.616 117.192 100.716C116.217 100.971 115.457 102.039 115.677 103.046C115.873 103.941 116.791 104.559 117.689 104.563C117.286 104.767 116.948 105.102 116.768 105.517C116.467 106.208 116.616 107.07 117.131 107.62C118.022 108.572 119.55 108.401 120.831 108.157C122.835 107.773 124.84 107.391 126.845 107.008C127.408 106.899 127.903 106.744 128.342 106.556ZM142.643 107.537C142.652 106.963 142.6 106.447 142.504 105.979L141.851 107.988C141.525 109.015 141.216 110.05 140.912 111.1C140.594 112.15 140.313 113.216 139.945 114.312L139.943 114.317C139.849 114.597 139.545 114.748 139.265 114.654C139.083 114.593 138.956 114.443 138.914 114.27C138.638 113.103 138.588 111.913 138.635 110.728C138.686 109.746 138.831 108.77 139.05 107.811C138.698 108.61 138.362 109.418 138.053 110.247C137.619 111.42 137.242 112.623 136.847 113.865L136.846 113.868C136.781 114.073 136.563 114.186 136.358 114.121C136.209 114.073 136.109 113.944 136.09 113.798C135.924 112.462 135.991 111.105 136.2 109.771C136.247 109.471 136.305 109.173 136.367 108.876C136.166 109.193 135.971 109.515 135.789 109.846C135.144 111.015 134.634 112.276 134.224 113.611L134.223 113.614C134.178 113.76 134.024 113.841 133.879 113.797C133.763 113.761 133.688 113.656 133.684 113.541C133.646 112.098 133.876 110.628 134.339 109.223C134.801 107.816 135.498 106.48 136.348 105.264C136.654 104.817 136.994 104.399 137.341 103.987C137.113 104.122 136.882 104.272 136.646 104.445C134.378 106.119 132.547 109.398 131.558 111.948C131.221 112.817 130.95 113.748 131.083 114.671C131.216 115.593 131.848 116.499 132.761 116.689C133.481 116.839 134.29 116.372 134.527 115.715C134.579 116.722 135.471 117.682 136.502 117.671C137.418 117.66 138.209 116.886 138.395 116.008C138.513 116.444 138.773 116.843 139.143 117.103C139.758 117.538 140.633 117.566 141.276 117.174C142.389 116.493 142.531 114.963 142.55 113.659C142.581 111.618 142.612 109.578 142.643 107.537ZM75.5071 107.681C75.239 107.588 74.9815 107.466 74.7394 107.313C74.6811 107.276 74.6364 107.227 74.592 107.178C74.5667 107.218 74.5465 107.26 74.5204 107.3C73.7925 108.416 72.8497 109.296 71.7925 109.923C72.1533 110.881 73.1292 111.588 74.124 111.588C74.125 111.588 74.1264 111.588 74.1274 111.588C75.1734 111.586 76.1785 110.773 76.3682 109.775C76.5166 108.992 76.137 108.14 75.5071 107.681ZM156.282 122.631C156.326 121.337 156.687 120.038 157.401 118.853C157.707 118.345 158.069 117.884 158.47 117.465C157.56 116.914 156.313 116.88 155.413 117.441C154.355 118.1 153.816 119.548 154.186 120.737C154.51 121.779 155.301 122.48 156.282 122.631ZM73.284 106.494C73.9959 105.403 74.3595 104.185 74.3605 102.962C74.2656 102.901 74.1818 102.819 74.1216 102.714C73.3096 101.296 72.0397 100.283 70.6368 99.9345C69.1618 99.5664 67.5465 100.011 66.6158 101.039C65.9566 101.767 65.6443 102.784 65.8014 103.692C65.961 104.615 66.6297 105.437 67.4653 105.734C68.0495 105.942 68.7362 105.891 69.3001 105.597C69.6283 105.426 70.0529 105.099 70.213 104.512C70.3437 104.035 70.1961 103.509 69.8632 103.261C69.7129 103.149 69.489 103.103 69.2804 103.138C69.1843 103.155 69.0084 103.204 68.9113 103.349C68.6845 103.688 68.2267 103.778 67.8875 103.552C67.5487 103.326 67.458 102.868 67.6842 102.529C67.9831 102.082 68.4606 101.782 69.0289 101.683C69.6415 101.579 70.2656 101.721 70.7442 102.077C71.5586 102.683 71.9257 103.844 71.6368 104.902C71.4019 105.76 70.8148 106.472 69.9831 106.905C69.4383 107.19 68.8224 107.334 68.2102 107.334C67.7864 107.334 67.3645 107.265 66.9696 107.125C65.6277 106.646 64.5981 105.398 64.3463 103.943C64.1109 102.577 64.55 101.122 65.521 100.048C66.8274 98.6064 68.9755 97.9971 70.993 98.5021C71.8455 98.714 72.6534 99.117 73.378 99.6665C72.8784 98.9084 72.2087 98.2553 71.3885 97.7608C68.3707 95.9426 64.4348 96.9166 62.6162 99.9353C60.7971 102.953 61.772 106.888 64.7897 108.708V108.708C67.6276 110.418 71.3588 109.445 73.284 106.494ZM72.1507 96.4967C73.4217 97.2634 74.4073 98.3373 75.0419 99.6003C75.5549 99.0713 75.8917 98.3613 75.9512 97.6305C76.0165 96.8224 75.8143 96.1237 75.3656 95.6107C74.9078 95.0869 74.2283 94.7868 73.401 94.743C72.389 94.684 71.2349 95.0364 70.6081 95.7848C71.14 95.9658 71.6579 96.1997 72.1507 96.4967ZM119.836 192.685C119.836 192.685 119.837 192.686 119.837 192.687C119.847 192.693 119.852 192.7 119.855 192.698C119.855 192.697 119.843 192.69 119.836 192.685ZM46.3279 162.616C46.212 163.507 45.485 164.341 44.5729 164.424C43.5457 164.518 42.5805 163.631 42.4489 162.632C42.2639 163.305 41.4953 163.835 40.7648 163.742C39.8403 163.625 39.138 162.773 38.9322 161.864C38.7265 160.955 38.923 160.005 39.1898 159.112C39.9733 156.492 41.538 153.078 43.6665 151.229C43.8875 151.037 44.106 150.87 44.3226 150.717C44.0092 151.155 43.7035 151.6 43.4339 152.069C42.683 153.349 42.0943 154.736 41.7457 156.175C41.3951 157.612 41.2827 159.096 41.4355 160.531C41.4478 160.645 41.5314 160.744 41.6496 160.771C41.7982 160.804 41.9453 160.71 41.9783 160.562L41.979 160.559C42.2821 159.195 42.6906 157.898 43.241 156.681C43.3962 156.336 43.5645 156 43.7404 155.668C43.7014 155.969 43.6675 156.271 43.6448 156.574C43.5415 157.92 43.5828 159.278 43.8546 160.597C43.8844 160.741 43.9949 160.862 44.1472 160.897C44.3562 160.946 44.5652 160.816 44.6138 160.606L44.6144 160.604C44.9096 159.334 45.1895 158.105 45.5294 156.901C45.7712 156.05 46.0421 155.218 46.3303 154.393C46.1874 155.367 46.121 156.352 46.1479 157.334C46.1947 158.519 46.3389 159.702 46.7073 160.843C46.7625 161.013 46.9015 161.152 47.0872 161.198C47.3742 161.27 47.665 161.095 47.7368 160.808L47.7382 160.803C48.0185 159.681 48.2137 158.596 48.4476 157.525C48.6672 156.454 48.8935 155.398 49.1366 154.348L49.6285 152.293C49.7607 152.752 49.8533 153.263 49.8903 153.835C49.9244 154.365 49.9586 154.896 49.9928 155.426C50.7093 153.687 51.3387 151.913 51.8534 150.108C52.9926 146.138 53.6244 142.027 53.6375 137.91C53.6482 135.852 53.4982 133.794 53.1878 131.761C52.8785 129.728 52.4349 127.712 51.8232 125.746C51.0599 123.249 50.0612 120.824 48.8557 118.507C49.5005 122.321 49.6858 126.21 49.3845 130.129L49.3791 130.197C49.1672 132.947 48.927 136.065 47.91 138.695C47.0677 140.872 45.4126 142.736 43.952 144.381L43.5382 144.848C43.0621 145.388 42.5946 145.948 42.1253 146.51C41.196 147.623 40.2352 148.775 39.1816 149.8C38.9245 150.05 38.668 150.284 38.4166 150.513C37.4898 151.357 36.7576 152.024 36.3569 153.175C35.8875 154.525 35.8163 156.046 35.7477 157.517L34.4379 185.602C34.3707 187.048 34.3658 188.318 34.9956 189.212C35.2806 189.617 35.8623 189.904 36.3947 189.881C36.6955 189.871 36.9074 189.769 37.0231 189.58C37.2555 189.198 37.7155 189.021 38.1444 189.15C38.5726 189.277 38.8608 189.677 38.8464 190.124C38.8197 190.95 38.877 191.872 39.0128 192.876C39.8958 192.198 40.913 191.695 42.0041 191.414C43.3283 191.073 44.7137 191.075 46.0278 191.39C42.6001 182.449 42.949 172.185 46.9257 163.483C46.6528 163.256 46.4476 162.951 46.3279 162.616ZM42.3723 192.844C41.2286 193.138 40.162 193.757 39.3058 194.585C39.3847 194.972 39.4703 195.367 39.5694 195.775C40.01 197.59 40.9882 199.048 42.2523 199.776C43.9343 200.744 47.0828 200.736 48.8572 199.757C49.1864 199.575 49.2751 199.385 49.316 199.24C49.5653 198.356 48.6231 196.7 47.9996 195.605C47.8102 195.272 47.6363 194.965 47.4999 194.698C47.2471 194.203 47.0114 193.702 46.7837 193.197C45.4025 192.612 43.8174 192.472 42.3723 192.844ZM197.13 46.909C201.096 44.1762 205.814 42.644 210.6 42.4624C207.444 41.5485 204.506 41.1824 201.711 41.3491C196.158 41.6796 190.835 44.2371 187.108 48.3666C183.564 52.293 181.585 57.5085 181.603 62.789C182.2 62.5904 182.816 62.3864 183.456 62.251C184.821 61.9623 185.872 62.1295 186.725 62.5769C188.046 56.2654 191.817 50.5708 197.13 46.909ZM192.333 74.0733C195.12 74.3893 197.948 74.4423 200.744 74.2259C201.923 74.1342 203.262 73.9766 204.227 73.2621C204.934 72.7389 205.461 71.6833 205.079 70.8916C204.79 70.293 204.052 69.8768 202.821 69.6194C199.167 68.8575 195.221 69.4506 191.946 71.2428C192.182 72.1507 192.325 73.099 192.333 74.0733ZM184.509 97.7468C184.51 97.3347 184.476 96.9323 184.434 96.5702C184.362 95.9491 184.253 95.2433 184.091 94.5157C183.914 94.7634 183.815 94.8921 183.738 94.965C183.292 95.3921 182.697 95.9008 182.066 96.045C182.03 96.0536 181.993 96.0575 181.956 96.0575C181.859 96.0575 181.763 96.0286 181.682 95.9739C181.569 95.8979 181.492 95.7793 181.471 95.6452C181.387 95.1368 181.54 94.6141 181.912 94.1332C182.353 93.5637 183.025 93.145 183.644 92.9142C182.879 90.6912 181.489 88.6868 178.961 88.6868C178.865 88.6868 178.769 88.6892 178.671 88.6949C176.026 88.8503 174.543 90.7397 173.711 92.9236C173.799 92.9417 173.899 92.9604 173.969 92.9728C174.206 93.0166 174.324 93.0391 174.414 93.0747C174.826 93.2348 175.212 93.4648 175.56 93.7584C175.996 94.1269 176.808 94.812 176.619 95.7268C176.588 95.8757 176.49 96.0021 176.353 96.0695C176.285 96.1027 176.211 96.1194 176.137 96.1194C176.063 96.1194 175.988 96.1025 175.92 96.069C174.773 95.5064 173.933 94.881 173.318 94.1366C173.169 94.6828 173.051 95.231 172.962 95.7605C172.882 96.2331 172.851 96.6974 172.853 97.1507C172.906 97.168 172.958 97.1897 173.007 97.2197C175.991 99.0313 180.5 99.2366 184.509 97.7468ZM183.762 63.6952C183.183 63.8177 182.614 64.0076 182.011 64.2083C181.003 64.5441 179.96 64.8914 178.829 64.9193C177.444 64.9413 176.203 64.4955 175.022 64.0516C173.44 63.4577 172.072 62.9432 170.515 63.7114C169.073 64.422 168.539 65.7356 167.92 67.2568C167.779 67.6046 167.636 67.9553 167.481 68.3033C166.893 69.6188 166.466 70.848 166.183 72.0146C166.224 72.0073 166.265 72.0028 166.308 72.0097C166.417 72.0272 166.506 72.0899 166.561 72.1756L166.589 72.219C167.002 72.8673 167.596 73.1946 168.28 73.4889C168.948 73.7736 169.805 73.9894 170.704 74.4652C171.639 74.963 172.377 75.709 172.902 76.559C173.409 77.4076 173.759 78.463 173.518 79.4769C173.476 79.6539 173.298 79.7632 173.121 79.7211C173.005 79.6934 172.918 79.607 172.884 79.5008L172.874 79.4684C172.63 78.6982 172.177 78.0706 171.632 77.5164C171.084 76.9659 170.473 76.4983 169.824 76.2031C169.145 75.878 168.276 75.6247 167.399 75.0401C166.969 74.7444 166.575 74.3722 166.278 73.9046C166.137 73.6833 166.022 73.4334 165.948 73.1734C165.855 73.7494 165.797 74.3121 165.781 74.8603C165.758 75.6638 165.818 76.4631 165.929 77.2582C165.929 77.2572 165.929 77.2559 165.93 77.255C165.977 77.1859 166.05 77.143 166.131 77.1357C166.84 77.0721 167.552 77.1441 168.245 77.2974C169.132 77.4937 169.481 77.9075 168.436 78.0488C168.084 78.0962 167.912 78.5461 168.019 78.8845C168.126 79.2229 168.414 79.4664 168.69 79.6905C168.928 79.8847 169.176 80.084 169.474 80.1617C169.771 80.2395 170.133 80.1606 170.292 79.8973C170.4 79.7182 170.379 79.1329 170.615 79.0679C170.876 78.996 171.189 79.5545 171.317 79.7337C171.714 80.2895 172.02 80.8967 172.177 81.5643C172.196 81.6463 172.181 81.7313 172.137 81.7992C172.104 81.848 172.058 81.8844 172.006 81.9045C171.985 81.9121 171.964 81.9176 171.942 81.9204C170.628 82.0758 169.241 81.7015 168.136 80.8936C167.182 80.1962 166.443 79.1766 166.05 78.0407C166.376 79.8252 166.945 81.5846 167.503 83.3069L170.872 93.6992C171.074 94.3223 171.278 94.9036 171.525 95.4174C172.407 90.3481 174.91 87.4375 178.584 87.2222C182.537 86.9858 185.197 90.3369 185.901 96.4004C185.918 96.5474 185.933 96.7005 185.947 96.8578C187.801 95.0268 188.286 92.0703 188.402 90.3173C188.468 89.3128 188.469 88.2711 188.47 87.2644C188.472 85.2331 188.474 83.133 188.996 81.0944C189.045 80.9042 189.099 80.7158 189.156 80.5283C189.013 80.6573 188.866 80.7806 188.711 80.8935C187.606 81.7014 186.219 82.0756 184.905 81.9202C184.883 81.9175 184.862 81.9121 184.841 81.9044C184.788 81.8843 184.743 81.848 184.71 81.7991C184.665 81.7312 184.651 81.6461 184.67 81.564C184.792 81.0428 185.353 79.5008 185.998 79.138C186.095 79.0831 186.195 79.0553 186.295 79.0621C186.286 79.4233 186.239 79.8823 186.606 80.1081C186.864 80.2675 187.206 80.2345 187.479 80.101C187.752 79.9675 187.971 79.7476 188.184 79.5319C188.4 79.314 188.624 79.0817 188.702 78.785C188.78 78.4886 188.649 78.1136 188.353 78.035C187.63 77.8435 187.459 77.6718 188.237 77.3867C188.875 77.1527 189.643 77.0902 190.345 77.1179C190.528 76.5488 190.681 75.9823 190.769 75.4022C190.872 74.7218 190.88 74.0467 190.823 73.3827C190.75 73.5743 190.663 73.7603 190.554 73.9267C190.249 74.3984 189.846 74.7738 189.407 75.068C188.515 75.6507 187.636 75.9005 186.957 76.2332C186.313 76.5397 185.667 77.0395 185.102 77.6016C184.537 78.1686 184.045 78.7975 183.802 79.5636L183.792 79.5959C183.737 79.769 183.551 79.8649 183.378 79.8099C183.264 79.7737 183.184 79.6807 183.158 79.5724C183.036 79.0593 183.092 78.5158 183.23 78.0217C183.366 77.5223 183.593 77.0625 183.856 76.6329C184.398 75.7855 185.111 75.0474 186.057 74.5128C186.972 74.0117 187.849 73.7883 188.534 73.503C189.231 73.2064 189.838 72.8771 190.257 72.2192L190.284 72.1769C190.358 72.0617 190.485 72.0068 190.612 72.0115C190.211 70.2146 189.387 68.5452 188.612 67.1549C187.139 64.5164 186.257 63.1691 183.762 63.6952ZM164.305 74.8173C164.332 73.8798 164.465 72.9116 164.694 71.9072C161.399 69.2679 156.739 68.4831 152.766 69.9162C152.259 70.0993 151.64 70.3683 151.361 70.8242C150.998 71.4171 151.267 72.2728 151.704 72.7768C152.279 73.4394 153.181 73.8189 153.987 74.1029C157.296 75.269 160.856 75.5502 164.307 74.9382C164.308 74.8979 164.304 74.8577 164.305 74.8173ZM179.059 100.206C176.893 100.206 174.821 99.7762 173.087 98.9359C173.321 99.7985 173.723 100.56 174.285 101.143C175.314 102.21 177.028 103.342 178.555 103.398C179.787 103.448 180.699 102.944 181.877 102.314L182.181 102.151C182.858 101.791 183.503 100.956 184.154 99.5977C184.184 99.5338 184.207 99.4666 184.233 99.4008C182.534 99.9382 180.768 100.206 179.059 100.206ZM169.863 62.3874C171.639 61.512 173.245 61.8596 174.695 62.3615C174.454 59.6373 174.052 56.5593 173.091 53.6119C172.002 50.2742 170.28 47.4855 168.112 45.5473C165.022 42.787 160.54 41.3938 156.125 41.8152C152.865 42.1275 149.627 43.3871 146.775 45.4152C148.528 45.0207 150.317 44.6909 152.137 44.5789C155.284 44.3853 158.032 44.8859 160.303 46.0688C163.79 47.8826 165.855 51.1491 166.973 53.5702C168.295 56.4336 168.999 59.5066 169.65 62.5023C169.72 62.4634 169.789 62.4239 169.863 62.3874Z"/>
</mask>
<path d="M166.068 189.436C163.976 189.611 161.93 190.407 160.279 191.702C160.15 191.575 159.987 191.48 159.797 191.439C158.905 191.247 158.059 190.562 157.474 189.56C156.89 188.558 156.602 187.349 156.379 186.192C155.989 184.166 155.742 182.06 155.504 180.024C155.158 177.075 154.801 174.025 154 171.08C152.788 166.622 150.61 162.535 148.502 158.582L143.051 148.357C147.13 146.906 150.945 144.517 154.461 141.202C154.875 140.811 155.274 140.408 155.666 139.999C155.095 142.683 154.912 145.03 155.098 147.29C155.425 151.268 156.05 154.374 157.033 156.883C156.976 156.982 156.883 157.057 156.762 157.076C156.608 157.101 156.46 157.031 156.378 156.909C155.629 155.789 155.079 154.548 154.667 153.261C154.574 152.973 154.492 152.68 154.415 152.386C154.377 152.76 154.348 153.135 154.334 153.513C154.283 154.847 154.393 156.202 154.626 157.58L154.627 157.583C154.652 157.733 154.551 157.875 154.401 157.901C154.282 157.921 154.167 157.86 154.113 157.759C153.43 156.487 152.975 155.071 152.758 153.607C152.539 152.143 152.561 150.637 152.774 149.168C152.847 148.632 152.963 148.105 153.088 147.581C152.945 147.804 152.806 148.042 152.673 148.303C151.398 150.817 151.236 154.569 151.498 157.291C151.587 158.219 151.763 159.173 152.296 159.937C152.83 160.702 153.801 161.227 154.702 160.987C155.42 160.795 155.927 160.003 155.832 159.305C156.324 160.193 157.563 160.66 158.486 160.183C158.509 160.171 158.528 160.154 158.55 160.141C159.935 163.326 160.529 166.764 160.891 169.507C161.078 170.928 161.211 172.426 161.339 173.875C161.612 176.967 161.894 180.165 162.735 183.159C163.192 184.783 164.138 186.296 165.055 187.76C165.398 188.308 165.722 188.826 166.011 189.334L166.068 189.436ZM166.883 190.871C164.498 190.88 162.109 191.849 160.422 193.533C160.597 195.159 161.368 196.738 162.578 197.827C164.048 199.15 166.174 199.773 168.126 199.45C169.12 199.286 170.25 198.712 170.381 197.84C170.47 197.248 170.12 196.572 169.689 195.813L166.883 190.871ZM160.168 129.701C160.138 129.684 160.107 129.669 160.078 129.651C158.049 128.428 156.776 126.426 156.398 124.257C155.321 124.624 154.479 125.69 154.274 127.029C154.058 128.437 154.909 129.993 156.211 130.571C157.644 131.207 159.22 130.831 160.168 129.701ZM161.105 89.629C161.465 91.2028 161.309 92.8283 160.679 94.3296C160.715 94.3341 160.749 94.3296 160.785 94.3395C161.073 94.4202 161.346 94.5418 161.598 94.697C162.564 94.9641 163.716 94.6628 164.37 93.8975C165.176 92.9534 165.184 91.3992 164.388 90.4335C163.651 89.538 162.158 89.156 161.074 89.5209C161.083 89.5574 161.096 89.5922 161.105 89.629ZM160.497 87.9623C161.01 87.4332 161.347 86.723 161.406 85.9929C161.471 85.1844 161.269 84.4857 160.82 83.9721C160.785 83.9321 160.74 83.9025 160.702 83.865C159.713 84.2501 158.714 84.6072 157.704 84.9258C158.927 85.6869 159.879 86.7334 160.497 87.9623ZM166.657 115.464C167.185 115.644 167.699 115.876 168.188 116.17C168.477 115.588 168.765 115.006 169.051 114.426C168.14 114.467 167.201 114.814 166.657 115.464ZM167.438 117.44C164.421 115.623 160.484 116.597 158.665 119.615C156.846 122.633 157.822 126.568 160.84 128.388C161.033 128.504 161.23 128.605 161.431 128.697C161.834 128.01 162.231 127.32 162.622 126.63C161.478 126.064 160.622 124.929 160.396 123.622C160.16 122.257 160.599 120.801 161.57 119.728C162.876 118.286 165.025 117.677 167.043 118.182C167.082 118.191 167.12 118.207 167.159 118.218C167.281 117.978 167.403 117.737 167.523 117.498C167.494 117.48 167.468 117.458 167.438 117.44ZM149.483 98.3334C147.683 97.249 146.414 95.5286 145.908 93.489C145.863 93.3069 145.832 93.1237 145.8 92.9408C144.724 93.3083 143.884 94.3735 143.679 95.7111C143.463 97.1189 144.314 98.6751 145.616 99.2531C147.049 99.8911 148.625 99.5138 149.573 98.3836C149.543 98.3661 149.513 98.3514 149.483 98.3334ZM160.962 96.0423C160.694 95.9496 160.436 95.8274 160.194 95.6752C160.136 95.6386 160.091 95.5895 160.047 95.5407C160.022 95.5807 160.002 95.6225 159.976 95.6622C159.248 96.7784 158.305 97.6585 157.247 98.2847C157.608 99.2437 158.584 99.9499 159.579 99.9499C159.579 99.9499 159.581 99.9499 159.582 99.9499C160.628 99.9479 161.633 99.1345 161.823 98.1366C161.972 97.3533 161.592 96.502 160.962 96.0423ZM122.885 197.111L122.775 198.235C122.766 198.345 122.764 198.582 122.766 198.777C122.768 198.978 122.776 199.172 122.79 199.36C122.818 199.735 122.868 200.087 122.953 200.392C123.034 200.7 123.145 200.961 123.28 201.172C123.412 201.386 123.57 201.553 123.783 201.72C124.202 202.047 124.816 202.299 125.479 202.404C126.162 202.516 126.941 202.506 127.791 202.438L129.111 202.313C129.545 202.267 129.962 202.214 130.353 202.145C130.742 202.077 131.111 201.99 131.393 201.889C131.487 201.858 131.553 201.819 131.595 201.788C131.577 201.662 131.479 201.374 131.308 201.017C130.545 199.406 129.703 197.748 128.923 196.03C128.842 195.853 128.765 195.67 128.686 195.491C126.651 195.36 124.569 195.953 122.885 197.111ZM143.592 89.4195C143.915 90.4597 144.709 91.1524 145.684 91.3088C145.731 89.9896 146.107 88.6969 146.807 87.5353C147.087 87.0702 147.411 86.6424 147.771 86.2521C147.343 86.2252 146.916 86.1901 146.492 86.1481C146.022 86.1006 145.556 86.0452 145.092 85.9861C144.999 86.0294 144.905 86.0695 144.818 86.1238C143.76 86.7823 143.222 88.23 143.592 89.4195ZM162.246 115.278C163.127 115.06 164.022 115.005 164.9 115.089C164.849 114.103 164.255 113.13 163.363 112.705C162.279 112.187 160.833 112.512 160.074 113.443C159.419 114.245 159.311 115.454 159.755 116.388C160.506 115.884 161.342 115.502 162.246 115.278ZM147.341 93.1335C147.752 94.7906 148.783 96.1884 150.245 97.0695V97.07C153.083 98.7789 156.814 97.8074 158.739 94.8561C159.451 93.7652 159.814 92.5469 159.815 91.3251C159.72 91.2633 159.636 91.1811 159.576 91.0758C158.765 89.6585 157.495 88.6452 156.092 88.2964C154.616 87.9283 153.001 88.3729 152.07 89.4009C151.411 90.1293 151.099 91.146 151.256 92.0535C151.416 92.9774 152.084 93.7981 152.92 94.096C153.504 94.305 154.191 94.2536 154.754 93.9596C155.082 93.788 155.507 93.4609 155.668 92.8742C155.798 92.3971 155.651 91.8704 155.318 91.6226C155.167 91.5106 154.944 91.4645 154.735 91.4996C154.639 91.5165 154.463 91.5659 154.366 91.711C154.139 92.0503 153.681 92.14 153.342 91.9143C153.003 91.688 152.913 91.2297 153.139 90.8905C153.438 90.4437 153.915 90.1433 154.484 90.0453C155.096 89.9397 155.721 90.0828 156.199 90.4388C157.013 91.0452 157.38 92.2064 157.091 93.2635C156.856 94.1221 156.269 94.8341 155.437 95.2679C154.892 95.5519 154.277 95.6965 153.665 95.6965C153.241 95.6965 152.819 95.6274 152.424 95.4866C151.082 95.008 150.053 93.7593 149.801 92.3049C149.565 90.9404 150.004 89.4847 150.975 88.4108C152.282 86.968 154.43 86.3597 156.448 86.8641C157.3 87.076 158.108 87.4791 158.832 88.0284C158.333 87.2704 157.663 86.6179 156.843 86.1238C156.432 85.8763 156.001 85.6806 155.557 85.5322C154.259 85.8529 152.94 86.0937 151.596 86.2183C151.055 86.2683 150.515 86.2899 149.976 86.2996C149.212 86.8131 148.56 87.4859 148.07 88.2975C147.189 89.7592 146.93 91.4768 147.341 93.1335ZM153.282 99.3895C152.499 99.3895 151.716 99.2641 150.958 99.0119C150.946 99.0289 150.936 99.0478 150.924 99.0647C150.556 99.7287 150.476 100.534 150.715 101.286C150.971 102.094 151.564 102.699 152.343 102.946C153.646 103.36 154.54 102.698 154.957 102.265C155.8 101.393 156.153 100.065 155.883 98.9275C155.044 99.2298 154.164 99.3895 153.282 99.3895ZM66.1968 95.5987C67.0784 95.3802 67.9727 95.3248 68.8506 95.4096C68.8002 94.4232 68.2061 93.4506 67.314 93.0258C66.2301 92.5074 64.7839 92.8332 64.0248 93.7629C63.3695 94.5656 63.2609 95.7753 63.7058 96.7086C64.4568 96.2046 65.2929 95.8227 66.1968 95.5987ZM75.6193 101.159C75.6283 101.196 75.6418 101.231 75.6502 101.268C76.0105 102.842 75.8543 104.467 75.224 105.968C75.2596 105.973 75.2948 105.968 75.3302 105.978C75.6189 106.058 75.8914 106.18 76.1432 106.335C77.1069 106.602 78.261 106.301 78.915 105.536C79.7208 104.592 79.7289 103.037 78.9333 102.072C78.196 101.177 76.7034 100.794 75.6193 101.159ZM60.2327 102.95C60.277 101.657 60.638 100.358 61.3519 99.1732C61.6583 98.665 62.0202 98.2043 62.4208 97.786C61.5108 97.2349 60.2638 97.1997 59.3632 97.7616C58.3057 98.4203 57.7672 99.8679 58.137 101.057C58.4607 102.1 59.2539 102.799 60.2327 102.95ZM162.665 120.719C162.006 121.447 161.693 122.463 161.851 123.371C162 124.232 162.593 124.998 163.349 125.34C163.545 124.99 163.741 124.639 163.936 124.29C164.114 123.973 164.286 123.66 164.459 123.345C164.283 123.372 164.097 123.338 163.937 123.232C163.598 123.006 163.507 122.547 163.733 122.208C164.032 121.761 164.51 121.461 165.079 121.363C165.235 121.336 165.392 121.326 165.547 121.331C165.859 120.743 166.164 120.157 166.465 119.574C165.052 119.3 163.549 119.742 162.665 120.719ZM67.8266 111.027C67.0446 111.027 66.2616 110.902 65.504 110.65C65.4918 110.667 65.4816 110.686 65.4693 110.703C65.1017 111.367 65.0215 112.172 65.2603 112.925C65.5164 113.733 66.1099 114.338 66.8876 114.585C68.1896 114.997 69.0853 114.335 69.5028 113.903C70.345 113.031 70.6982 111.703 70.4284 110.565C69.5888 110.868 68.7091 111.027 67.8266 111.027ZM64.028 109.972V109.972C61.9976 108.748 60.7251 106.744 60.3482 104.573C59.1695 104.976 58.4003 106.203 58.2247 107.349C58.0089 108.758 58.8599 110.313 60.1614 110.891C61.5957 111.528 63.1707 111.152 64.1182 110.022C64.0883 110.005 64.0576 109.99 64.028 109.972ZM68.5361 193.562C67.321 193.84 66.2037 194.509 65.3564 195.424C65.4515 195.97 65.5417 196.502 65.6522 196.999C65.9051 198.171 66.3331 199.134 67.087 199.912C68.5753 201.515 70.9739 202.28 73.127 201.917L73.5254 201.837C73.6441 201.807 73.7624 201.774 73.8795 201.733C74.1131 201.652 74.3393 201.549 74.5452 201.43C74.961 201.194 75.2713 200.869 75.3865 200.6C75.4955 200.323 75.502 200.147 75.3149 199.694C75.2219 199.476 75.0806 199.218 74.9261 198.926L74.4721 198.073C73.7354 196.688 73.0065 195.295 72.2952 193.89C71.1134 193.405 69.7813 193.278 68.5361 193.562ZM174.609 103.317C174.592 103.399 174.582 103.482 174.57 103.564C172.821 106.777 171.289 109.877 169.767 112.972C169.688 112.964 169.61 112.953 169.529 112.949C168.422 112.893 167.135 113.18 166.171 113.891C165.814 112.812 165.039 111.869 163.998 111.373C162.3 110.564 160.12 111.052 158.93 112.51C158.205 113.398 157.906 114.576 158.04 115.7C156.896 115.409 155.64 115.561 154.632 116.188C153.005 117.202 152.208 119.345 152.777 121.176C153.102 122.224 153.77 123.06 154.627 123.574C153.69 124.325 153.019 125.473 152.815 126.805C152.498 128.872 153.701 131.071 155.611 131.92C156.859 132.474 158.214 132.47 159.391 132.011C157.567 134.817 155.541 137.478 153.111 139.77C147.707 144.866 141.576 147.629 134.837 148.013C135.43 146.129 136.216 144.28 137.101 142.506C138.631 139.371 140.492 136.434 142.565 133.366C142.681 133.193 142.696 132.973 142.591 132.788C142.443 132.527 142.112 132.436 141.852 132.584C139.251 134.064 137.049 136.19 135.29 138.639C135.302 138.43 135.311 138.222 135.314 138.021C135.345 135.98 135.375 133.939 135.406 131.898C135.415 131.325 135.363 130.808 135.267 130.34L134.614 132.35C134.289 133.377 133.979 134.411 133.675 135.462C133.357 136.511 133.076 137.577 132.708 138.673L132.706 138.678C132.612 138.959 132.308 139.11 132.028 139.016C131.847 138.954 131.719 138.805 131.677 138.631C131.401 137.465 131.351 136.274 131.398 135.089C131.449 134.108 131.594 133.132 131.813 132.172C131.461 132.971 131.125 133.78 130.816 134.609C130.382 135.782 130.005 136.985 129.61 138.227L129.609 138.23C129.544 138.434 129.326 138.547 129.121 138.482C128.972 138.435 128.872 138.305 128.853 138.16C128.687 136.823 128.754 135.467 128.964 134.133C129.01 133.833 129.068 133.535 129.131 133.238C128.929 133.554 128.735 133.876 128.552 134.207C127.907 135.377 127.397 136.637 126.987 137.973L126.986 137.976C126.941 138.121 126.787 138.203 126.642 138.158C126.526 138.122 126.451 138.017 126.447 137.902C126.409 136.459 126.639 134.989 127.102 133.584C127.564 132.177 128.261 130.841 129.111 129.625C129.417 129.179 129.757 128.76 130.104 128.349C129.876 128.484 129.645 128.633 129.409 128.807C127.141 130.48 125.31 133.76 124.321 136.309C123.984 137.178 123.713 138.11 123.846 139.032C123.979 139.955 124.611 140.86 125.524 141.05C126.244 141.2 127.053 140.733 127.29 140.077C127.342 141.083 128.234 142.044 129.266 142.032C130.181 142.022 130.972 141.248 131.158 140.369C131.276 140.805 131.536 141.204 131.906 141.465C132.324 141.76 132.861 141.863 133.364 141.779C132.644 143.164 132.04 144.609 131.533 146.085C130.905 147.889 130.4 149.861 130.158 151.799C129.664 155.686 129.898 159.429 129.713 162.947C129.669 163.829 129.595 164.695 129.489 165.549C129.376 166.415 129.244 167.201 129.027 168.03C128.612 169.684 127.987 171.393 127.456 173.249C126.42 176.964 125.855 180.829 126.033 184.735C126.075 185.709 126.157 186.685 126.295 187.655C126.432 188.641 126.635 189.634 126.892 190.589C127.215 191.766 127.618 192.9 128.058 194.003C126.282 194.019 124.504 194.492 122.942 195.35C122.939 195.302 122.939 195.258 122.935 195.208C122.922 195.043 122.898 194.862 122.856 194.658C122.83 194.548 122.805 194.444 122.772 194.331C122.726 194.195 122.672 194.061 122.613 193.93C122.535 193.774 122.419 193.595 122.302 193.445C122.185 193.311 122.076 193.197 121.929 193.078C121.632 192.836 121.227 192.657 120.867 192.592C120.268 192.504 119.936 192.577 119.772 192.598C119.764 192.586 119.757 192.577 119.75 192.562C119.679 192.418 119.627 192.238 119.623 191.944C119.605 191.394 119.811 190.395 119.947 189.518L120.424 186.827C120.752 185.028 121.096 183.217 121.408 181.388C122.032 177.734 122.543 173.986 122.499 170.167C122.484 168.47 122.338 166.756 122.096 165.086C122.596 165.094 123.1 164.919 123.467 164.577C124.422 163.689 124.255 162.161 124.014 160.879C123.637 158.873 123.259 156.867 122.882 154.861C122.776 154.298 122.622 153.802 122.435 153.363L122.196 155.462C122.082 156.534 121.986 157.609 121.898 158.699C121.796 159.791 121.734 160.891 121.591 162.039L121.591 162.044C121.589 162.06 121.579 162.073 121.576 162.088C121.366 161.041 121.137 160.003 120.898 158.975C120.066 155.375 119.14 151.86 118.728 148.327C118.294 144.809 118.471 141.231 119.111 137.735C120.469 130.742 123.754 124.169 128.513 118.663C128.636 118.522 128.641 118.314 128.52 118.17C128.387 118.009 128.148 117.988 127.988 118.122C125.129 120.509 122.678 123.44 120.807 126.712C118.905 129.972 117.584 133.567 116.788 137.27C116.151 140.422 115.874 143.668 116.048 146.894C103.468 147.272 91.0094 145.593 78.9793 141.895C79.0039 141.847 79.0316 141.801 79.0558 141.752C79.3574 141.162 79.7033 140.592 79.9675 139.983L80.7948 138.173C81.0663 137.568 81.2831 136.941 81.5293 136.325L81.8877 135.398L82.1942 134.452C83.8678 129.422 84.6663 124.111 84.5837 118.817L84.4962 116.833C84.4635 116.172 84.3684 115.514 84.2937 114.857L84.1763 113.872L84.0031 112.895C83.8822 112.244 83.7664 111.594 83.6153 110.951C83.0171 108.404 82.1402 105.93 80.9926 103.602C80.9538 102.712 80.6495 101.833 80.0721 101.132C79.3154 100.213 78.1051 99.6566 76.8897 99.5562C77.1856 99.0004 77.3711 98.3848 77.4225 97.7492C77.521 96.5346 77.1937 95.4589 76.4764 94.6387C75.7605 93.8199 74.6963 93.3333 73.4797 93.2685C72.3655 93.2079 71.085 93.5002 70.1223 94.2107C69.7652 93.1311 68.9899 92.1884 67.9492 91.6926C66.2508 90.8835 64.0714 91.3721 62.8814 92.8293C62.1559 93.7182 61.8565 94.8953 61.99 96.0191C60.8484 95.7304 59.5907 95.8803 58.5832 96.5082C56.9564 97.5215 56.1588 99.6652 56.7276 101.495C57.0534 102.544 57.7207 103.38 58.5778 103.893C57.6415 104.644 56.9701 105.793 56.766 107.125C56.449 109.192 57.6515 111.391 59.5623 112.24C60.9195 112.842 62.4085 112.791 63.6515 112.204C63.6654 112.595 63.7322 112.987 63.8534 113.37C64.2569 114.642 65.2001 115.596 66.4411 115.991C66.8645 116.125 67.2868 116.191 67.7009 116.191C68.7608 116.191 69.7634 115.758 70.5649 114.928C71.2553 114.213 71.7126 113.301 71.9025 112.345C72.5521 112.798 73.3271 113.063 74.1242 113.063C74.1261 113.063 74.128 113.063 74.1305 113.063C75.878 113.061 77.498 111.737 77.8184 110.05C77.9606 109.301 77.8304 108.529 77.5023 107.856C78.4719 107.712 79.3958 107.246 80.0378 106.493C80.142 106.371 80.2345 106.242 80.3216 106.109C80.7145 107.865 81.0633 109.615 81.3131 111.381C81.6171 113.87 81.8588 116.356 81.8563 118.856C81.8916 123.844 81.1585 128.852 79.569 133.582L79.2805 134.472L78.9414 135.343C78.7086 135.921 78.5059 136.512 78.2496 137.079L77.4704 138.778C77.2231 139.35 76.8955 139.882 76.6126 140.436C76.0571 141.552 75.3534 142.581 74.7111 143.646C74.0232 144.686 73.2801 145.708 72.5208 146.734C71.0024 148.785 69.4007 150.85 67.9908 153.12C67.2873 154.255 66.6341 155.441 66.0802 156.69C65.7415 157.453 65.4507 158.24 65.1986 159.038L65.1447 159.487L64.8926 161.585C64.7719 162.655 64.6684 163.73 64.5736 164.819C64.4646 165.91 64.3954 167.011 64.246 168.157L64.2454 168.163C64.2072 168.456 63.9382 168.663 63.6449 168.625C63.455 168.6 63.3011 168.478 63.2266 168.316C62.7294 167.225 62.4501 166.066 62.2672 164.895C62.1276 163.922 62.0803 162.936 62.1101 161.952C61.9188 162.805 61.7456 163.663 61.603 164.536C61.4041 165.771 61.2673 167.024 61.1203 168.319L61.1199 168.322C61.0958 168.535 60.9032 168.688 60.69 168.664C60.5346 168.646 60.411 168.539 60.3648 168.4C59.9432 167.121 59.7458 165.777 59.6937 164.427C59.6814 164.124 59.6802 163.821 59.6844 163.517C59.5479 163.867 59.4194 164.22 59.3049 164.58C58.8983 165.852 58.6417 167.187 58.4975 168.577L58.4971 168.58C58.4814 168.732 58.346 168.842 58.1947 168.826C58.0742 168.813 57.9797 168.724 57.9543 168.612C57.6374 167.204 57.5784 165.718 57.7612 164.25C57.9418 162.78 58.3671 161.334 58.9657 159.977C59.1795 159.479 59.4321 159.003 59.6929 158.532C59.4952 158.709 59.2976 158.9 59.1001 159.116C57.1984 161.197 56.0367 164.768 55.5601 167.461C55.3976 168.379 55.3119 169.345 55.6207 170.225C55.9296 171.104 56.7252 171.87 57.6572 171.88C58.3933 171.888 59.0961 171.273 59.2023 170.583C59.4481 171.56 60.509 172.33 61.5185 172.119C62.4148 171.932 63.0411 171.019 63.0537 170.121C63.2536 170.526 63.5862 170.867 63.9993 171.051C64.1145 171.103 64.2355 171.137 64.3585 171.164C64.5956 172.978 64.9613 174.766 65.4168 176.499C66.708 181.609 68.7027 186.479 70.9478 191.157C71.0961 191.468 71.2491 191.776 71.4001 192.086C70.3475 191.879 69.2527 191.885 68.2078 192.123C67.0355 192.391 65.9402 192.957 65.0146 193.727C64.9707 193.541 64.9318 193.356 64.8801 193.169C64.7904 192.848 64.5304 192.585 64.1819 192.51C63.6802 192.4 63.1851 192.719 63.0759 193.22L62.9774 193.673C62.9808 193.694 62.9849 193.737 62.9496 193.811C62.9181 193.884 62.8464 193.97 62.7684 194.024C62.6445 194.122 62.4109 194.159 62.118 194.07C61.5662 193.929 60.9322 193.154 60.4718 192.358C59.5349 190.711 59.0149 188.643 58.3782 186.642C57.136 182.629 55.9899 178.587 54.9181 174.525C53.8259 170.458 52.9271 166.388 51.9413 162.257C51.6786 161.195 51.3719 160.213 51.2444 159.281C51.1803 158.818 51.1621 158.372 51.2122 157.959C51.2389 157.753 51.2825 157.555 51.3384 157.363L51.4417 157.082L51.5922 156.715C52.4293 154.741 53.1552 152.718 53.7444 150.651C54.2166 149.006 54.6019 147.334 54.9001 145.645C54.9583 146.048 55.0616 146.44 55.241 146.807C55.6506 147.644 56.5305 148.312 57.4573 148.212C58.1965 148.133 58.8192 147.428 58.8322 146.723C59.1818 147.676 60.335 148.328 61.32 147.998C62.1883 147.707 62.7033 146.727 62.611 145.834C62.8569 146.213 63.2271 146.513 63.6588 146.647C64.3777 146.872 65.2195 146.63 65.7104 146.059C66.5604 145.07 66.2257 143.57 65.844 142.323C65.2469 140.371 64.6496 138.42 64.0525 136.468C63.8848 135.92 63.6768 135.444 63.4422 135.028L63.4373 137.141C63.4428 138.218 63.4659 139.298 63.4994 140.391C63.5188 141.487 63.5789 142.588 63.5648 143.744L63.5647 143.75C63.5611 144.045 63.3183 144.282 63.0225 144.279C62.831 144.276 62.6638 144.173 62.5708 144.021C61.9494 142.995 61.5364 141.878 61.2176 140.735C60.9649 139.786 60.8027 138.812 60.7172 137.832C60.6268 138.701 60.5554 139.573 60.516 140.457C60.463 141.707 60.4739 142.967 60.4794 144.271V144.273C60.4804 144.488 60.307 144.663 60.0924 144.664C59.9359 144.664 59.8006 144.572 59.7384 144.439C59.1699 143.218 58.8166 141.907 58.6068 140.573C58.5592 140.273 58.5226 139.972 58.491 139.67C58.3964 140.033 58.31 140.399 58.2384 140.77C57.9836 142.081 57.8851 143.437 57.9046 144.834L57.9047 144.837C57.9068 144.989 57.7852 145.114 57.633 145.116C57.5119 145.118 57.4077 145.041 57.3695 144.932C56.8899 143.571 56.6573 142.102 56.667 140.622C56.6743 139.141 56.9274 137.656 57.363 136.238C57.5172 135.719 57.7123 135.216 57.9162 134.718C57.7406 134.916 57.5666 135.129 57.3959 135.367C56.5729 136.512 55.9777 138.006 55.5684 139.555C55.5907 139.008 55.6032 138.461 55.605 137.914C55.616 135.758 55.4588 133.6 55.1335 131.469C54.8095 129.336 54.344 127.226 53.7044 125.168C52.4442 121.046 50.5776 117.117 48.2079 113.521C47.6156 112.622 46.9888 111.746 46.334 110.891C46.006 110.463 45.67 110.043 45.327 109.627L44.8073 109.009C44.6316 108.806 44.462 108.606 44.2463 108.379C43.4287 107.543 42.6059 106.905 41.864 106.213C41.4935 105.872 41.145 105.526 40.8552 105.175C40.5652 104.826 40.3371 104.464 40.2422 104.161C40.12 103.777 39.6919 103.396 39.2658 103.466C38.6638 103.565 38.8001 104.012 38.7921 104.543C38.7805 105.323 39.3146 108.08 38.3811 108.456C37.646 108.751 37.7932 108.768 37.3902 109.381C37.2607 109.578 37.0304 109.728 36.7979 109.691C36.483 109.641 36.2328 109.276 35.9252 109.36C35.6634 109.431 35.598 109.764 35.4434 109.987C35.0514 110.553 34.4753 110.203 34.0489 109.934C33.6125 109.659 33.3249 109.191 33.1668 108.7C32.6941 107.231 32.3857 105.412 32.4004 103.868C32.4291 100.834 33.6661 97.838 35.4805 95.2941C37.2662 92.7908 39.5585 90.6243 42.0517 88.7233C41.8094 89.4346 41.8491 90.247 42.3163 90.8221C42.788 91.4027 43.7273 91.5391 44.3249 91.1575C43.7077 91.9684 43.7825 93.2965 44.5988 93.9457C45.3157 94.5154 46.4176 94.4143 47.1167 93.8506C46.9328 94.2632 46.8829 94.7369 47.0049 95.1725C47.208 95.8978 47.8687 96.4724 48.615 96.5733C49.9073 96.7479 50.9836 95.6504 51.8219 94.6516C53.1341 93.0882 54.4462 91.5247 55.7582 89.9613C56.1268 89.5221 56.4125 89.0887 56.634 88.6656L54.8586 89.8119C53.9579 90.403 53.065 91.0101 52.1664 91.6329C51.2574 92.2459 50.3665 92.8959 49.3892 93.5133L49.3845 93.5163C49.1344 93.6743 48.8034 93.5998 48.6454 93.3495C48.5432 93.1877 48.5388 92.9911 48.616 92.8303C49.1378 91.7509 49.8502 90.7962 50.6351 89.9068C51.2943 89.1778 52.0225 88.5118 52.7985 87.9065C52.0206 88.3037 51.2494 88.7187 50.4869 89.1667C49.4096 89.8025 48.3582 90.4978 47.2678 91.2119L47.2655 91.2135C47.086 91.3311 46.8451 91.2809 46.7275 91.1013C46.6418 90.9705 46.6456 90.8067 46.7233 90.6822C47.4381 89.5407 48.3457 88.5305 49.3506 87.6283C49.576 87.4252 49.8089 87.2304 50.0451 87.0394C49.6889 87.1579 49.3348 87.2847 48.9847 87.4266C47.7462 87.9265 46.5552 88.582 45.3936 89.3589L45.3912 89.3606C45.2647 89.4451 45.0936 89.4113 45.009 89.2847C44.9416 89.184 44.9497 89.0545 45.0197 88.9633C45.9007 87.8201 47.0067 86.8249 48.2529 86.0277C49.4992 85.2278 50.8828 84.6316 52.3099 84.2247C52.8291 84.0716 53.3567 83.9616 53.886 83.8615C53.6239 83.8223 53.3503 83.7925 53.0578 83.7785C51.6139 83.7098 49.9934 84.0426 48.4361 84.5644C49.0971 84.1939 49.7637 83.8325 50.4368 83.4835C53.3153 81.9892 56.2794 80.6861 59.3412 79.6705C62.4012 78.6461 65.5511 77.8962 68.7402 77.4191C70.3361 77.1892 71.9407 77.0249 73.5494 76.9284C75.159 76.8457 76.7701 76.8305 78.3809 76.8883C81.612 77.0095 84.8372 77.3975 88.0469 77.9195C94.4712 78.9639 100.818 80.6247 107.265 82.0075C110.489 82.6982 113.737 83.3395 117.03 83.775C120.315 84.2185 123.664 84.4559 126.953 84.52C130.247 84.6059 133.515 84.6298 136.741 84.8928C138.848 85.04 140.942 85.3869 143.079 85.7044C142.125 86.8277 141.74 88.4357 142.181 89.8569C142.507 90.9052 143.175 91.7413 144.032 92.2549C143.095 93.0064 142.424 94.1541 142.22 95.4864C141.903 97.5534 143.105 99.7524 145.016 100.601C146.372 101.203 147.861 101.153 149.105 100.566C149.119 100.957 149.186 101.349 149.308 101.732C149.711 103.003 150.654 103.958 151.895 104.352C152.318 104.486 152.741 104.553 153.155 104.553C154.215 104.553 155.217 104.119 156.018 103.29C156.709 102.575 157.166 101.663 157.357 100.707C158.006 101.16 158.781 101.425 159.578 101.425C159.58 101.425 159.582 101.425 159.584 101.425C161.332 101.422 162.952 100.098 163.272 98.4115C163.415 97.6629 163.285 96.8908 162.957 96.2172C163.926 96.0735 164.85 95.607 165.492 94.8546C166.763 93.3667 166.777 91.0115 165.527 89.4937C164.77 88.575 163.559 88.0177 162.344 87.9173C162.64 87.3615 162.825 86.7464 162.877 86.1113C162.964 85.0297 162.713 84.0596 162.151 83.2805C163.273 82.8158 164.385 82.3285 165.49 81.8392C165.69 82.4958 165.897 83.1391 166.098 83.7614L169.467 94.1537C169.916 95.537 170.411 96.8511 171.406 97.7627C171.534 99.4969 172.157 101.062 173.222 102.167C173.593 102.552 174.073 102.949 174.609 103.317ZM66.3305 128.701C66.4635 129.623 67.0959 130.528 68.0083 130.719C68.7291 130.869 69.5374 130.402 69.7751 129.745C69.8271 130.752 70.7189 131.712 71.7504 131.7C72.666 131.69 73.457 130.916 73.6432 130.037C73.761 130.473 74.0213 130.872 74.3908 131.133C75.0061 131.567 75.8814 131.596 76.5239 131.203C77.6365 130.523 77.7784 128.992 77.7982 127.688C77.8289 125.648 77.8599 123.607 77.8907 121.566C77.8992 120.993 77.8474 120.476 77.752 120.008L77.0986 122.018C76.773 123.045 76.4636 124.079 76.1598 125.13C75.8418 126.179 75.5609 127.245 75.1925 128.341L75.1908 128.346C75.0965 128.627 74.7927 128.778 74.5123 128.683C74.3307 128.622 74.2034 128.473 74.1617 128.299C73.885 127.133 73.8351 125.942 73.8825 124.757C73.9336 123.776 74.078 122.8 74.2977 121.84C73.945 122.639 73.609 123.448 73.3002 124.277C72.8661 125.45 72.4894 126.653 72.0945 127.895L72.0936 127.898C72.0285 128.102 71.81 128.215 71.6055 128.15C71.4563 128.103 71.3561 127.973 71.3376 127.828C71.1714 126.491 71.238 125.135 71.4478 123.801C71.4944 123.501 71.5521 123.203 71.6149 122.906C71.4134 123.222 71.2187 123.544 71.0368 123.875C70.3917 125.045 69.8815 126.305 69.4712 127.641L69.4704 127.644C69.4257 127.789 69.2716 127.871 69.1261 127.826C69.0101 127.79 68.9348 127.685 68.9316 127.57C68.8932 126.127 69.1229 124.657 69.5864 123.252C70.0481 121.845 70.745 120.509 71.595 119.293C71.901 118.847 72.2411 118.428 72.5882 118.016C72.3601 118.152 72.1291 118.301 71.8937 118.475C69.6253 120.148 67.7945 123.427 66.8058 125.977C66.4688 126.846 66.1977 127.778 66.3305 128.701ZM99.98 87.4901C99.0051 87.7448 98.2448 88.8127 98.4653 89.8203C98.6608 90.7149 99.5791 91.3328 100.477 91.3373C100.074 91.5409 99.7359 91.8766 99.5552 92.2913C99.2546 92.9819 99.4036 93.8446 99.9184 94.3944C100.81 95.3463 102.337 95.1754 103.618 94.9308C105.623 94.5478 107.628 94.1648 109.633 93.7817C110.196 93.6741 110.691 93.5188 111.13 93.3305L109.03 93.0976C107.958 92.9866 106.883 92.8931 105.793 92.8084C104.701 92.7094 103.6 92.6503 102.452 92.5115L102.446 92.5108C102.153 92.4753 101.943 92.2084 101.979 91.9147C102.002 91.7245 102.123 91.5694 102.284 91.4935C103.37 90.9864 104.526 90.6964 105.696 90.5028C106.668 90.3541 107.653 90.2979 108.637 90.3188C107.783 90.1353 106.923 89.9698 106.049 89.8354C104.812 89.6478 103.558 89.5226 102.261 89.3873L102.259 89.387C102.045 89.3646 101.89 89.1736 101.912 88.9601C101.929 88.8046 102.035 88.68 102.174 88.6325C103.449 88.1992 104.791 87.9896 106.14 87.9251C106.443 87.91 106.746 87.9061 107.05 87.9074C106.699 87.7743 106.344 87.6489 105.984 87.5376C104.707 87.1426 103.37 86.8983 101.979 86.7668L101.976 86.7666C101.825 86.7524 101.713 86.6179 101.728 86.4664C101.739 86.3457 101.827 86.2505 101.939 86.2241C103.344 85.8943 104.83 85.8218 106.3 85.9911C107.772 86.1583 109.221 86.5703 110.584 87.1566C111.083 87.3659 111.562 87.614 112.035 87.8707C111.857 87.6746 111.663 87.4786 111.446 87.2832C109.347 85.4006 105.766 84.2718 103.069 83.8197C102.149 83.6656 101.182 83.5887 100.305 83.9057C99.429 84.2227 98.6706 85.0253 98.6691 85.9573C98.6681 86.6931 99.2892 87.3902 99.98 87.4901ZM91.2565 102.87C90.3567 103.113 89.4453 103.446 88.7808 104.1C88.1163 104.753 87.7613 105.799 88.1487 106.647C88.4574 107.323 89.3236 107.691 89.9961 107.48C89.2026 108.113 88.9491 109.413 89.5738 110.243C90.1246 110.975 91.2168 111.154 92.0349 110.783C91.7533 111.137 91.586 111.583 91.5947 112.035C91.6093 112.788 92.1044 113.51 92.8015 113.795C94.0085 114.289 95.3259 113.497 96.3881 112.74C98.0507 111.557 99.7135 110.373 101.376 109.189C101.843 108.856 102.229 108.508 102.549 108.154L100.543 108.818C99.5227 109.164 98.506 109.528 97.4797 109.905C96.4458 110.27 95.4204 110.676 94.3194 111.028L94.3141 111.029C94.0322 111.119 93.7307 110.964 93.6406 110.682C93.5823 110.5 93.6275 110.309 93.7425 110.172C94.5187 109.258 95.4481 108.513 96.4311 107.849C97.2522 107.309 98.1241 106.847 99.0273 106.456C98.1745 106.645 97.324 106.854 96.4735 107.096C95.2711 107.441 94.0788 107.85 92.8441 108.267L92.8415 108.268C92.6382 108.337 92.4175 108.228 92.3488 108.025C92.2986 107.876 92.3435 107.719 92.4499 107.618C93.4282 106.692 94.5606 105.942 95.7599 105.321C96.029 105.181 96.3034 105.051 96.5799 104.926C96.2054 104.951 95.8307 104.985 95.4563 105.034C94.1318 105.207 92.8146 105.543 91.4951 106.003L91.4923 106.004C91.3486 106.054 91.1915 105.979 91.1413 105.835C91.1014 105.72 91.1418 105.597 91.2323 105.527C92.3722 104.641 93.6925 103.956 95.0991 103.497C96.5064 103.035 97.9953 102.806 99.4788 102.77C100.02 102.752 100.558 102.778 101.096 102.814C100.852 102.71 100.594 102.613 100.315 102.526C97.6229 101.689 93.8964 102.156 91.2565 102.87ZM85.6088 86.3984L83.5372 86.8155C82.4825 87.0359 81.4294 87.274 80.3652 87.5249C79.2949 87.7628 78.2279 88.0416 77.0925 88.2583L77.087 88.2595C76.7963 88.315 76.5158 88.1243 76.4602 87.8337C76.4242 87.6456 76.4923 87.4611 76.6228 87.3398C77.5035 86.5261 78.516 85.8985 79.5719 85.358C80.452 84.9208 81.3735 84.5676 82.3173 84.2882C81.448 84.3732 80.5786 84.4772 79.7051 84.6149C78.4698 84.8124 77.237 85.0747 75.9606 85.3404L75.958 85.341C75.7479 85.3848 75.542 85.2498 75.4982 85.0397C75.4663 84.8866 75.5298 84.7355 75.6476 84.648C76.7304 83.8472 77.9449 83.2394 79.2103 82.7675C79.4943 82.6609 79.7825 82.5648 80.0721 82.4738C79.6973 82.4535 79.3213 82.442 78.9435 82.4459C77.6078 82.4579 76.2596 82.6319 74.8943 82.93L74.8914 82.9306C74.7427 82.9632 74.5959 82.8689 74.5635 82.7202C74.5376 82.6018 74.5927 82.4843 74.6912 82.425C75.9293 81.6834 77.3227 81.1622 78.7745 80.8763C80.227 80.5879 81.733 80.5395 83.2098 80.6832C83.7489 80.7307 84.2804 80.8215 84.8095 80.922C84.5798 80.7896 84.3363 80.6617 84.0692 80.5418C81.4978 79.3866 77.7421 79.401 75.0356 79.7909C74.1131 79.9237 73.168 80.1449 72.4296 80.7133C71.6912 81.2818 71.2127 82.2773 71.4949 83.1655C71.7199 83.8741 72.5354 84.3434 73.2285 84.2156C72.3645 84.7484 71.9559 86.0086 72.476 86.9077C72.9346 87.7004 73.9972 88.0095 74.854 87.7407C74.5318 88.0573 74.3119 88.4799 74.2661 88.93C74.1898 89.6792 74.5943 90.4558 75.2518 90.8229C76.3905 91.4585 77.7938 90.8309 78.9394 90.2081C80.7326 89.2334 82.526 88.2586 84.3193 87.2839C84.8233 87.0099 85.2479 86.7112 85.6088 86.3984ZM101.508 132.65C101.837 132.181 102.084 131.725 102.268 131.284L100.599 132.579C99.7527 133.246 98.9157 133.928 98.0744 134.627C97.222 135.317 96.3907 136.041 95.4706 136.741L95.4662 136.744C95.2307 136.923 94.8945 136.877 94.7155 136.642C94.5995 136.489 94.5783 136.294 94.6411 136.127C95.0674 135.006 95.6946 133.994 96.3993 133.04C96.9929 132.256 97.6606 131.53 98.3812 130.859C97.6406 131.322 96.9083 131.803 96.1874 132.315C95.1693 133.042 94.182 133.826 93.1577 134.632L93.1554 134.633C92.9868 134.766 92.7425 134.737 92.6098 134.568C92.5131 134.445 92.5026 134.282 92.5692 134.151C93.1822 132.952 93.9991 131.867 94.922 130.881C95.1289 130.659 95.344 130.445 95.5629 130.234C95.2183 130.383 94.8765 130.54 94.54 130.712C93.3493 131.317 92.2197 132.073 91.1299 132.948L91.1277 132.95C91.0091 133.045 90.8356 133.026 90.7405 132.907C90.6645 132.813 90.6616 132.683 90.7233 132.586C91.5019 131.371 92.5175 130.284 93.69 129.382C94.8624 128.477 96.189 127.763 97.5754 127.234C98.0793 127.037 98.5957 126.881 99.1143 126.736C98.8497 126.719 98.5745 126.713 98.2821 126.725C95.4652 126.835 92.1089 128.52 89.8589 130.075C89.0921 130.604 88.3444 131.223 87.9363 132.061C87.5282 132.899 87.5429 134.003 88.1911 134.673C88.7113 135.21 89.659 135.265 90.2211 134.833C89.6766 135.694 89.866 137.011 90.7356 137.587C91.4991 138.092 92.5883 137.896 93.2358 137.274C93.0884 137.701 93.0796 138.177 93.239 138.6C93.5044 139.305 94.2122 139.821 94.9645 139.856C96.267 139.918 97.2442 138.732 97.9928 137.664C99.1643 135.993 100.336 134.322 101.508 132.65ZM117.759 121.097C118.089 120.627 118.336 120.171 118.52 119.73L116.85 121.026C116.004 121.693 115.167 122.375 114.326 123.073C113.473 123.763 112.642 124.487 111.722 125.187L111.718 125.19C111.482 125.37 111.146 125.324 110.967 125.088C110.851 124.936 110.83 124.74 110.893 124.574C111.319 123.453 111.946 122.44 112.651 121.486C113.244 120.703 113.912 119.976 114.633 119.306C113.892 119.769 113.16 120.249 112.439 120.762C111.421 121.488 110.434 122.272 109.409 123.078L109.407 123.08C109.239 123.213 108.994 123.184 108.861 123.015C108.765 122.892 108.754 122.728 108.821 122.598C109.434 121.398 110.251 120.314 111.174 119.327C111.381 119.106 111.596 118.891 111.815 118.681C111.47 118.83 111.128 118.987 110.792 119.158C109.601 119.764 108.471 120.52 107.381 121.395L107.379 121.396C107.26 121.492 107.087 121.473 106.992 121.354C106.916 121.259 106.913 121.13 106.975 121.033C107.753 119.818 108.769 118.731 109.941 117.828C111.114 116.923 112.44 116.21 113.827 115.681C114.331 115.483 114.847 115.328 115.366 115.182C115.101 115.166 114.826 115.16 114.533 115.171C111.717 115.282 108.36 116.967 106.11 118.521C105.344 119.051 104.596 119.669 104.188 120.507C103.78 121.345 103.794 122.45 104.442 123.119C104.963 123.657 105.91 123.711 106.472 123.279C105.928 124.141 106.117 125.457 106.987 126.033C107.75 126.539 108.84 126.343 109.487 125.72C109.34 126.147 109.331 126.624 109.49 127.047C109.756 127.752 110.464 128.267 111.216 128.303C112.518 128.365 113.496 127.178 114.244 126.111C115.416 124.439 116.588 122.768 117.759 121.097ZM128.342 106.556L126.242 106.323C125.17 106.212 124.095 106.118 123.005 106.034C121.913 105.935 120.812 105.876 119.664 105.737L119.658 105.736C119.365 105.701 119.155 105.434 119.191 105.14C119.214 104.95 119.335 104.795 119.496 104.719C120.583 104.212 121.738 103.922 122.908 103.728C123.88 103.58 124.865 103.523 125.849 103.544C124.995 103.361 124.135 103.195 123.261 103.061C122.024 102.873 120.77 102.748 119.473 102.613L119.471 102.612C119.257 102.59 119.102 102.399 119.125 102.186C119.141 102.03 119.247 101.906 119.386 101.858C120.661 101.425 122.003 101.215 123.352 101.151C123.655 101.136 123.958 101.132 124.262 101.133C123.911 101 123.557 100.874 123.196 100.763C121.92 100.368 120.582 100.124 119.191 99.9925L119.188 99.9923C119.037 99.9779 118.925 99.8436 118.94 99.6921C118.951 99.5714 119.039 99.4762 119.151 99.4498C120.556 99.1201 122.042 99.0475 123.512 99.2168C124.984 99.384 126.433 99.796 127.796 100.382C128.295 100.592 128.774 100.84 129.247 101.096C129.069 100.9 128.876 100.704 128.658 100.509C126.56 98.6263 122.978 97.4975 120.281 97.0454C119.362 96.8913 118.394 96.8143 117.518 97.1314C116.641 97.4483 115.883 98.251 115.881 99.1829C115.88 99.9192 116.501 100.616 117.192 100.716C116.217 100.971 115.457 102.039 115.677 103.046C115.873 103.941 116.791 104.559 117.689 104.563C117.286 104.767 116.948 105.102 116.768 105.517C116.467 106.208 116.616 107.07 117.131 107.62C118.022 108.572 119.55 108.401 120.831 108.157C122.835 107.773 124.84 107.391 126.845 107.008C127.408 106.899 127.903 106.744 128.342 106.556ZM142.643 107.537C142.652 106.963 142.6 106.447 142.504 105.979L141.851 107.988C141.525 109.015 141.216 110.05 140.912 111.1C140.594 112.15 140.313 113.216 139.945 114.312L139.943 114.317C139.849 114.597 139.545 114.748 139.265 114.654C139.083 114.593 138.956 114.443 138.914 114.27C138.638 113.103 138.588 111.913 138.635 110.728C138.686 109.746 138.831 108.77 139.05 107.811C138.698 108.61 138.362 109.418 138.053 110.247C137.619 111.42 137.242 112.623 136.847 113.865L136.846 113.868C136.781 114.073 136.563 114.186 136.358 114.121C136.209 114.073 136.109 113.944 136.09 113.798C135.924 112.462 135.991 111.105 136.2 109.771C136.247 109.471 136.305 109.173 136.367 108.876C136.166 109.193 135.971 109.515 135.789 109.846C135.144 111.015 134.634 112.276 134.224 113.611L134.223 113.614C134.178 113.76 134.024 113.841 133.879 113.797C133.763 113.761 133.688 113.656 133.684 113.541C133.646 112.098 133.876 110.628 134.339 109.223C134.801 107.816 135.498 106.48 136.348 105.264C136.654 104.817 136.994 104.399 137.341 103.987C137.113 104.122 136.882 104.272 136.646 104.445C134.378 106.119 132.547 109.398 131.558 111.948C131.221 112.817 130.95 113.748 131.083 114.671C131.216 115.593 131.848 116.499 132.761 116.689C133.481 116.839 134.29 116.372 134.527 115.715C134.579 116.722 135.471 117.682 136.502 117.671C137.418 117.66 138.209 116.886 138.395 116.008C138.513 116.444 138.773 116.843 139.143 117.103C139.758 117.538 140.633 117.566 141.276 117.174C142.389 116.493 142.531 114.963 142.55 113.659C142.581 111.618 142.612 109.578 142.643 107.537ZM75.5071 107.681C75.239 107.588 74.9815 107.466 74.7394 107.313C74.6811 107.276 74.6364 107.227 74.592 107.178C74.5667 107.218 74.5465 107.26 74.5204 107.3C73.7925 108.416 72.8497 109.296 71.7925 109.923C72.1533 110.881 73.1292 111.588 74.124 111.588C74.125 111.588 74.1264 111.588 74.1274 111.588C75.1734 111.586 76.1785 110.773 76.3682 109.775C76.5166 108.992 76.137 108.14 75.5071 107.681ZM156.282 122.631C156.326 121.337 156.687 120.038 157.401 118.853C157.707 118.345 158.069 117.884 158.47 117.465C157.56 116.914 156.313 116.88 155.413 117.441C154.355 118.1 153.816 119.548 154.186 120.737C154.51 121.779 155.301 122.48 156.282 122.631ZM73.284 106.494C73.9959 105.403 74.3595 104.185 74.3605 102.962C74.2656 102.901 74.1818 102.819 74.1216 102.714C73.3096 101.296 72.0397 100.283 70.6368 99.9345C69.1618 99.5664 67.5465 100.011 66.6158 101.039C65.9566 101.767 65.6443 102.784 65.8014 103.692C65.961 104.615 66.6297 105.437 67.4653 105.734C68.0495 105.942 68.7362 105.891 69.3001 105.597C69.6283 105.426 70.0529 105.099 70.213 104.512C70.3437 104.035 70.1961 103.509 69.8632 103.261C69.7129 103.149 69.489 103.103 69.2804 103.138C69.1843 103.155 69.0084 103.204 68.9113 103.349C68.6845 103.688 68.2267 103.778 67.8875 103.552C67.5487 103.326 67.458 102.868 67.6842 102.529C67.9831 102.082 68.4606 101.782 69.0289 101.683C69.6415 101.579 70.2656 101.721 70.7442 102.077C71.5586 102.683 71.9257 103.844 71.6368 104.902C71.4019 105.76 70.8148 106.472 69.9831 106.905C69.4383 107.19 68.8224 107.334 68.2102 107.334C67.7864 107.334 67.3645 107.265 66.9696 107.125C65.6277 106.646 64.5981 105.398 64.3463 103.943C64.1109 102.577 64.55 101.122 65.521 100.048C66.8274 98.6064 68.9755 97.9971 70.993 98.5021C71.8455 98.714 72.6534 99.117 73.378 99.6665C72.8784 98.9084 72.2087 98.2553 71.3885 97.7608C68.3707 95.9426 64.4348 96.9166 62.6162 99.9353C60.7971 102.953 61.772 106.888 64.7897 108.708V108.708C67.6276 110.418 71.3588 109.445 73.284 106.494ZM72.1507 96.4967C73.4217 97.2634 74.4073 98.3373 75.0419 99.6003C75.5549 99.0713 75.8917 98.3613 75.9512 97.6305C76.0165 96.8224 75.8143 96.1237 75.3656 95.6107C74.9078 95.0869 74.2283 94.7868 73.401 94.743C72.389 94.684 71.2349 95.0364 70.6081 95.7848C71.14 95.9658 71.6579 96.1997 72.1507 96.4967ZM119.836 192.685C119.836 192.685 119.837 192.686 119.837 192.687C119.847 192.693 119.852 192.7 119.855 192.698C119.855 192.697 119.843 192.69 119.836 192.685ZM46.3279 162.616C46.212 163.507 45.485 164.341 44.5729 164.424C43.5457 164.518 42.5805 163.631 42.4489 162.632C42.2639 163.305 41.4953 163.835 40.7648 163.742C39.8403 163.625 39.138 162.773 38.9322 161.864C38.7265 160.955 38.923 160.005 39.1898 159.112C39.9733 156.492 41.538 153.078 43.6665 151.229C43.8875 151.037 44.106 150.87 44.3226 150.717C44.0092 151.155 43.7035 151.6 43.4339 152.069C42.683 153.349 42.0943 154.736 41.7457 156.175C41.3951 157.612 41.2827 159.096 41.4355 160.531C41.4478 160.645 41.5314 160.744 41.6496 160.771C41.7982 160.804 41.9453 160.71 41.9783 160.562L41.979 160.559C42.2821 159.195 42.6906 157.898 43.241 156.681C43.3962 156.336 43.5645 156 43.7404 155.668C43.7014 155.969 43.6675 156.271 43.6448 156.574C43.5415 157.92 43.5828 159.278 43.8546 160.597C43.8844 160.741 43.9949 160.862 44.1472 160.897C44.3562 160.946 44.5652 160.816 44.6138 160.606L44.6144 160.604C44.9096 159.334 45.1895 158.105 45.5294 156.901C45.7712 156.05 46.0421 155.218 46.3303 154.393C46.1874 155.367 46.121 156.352 46.1479 157.334C46.1947 158.519 46.3389 159.702 46.7073 160.843C46.7625 161.013 46.9015 161.152 47.0872 161.198C47.3742 161.27 47.665 161.095 47.7368 160.808L47.7382 160.803C48.0185 159.681 48.2137 158.596 48.4476 157.525C48.6672 156.454 48.8935 155.398 49.1366 154.348L49.6285 152.293C49.7607 152.752 49.8533 153.263 49.8903 153.835C49.9244 154.365 49.9586 154.896 49.9928 155.426C50.7093 153.687 51.3387 151.913 51.8534 150.108C52.9926 146.138 53.6244 142.027 53.6375 137.91C53.6482 135.852 53.4982 133.794 53.1878 131.761C52.8785 129.728 52.4349 127.712 51.8232 125.746C51.0599 123.249 50.0612 120.824 48.8557 118.507C49.5005 122.321 49.6858 126.21 49.3845 130.129L49.3791 130.197C49.1672 132.947 48.927 136.065 47.91 138.695C47.0677 140.872 45.4126 142.736 43.952 144.381L43.5382 144.848C43.0621 145.388 42.5946 145.948 42.1253 146.51C41.196 147.623 40.2352 148.775 39.1816 149.8C38.9245 150.05 38.668 150.284 38.4166 150.513C37.4898 151.357 36.7576 152.024 36.3569 153.175C35.8875 154.525 35.8163 156.046 35.7477 157.517L34.4379 185.602C34.3707 187.048 34.3658 188.318 34.9956 189.212C35.2806 189.617 35.8623 189.904 36.3947 189.881C36.6955 189.871 36.9074 189.769 37.0231 189.58C37.2555 189.198 37.7155 189.021 38.1444 189.15C38.5726 189.277 38.8608 189.677 38.8464 190.124C38.8197 190.95 38.877 191.872 39.0128 192.876C39.8958 192.198 40.913 191.695 42.0041 191.414C43.3283 191.073 44.7137 191.075 46.0278 191.39C42.6001 182.449 42.949 172.185 46.9257 163.483C46.6528 163.256 46.4476 162.951 46.3279 162.616ZM42.3723 192.844C41.2286 193.138 40.162 193.757 39.3058 194.585C39.3847 194.972 39.4703 195.367 39.5694 195.775C40.01 197.59 40.9882 199.048 42.2523 199.776C43.9343 200.744 47.0828 200.736 48.8572 199.757C49.1864 199.575 49.2751 199.385 49.316 199.24C49.5653 198.356 48.6231 196.7 47.9996 195.605C47.8102 195.272 47.6363 194.965 47.4999 194.698C47.2471 194.203 47.0114 193.702 46.7837 193.197C45.4025 192.612 43.8174 192.472 42.3723 192.844ZM197.13 46.909C201.096 44.1762 205.814 42.644 210.6 42.4624C207.444 41.5485 204.506 41.1824 201.711 41.3491C196.158 41.6796 190.835 44.2371 187.108 48.3666C183.564 52.293 181.585 57.5085 181.603 62.789C182.2 62.5904 182.816 62.3864 183.456 62.251C184.821 61.9623 185.872 62.1295 186.725 62.5769C188.046 56.2654 191.817 50.5708 197.13 46.909ZM192.333 74.0733C195.12 74.3893 197.948 74.4423 200.744 74.2259C201.923 74.1342 203.262 73.9766 204.227 73.2621C204.934 72.7389 205.461 71.6833 205.079 70.8916C204.79 70.293 204.052 69.8768 202.821 69.6194C199.167 68.8575 195.221 69.4506 191.946 71.2428C192.182 72.1507 192.325 73.099 192.333 74.0733ZM184.509 97.7468C184.51 97.3347 184.476 96.9323 184.434 96.5702C184.362 95.9491 184.253 95.2433 184.091 94.5157C183.914 94.7634 183.815 94.8921 183.738 94.965C183.292 95.3921 182.697 95.9008 182.066 96.045C182.03 96.0536 181.993 96.0575 181.956 96.0575C181.859 96.0575 181.763 96.0286 181.682 95.9739C181.569 95.8979 181.492 95.7793 181.471 95.6452C181.387 95.1368 181.54 94.6141 181.912 94.1332C182.353 93.5637 183.025 93.145 183.644 92.9142C182.879 90.6912 181.489 88.6868 178.961 88.6868C178.865 88.6868 178.769 88.6892 178.671 88.6949C176.026 88.8503 174.543 90.7397 173.711 92.9236C173.799 92.9417 173.899 92.9604 173.969 92.9728C174.206 93.0166 174.324 93.0391 174.414 93.0747C174.826 93.2348 175.212 93.4648 175.56 93.7584C175.996 94.1269 176.808 94.812 176.619 95.7268C176.588 95.8757 176.49 96.0021 176.353 96.0695C176.285 96.1027 176.211 96.1194 176.137 96.1194C176.063 96.1194 175.988 96.1025 175.92 96.069C174.773 95.5064 173.933 94.881 173.318 94.1366C173.169 94.6828 173.051 95.231 172.962 95.7605C172.882 96.2331 172.851 96.6974 172.853 97.1507C172.906 97.168 172.958 97.1897 173.007 97.2197C175.991 99.0313 180.5 99.2366 184.509 97.7468ZM183.762 63.6952C183.183 63.8177 182.614 64.0076 182.011 64.2083C181.003 64.5441 179.96 64.8914 178.829 64.9193C177.444 64.9413 176.203 64.4955 175.022 64.0516C173.44 63.4577 172.072 62.9432 170.515 63.7114C169.073 64.422 168.539 65.7356 167.92 67.2568C167.779 67.6046 167.636 67.9553 167.481 68.3033C166.893 69.6188 166.466 70.848 166.183 72.0146C166.224 72.0073 166.265 72.0028 166.308 72.0097C166.417 72.0272 166.506 72.0899 166.561 72.1756L166.589 72.219C167.002 72.8673 167.596 73.1946 168.28 73.4889C168.948 73.7736 169.805 73.9894 170.704 74.4652C171.639 74.963 172.377 75.709 172.902 76.559C173.409 77.4076 173.759 78.463 173.518 79.4769C173.476 79.6539 173.298 79.7632 173.121 79.7211C173.005 79.6934 172.918 79.607 172.884 79.5008L172.874 79.4684C172.63 78.6982 172.177 78.0706 171.632 77.5164C171.084 76.9659 170.473 76.4983 169.824 76.2031C169.145 75.878 168.276 75.6247 167.399 75.0401C166.969 74.7444 166.575 74.3722 166.278 73.9046C166.137 73.6833 166.022 73.4334 165.948 73.1734C165.855 73.7494 165.797 74.3121 165.781 74.8603C165.758 75.6638 165.818 76.4631 165.929 77.2582C165.929 77.2572 165.929 77.2559 165.93 77.255C165.977 77.1859 166.05 77.143 166.131 77.1357C166.84 77.0721 167.552 77.1441 168.245 77.2974C169.132 77.4937 169.481 77.9075 168.436 78.0488C168.084 78.0962 167.912 78.5461 168.019 78.8845C168.126 79.2229 168.414 79.4664 168.69 79.6905C168.928 79.8847 169.176 80.084 169.474 80.1617C169.771 80.2395 170.133 80.1606 170.292 79.8973C170.4 79.7182 170.379 79.1329 170.615 79.0679C170.876 78.996 171.189 79.5545 171.317 79.7337C171.714 80.2895 172.02 80.8967 172.177 81.5643C172.196 81.6463 172.181 81.7313 172.137 81.7992C172.104 81.848 172.058 81.8844 172.006 81.9045C171.985 81.9121 171.964 81.9176 171.942 81.9204C170.628 82.0758 169.241 81.7015 168.136 80.8936C167.182 80.1962 166.443 79.1766 166.05 78.0407C166.376 79.8252 166.945 81.5846 167.503 83.3069L170.872 93.6992C171.074 94.3223 171.278 94.9036 171.525 95.4174C172.407 90.3481 174.91 87.4375 178.584 87.2222C182.537 86.9858 185.197 90.3369 185.901 96.4004C185.918 96.5474 185.933 96.7005 185.947 96.8578C187.801 95.0268 188.286 92.0703 188.402 90.3173C188.468 89.3128 188.469 88.2711 188.47 87.2644C188.472 85.2331 188.474 83.133 188.996 81.0944C189.045 80.9042 189.099 80.7158 189.156 80.5283C189.013 80.6573 188.866 80.7806 188.711 80.8935C187.606 81.7014 186.219 82.0756 184.905 81.9202C184.883 81.9175 184.862 81.9121 184.841 81.9044C184.788 81.8843 184.743 81.848 184.71 81.7991C184.665 81.7312 184.651 81.6461 184.67 81.564C184.792 81.0428 185.353 79.5008 185.998 79.138C186.095 79.0831 186.195 79.0553 186.295 79.0621C186.286 79.4233 186.239 79.8823 186.606 80.1081C186.864 80.2675 187.206 80.2345 187.479 80.101C187.752 79.9675 187.971 79.7476 188.184 79.5319C188.4 79.314 188.624 79.0817 188.702 78.785C188.78 78.4886 188.649 78.1136 188.353 78.035C187.63 77.8435 187.459 77.6718 188.237 77.3867C188.875 77.1527 189.643 77.0902 190.345 77.1179C190.528 76.5488 190.681 75.9823 190.769 75.4022C190.872 74.7218 190.88 74.0467 190.823 73.3827C190.75 73.5743 190.663 73.7603 190.554 73.9267C190.249 74.3984 189.846 74.7738 189.407 75.068C188.515 75.6507 187.636 75.9005 186.957 76.2332C186.313 76.5397 185.667 77.0395 185.102 77.6016C184.537 78.1686 184.045 78.7975 183.802 79.5636L183.792 79.5959C183.737 79.769 183.551 79.8649 183.378 79.8099C183.264 79.7737 183.184 79.6807 183.158 79.5724C183.036 79.0593 183.092 78.5158 183.23 78.0217C183.366 77.5223 183.593 77.0625 183.856 76.6329C184.398 75.7855 185.111 75.0474 186.057 74.5128C186.972 74.0117 187.849 73.7883 188.534 73.503C189.231 73.2064 189.838 72.8771 190.257 72.2192L190.284 72.1769C190.358 72.0617 190.485 72.0068 190.612 72.0115C190.211 70.2146 189.387 68.5452 188.612 67.1549C187.139 64.5164 186.257 63.1691 183.762 63.6952ZM164.305 74.8173C164.332 73.8798 164.465 72.9116 164.694 71.9072C161.399 69.2679 156.739 68.4831 152.766 69.9162C152.259 70.0993 151.64 70.3683 151.361 70.8242C150.998 71.4171 151.267 72.2728 151.704 72.7768C152.279 73.4394 153.181 73.8189 153.987 74.1029C157.296 75.269 160.856 75.5502 164.307 74.9382C164.308 74.8979 164.304 74.8577 164.305 74.8173ZM179.059 100.206C176.893 100.206 174.821 99.7762 173.087 98.9359C173.321 99.7985 173.723 100.56 174.285 101.143C175.314 102.21 177.028 103.342 178.555 103.398C179.787 103.448 180.699 102.944 181.877 102.314L182.181 102.151C182.858 101.791 183.503 100.956 184.154 99.5977C184.184 99.5338 184.207 99.4666 184.233 99.4008C182.534 99.9382 180.768 100.206 179.059 100.206ZM169.863 62.3874C171.639 61.512 173.245 61.8596 174.695 62.3615C174.454 59.6373 174.052 56.5593 173.091 53.6119C172.002 50.2742 170.28 47.4855 168.112 45.5473C165.022 42.787 160.54 41.3938 156.125 41.8152C152.865 42.1275 149.627 43.3871 146.775 45.4152C148.528 45.0207 150.317 44.6909 152.137 44.5789C155.284 44.3853 158.032 44.8859 160.303 46.0688C163.79 47.8826 165.855 51.1491 166.973 53.5702C168.295 56.4336 168.999 59.5066 169.65 62.5023C169.72 62.4634 169.789 62.4239 169.863 62.3874Z" fill="#270303" stroke="black" stroke-width="1.62" mask="url(#path-1-inside-1_7_288)"/>
<circle cx="121.5" cy="121.5" r="120.69" stroke="black" stroke-width="1.62" stroke-linecap="square" stroke-dasharray="16.2 16.2"/>
</svg>
