<svg width="243" height="243" viewBox="0 0 243 243" fill="none" xmlns="http://www.w3.org/2000/svg">
<mask id="path-1-inside-1_7_291" fill="white">
<path d="M29.5322 100.896C29.5241 100.959 29.5198 101.023 29.5128 101.087C26.0951 104.72 24.0642 109.718 24.0445 114.7C24.0436 114.952 23.8526 115.16 23.6028 115.185C23.587 115.186 23.5709 115.187 23.555 115.187C23.3249 115.187 23.1226 115.025 23.0762 114.795C21.3161 106.037 25.5526 95.4755 33.2015 89.2853C32.4925 90.64 31.8976 92.0528 31.3437 93.4769C31.1717 93.9568 31.0278 94.4467 30.8692 94.9313C30.7254 95.4204 30.5328 95.8958 30.4309 96.3965C30.2078 97.3916 29.9106 98.3715 29.7794 99.3854L29.5322 100.896ZM202.377 82.5105C202.445 82.6084 202.505 82.7105 202.571 82.8095C203.549 81.787 204.037 80.109 204.013 77.7979C203.979 74.6613 204.203 71.7576 204.716 68.6601C204.855 67.8223 204.838 66.7805 204.33 66.601C203.742 66.3901 202.964 67.467 202.738 67.8007L196.462 77.1011C198.787 78.4463 200.83 80.2813 202.377 82.5105ZM43.7776 100.032C43.3334 99.1042 43.4407 97.9 44.0925 97.1018C44.8468 96.1775 46.2835 95.8563 47.361 96.3685C48.2486 96.792 48.8395 97.7611 48.8882 98.7427C47.09 98.5708 45.2796 99.0268 43.7776 100.032ZM55.6142 104.451C56.6912 104.088 58.1746 104.468 58.9069 105.358C59.698 106.317 59.6899 107.862 58.8893 108.8C58.24 109.56 57.0942 109.86 56.1346 109.594C55.8845 109.44 55.6137 109.319 55.3268 109.239C55.2917 109.229 55.2569 109.234 55.2217 109.229C55.848 107.738 56.0029 106.123 55.6446 104.559C55.6363 104.522 55.623 104.487 55.6142 104.451ZM52.1672 99.8182C51.6737 99.5207 51.1591 99.2889 50.6344 99.1114C51.2572 98.3692 52.4029 98.0213 53.41 98.075C54.2317 98.1185 54.9062 98.4168 55.3613 98.9373C55.8076 99.4472 56.0086 100.142 55.9438 100.945C55.885 101.671 55.5505 102.376 55.0407 102.902C54.4099 101.647 53.4305 100.58 52.1672 99.8182ZM56.3579 113.012C56.1693 114.004 55.1706 114.812 54.1318 114.814C54.1309 114.814 54.1298 114.814 54.1289 114.814C53.1396 114.814 52.1697 114.112 51.8118 113.159C52.8624 112.537 53.7994 111.662 54.5227 110.553C54.5484 110.514 54.5685 110.472 54.5937 110.433C54.6375 110.481 54.6817 110.53 54.7396 110.566C54.9802 110.718 55.2366 110.84 55.5025 110.932C56.1286 111.388 56.506 112.233 56.3579 113.012ZM50.456 113.798C50.7239 114.928 50.373 116.248 49.5361 117.115C49.1218 117.544 48.2327 118.202 46.938 117.792C46.1645 117.546 45.575 116.945 45.3206 116.142C45.0833 115.395 45.163 114.595 45.5283 113.934C45.5405 113.918 45.5508 113.898 45.5626 113.882C46.3156 114.132 47.094 114.257 47.8714 114.257C48.748 114.257 49.622 114.098 50.456 113.798ZM44.0965 113.207C44.126 113.225 44.1563 113.24 44.186 113.257C43.2445 114.38 41.6783 114.754 40.2542 114.121C38.9604 113.547 38.1148 112 38.3292 110.601C38.5036 109.463 39.2667 108.246 40.4366 107.845C40.4685 108.028 40.4993 108.211 40.5445 108.393C41.0467 110.42 42.308 112.13 44.0965 113.208V113.207ZM216.001 107.524C216.496 107.185 216.851 106.752 217.194 106.334C217.31 106.193 217.426 106.051 217.547 105.916C217.844 105.582 218.279 105.183 218.735 105.192C219.018 105.196 219.338 105.381 219.568 105.676C219.791 105.959 219.958 106.348 220.094 106.898C220.518 108.616 220.339 110.508 219.613 112.124C218.596 112.524 217.542 112.818 216.468 113.01C216.409 112.953 216.343 112.903 216.265 112.867C215.318 112.431 214.246 111.936 213.604 111.122C213.092 110.472 212.882 109.404 213.433 108.81C213.715 108.508 214.155 108.344 214.666 108.154C215.111 107.988 215.572 107.817 216.001 107.524ZM113.706 75.2789C115.171 75.3603 116.636 75.4382 118.102 75.5056C118.159 75.7223 118.164 75.9641 118.1 76.1952C117.941 76.7781 117.519 77.1033 117.193 77.2732C116.632 77.5654 115.95 77.6155 115.37 77.4092C114.54 77.1133 113.875 76.2978 113.717 75.3802C113.711 75.347 113.711 75.3125 113.706 75.2789ZM115.73 82.6695C116.607 82.6695 117.481 82.5109 118.315 82.2106C118.583 83.3406 118.232 84.6601 117.395 85.5269C116.98 85.9556 116.091 86.615 114.797 86.2039C114.023 85.9584 113.434 85.3569 113.179 84.5545C112.942 83.8069 113.022 83.0068 113.387 82.3468C113.399 82.3299 113.41 82.3113 113.421 82.2944C114.174 82.5448 114.952 82.6695 115.73 82.6695ZM106.188 79.0144C106.392 77.6836 107.228 76.6246 108.299 76.2604C108.674 78.4158 109.939 80.4048 111.955 81.6202C111.984 81.638 112.015 81.6528 112.045 81.67C111.103 82.7926 109.538 83.1665 108.112 82.5341C106.819 81.9596 105.974 80.4137 106.188 79.0144ZM123.994 78.0065C123.743 77.8523 123.472 77.7316 123.185 77.6513C123.15 77.6416 123.116 77.6461 123.08 77.6416C123.341 77.0195 123.515 76.3763 123.608 75.7239C123.914 75.7343 124.221 75.7496 124.527 75.7595C125.459 75.7908 126.392 75.8096 127.324 75.8353C127.263 76.3411 127.075 76.8278 126.747 77.2121C126.098 77.9727 124.951 78.2715 123.994 78.0065ZM119.67 81.5717C120.721 80.9495 121.658 80.0749 122.382 78.9658C122.407 78.9262 122.427 78.8847 122.453 78.8448C122.496 78.8933 122.541 78.9422 122.598 78.9785C122.839 79.1298 123.095 79.2516 123.361 79.3438C123.988 79.8002 124.365 80.6462 124.217 81.4244C124.028 82.416 123.03 83.2242 121.99 83.2262C121.989 83.2262 121.988 83.2262 121.987 83.2262C120.998 83.2262 120.029 82.5244 119.67 81.5717ZM112.712 80.3645C110.773 79.195 109.689 77.1455 109.65 75.0322C110.508 75.0873 111.365 75.1477 112.224 75.1982C112.234 75.3426 112.247 75.4869 112.271 75.6299C112.521 77.0745 113.545 78.3153 114.878 78.7909C115.27 78.9309 115.69 78.9995 116.111 78.9995C116.719 78.9995 117.331 78.8558 117.872 78.5732C118.699 78.1421 119.282 77.4346 119.516 76.5819C119.607 76.2471 119.626 75.9032 119.591 75.5687C120.439 75.6052 121.288 75.6355 122.136 75.6671C121.99 76.5344 121.663 77.3825 121.153 78.1644C119.24 81.0974 115.532 82.0626 112.712 80.3645ZM148.623 173.325C148.14 172.655 147.936 171.768 147.738 170.91C146.628 166.085 145.228 159.682 144.243 152.935C143.382 147.036 141.648 141.336 139.101 135.981C140.964 136.264 142.806 136.655 144.615 137.199C146.48 142.066 147.536 147.249 148.387 152.468C149.29 158.005 150.056 163.631 151.456 169.171C151.821 170.559 152.177 171.917 152.671 173.306C152.751 173.522 152.836 173.739 152.925 173.956C151.119 174.547 149.648 174.747 148.623 173.325ZM96.1853 120.977C97.8323 120.569 99.539 120.826 100.991 121.702C101.806 122.193 102.471 122.842 102.968 123.595C102.248 123.049 101.445 122.649 100.599 122.437C98.5925 121.94 96.458 122.543 95.1613 123.975C94.1959 125.042 93.7597 126.488 93.994 127.845C94.2441 129.29 95.2673 130.531 96.6007 131.006C96.9931 131.146 97.4122 131.215 97.8329 131.215C98.4411 131.215 99.0532 131.071 99.594 130.789C100.421 130.357 101.004 129.65 101.237 128.798C101.525 127.747 101.16 126.593 100.351 125.99C99.8763 125.637 99.2566 125.495 98.6479 125.599C98.0826 125.696 97.6076 125.995 97.3106 126.438C97.0852 126.775 97.1749 127.23 97.5116 127.456C97.8487 127.682 98.3036 127.591 98.5289 127.255C98.6254 127.111 98.8006 127.061 98.8965 127.045C99.1019 127.01 99.3258 127.056 99.4751 127.167C99.8012 127.409 99.9505 127.944 99.8226 128.41C99.6636 128.993 99.2415 129.319 98.9154 129.489C98.3554 129.78 97.6737 129.831 97.0926 129.625C96.2623 129.329 95.5979 128.513 95.4393 127.595C95.2831 126.693 95.5931 125.683 96.2485 124.959C97.1727 123.938 98.7774 123.497 100.244 123.861C101.638 124.208 102.9 125.215 103.707 126.623C103.767 126.727 103.85 126.809 103.944 126.87C103.943 128.085 103.582 129.295 102.874 130.38C100.962 133.313 97.2543 134.279 94.4343 132.579V132.58C91.4358 130.772 90.4666 126.861 92.2745 123.863C93.1504 122.41 94.5391 121.385 96.1853 120.977ZM172.189 109.538C171.939 109.384 171.668 109.263 171.381 109.183C171.346 109.173 171.311 109.178 171.276 109.173C171.902 107.681 172.057 106.067 171.699 104.503C171.69 104.466 171.677 104.431 171.668 104.395C172.745 104.032 174.229 104.412 174.961 105.302C175.752 106.261 175.744 107.806 174.943 108.744C174.294 109.504 173.149 109.803 172.189 109.538ZM95.8324 119.553C94.9342 119.776 94.1034 120.155 93.357 120.656C92.9143 119.729 93.0223 118.527 93.674 117.729C94.4293 116.805 95.8663 116.482 96.9419 116.997C97.8284 117.419 98.419 118.385 98.4691 119.365C97.5968 119.281 96.7081 119.336 95.8324 119.553ZM162.306 98.8696C161.408 99.0922 160.577 99.4716 159.83 99.9722C159.388 99.0449 159.496 97.8429 160.147 97.0457C160.902 96.1209 162.338 95.7982 163.415 96.3128C164.302 96.7349 164.893 97.7013 164.943 98.6814C164.07 98.5975 163.182 98.6523 162.306 98.8696ZM168.221 99.7618C167.732 99.467 167.218 99.2345 166.689 99.0546C167.313 98.312 168.46 97.9647 169.464 98.0192C170.286 98.0626 170.961 98.3611 171.416 98.8809C171.862 99.3911 172.063 100.085 171.998 100.888C171.939 101.614 171.604 102.32 171.095 102.846C170.464 101.591 169.485 100.524 168.221 99.7618ZM167.866 113.103C168.917 112.48 169.854 111.606 170.577 110.497C170.603 110.458 170.623 110.416 170.648 110.376C170.692 110.425 170.736 110.474 170.794 110.51C171.035 110.661 171.291 110.783 171.557 110.875C172.183 111.332 172.56 112.178 172.413 112.956C172.224 113.948 171.226 114.756 170.186 114.757C170.185 114.757 170.184 114.757 170.182 114.757C169.193 114.757 168.224 114.056 167.866 113.103ZM104.175 131.059C104.219 131.108 104.263 131.157 104.321 131.193C104.562 131.345 104.817 131.466 105.083 131.558C105.71 132.015 106.087 132.861 105.939 133.639C105.857 134.071 105.616 134.463 105.29 134.774C104.189 134.761 103.089 134.734 101.99 134.695C101.731 134.438 101.522 134.129 101.393 133.786C102.443 133.164 103.38 132.289 104.104 131.18C104.129 131.141 104.15 131.099 104.175 131.059ZM108.47 129.427C107.821 130.188 106.673 130.487 105.716 130.222C105.466 130.067 105.195 129.946 104.909 129.866C104.873 129.856 104.838 129.861 104.803 129.857C105.429 128.365 105.584 126.75 105.225 125.186C105.217 125.149 105.204 125.115 105.195 125.078C106.272 124.715 107.755 125.095 108.488 125.985C109.279 126.945 109.271 128.489 108.47 129.427ZM62.7289 150.026C61.3472 156.446 62.1164 164.854 64.6358 171.149C63.9115 171.617 62.9859 171.662 62.444 171.636C61.2499 171.583 60.202 171.152 59.8788 170.766C59.7805 170.649 59.6533 170.57 59.5162 170.532C59.1164 169.411 58.7733 168.269 58.4924 167.112C57.8611 164.558 57.587 161.926 57.4936 159.297C57.4171 156.667 57.5872 154.025 58.0211 151.427C58.1316 150.778 58.2384 150.129 58.3859 149.488C58.5169 148.842 58.6658 148.203 58.8343 147.569C59.1719 146.298 59.5708 145.038 59.9966 143.779C60.8544 141.263 61.8591 138.769 62.7994 136.219C63.0354 135.582 63.2635 134.94 63.4843 134.293L64.1408 132.378C64.4245 131.538 64.6919 130.686 64.9466 129.828C66.266 130.241 67.5905 130.63 68.9183 131.004C66.2173 137.105 64.1332 143.502 62.7289 150.026ZM105.525 121.572C105.466 122.298 105.131 123.004 104.621 123.529C103.991 122.274 103.011 121.207 101.748 120.446C101.259 120.151 100.744 119.918 100.216 119.738C100.838 118.995 101.982 118.647 102.991 118.702C103.813 118.746 104.488 119.045 104.943 119.565C105.389 120.075 105.59 120.769 105.525 121.572ZM87.9102 131.229C88.0847 130.09 88.849 128.871 90.0207 128.471C90.3953 130.628 91.6598 132.619 93.6774 133.835V133.836C93.7069 133.853 93.7372 133.868 93.7669 133.885C93.693 133.973 93.6192 134.06 93.5381 134.139C91.8472 133.975 90.1596 133.785 88.4768 133.559C88.02 132.872 87.7875 132.029 87.9102 131.229ZM156.379 106.175C155.41 106.024 154.618 105.328 154.297 104.294C153.929 103.112 154.464 101.674 155.515 101.019C156.412 100.461 157.651 100.495 158.554 101.043C158.156 101.459 157.797 101.917 157.492 102.422C156.782 103.599 156.423 104.89 156.379 106.175ZM42.6929 103.235C43.8845 101.259 45.9881 100.164 48.1425 100.164C49.2578 100.164 50.3874 100.458 51.4099 101.075C52.2249 101.566 52.8908 102.215 53.3874 102.968C52.6676 102.422 51.8646 102.021 51.0175 101.81C49.0114 101.313 46.8773 101.915 45.5797 103.348C44.6143 104.415 44.1784 105.861 44.4129 107.217C44.6626 108.662 45.6852 109.903 47.0191 110.378C47.4115 110.518 47.8306 110.587 48.2518 110.587C48.86 110.587 49.4721 110.443 50.0135 110.161C50.84 109.73 51.4234 109.022 51.6568 108.169C51.9437 107.119 51.579 105.965 50.7697 105.362C50.2952 105.008 49.675 104.868 49.0659 104.971C48.5006 105.069 48.0261 105.367 47.7291 105.811C47.5042 106.148 47.5945 106.604 47.9311 106.828C48.2676 107.052 48.7231 106.963 48.9484 106.626C49.0449 106.482 49.2195 106.433 49.3151 106.416C49.5233 106.382 49.7447 106.427 49.8942 106.539C50.2197 106.781 50.3692 107.316 50.2417 107.783C50.0827 108.365 49.6606 108.691 49.3345 108.861C48.7741 109.153 48.0913 109.203 47.5112 108.997C46.6809 108.701 46.0168 107.885 45.8578 106.967C45.7022 106.065 46.012 105.055 46.6671 104.331C47.5918 103.31 49.1969 102.869 50.663 103.233C52.0571 103.58 53.3189 104.587 54.1253 105.995C54.1851 106.1 54.2685 106.181 54.3628 106.243C54.3619 107.457 54.0008 108.668 53.2936 109.752C51.3806 112.685 47.6731 113.651 44.8533 111.951V111.951C41.8549 110.144 40.8857 106.234 42.6929 103.235ZM92.0806 121.727C91.6827 122.142 91.323 122.6 91.0186 123.105C90.3091 124.282 89.9503 125.573 89.9057 126.857C88.9346 126.705 88.1447 126.013 87.8236 124.977C87.456 123.795 87.9913 122.357 89.0415 121.702C89.9379 121.144 91.1769 121.179 92.0806 121.727ZM160.908 111.895V111.896C157.909 110.088 156.94 106.178 158.748 103.179C160.555 100.18 164.464 99.2106 167.464 101.018C168.279 101.51 168.945 102.158 169.441 102.912C168.722 102.366 167.919 101.965 167.072 101.755C165.066 101.253 162.932 101.859 161.635 103.291C160.669 104.358 160.233 105.805 160.468 107.161C160.717 108.607 161.741 109.847 163.074 110.322C163.466 110.462 163.885 110.531 164.306 110.531C164.914 110.531 165.526 110.387 166.067 110.105C166.894 109.674 167.477 108.966 167.711 108.114C167.998 107.064 167.634 105.909 166.824 105.307C166.349 104.953 165.729 104.812 165.12 104.916C164.555 105.013 164.08 105.312 163.783 105.756C163.558 106.093 163.649 106.548 163.985 106.773C164.322 106.997 164.777 106.908 165.003 106.571C165.099 106.427 165.274 106.378 165.369 106.361C165.576 106.325 165.799 106.372 165.948 106.483C166.275 106.726 166.424 107.26 166.296 107.727C166.137 108.31 165.715 108.635 165.389 108.805C164.829 109.097 164.147 109.148 163.566 108.941C162.736 108.645 162.071 107.829 161.912 106.911C161.757 106.01 162.066 104.999 162.722 104.276C163.647 103.254 165.254 102.813 166.718 103.178C168.112 103.525 169.374 104.531 170.18 105.939C170.24 106.044 170.323 106.125 170.417 106.187C170.417 107.401 170.056 108.612 169.348 109.696C167.435 112.629 163.728 113.595 160.908 111.895ZM154.384 110.546C154.558 109.406 155.322 108.188 156.494 107.788C156.869 109.944 158.133 111.935 160.151 113.152V113.152C160.18 113.17 160.21 113.184 160.24 113.202C159.298 114.324 157.731 114.698 156.308 114.065C155.015 113.491 154.169 111.945 154.384 110.546ZM30.8857 108.386C30.9435 108.87 31.0267 109.35 31.0957 109.832C31.178 110.312 31.2141 110.801 31.3466 111.271C32.8881 118.913 37.8243 125.775 44.4736 129.815C44.7579 129.987 44.8835 130.322 44.8022 130.633C44.2688 132.672 44.1696 134.82 44.3946 136.961C44.4373 137.409 44.4984 137.856 44.5631 138.303C44.5963 138.177 44.6312 138.053 44.6682 137.93C45.4458 135.326 46.9998 131.933 49.1146 130.096C49.3341 129.905 49.5512 129.739 49.7663 129.587C49.4551 130.023 49.1514 130.464 48.8835 130.93C48.1379 132.202 47.5532 133.581 47.207 135.011C46.8591 136.439 46.7477 137.913 46.8997 139.339C46.912 139.453 46.995 139.551 47.1127 139.578C47.2604 139.61 47.4064 139.517 47.4398 139.367C47.7406 138.011 48.1463 136.723 48.6929 135.513C48.8469 135.171 49.0141 134.837 49.1888 134.507C49.1502 134.806 49.1166 135.106 49.0941 135.407C48.9915 136.745 49.033 138.094 49.3032 139.404C49.3329 139.547 49.4428 139.667 49.5941 139.703C49.8018 139.751 50.0093 139.622 50.0582 139.411C50.3513 138.149 50.6292 136.928 50.9665 135.732C51.2067 134.886 51.4757 134.059 51.7617 133.239C51.6201 134.207 51.5542 135.185 51.5811 136.162C51.6278 137.339 51.7716 138.514 52.1378 139.648C52.1927 139.816 52.3307 139.955 52.5154 140.001C52.8007 140.072 53.0895 139.898 53.1621 139.608C53.4404 138.494 53.6341 137.415 53.8662 136.351C54.084 135.286 54.3087 134.237 54.55 133.194L55.0384 131.152C55.1699 131.608 55.2621 132.115 55.2987 132.684C55.4295 134.707 55.5603 136.731 55.6911 138.755C55.7749 140.048 55.7551 141.576 54.7069 142.337C54.1014 142.777 53.2323 142.818 52.5886 142.437C52.2019 142.208 51.9126 141.833 51.7613 141.41C51.6463 142.295 50.9242 143.125 50.018 143.207C48.9901 143.301 48.024 142.407 47.9041 141.405C47.7304 142.084 46.9668 142.623 46.2339 142.531C45.8848 142.486 45.5682 142.336 45.2976 142.118C45.3941 142.54 45.4915 142.962 45.5921 143.384L46.371 146.614C46.6252 147.674 46.9105 148.73 47.2194 149.785C47.8342 151.894 48.5272 153.998 49.141 156.145C49.7556 158.29 50.2963 160.482 50.5778 162.736C50.6614 163.297 50.6919 163.868 50.7437 164.434L50.8119 166.116C50.8398 166.653 50.8375 167.198 50.9084 167.726L50.9905 168.523C51.0198 168.788 51.0811 169.042 51.124 169.302C51.457 171.381 52.4197 173.302 54.2642 173.936C55.1687 174.276 56.2104 174.37 57.2631 174.369C57.9714 174.362 58.6901 174.306 59.4116 174.232C58.2919 172.111 57.4316 169.855 56.8065 167.541C56.0778 164.874 55.6789 162.123 55.567 159.366C55.4522 156.609 55.5966 153.842 56.0169 151.114C56.1242 150.432 56.2278 149.75 56.3741 149.075C56.5027 148.398 56.6519 147.721 56.8211 147.051C57.1566 145.71 57.5572 144.393 58.0005 143.1C58.882 140.51 59.8923 137.999 60.8156 135.489L61.4933 133.606L62.1624 131.701C62.5999 130.439 63.0105 129.179 63.3547 127.911C63.697 126.645 63.9796 125.368 64.1169 124.109C64.1889 123.479 64.2082 122.859 64.1916 122.258C64.1832 121.957 64.1322 121.675 64.1018 121.386L64.0001 120.985L63.9545 120.783L63.8797 120.606L63.7378 120.248C63.6853 120.151 63.6257 120.055 63.5547 119.964C63.4137 119.78 63.2313 119.621 63.0333 119.485C62.6351 119.208 62.1489 119.082 61.7073 119.14C61.2809 119.179 60.8763 119.478 60.6079 119.926C60.3531 120.371 60.2546 120.929 60.4893 121.417L60.499 121.438C60.5833 121.613 60.5091 121.824 60.3335 121.908C60.191 121.977 60.0254 121.94 59.923 121.83C59.3466 121.211 59.2476 120.245 59.5239 119.465C59.6599 119.069 59.8732 118.688 60.1846 118.371C60.4841 118.055 60.9153 117.793 61.342 117.669C63.1104 117.156 64.9933 118.241 65.6366 119.853L65.7724 120.136L65.8594 120.421L66.022 120.997C66.0814 121.374 66.1555 121.758 66.179 122.13C66.2325 122.875 66.2119 123.607 66.1346 124.316C65.9909 125.731 65.6975 127.088 65.3504 128.419C72.3596 130.615 79.492 132.243 86.7045 133.304C86.438 132.572 86.3421 131.78 86.4605 131.007C86.6633 129.683 87.3303 128.542 88.2608 127.796C87.4091 127.286 86.7465 126.455 86.4227 125.413C85.858 123.595 86.65 121.465 88.266 120.458C89.2671 119.835 90.5175 119.685 91.6514 119.972C91.5186 118.855 91.8162 117.686 92.5375 116.802C93.7205 115.354 95.8852 114.868 97.5729 115.673C98.6069 116.166 99.378 117.102 99.7322 118.176C100.69 117.469 101.958 117.179 103.069 117.238C104.278 117.303 105.336 117.787 106.047 118.601C106.759 119.416 107.084 120.484 106.986 121.691C106.935 122.323 106.751 122.934 106.457 123.486C107.664 123.586 108.867 124.14 109.619 125.053C110.862 126.561 110.847 128.901 109.585 130.38C108.947 131.127 108.029 131.591 107.066 131.734C107.392 132.403 107.521 133.17 107.38 133.914C107.322 134.218 107.22 134.51 107.085 134.785C108.792 134.783 110.502 134.757 112.213 134.692C114.447 134.608 116.737 134.469 118.951 134.334C127.242 133.831 135.802 133.316 143.91 135.481C143.482 134.502 143.028 133.536 142.535 132.591C141.875 131.38 141.242 130.148 140.38 129.428C139.952 129.074 139.443 128.818 138.953 128.755C138.703 128.723 138.469 128.736 138.257 128.802C138.036 128.862 137.819 128.982 137.644 129.136C137.468 129.29 137.345 129.478 137.272 129.67C137.201 129.876 137.195 130.035 137.263 130.25C137.405 130.671 137.855 131.019 138.234 130.963L138.265 130.959C138.552 130.917 138.819 131.115 138.861 131.402C138.899 131.66 138.742 131.902 138.501 131.979C138.01 132.134 137.464 132.054 137.043 131.82C136.619 131.585 136.281 131.235 136.056 130.799C135.949 130.578 135.866 130.338 135.833 130.078C135.804 129.811 135.815 129.559 135.868 129.315C135.97 128.823 136.228 128.39 136.548 128.046C136.872 127.702 137.265 127.434 137.709 127.261C138.159 127.086 138.644 127.03 139.095 127.059C140.014 127.118 140.835 127.488 141.509 128.005C142.182 128.524 142.695 129.156 143.118 129.786C143.543 130.421 143.875 131.044 144.237 131.675C144.929 132.946 145.533 134.259 146.085 135.589C148.264 140.935 149.405 146.573 150.321 152.152C151.236 157.737 151.895 163.321 153.22 168.732C153.553 170.074 153.914 171.445 154.333 172.723C154.766 173.988 155.325 175.19 156.192 176.018C157.044 176.852 158.221 177.264 159.511 177.325C160.506 177.378 161.541 177.271 162.591 177.106C162.199 176.217 161.913 175.294 161.685 174.378C161.387 173.145 161.185 171.918 160.959 170.724C160.5 168.297 160.134 165.806 159.978 163.317C159.843 160.823 159.858 158.322 160.03 155.829C160.22 153.337 160.591 150.862 161.092 148.415C161.537 146.181 162.187 143.995 162.921 141.841C162.812 141.768 162.709 141.688 162.619 141.593C162.309 141.268 162.131 140.829 162.1 140.382C161.75 141.202 160.83 141.805 159.936 141.64C158.921 141.452 158.233 140.33 158.388 139.334C158.037 139.94 157.156 140.252 156.476 139.965C155.622 139.605 155.18 138.601 155.227 137.676C155.274 136.751 155.717 135.894 156.213 135.112C157.666 132.816 160.08 129.97 162.612 128.773C162.875 128.649 163.129 128.548 163.378 128.46C162.96 128.795 162.548 129.137 162.164 129.514C161.102 130.537 160.167 131.705 159.446 132.989C158.725 134.27 158.219 135.658 157.98 137.072C157.961 137.185 158.014 137.302 158.12 137.359C158.253 137.431 158.419 137.381 158.492 137.245C159.149 136.021 159.888 134.891 160.741 133.874C160.982 133.586 161.234 133.31 161.491 133.04C161.373 133.317 161.259 133.597 161.156 133.88C160.696 135.141 160.371 136.45 160.276 137.785C160.266 137.931 160.339 138.076 160.475 138.151C160.662 138.253 160.897 138.185 161.001 137.996C161.625 136.86 162.223 135.76 162.871 134.699C163.331 133.951 163.813 133.226 164.311 132.515C163.912 133.408 163.584 134.332 163.346 135.28C163.073 136.426 162.893 137.596 162.939 138.786C162.946 138.963 163.042 139.134 163.207 139.228C163.462 139.374 163.788 139.285 163.936 139.025C163.971 138.963 164.004 138.901 164.039 138.839C164.661 137.309 165.35 135.806 166.121 134.345C167.253 132.103 168.628 130.071 169.478 127.893C169.915 126.813 170.185 125.693 170.3 124.568C170.439 123.436 170.513 122.343 170.527 121.012C171.51 121.944 171.894 123.355 171.876 124.669C171.837 125.997 171.497 127.286 171.051 128.495C170.484 130.021 169.732 131.415 168.995 132.777C174.803 130.813 182.087 127.139 186.782 122.147C186.612 122.11 186.443 122.077 186.273 122.038C184.916 121.726 183.549 121.352 182.223 120.813C179.58 119.78 177.064 117.854 175.873 115.109C175.582 114.426 175.382 113.699 175.301 112.955C175.288 112.769 175.268 112.583 175.263 112.397L175.278 111.841C175.271 111.468 175.35 111.11 175.399 110.748C175.432 110.568 175.47 110.391 175.513 110.215C174.944 110.66 174.253 110.944 173.538 111.05C173.864 111.72 173.993 112.487 173.851 113.231C173.533 114.907 171.924 116.222 170.18 116.225C169.388 116.225 168.619 115.962 167.973 115.512C167.784 116.461 167.33 117.367 166.644 118.077C165.848 118.902 164.852 119.333 163.798 119.333C163.387 119.333 162.967 119.267 162.547 119.134C161.314 118.742 160.376 117.793 159.975 116.531C159.855 116.15 159.788 115.76 159.775 115.371C158.539 115.954 157.059 116.005 155.712 115.407C153.812 114.563 152.618 112.378 152.933 110.324C153.135 109 153.802 107.859 154.733 107.113C153.881 106.603 153.218 105.772 152.894 104.73C152.329 102.912 153.122 100.782 154.738 99.7747C155.739 99.1513 156.989 99.0013 158.124 99.2887C157.991 98.1721 158.288 97.0024 159.009 96.1191C160.192 94.6702 162.358 94.1846 164.045 94.9901C165.079 95.4824 165.85 96.419 166.204 97.4922C167.161 96.7852 168.433 96.5 169.541 96.5555C170.749 96.6201 171.807 97.1032 172.518 97.9166C173.231 98.7319 173.556 99.801 173.458 101.008C173.407 101.639 173.223 102.251 172.928 102.803C174.136 102.903 175.339 103.457 176.091 104.369C176.618 105.009 176.782 105.716 176.998 106.481C177.442 105.455 177.61 104.265 178.024 103.208C178.185 102.795 178.572 102.268 178.886 102.771C179.244 103.345 178.89 104.073 178.689 104.629C178.39 105.456 178.119 106.293 177.809 107.117C177.264 108.567 176.738 110.049 176.63 111.594C176.462 113.992 177.574 116.04 179.409 117.528C180.401 118.335 181.554 118.943 182.777 119.417C185.226 120.354 187.942 120.759 190.621 121.243C193.301 121.702 195.989 122.056 198.674 122.145C201.36 122.254 204.025 122.074 206.641 121.513C209.246 120.957 211.812 120.117 214.054 118.782C215.169 118.113 216.195 117.312 217.028 116.355C217.633 115.66 218.132 114.883 218.498 114.047C216.844 114.515 215.123 114.749 213.399 114.749C209.431 114.749 205.452 113.528 202.252 111.184C201.925 110.945 201.854 110.486 202.093 110.16C202.333 109.833 202.791 109.761 203.118 110.001C206.196 112.255 210.055 113.373 213.87 113.271C213.349 112.938 212.851 112.539 212.45 112.03C211.546 110.881 211.264 108.989 212.357 107.813C212.875 107.255 213.554 107.003 214.153 106.78C214.532 106.639 214.89 106.505 215.172 106.313C215.494 106.093 215.768 105.759 216.058 105.405C216.095 105.359 216.135 105.315 216.172 105.269C213.579 104.647 211.086 102.907 209.183 100.345C207.178 97.6494 205.979 94.3533 205.016 91.7051L204.936 91.4859C203.916 88.6825 202.861 85.7842 201.17 83.3474C198.162 79.0125 193.115 76.291 187.871 76.0657C187.958 76.3763 188.036 76.6893 188.102 77.0044C188.359 78.3236 188.466 79.6765 188.341 81.0135C188.186 82.3438 187.791 83.6595 187.056 84.7733C186.996 84.8641 186.874 84.889 186.783 84.8292C186.719 84.787 186.687 84.7137 186.696 84.6382C186.845 83.3535 186.981 82.1442 187.009 80.9254C187.038 79.7109 186.953 78.4932 186.684 77.3113C186.408 76.1328 185.972 74.9955 185.388 73.9457C184.796 72.9034 184.043 71.9432 183.191 71.061C182.339 70.1771 181.402 69.3554 180.427 68.5566L178.945 67.3659C178.485 67.0033 177.999 66.6844 177.548 66.5229C177.324 66.4424 177.119 66.4095 176.962 66.4228C176.806 66.4337 176.686 66.4885 176.569 66.573C176.342 66.7383 176.129 67.2164 175.937 67.8171L174.684 71.4405C173.857 73.8634 172.959 76.2541 172.357 78.6576C171.748 81.0582 171.464 83.5188 171.925 85.8787C172.154 87.0501 172.54 88.19 173.138 89.1952C173.432 89.6998 173.764 90.1833 174.157 90.6107C174.547 91.0301 174.971 91.4165 175.448 91.7498C177.353 93.0514 179.95 93.5748 182.212 92.5219C182.325 92.4696 182.458 92.5183 182.51 92.6306C182.555 92.7271 182.526 92.8392 182.445 92.9021C181.39 93.7275 179.992 94.1585 178.616 94.1176C177.234 94.107 175.865 93.6905 174.663 92.9835C174.067 92.6213 173.502 92.1886 173.013 91.6794C172.524 91.1808 172.108 90.6181 171.741 90.0311C171.012 88.8476 170.556 87.5326 170.278 86.2033C170.01 84.8702 169.931 83.5095 170.017 82.1659C170.099 80.8277 170.328 79.5129 170.634 78.2343C170.903 77.1318 171.231 76.063 171.577 75.0067C157.34 75.9232 143.062 76.2232 128.799 75.8759C128.725 76.7091 128.412 77.519 127.861 78.1646C127.223 78.9122 126.305 79.3752 125.342 79.5186C125.668 80.1879 125.797 80.9551 125.656 81.6989C125.337 83.3751 123.727 84.6905 121.985 84.6934C121.193 84.6934 120.423 84.4298 119.777 83.9797C119.588 84.9293 119.134 85.8359 118.448 86.5463C117.652 87.3708 116.656 87.8015 115.602 87.8015C115.191 87.8015 114.772 87.7361 114.351 87.6024C113.117 87.2109 112.18 86.2619 111.78 84.9986C111.659 84.6181 111.592 84.228 111.579 83.8399C110.343 84.4228 108.864 84.474 107.515 83.8753C105.617 83.0317 104.422 80.8471 104.737 78.7927C104.939 77.4689 105.606 76.3278 106.537 75.5816C106.173 75.3635 105.846 75.0836 105.563 74.7569C103.896 74.6351 102.229 74.5097 100.564 74.3703C98.5697 74.21 96.5775 74.0301 94.5865 73.8357C92.5943 73.6539 90.6052 73.444 88.6191 73.2403C84.6472 72.8319 80.6827 72.4359 76.7165 72.2278C72.7525 72.0212 68.7799 71.9964 64.8469 72.3518C60.9164 72.7065 57.0164 73.4264 53.2815 74.6489C49.8439 75.7836 46.5176 77.3386 43.5878 79.4306C45.7297 78.5236 48.2543 77.8218 50.3721 77.9788C50.6621 78.0004 50.9329 78.0372 51.1925 78.083C50.6641 78.1685 50.1369 78.264 49.6173 78.4023C48.1891 78.7688 46.799 79.3246 45.54 80.0864C44.281 80.8455 43.1563 81.8046 42.2511 82.9171C42.179 83.0059 42.1675 83.1342 42.2319 83.236C42.3127 83.3638 42.4816 83.4021 42.612 83.3198C43.7862 82.5784 44.9864 81.9589 46.2299 81.495C46.5814 81.3633 46.9366 81.2467 47.2936 81.1384C47.0537 81.3216 46.8173 81.509 46.588 81.7049C45.566 82.5747 44.6378 83.5541 43.8978 84.6691C43.8173 84.7907 43.8092 84.9533 43.8909 85.0856C44.0031 85.2671 44.241 85.3233 44.4248 85.2097C45.5267 84.529 46.5895 83.8662 47.6763 83.2628C48.4455 82.8381 49.2224 82.446 50.0056 82.0719C49.2188 82.653 48.478 83.2953 47.804 84.002C47.0011 84.8648 46.268 85.7942 45.7213 86.8527C45.6404 87.0104 45.6395 87.2057 45.7367 87.3692C45.8871 87.6218 46.2138 87.7049 46.4712 87.5516C47.4584 86.9641 48.3603 86.342 49.2793 85.757C50.1883 85.1619 51.0913 84.5825 52.0017 84.0191L53.7954 82.9272C53.5644 83.3419 53.269 83.7648 52.8913 84.1912C51.5468 85.7096 50.2023 87.228 48.8576 88.7464C47.9986 89.7165 46.9006 90.7783 45.6216 90.5708C44.8829 90.4508 44.242 89.8626 44.0591 89.1369C43.9495 88.701 44.0115 88.2318 44.205 87.8269C43.4958 88.3684 42.3984 88.4399 41.7016 87.8549C40.9111 87.1914 40.8653 85.8756 41.4918 85.0852C40.8877 85.4395 39.9671 85.2777 39.5166 84.6921C39.22 84.3065 39.1133 83.8223 39.147 83.3363C37.6523 84.9702 36.3379 86.7758 35.2183 88.6875C34.2048 90.3586 33.429 92.1606 32.7193 93.9796C32.5549 94.4392 32.4179 94.909 32.2658 95.3731C32.1285 95.8417 31.9418 96.2966 31.8453 96.7765C31.6333 97.7299 31.3453 98.6681 31.2219 99.6391L30.9845 101.085C30.924 101.569 30.8947 102.057 30.848 102.543C30.7308 103.515 30.7439 104.491 30.7324 105.467C30.7112 105.955 30.7484 106.442 30.7849 106.928L30.8857 108.386ZM199.745 95.7043C199.722 95.7873 199.665 95.8566 199.588 95.8956C198.778 96.3047 197.867 96.5148 196.958 96.5148C196.442 96.5148 195.926 96.447 195.429 96.3105C194.056 95.9314 192.831 95.0247 192.068 93.8227C192.022 93.7482 192.009 93.6576 192.033 93.573C192.057 93.4885 192.117 93.4188 192.197 93.3814C193.06 92.9747 194.042 92.7416 195.199 92.6681C195.331 92.6586 195.448 92.7335 195.499 92.8514C195.55 92.9698 195.522 93.1078 195.429 93.196C195.102 93.5045 195.023 94.0505 195.248 94.4388C195.473 94.8269 195.986 95.0289 196.416 94.9C196.846 94.7701 197.161 94.3175 197.133 93.8698C197.126 93.7577 197.181 93.6506 197.276 93.5909C197.371 93.5318 197.491 93.529 197.589 93.5838C198.347 94.011 199.13 94.5339 199.71 95.4595C199.755 95.5325 199.768 95.6212 199.745 95.7043ZM188.893 86.9094C188.985 86.8956 189.073 86.9278 189.134 86.9885L189.145 86.9993C189.954 87.8121 190.883 88.1941 191.892 88.4832C192.887 88.7608 193.976 88.8934 195.168 89.1068C195.762 89.2138 196.378 89.3447 196.997 89.5426C197.613 89.7337 198.251 90.0322 198.815 90.4082C199.376 90.7942 199.891 91.2719 200.275 91.8605C200.662 92.4425 200.903 93.1488 200.888 93.84C200.882 94.0863 200.678 94.2814 200.432 94.276C200.251 94.2719 200.098 94.161 200.031 94.0051L200.02 93.9785C199.615 93.0264 198.814 92.4047 197.901 91.9782C197.001 91.5518 195.955 91.3883 194.811 91.1988C193.68 91.0099 192.4 90.8371 191.194 90.2232C190.601 89.9229 190.035 89.5309 189.573 89.0226C189.109 88.5213 188.755 87.893 188.656 87.2311C188.632 87.0765 188.739 86.9326 188.893 86.9094ZM145.249 79.6122C146.084 79.2119 147.048 79.1918 147.972 79.253C150.683 79.4322 154.337 80.1927 156.598 81.8459C156.833 82.0175 157.043 82.1921 157.239 82.3682C156.746 82.1614 156.248 81.9636 155.734 81.8064C154.328 81.3622 152.854 81.0986 151.382 81.0794C149.912 81.0579 148.45 81.2771 147.094 81.7426C146.986 81.7798 146.908 81.8827 146.909 82.0031C146.91 82.1544 147.033 82.2762 147.184 82.2753H147.187C148.576 82.2672 149.922 82.3761 151.223 82.6399C151.591 82.7139 151.954 82.8027 152.314 82.8997C152.014 82.9284 151.714 82.9624 151.416 83.0075C150.088 83.2051 148.783 83.5456 147.565 84.1006C147.432 84.1614 147.34 84.295 147.339 84.4504C147.338 84.6637 147.51 84.8373 147.724 84.8382H147.726C149.022 84.8432 150.274 84.8427 151.516 84.9052C152.393 84.9516 153.26 85.0295 154.122 85.1264C153.147 85.2035 152.179 85.3567 151.233 85.6003C150.095 85.9079 148.982 86.3092 147.958 86.9184C147.806 87.0095 147.702 87.1748 147.698 87.3651C147.692 87.659 147.925 87.9021 148.219 87.9081L148.225 87.9082C149.373 87.9316 150.468 87.8808 151.557 87.8702C152.644 87.8457 153.716 87.8315 154.787 87.8348L156.887 87.8567C156.471 88.0865 155.997 88.2892 155.451 88.4514C153.507 89.029 151.563 89.6067 149.619 90.1845C148.377 90.5536 146.883 90.8743 145.907 90.0216C145.344 89.5291 145.111 88.6909 145.339 87.9783C145.477 87.5503 145.778 87.1851 146.156 86.9436C145.268 87.0282 144.299 86.5086 144.016 85.6435C143.696 84.6621 144.353 83.5215 145.303 83.1818C144.603 83.1631 143.907 82.5387 143.835 81.8037C143.743 80.8814 144.414 80.0127 145.249 79.6122ZM145.665 112.572C145.927 112.696 146.167 112.829 146.392 112.965C145.868 112.854 145.342 112.753 144.808 112.694C143.344 112.519 141.847 112.535 140.398 112.79C138.949 113.043 137.554 113.531 136.308 114.241C136.209 114.298 136.152 114.413 136.175 114.532C136.204 114.68 136.348 114.777 136.496 114.748L136.499 114.747C137.862 114.48 139.205 114.337 140.532 114.353C140.907 114.358 141.28 114.377 141.652 114.405C141.363 114.489 141.074 114.579 140.79 114.678C139.523 115.12 138.303 115.698 137.21 116.47C137.091 116.555 137.025 116.703 137.053 116.856C137.092 117.066 137.294 117.204 137.503 117.165L137.506 117.165C138.78 116.928 140.01 116.694 141.241 116.525C142.112 116.407 142.978 116.322 143.844 116.256C142.9 116.513 141.977 116.845 141.093 117.26C140.033 117.774 139.013 118.376 138.121 119.165C137.989 119.283 137.917 119.465 137.949 119.653C137.998 119.943 138.272 120.138 138.562 120.089L138.568 120.088C139.7 119.897 140.766 119.643 141.835 119.43C142.897 119.204 143.949 118.99 145.001 118.793L147.068 118.423C146.703 118.726 146.274 119.014 145.768 119.275C143.966 120.205 142.163 121.135 140.361 122.065C139.209 122.659 137.802 123.252 136.684 122.596C136.039 122.217 135.654 121.437 135.746 120.695C135.801 120.248 136.028 119.833 136.355 119.526C135.498 119.774 134.449 119.445 134.011 118.647C133.513 117.743 133.946 116.5 134.816 115.989C134.125 116.101 133.325 115.617 133.116 114.909C132.855 114.02 133.352 113.042 134.098 112.493C134.843 111.943 135.787 111.744 136.706 111.632C139.404 111.303 143.135 111.369 145.665 112.572ZM124.794 91.7942C125.54 91.2453 126.483 91.0459 127.403 90.9338C130.1 90.6046 133.831 90.6711 136.361 91.8738C136.624 91.9987 136.863 92.1311 137.088 92.2675C136.565 92.1564 136.039 92.0547 135.504 91.996C134.04 91.8215 132.543 91.8373 131.094 92.0925C129.646 92.3453 128.25 92.8331 127.004 93.5431C126.905 93.5999 126.848 93.7155 126.871 93.8337C126.9 93.9821 127.044 94.0788 127.192 94.0498L127.195 94.0493C128.558 93.7825 129.901 93.6386 131.228 93.6554C131.603 93.6596 131.977 93.6792 132.349 93.7074C132.059 93.7916 131.771 93.8809 131.486 93.9807C130.219 94.4223 128.999 95.0001 127.907 95.7724C127.788 95.8568 127.721 96.0054 127.75 96.1583C127.789 96.368 127.99 96.5063 128.2 96.4675L128.203 96.467C129.476 96.2305 130.707 95.9964 131.938 95.8268C132.809 95.7088 133.675 95.6239 134.54 95.5584C133.597 95.8158 132.674 96.147 131.79 96.5624C130.729 97.0766 129.71 97.6783 128.818 98.4678C128.685 98.5857 128.614 98.7675 128.645 98.9551C128.694 99.2449 128.969 99.4404 129.259 99.3915L129.264 99.3906C130.397 99.1994 131.463 98.9456 132.531 98.7323C133.594 98.5061 134.645 98.2919 135.698 98.0957L137.765 97.7259C137.399 98.029 136.971 98.3167 136.465 98.5778C134.662 99.5076 132.86 100.438 131.058 101.367C129.906 101.961 128.498 102.555 127.381 101.899C126.736 101.52 126.351 100.74 126.442 99.9972C126.498 99.5512 126.725 99.136 127.052 98.8284C126.195 99.0771 125.146 98.7472 124.707 97.9498C124.21 97.0453 124.643 95.8022 125.513 95.2915C124.821 95.4037 124.021 94.9198 123.813 94.2112C123.552 93.3216 124.048 92.3433 124.794 91.7942ZM109.591 107.33C110.419 106.915 111.383 106.878 112.308 106.923C115.022 107.055 118.688 107.751 120.978 109.365C121.215 109.532 121.429 109.703 121.628 109.876C121.131 109.678 120.63 109.488 120.113 109.34C118.699 108.921 117.221 108.683 115.749 108.69C114.279 108.694 112.822 108.939 111.473 109.428C111.366 109.467 111.29 109.571 111.293 109.691C111.296 109.843 111.422 109.962 111.573 109.959H111.576C112.964 109.926 114.312 110.012 115.617 110.253C115.987 110.32 116.351 110.403 116.713 110.493C116.413 110.527 116.114 110.566 115.817 110.617C114.493 110.838 113.193 111.201 111.986 111.777C111.854 111.84 111.764 111.975 111.766 112.131C111.769 112.344 111.944 112.514 112.157 112.512H112.16C113.455 112.494 114.707 112.471 115.95 112.512C116.828 112.543 117.696 112.606 118.56 112.688C117.586 112.782 116.621 112.952 115.679 113.212C114.547 113.539 113.441 113.96 112.428 114.587C112.277 114.681 112.176 114.848 112.175 115.038C112.175 115.332 112.412 115.572 112.706 115.572H112.712C113.861 115.576 114.954 115.505 116.043 115.476C117.129 115.433 118.201 115.399 119.272 115.384L121.371 115.369C120.96 115.606 120.489 115.817 119.946 115.989C118.012 116.601 116.079 117.212 114.145 117.824C112.91 118.215 111.422 118.561 110.431 117.726C109.859 117.243 109.612 116.409 109.828 115.693C109.958 115.263 110.252 114.892 110.626 114.644C109.739 114.744 108.761 114.241 108.464 113.382C108.127 112.406 108.764 111.254 109.707 110.898C109.007 110.891 108.3 110.279 108.215 109.546C108.108 108.625 108.763 107.745 109.591 107.33ZM90.8819 88.0293C91.694 87.5843 92.6558 87.5119 93.5816 87.5227C96.2986 87.5543 99.988 88.1152 102.336 89.6428C102.58 89.8015 102.799 89.9644 103.005 90.1295C102.5 89.9501 101.993 89.7794 101.471 89.6504C100.042 89.2831 98.5566 89.1002 97.0863 89.1609C95.6173 89.2193 94.1695 89.5176 92.8403 90.0562C92.7345 90.0992 92.6624 90.2061 92.6698 90.3265C92.6789 90.4774 92.8085 90.5924 92.9594 90.5832L92.9625 90.583C94.3485 90.4993 95.6987 90.5351 97.0119 90.7277C97.3835 90.7818 97.7509 90.8506 98.1158 90.9278C97.8174 90.9727 97.5199 91.0231 97.2247 91.0841C95.9102 91.3538 94.6246 91.7646 93.439 92.385C93.3098 92.4527 93.2244 92.5914 93.2323 92.7467C93.2431 92.9596 93.4244 93.1236 93.6375 93.1128L93.6404 93.1127C94.934 93.0473 96.1845 92.9786 97.4275 92.9738C98.3061 92.9722 99.1759 93.0031 100.042 93.0528C99.0731 93.1827 98.1142 93.3885 97.1832 93.6829C96.0638 94.052 94.9735 94.5132 93.9844 95.1771C93.8375 95.2763 93.7426 95.4471 93.7491 95.6372C93.7591 95.931 94.0053 96.1612 94.2992 96.1511L94.3048 96.1509C95.4527 96.1119 96.543 96.0016 97.6302 95.9319C98.7136 95.8485 99.7841 95.7759 100.853 95.7211L102.951 95.6288C102.549 95.8807 102.086 96.1089 101.55 96.3006C99.6398 96.983 97.7299 97.6656 95.8202 98.348C94.5998 98.784 93.126 99.1852 92.1054 98.387C91.5161 97.9259 91.2378 97.1016 91.4275 96.3775C91.5414 95.9427 91.8219 95.5614 92.1866 95.3C91.3043 95.4328 90.3083 94.9665 89.9795 94.1181C89.6065 93.1556 90.2005 91.9809 91.1305 91.5901C90.4305 91.6095 89.7019 91.0238 89.5893 90.2938C89.4477 89.3785 90.0697 88.4744 90.8819 88.0293ZM84.308 108.618C83.8008 108.447 83.29 108.285 82.7657 108.165C81.3313 107.824 79.8426 107.667 78.3736 107.753C76.9058 107.838 75.4634 108.162 74.1439 108.724C74.039 108.768 73.9687 108.877 73.9782 108.997C73.9901 109.148 74.1216 109.26 74.2724 109.248L74.2754 109.248C75.6598 109.14 77.0104 109.152 78.3269 109.321C78.6993 109.369 79.0677 109.431 79.434 109.502C79.1365 109.552 78.8398 109.608 78.5457 109.674C77.2361 109.967 75.9581 110.4 74.7834 111.041C74.6554 111.112 74.5726 111.252 74.583 111.407C74.5976 111.619 74.7819 111.78 74.9945 111.766L74.9973 111.766C76.2896 111.677 77.5388 111.587 78.7816 111.56C79.66 111.543 80.5302 111.558 81.3975 111.593C80.4307 111.74 79.4755 111.962 78.5497 112.273C77.4369 112.662 76.3551 113.142 75.3779 113.824C75.2327 113.925 75.1409 114.098 75.1506 114.288C75.1657 114.581 75.416 114.807 75.7097 114.792L75.7153 114.792C76.8623 114.732 77.9504 114.603 79.0364 114.514C80.118 114.412 81.1871 114.32 82.2551 114.246L84.3509 114.117C83.9531 114.376 83.4946 114.612 82.9617 114.814C81.0642 115.53 79.1665 116.246 77.2689 116.962C76.0567 117.419 74.59 117.846 73.5557 117.066C72.9581 116.616 72.6654 115.796 72.8424 115.069C72.9485 114.632 73.2222 114.246 73.5824 113.978C72.7026 114.127 71.6986 113.678 71.3548 112.836C70.9649 111.88 71.5383 110.695 72.4611 110.288C71.7616 110.319 71.0226 109.747 70.8974 109.019C70.7402 108.106 71.3462 107.191 72.1504 106.732C72.9546 106.272 73.9146 106.183 74.8408 106.177C77.558 106.161 81.2568 106.657 83.6313 108.143C83.8773 108.297 84.0999 108.456 84.308 108.618ZM63.9374 78.6104C64.6832 78.0615 65.6267 77.862 66.5461 77.7499C69.2433 77.4207 72.9746 77.487 75.5044 78.69C75.7669 78.8148 76.0062 78.9471 76.2315 79.0836C75.7079 78.9726 75.1819 78.8709 74.6475 78.8121C73.1834 78.6377 71.6863 78.6535 70.2371 78.9086C68.7889 79.1614 67.3934 79.6492 66.1474 80.3593C66.0484 80.4161 65.9911 80.5316 66.0142 80.6498C66.0432 80.7982 66.1871 80.8949 66.3355 80.8658L66.3386 80.8653C67.7012 80.5984 69.0442 80.4547 70.3715 80.4714C70.7468 80.4757 71.12 80.4951 71.4921 80.5233C71.2023 80.6076 70.9139 80.6969 70.6295 80.7966C69.3623 81.2383 68.1428 81.8161 67.0497 82.5883C66.9308 82.6728 66.8646 82.8214 66.8928 82.9743C66.9318 83.1839 67.1334 83.3223 67.3431 83.2835L67.3458 83.2829C68.6195 83.0465 69.8499 82.8125 71.0812 82.6428C71.9521 82.5247 72.8181 82.4399 73.6834 82.3741C72.7399 82.6316 71.817 82.9628 70.933 83.3782C69.8724 83.8924 68.8531 84.4941 67.9608 85.2836C67.8284 85.4015 67.7569 85.5833 67.7885 85.7709C67.8374 86.0607 68.1121 86.2562 68.4019 86.2073L68.4075 86.2064C69.5401 86.0154 70.606 85.7613 71.6745 85.5481C72.7372 85.3219 73.7885 85.1077 74.8408 84.9115L76.9078 84.5415C76.5425 84.8447 76.1144 85.1323 75.6081 85.3934C73.8056 86.3232 72.0031 87.2532 70.2008 88.183C69.0493 88.777 67.6417 89.3702 66.5242 88.7144C65.8788 88.3357 65.4937 87.5556 65.5855 86.8128C65.6409 86.3667 65.8684 85.9516 66.1952 85.644C65.3381 85.8927 64.2892 85.5628 63.8506 84.7654C63.3533 83.8609 63.7861 82.6178 64.6561 82.1072C63.9647 82.2193 63.1648 81.7354 62.9566 81.0268C62.695 80.1379 63.1916 79.1594 63.9374 78.6104ZM38.6855 99.8301C39.6871 99.2055 40.9369 99.0571 42.0712 99.3441C41.9381 98.2274 42.2354 97.0577 42.9563 96.1745C44.1393 94.7259 46.3043 94.2414 47.992 95.0445C49.026 95.5377 49.7966 96.4749 50.1513 97.5475C51.1086 96.8414 52.3742 96.5521 53.488 96.6103C54.6963 96.6749 55.7538 97.1584 56.4652 97.9719C57.1779 98.7873 57.5031 99.8563 57.4052 101.063C57.3542 101.694 57.1704 102.306 56.8757 102.858C58.0837 102.958 59.2868 103.512 60.0387 104.425C61.2815 105.933 61.2666 108.273 60.0044 109.752C59.3665 110.499 58.4484 110.962 57.485 111.106C57.8111 111.775 57.9399 112.542 57.7987 113.286C57.4803 114.962 55.8705 116.278 54.1341 116.28C54.1321 116.28 54.1307 116.28 54.1289 116.28C53.3369 116.28 52.5668 116.017 51.9209 115.567C51.7322 116.516 51.2773 117.422 50.5913 118.133C49.795 118.958 48.7991 119.389 47.7455 119.389C47.3344 119.389 46.9143 119.323 46.4942 119.189C45.2611 118.798 44.3234 117.849 43.9229 116.586C43.8022 116.206 43.7357 115.816 43.7219 115.427C42.4868 116.01 41.0074 116.061 39.6586 115.462C37.76 114.618 36.5653 112.433 36.8799 110.379C37.0828 109.055 37.7497 107.915 38.6803 107.169C37.8286 106.658 37.1654 105.828 36.8417 104.786C36.2764 102.967 37.0693 100.837 38.6855 99.8301ZM38.2424 104.35C37.8748 103.168 38.41 101.73 39.4608 101.075C40.3571 100.517 41.5965 100.551 42.5003 101.1C42.1043 101.511 41.7439 101.968 41.4368 102.478C40.7407 103.633 40.3672 104.919 40.3217 106.231C39.3488 106.08 38.5642 105.385 38.2424 104.35ZM163.925 114.2C164.802 114.2 165.676 114.042 166.51 113.741C166.778 114.871 166.427 116.191 165.591 117.058C165.176 117.487 164.285 118.146 162.992 117.735C162.219 117.49 161.63 116.889 161.375 116.086C161.137 115.338 161.217 114.538 161.583 113.877C161.595 113.861 161.605 113.842 161.617 113.825C162.37 114.076 163.148 114.2 163.925 114.2Z"/>
</mask>
<path d="M29.5322 100.896C29.5241 100.959 29.5198 101.023 29.5128 101.087C26.0951 104.72 24.0642 109.718 24.0445 114.7C24.0436 114.952 23.8526 115.16 23.6028 115.185C23.587 115.186 23.5709 115.187 23.555 115.187C23.3249 115.187 23.1226 115.025 23.0762 114.795C21.3161 106.037 25.5526 95.4755 33.2015 89.2853C32.4925 90.64 31.8976 92.0528 31.3437 93.4769C31.1717 93.9568 31.0278 94.4467 30.8692 94.9313C30.7254 95.4204 30.5328 95.8958 30.4309 96.3965C30.2078 97.3916 29.9106 98.3715 29.7794 99.3854L29.5322 100.896ZM202.377 82.5105C202.445 82.6084 202.505 82.7105 202.571 82.8095C203.549 81.787 204.037 80.109 204.013 77.7979C203.979 74.6613 204.203 71.7576 204.716 68.6601C204.855 67.8223 204.838 66.7805 204.33 66.601C203.742 66.3901 202.964 67.467 202.738 67.8007L196.462 77.1011C198.787 78.4463 200.83 80.2813 202.377 82.5105ZM43.7776 100.032C43.3334 99.1042 43.4407 97.9 44.0925 97.1018C44.8468 96.1775 46.2835 95.8563 47.361 96.3685C48.2486 96.792 48.8395 97.7611 48.8882 98.7427C47.09 98.5708 45.2796 99.0268 43.7776 100.032ZM55.6142 104.451C56.6912 104.088 58.1746 104.468 58.9069 105.358C59.698 106.317 59.6899 107.862 58.8893 108.8C58.24 109.56 57.0942 109.86 56.1346 109.594C55.8845 109.44 55.6137 109.319 55.3268 109.239C55.2917 109.229 55.2569 109.234 55.2217 109.229C55.848 107.738 56.0029 106.123 55.6446 104.559C55.6363 104.522 55.623 104.487 55.6142 104.451ZM52.1672 99.8182C51.6737 99.5207 51.1591 99.2889 50.6344 99.1114C51.2572 98.3692 52.4029 98.0213 53.41 98.075C54.2317 98.1185 54.9062 98.4168 55.3613 98.9373C55.8076 99.4472 56.0086 100.142 55.9438 100.945C55.885 101.671 55.5505 102.376 55.0407 102.902C54.4099 101.647 53.4305 100.58 52.1672 99.8182ZM56.3579 113.012C56.1693 114.004 55.1706 114.812 54.1318 114.814C54.1309 114.814 54.1298 114.814 54.1289 114.814C53.1396 114.814 52.1697 114.112 51.8118 113.159C52.8624 112.537 53.7994 111.662 54.5227 110.553C54.5484 110.514 54.5685 110.472 54.5937 110.433C54.6375 110.481 54.6817 110.53 54.7396 110.566C54.9802 110.718 55.2366 110.84 55.5025 110.932C56.1286 111.388 56.506 112.233 56.3579 113.012ZM50.456 113.798C50.7239 114.928 50.373 116.248 49.5361 117.115C49.1218 117.544 48.2327 118.202 46.938 117.792C46.1645 117.546 45.575 116.945 45.3206 116.142C45.0833 115.395 45.163 114.595 45.5283 113.934C45.5405 113.918 45.5508 113.898 45.5626 113.882C46.3156 114.132 47.094 114.257 47.8714 114.257C48.748 114.257 49.622 114.098 50.456 113.798ZM44.0965 113.207C44.126 113.225 44.1563 113.24 44.186 113.257C43.2445 114.38 41.6783 114.754 40.2542 114.121C38.9604 113.547 38.1148 112 38.3292 110.601C38.5036 109.463 39.2667 108.246 40.4366 107.845C40.4685 108.028 40.4993 108.211 40.5445 108.393C41.0467 110.42 42.308 112.13 44.0965 113.208V113.207ZM216.001 107.524C216.496 107.185 216.851 106.752 217.194 106.334C217.31 106.193 217.426 106.051 217.547 105.916C217.844 105.582 218.279 105.183 218.735 105.192C219.018 105.196 219.338 105.381 219.568 105.676C219.791 105.959 219.958 106.348 220.094 106.898C220.518 108.616 220.339 110.508 219.613 112.124C218.596 112.524 217.542 112.818 216.468 113.01C216.409 112.953 216.343 112.903 216.265 112.867C215.318 112.431 214.246 111.936 213.604 111.122C213.092 110.472 212.882 109.404 213.433 108.81C213.715 108.508 214.155 108.344 214.666 108.154C215.111 107.988 215.572 107.817 216.001 107.524ZM113.706 75.2789C115.171 75.3603 116.636 75.4382 118.102 75.5056C118.159 75.7223 118.164 75.9641 118.1 76.1952C117.941 76.7781 117.519 77.1033 117.193 77.2732C116.632 77.5654 115.95 77.6155 115.37 77.4092C114.54 77.1133 113.875 76.2978 113.717 75.3802C113.711 75.347 113.711 75.3125 113.706 75.2789ZM115.73 82.6695C116.607 82.6695 117.481 82.5109 118.315 82.2106C118.583 83.3406 118.232 84.6601 117.395 85.5269C116.98 85.9556 116.091 86.615 114.797 86.2039C114.023 85.9584 113.434 85.3569 113.179 84.5545C112.942 83.8069 113.022 83.0068 113.387 82.3468C113.399 82.3299 113.41 82.3113 113.421 82.2944C114.174 82.5448 114.952 82.6695 115.73 82.6695ZM106.188 79.0144C106.392 77.6836 107.228 76.6246 108.299 76.2604C108.674 78.4158 109.939 80.4048 111.955 81.6202C111.984 81.638 112.015 81.6528 112.045 81.67C111.103 82.7926 109.538 83.1665 108.112 82.5341C106.819 81.9596 105.974 80.4137 106.188 79.0144ZM123.994 78.0065C123.743 77.8523 123.472 77.7316 123.185 77.6513C123.15 77.6416 123.116 77.6461 123.08 77.6416C123.341 77.0195 123.515 76.3763 123.608 75.7239C123.914 75.7343 124.221 75.7496 124.527 75.7595C125.459 75.7908 126.392 75.8096 127.324 75.8353C127.263 76.3411 127.075 76.8278 126.747 77.2121C126.098 77.9727 124.951 78.2715 123.994 78.0065ZM119.67 81.5717C120.721 80.9495 121.658 80.0749 122.382 78.9658C122.407 78.9262 122.427 78.8847 122.453 78.8448C122.496 78.8933 122.541 78.9422 122.598 78.9785C122.839 79.1298 123.095 79.2516 123.361 79.3438C123.988 79.8002 124.365 80.6462 124.217 81.4244C124.028 82.416 123.03 83.2242 121.99 83.2262C121.989 83.2262 121.988 83.2262 121.987 83.2262C120.998 83.2262 120.029 82.5244 119.67 81.5717ZM112.712 80.3645C110.773 79.195 109.689 77.1455 109.65 75.0322C110.508 75.0873 111.365 75.1477 112.224 75.1982C112.234 75.3426 112.247 75.4869 112.271 75.6299C112.521 77.0745 113.545 78.3153 114.878 78.7909C115.27 78.9309 115.69 78.9995 116.111 78.9995C116.719 78.9995 117.331 78.8558 117.872 78.5732C118.699 78.1421 119.282 77.4346 119.516 76.5819C119.607 76.2471 119.626 75.9032 119.591 75.5687C120.439 75.6052 121.288 75.6355 122.136 75.6671C121.99 76.5344 121.663 77.3825 121.153 78.1644C119.24 81.0974 115.532 82.0626 112.712 80.3645ZM148.623 173.325C148.14 172.655 147.936 171.768 147.738 170.91C146.628 166.085 145.228 159.682 144.243 152.935C143.382 147.036 141.648 141.336 139.101 135.981C140.964 136.264 142.806 136.655 144.615 137.199C146.48 142.066 147.536 147.249 148.387 152.468C149.29 158.005 150.056 163.631 151.456 169.171C151.821 170.559 152.177 171.917 152.671 173.306C152.751 173.522 152.836 173.739 152.925 173.956C151.119 174.547 149.648 174.747 148.623 173.325ZM96.1853 120.977C97.8323 120.569 99.539 120.826 100.991 121.702C101.806 122.193 102.471 122.842 102.968 123.595C102.248 123.049 101.445 122.649 100.599 122.437C98.5925 121.94 96.458 122.543 95.1613 123.975C94.1959 125.042 93.7597 126.488 93.994 127.845C94.2441 129.29 95.2673 130.531 96.6007 131.006C96.9931 131.146 97.4122 131.215 97.8329 131.215C98.4411 131.215 99.0532 131.071 99.594 130.789C100.421 130.357 101.004 129.65 101.237 128.798C101.525 127.747 101.16 126.593 100.351 125.99C99.8763 125.637 99.2566 125.495 98.6479 125.599C98.0826 125.696 97.6076 125.995 97.3106 126.438C97.0852 126.775 97.1749 127.23 97.5116 127.456C97.8487 127.682 98.3036 127.591 98.5289 127.255C98.6254 127.111 98.8006 127.061 98.8965 127.045C99.1019 127.01 99.3258 127.056 99.4751 127.167C99.8012 127.409 99.9505 127.944 99.8226 128.41C99.6636 128.993 99.2415 129.319 98.9154 129.489C98.3554 129.78 97.6737 129.831 97.0926 129.625C96.2623 129.329 95.5979 128.513 95.4393 127.595C95.2831 126.693 95.5931 125.683 96.2485 124.959C97.1727 123.938 98.7774 123.497 100.244 123.861C101.638 124.208 102.9 125.215 103.707 126.623C103.767 126.727 103.85 126.809 103.944 126.87C103.943 128.085 103.582 129.295 102.874 130.38C100.962 133.313 97.2543 134.279 94.4343 132.579V132.58C91.4358 130.772 90.4666 126.861 92.2745 123.863C93.1504 122.41 94.5391 121.385 96.1853 120.977ZM172.189 109.538C171.939 109.384 171.668 109.263 171.381 109.183C171.346 109.173 171.311 109.178 171.276 109.173C171.902 107.681 172.057 106.067 171.699 104.503C171.69 104.466 171.677 104.431 171.668 104.395C172.745 104.032 174.229 104.412 174.961 105.302C175.752 106.261 175.744 107.806 174.943 108.744C174.294 109.504 173.149 109.803 172.189 109.538ZM95.8324 119.553C94.9342 119.776 94.1034 120.155 93.357 120.656C92.9143 119.729 93.0223 118.527 93.674 117.729C94.4293 116.805 95.8663 116.482 96.9419 116.997C97.8284 117.419 98.419 118.385 98.4691 119.365C97.5968 119.281 96.7081 119.336 95.8324 119.553ZM162.306 98.8696C161.408 99.0922 160.577 99.4716 159.83 99.9722C159.388 99.0449 159.496 97.8429 160.147 97.0457C160.902 96.1209 162.338 95.7982 163.415 96.3128C164.302 96.7349 164.893 97.7013 164.943 98.6814C164.07 98.5975 163.182 98.6523 162.306 98.8696ZM168.221 99.7618C167.732 99.467 167.218 99.2345 166.689 99.0546C167.313 98.312 168.46 97.9647 169.464 98.0192C170.286 98.0626 170.961 98.3611 171.416 98.8809C171.862 99.3911 172.063 100.085 171.998 100.888C171.939 101.614 171.604 102.32 171.095 102.846C170.464 101.591 169.485 100.524 168.221 99.7618ZM167.866 113.103C168.917 112.48 169.854 111.606 170.577 110.497C170.603 110.458 170.623 110.416 170.648 110.376C170.692 110.425 170.736 110.474 170.794 110.51C171.035 110.661 171.291 110.783 171.557 110.875C172.183 111.332 172.56 112.178 172.413 112.956C172.224 113.948 171.226 114.756 170.186 114.757C170.185 114.757 170.184 114.757 170.182 114.757C169.193 114.757 168.224 114.056 167.866 113.103ZM104.175 131.059C104.219 131.108 104.263 131.157 104.321 131.193C104.562 131.345 104.817 131.466 105.083 131.558C105.71 132.015 106.087 132.861 105.939 133.639C105.857 134.071 105.616 134.463 105.29 134.774C104.189 134.761 103.089 134.734 101.99 134.695C101.731 134.438 101.522 134.129 101.393 133.786C102.443 133.164 103.38 132.289 104.104 131.18C104.129 131.141 104.15 131.099 104.175 131.059ZM108.47 129.427C107.821 130.188 106.673 130.487 105.716 130.222C105.466 130.067 105.195 129.946 104.909 129.866C104.873 129.856 104.838 129.861 104.803 129.857C105.429 128.365 105.584 126.75 105.225 125.186C105.217 125.149 105.204 125.115 105.195 125.078C106.272 124.715 107.755 125.095 108.488 125.985C109.279 126.945 109.271 128.489 108.47 129.427ZM62.7289 150.026C61.3472 156.446 62.1164 164.854 64.6358 171.149C63.9115 171.617 62.9859 171.662 62.444 171.636C61.2499 171.583 60.202 171.152 59.8788 170.766C59.7805 170.649 59.6533 170.57 59.5162 170.532C59.1164 169.411 58.7733 168.269 58.4924 167.112C57.8611 164.558 57.587 161.926 57.4936 159.297C57.4171 156.667 57.5872 154.025 58.0211 151.427C58.1316 150.778 58.2384 150.129 58.3859 149.488C58.5169 148.842 58.6658 148.203 58.8343 147.569C59.1719 146.298 59.5708 145.038 59.9966 143.779C60.8544 141.263 61.8591 138.769 62.7994 136.219C63.0354 135.582 63.2635 134.94 63.4843 134.293L64.1408 132.378C64.4245 131.538 64.6919 130.686 64.9466 129.828C66.266 130.241 67.5905 130.63 68.9183 131.004C66.2173 137.105 64.1332 143.502 62.7289 150.026ZM105.525 121.572C105.466 122.298 105.131 123.004 104.621 123.529C103.991 122.274 103.011 121.207 101.748 120.446C101.259 120.151 100.744 119.918 100.216 119.738C100.838 118.995 101.982 118.647 102.991 118.702C103.813 118.746 104.488 119.045 104.943 119.565C105.389 120.075 105.59 120.769 105.525 121.572ZM87.9102 131.229C88.0847 130.09 88.849 128.871 90.0207 128.471C90.3953 130.628 91.6598 132.619 93.6774 133.835V133.836C93.7069 133.853 93.7372 133.868 93.7669 133.885C93.693 133.973 93.6192 134.06 93.5381 134.139C91.8472 133.975 90.1596 133.785 88.4768 133.559C88.02 132.872 87.7875 132.029 87.9102 131.229ZM156.379 106.175C155.41 106.024 154.618 105.328 154.297 104.294C153.929 103.112 154.464 101.674 155.515 101.019C156.412 100.461 157.651 100.495 158.554 101.043C158.156 101.459 157.797 101.917 157.492 102.422C156.782 103.599 156.423 104.89 156.379 106.175ZM42.6929 103.235C43.8845 101.259 45.9881 100.164 48.1425 100.164C49.2578 100.164 50.3874 100.458 51.4099 101.075C52.2249 101.566 52.8908 102.215 53.3874 102.968C52.6676 102.422 51.8646 102.021 51.0175 101.81C49.0114 101.313 46.8773 101.915 45.5797 103.348C44.6143 104.415 44.1784 105.861 44.4129 107.217C44.6626 108.662 45.6852 109.903 47.0191 110.378C47.4115 110.518 47.8306 110.587 48.2518 110.587C48.86 110.587 49.4721 110.443 50.0135 110.161C50.84 109.73 51.4234 109.022 51.6568 108.169C51.9437 107.119 51.579 105.965 50.7697 105.362C50.2952 105.008 49.675 104.868 49.0659 104.971C48.5006 105.069 48.0261 105.367 47.7291 105.811C47.5042 106.148 47.5945 106.604 47.9311 106.828C48.2676 107.052 48.7231 106.963 48.9484 106.626C49.0449 106.482 49.2195 106.433 49.3151 106.416C49.5233 106.382 49.7447 106.427 49.8942 106.539C50.2197 106.781 50.3692 107.316 50.2417 107.783C50.0827 108.365 49.6606 108.691 49.3345 108.861C48.7741 109.153 48.0913 109.203 47.5112 108.997C46.6809 108.701 46.0168 107.885 45.8578 106.967C45.7022 106.065 46.012 105.055 46.6671 104.331C47.5918 103.31 49.1969 102.869 50.663 103.233C52.0571 103.58 53.3189 104.587 54.1253 105.995C54.1851 106.1 54.2685 106.181 54.3628 106.243C54.3619 107.457 54.0008 108.668 53.2936 109.752C51.3806 112.685 47.6731 113.651 44.8533 111.951V111.951C41.8549 110.144 40.8857 106.234 42.6929 103.235ZM92.0806 121.727C91.6827 122.142 91.323 122.6 91.0186 123.105C90.3091 124.282 89.9503 125.573 89.9057 126.857C88.9346 126.705 88.1447 126.013 87.8236 124.977C87.456 123.795 87.9913 122.357 89.0415 121.702C89.9379 121.144 91.1769 121.179 92.0806 121.727ZM160.908 111.895V111.896C157.909 110.088 156.94 106.178 158.748 103.179C160.555 100.18 164.464 99.2106 167.464 101.018C168.279 101.51 168.945 102.158 169.441 102.912C168.722 102.366 167.919 101.965 167.072 101.755C165.066 101.253 162.932 101.859 161.635 103.291C160.669 104.358 160.233 105.805 160.468 107.161C160.717 108.607 161.741 109.847 163.074 110.322C163.466 110.462 163.885 110.531 164.306 110.531C164.914 110.531 165.526 110.387 166.067 110.105C166.894 109.674 167.477 108.966 167.711 108.114C167.998 107.064 167.634 105.909 166.824 105.307C166.349 104.953 165.729 104.812 165.12 104.916C164.555 105.013 164.08 105.312 163.783 105.756C163.558 106.093 163.649 106.548 163.985 106.773C164.322 106.997 164.777 106.908 165.003 106.571C165.099 106.427 165.274 106.378 165.369 106.361C165.576 106.325 165.799 106.372 165.948 106.483C166.275 106.726 166.424 107.26 166.296 107.727C166.137 108.31 165.715 108.635 165.389 108.805C164.829 109.097 164.147 109.148 163.566 108.941C162.736 108.645 162.071 107.829 161.912 106.911C161.757 106.01 162.066 104.999 162.722 104.276C163.647 103.254 165.254 102.813 166.718 103.178C168.112 103.525 169.374 104.531 170.18 105.939C170.24 106.044 170.323 106.125 170.417 106.187C170.417 107.401 170.056 108.612 169.348 109.696C167.435 112.629 163.728 113.595 160.908 111.895ZM154.384 110.546C154.558 109.406 155.322 108.188 156.494 107.788C156.869 109.944 158.133 111.935 160.151 113.152V113.152C160.18 113.17 160.21 113.184 160.24 113.202C159.298 114.324 157.731 114.698 156.308 114.065C155.015 113.491 154.169 111.945 154.384 110.546ZM30.8857 108.386C30.9435 108.87 31.0267 109.35 31.0957 109.832C31.178 110.312 31.2141 110.801 31.3466 111.271C32.8881 118.913 37.8243 125.775 44.4736 129.815C44.7579 129.987 44.8835 130.322 44.8022 130.633C44.2688 132.672 44.1696 134.82 44.3946 136.961C44.4373 137.409 44.4984 137.856 44.5631 138.303C44.5963 138.177 44.6312 138.053 44.6682 137.93C45.4458 135.326 46.9998 131.933 49.1146 130.096C49.3341 129.905 49.5512 129.739 49.7663 129.587C49.4551 130.023 49.1514 130.464 48.8835 130.93C48.1379 132.202 47.5532 133.581 47.207 135.011C46.8591 136.439 46.7477 137.913 46.8997 139.339C46.912 139.453 46.995 139.551 47.1127 139.578C47.2604 139.61 47.4064 139.517 47.4398 139.367C47.7406 138.011 48.1463 136.723 48.6929 135.513C48.8469 135.171 49.0141 134.837 49.1888 134.507C49.1502 134.806 49.1166 135.106 49.0941 135.407C48.9915 136.745 49.033 138.094 49.3032 139.404C49.3329 139.547 49.4428 139.667 49.5941 139.703C49.8018 139.751 50.0093 139.622 50.0582 139.411C50.3513 138.149 50.6292 136.928 50.9665 135.732C51.2067 134.886 51.4757 134.059 51.7617 133.239C51.6201 134.207 51.5542 135.185 51.5811 136.162C51.6278 137.339 51.7716 138.514 52.1378 139.648C52.1927 139.816 52.3307 139.955 52.5154 140.001C52.8007 140.072 53.0895 139.898 53.1621 139.608C53.4404 138.494 53.6341 137.415 53.8662 136.351C54.084 135.286 54.3087 134.237 54.55 133.194L55.0384 131.152C55.1699 131.608 55.2621 132.115 55.2987 132.684C55.4295 134.707 55.5603 136.731 55.6911 138.755C55.7749 140.048 55.7551 141.576 54.7069 142.337C54.1014 142.777 53.2323 142.818 52.5886 142.437C52.2019 142.208 51.9126 141.833 51.7613 141.41C51.6463 142.295 50.9242 143.125 50.018 143.207C48.9901 143.301 48.024 142.407 47.9041 141.405C47.7304 142.084 46.9668 142.623 46.2339 142.531C45.8848 142.486 45.5682 142.336 45.2976 142.118C45.3941 142.54 45.4915 142.962 45.5921 143.384L46.371 146.614C46.6252 147.674 46.9105 148.73 47.2194 149.785C47.8342 151.894 48.5272 153.998 49.141 156.145C49.7556 158.29 50.2963 160.482 50.5778 162.736C50.6614 163.297 50.6919 163.868 50.7437 164.434L50.8119 166.116C50.8398 166.653 50.8375 167.198 50.9084 167.726L50.9905 168.523C51.0198 168.788 51.0811 169.042 51.124 169.302C51.457 171.381 52.4197 173.302 54.2642 173.936C55.1687 174.276 56.2104 174.37 57.2631 174.369C57.9714 174.362 58.6901 174.306 59.4116 174.232C58.2919 172.111 57.4316 169.855 56.8065 167.541C56.0778 164.874 55.6789 162.123 55.567 159.366C55.4522 156.609 55.5966 153.842 56.0169 151.114C56.1242 150.432 56.2278 149.75 56.3741 149.075C56.5027 148.398 56.6519 147.721 56.8211 147.051C57.1566 145.71 57.5572 144.393 58.0005 143.1C58.882 140.51 59.8923 137.999 60.8156 135.489L61.4933 133.606L62.1624 131.701C62.5999 130.439 63.0105 129.179 63.3547 127.911C63.697 126.645 63.9796 125.368 64.1169 124.109C64.1889 123.479 64.2082 122.859 64.1916 122.258C64.1832 121.957 64.1322 121.675 64.1018 121.386L64.0001 120.985L63.9545 120.783L63.8797 120.606L63.7378 120.248C63.6853 120.151 63.6257 120.055 63.5547 119.964C63.4137 119.78 63.2313 119.621 63.0333 119.485C62.6351 119.208 62.1489 119.082 61.7073 119.14C61.2809 119.179 60.8763 119.478 60.6079 119.926C60.3531 120.371 60.2546 120.929 60.4893 121.417L60.499 121.438C60.5833 121.613 60.5091 121.824 60.3335 121.908C60.191 121.977 60.0254 121.94 59.923 121.83C59.3466 121.211 59.2476 120.245 59.5239 119.465C59.6599 119.069 59.8732 118.688 60.1846 118.371C60.4841 118.055 60.9153 117.793 61.342 117.669C63.1104 117.156 64.9933 118.241 65.6366 119.853L65.7724 120.136L65.8594 120.421L66.022 120.997C66.0814 121.374 66.1555 121.758 66.179 122.13C66.2325 122.875 66.2119 123.607 66.1346 124.316C65.9909 125.731 65.6975 127.088 65.3504 128.419C72.3596 130.615 79.492 132.243 86.7045 133.304C86.438 132.572 86.3421 131.78 86.4605 131.007C86.6633 129.683 87.3303 128.542 88.2608 127.796C87.4091 127.286 86.7465 126.455 86.4227 125.413C85.858 123.595 86.65 121.465 88.266 120.458C89.2671 119.835 90.5175 119.685 91.6514 119.972C91.5186 118.855 91.8162 117.686 92.5375 116.802C93.7205 115.354 95.8852 114.868 97.5729 115.673C98.6069 116.166 99.378 117.102 99.7322 118.176C100.69 117.469 101.958 117.179 103.069 117.238C104.278 117.303 105.336 117.787 106.047 118.601C106.759 119.416 107.084 120.484 106.986 121.691C106.935 122.323 106.751 122.934 106.457 123.486C107.664 123.586 108.867 124.14 109.619 125.053C110.862 126.561 110.847 128.901 109.585 130.38C108.947 131.127 108.029 131.591 107.066 131.734C107.392 132.403 107.521 133.17 107.38 133.914C107.322 134.218 107.22 134.51 107.085 134.785C108.792 134.783 110.502 134.757 112.213 134.692C114.447 134.608 116.737 134.469 118.951 134.334C127.242 133.831 135.802 133.316 143.91 135.481C143.482 134.502 143.028 133.536 142.535 132.591C141.875 131.38 141.242 130.148 140.38 129.428C139.952 129.074 139.443 128.818 138.953 128.755C138.703 128.723 138.469 128.736 138.257 128.802C138.036 128.862 137.819 128.982 137.644 129.136C137.468 129.29 137.345 129.478 137.272 129.67C137.201 129.876 137.195 130.035 137.263 130.25C137.405 130.671 137.855 131.019 138.234 130.963L138.265 130.959C138.552 130.917 138.819 131.115 138.861 131.402C138.899 131.66 138.742 131.902 138.501 131.979C138.01 132.134 137.464 132.054 137.043 131.82C136.619 131.585 136.281 131.235 136.056 130.799C135.949 130.578 135.866 130.338 135.833 130.078C135.804 129.811 135.815 129.559 135.868 129.315C135.97 128.823 136.228 128.39 136.548 128.046C136.872 127.702 137.265 127.434 137.709 127.261C138.159 127.086 138.644 127.03 139.095 127.059C140.014 127.118 140.835 127.488 141.509 128.005C142.182 128.524 142.695 129.156 143.118 129.786C143.543 130.421 143.875 131.044 144.237 131.675C144.929 132.946 145.533 134.259 146.085 135.589C148.264 140.935 149.405 146.573 150.321 152.152C151.236 157.737 151.895 163.321 153.22 168.732C153.553 170.074 153.914 171.445 154.333 172.723C154.766 173.988 155.325 175.19 156.192 176.018C157.044 176.852 158.221 177.264 159.511 177.325C160.506 177.378 161.541 177.271 162.591 177.106C162.199 176.217 161.913 175.294 161.685 174.378C161.387 173.145 161.185 171.918 160.959 170.724C160.5 168.297 160.134 165.806 159.978 163.317C159.843 160.823 159.858 158.322 160.03 155.829C160.22 153.337 160.591 150.862 161.092 148.415C161.537 146.181 162.187 143.995 162.921 141.841C162.812 141.768 162.709 141.688 162.619 141.593C162.309 141.268 162.131 140.829 162.1 140.382C161.75 141.202 160.83 141.805 159.936 141.64C158.921 141.452 158.233 140.33 158.388 139.334C158.037 139.94 157.156 140.252 156.476 139.965C155.622 139.605 155.18 138.601 155.227 137.676C155.274 136.751 155.717 135.894 156.213 135.112C157.666 132.816 160.08 129.97 162.612 128.773C162.875 128.649 163.129 128.548 163.378 128.46C162.96 128.795 162.548 129.137 162.164 129.514C161.102 130.537 160.167 131.705 159.446 132.989C158.725 134.27 158.219 135.658 157.98 137.072C157.961 137.185 158.014 137.302 158.12 137.359C158.253 137.431 158.419 137.381 158.492 137.245C159.149 136.021 159.888 134.891 160.741 133.874C160.982 133.586 161.234 133.31 161.491 133.04C161.373 133.317 161.259 133.597 161.156 133.88C160.696 135.141 160.371 136.45 160.276 137.785C160.266 137.931 160.339 138.076 160.475 138.151C160.662 138.253 160.897 138.185 161.001 137.996C161.625 136.86 162.223 135.76 162.871 134.699C163.331 133.951 163.813 133.226 164.311 132.515C163.912 133.408 163.584 134.332 163.346 135.28C163.073 136.426 162.893 137.596 162.939 138.786C162.946 138.963 163.042 139.134 163.207 139.228C163.462 139.374 163.788 139.285 163.936 139.025C163.971 138.963 164.004 138.901 164.039 138.839C164.661 137.309 165.35 135.806 166.121 134.345C167.253 132.103 168.628 130.071 169.478 127.893C169.915 126.813 170.185 125.693 170.3 124.568C170.439 123.436 170.513 122.343 170.527 121.012C171.51 121.944 171.894 123.355 171.876 124.669C171.837 125.997 171.497 127.286 171.051 128.495C170.484 130.021 169.732 131.415 168.995 132.777C174.803 130.813 182.087 127.139 186.782 122.147C186.612 122.11 186.443 122.077 186.273 122.038C184.916 121.726 183.549 121.352 182.223 120.813C179.58 119.78 177.064 117.854 175.873 115.109C175.582 114.426 175.382 113.699 175.301 112.955C175.288 112.769 175.268 112.583 175.263 112.397L175.278 111.841C175.271 111.468 175.35 111.11 175.399 110.748C175.432 110.568 175.47 110.391 175.513 110.215C174.944 110.66 174.253 110.944 173.538 111.05C173.864 111.72 173.993 112.487 173.851 113.231C173.533 114.907 171.924 116.222 170.18 116.225C169.388 116.225 168.619 115.962 167.973 115.512C167.784 116.461 167.33 117.367 166.644 118.077C165.848 118.902 164.852 119.333 163.798 119.333C163.387 119.333 162.967 119.267 162.547 119.134C161.314 118.742 160.376 117.793 159.975 116.531C159.855 116.15 159.788 115.76 159.775 115.371C158.539 115.954 157.059 116.005 155.712 115.407C153.812 114.563 152.618 112.378 152.933 110.324C153.135 109 153.802 107.859 154.733 107.113C153.881 106.603 153.218 105.772 152.894 104.73C152.329 102.912 153.122 100.782 154.738 99.7747C155.739 99.1513 156.989 99.0013 158.124 99.2887C157.991 98.1721 158.288 97.0024 159.009 96.1191C160.192 94.6702 162.358 94.1846 164.045 94.9901C165.079 95.4824 165.85 96.419 166.204 97.4922C167.161 96.7852 168.433 96.5 169.541 96.5555C170.749 96.6201 171.807 97.1032 172.518 97.9166C173.231 98.7319 173.556 99.801 173.458 101.008C173.407 101.639 173.223 102.251 172.928 102.803C174.136 102.903 175.339 103.457 176.091 104.369C176.618 105.009 176.782 105.716 176.998 106.481C177.442 105.455 177.61 104.265 178.024 103.208C178.185 102.795 178.572 102.268 178.886 102.771C179.244 103.345 178.89 104.073 178.689 104.629C178.39 105.456 178.119 106.293 177.809 107.117C177.264 108.567 176.738 110.049 176.63 111.594C176.462 113.992 177.574 116.04 179.409 117.528C180.401 118.335 181.554 118.943 182.777 119.417C185.226 120.354 187.942 120.759 190.621 121.243C193.301 121.702 195.989 122.056 198.674 122.145C201.36 122.254 204.025 122.074 206.641 121.513C209.246 120.957 211.812 120.117 214.054 118.782C215.169 118.113 216.195 117.312 217.028 116.355C217.633 115.66 218.132 114.883 218.498 114.047C216.844 114.515 215.123 114.749 213.399 114.749C209.431 114.749 205.452 113.528 202.252 111.184C201.925 110.945 201.854 110.486 202.093 110.16C202.333 109.833 202.791 109.761 203.118 110.001C206.196 112.255 210.055 113.373 213.87 113.271C213.349 112.938 212.851 112.539 212.45 112.03C211.546 110.881 211.264 108.989 212.357 107.813C212.875 107.255 213.554 107.003 214.153 106.78C214.532 106.639 214.89 106.505 215.172 106.313C215.494 106.093 215.768 105.759 216.058 105.405C216.095 105.359 216.135 105.315 216.172 105.269C213.579 104.647 211.086 102.907 209.183 100.345C207.178 97.6494 205.979 94.3533 205.016 91.7051L204.936 91.4859C203.916 88.6825 202.861 85.7842 201.17 83.3474C198.162 79.0125 193.115 76.291 187.871 76.0657C187.958 76.3763 188.036 76.6893 188.102 77.0044C188.359 78.3236 188.466 79.6765 188.341 81.0135C188.186 82.3438 187.791 83.6595 187.056 84.7733C186.996 84.8641 186.874 84.889 186.783 84.8292C186.719 84.787 186.687 84.7137 186.696 84.6382C186.845 83.3535 186.981 82.1442 187.009 80.9254C187.038 79.7109 186.953 78.4932 186.684 77.3113C186.408 76.1328 185.972 74.9955 185.388 73.9457C184.796 72.9034 184.043 71.9432 183.191 71.061C182.339 70.1771 181.402 69.3554 180.427 68.5566L178.945 67.3659C178.485 67.0033 177.999 66.6844 177.548 66.5229C177.324 66.4424 177.119 66.4095 176.962 66.4228C176.806 66.4337 176.686 66.4885 176.569 66.573C176.342 66.7383 176.129 67.2164 175.937 67.8171L174.684 71.4405C173.857 73.8634 172.959 76.2541 172.357 78.6576C171.748 81.0582 171.464 83.5188 171.925 85.8787C172.154 87.0501 172.54 88.19 173.138 89.1952C173.432 89.6998 173.764 90.1833 174.157 90.6107C174.547 91.0301 174.971 91.4165 175.448 91.7498C177.353 93.0514 179.95 93.5748 182.212 92.5219C182.325 92.4696 182.458 92.5183 182.51 92.6306C182.555 92.7271 182.526 92.8392 182.445 92.9021C181.39 93.7275 179.992 94.1585 178.616 94.1176C177.234 94.107 175.865 93.6905 174.663 92.9835C174.067 92.6213 173.502 92.1886 173.013 91.6794C172.524 91.1808 172.108 90.6181 171.741 90.0311C171.012 88.8476 170.556 87.5326 170.278 86.2033C170.01 84.8702 169.931 83.5095 170.017 82.1659C170.099 80.8277 170.328 79.5129 170.634 78.2343C170.903 77.1318 171.231 76.063 171.577 75.0067C157.34 75.9232 143.062 76.2232 128.799 75.8759C128.725 76.7091 128.412 77.519 127.861 78.1646C127.223 78.9122 126.305 79.3752 125.342 79.5186C125.668 80.1879 125.797 80.9551 125.656 81.6989C125.337 83.3751 123.727 84.6905 121.985 84.6934C121.193 84.6934 120.423 84.4298 119.777 83.9797C119.588 84.9293 119.134 85.8359 118.448 86.5463C117.652 87.3708 116.656 87.8015 115.602 87.8015C115.191 87.8015 114.772 87.7361 114.351 87.6024C113.117 87.2109 112.18 86.2619 111.78 84.9986C111.659 84.6181 111.592 84.228 111.579 83.8399C110.343 84.4228 108.864 84.474 107.515 83.8753C105.617 83.0317 104.422 80.8471 104.737 78.7927C104.939 77.4689 105.606 76.3278 106.537 75.5816C106.173 75.3635 105.846 75.0836 105.563 74.7569C103.896 74.6351 102.229 74.5097 100.564 74.3703C98.5697 74.21 96.5775 74.0301 94.5865 73.8357C92.5943 73.6539 90.6052 73.444 88.6191 73.2403C84.6472 72.8319 80.6827 72.4359 76.7165 72.2278C72.7525 72.0212 68.7799 71.9964 64.8469 72.3518C60.9164 72.7065 57.0164 73.4264 53.2815 74.6489C49.8439 75.7836 46.5176 77.3386 43.5878 79.4306C45.7297 78.5236 48.2543 77.8218 50.3721 77.9788C50.6621 78.0004 50.9329 78.0372 51.1925 78.083C50.6641 78.1685 50.1369 78.264 49.6173 78.4023C48.1891 78.7688 46.799 79.3246 45.54 80.0864C44.281 80.8455 43.1563 81.8046 42.2511 82.9171C42.179 83.0059 42.1675 83.1342 42.2319 83.236C42.3127 83.3638 42.4816 83.4021 42.612 83.3198C43.7862 82.5784 44.9864 81.9589 46.2299 81.495C46.5814 81.3633 46.9366 81.2467 47.2936 81.1384C47.0537 81.3216 46.8173 81.509 46.588 81.7049C45.566 82.5747 44.6378 83.5541 43.8978 84.6691C43.8173 84.7907 43.8092 84.9533 43.8909 85.0856C44.0031 85.2671 44.241 85.3233 44.4248 85.2097C45.5267 84.529 46.5895 83.8662 47.6763 83.2628C48.4455 82.8381 49.2224 82.446 50.0056 82.0719C49.2188 82.653 48.478 83.2953 47.804 84.002C47.0011 84.8648 46.268 85.7942 45.7213 86.8527C45.6404 87.0104 45.6395 87.2057 45.7367 87.3692C45.8871 87.6218 46.2138 87.7049 46.4712 87.5516C47.4584 86.9641 48.3603 86.342 49.2793 85.757C50.1883 85.1619 51.0913 84.5825 52.0017 84.0191L53.7954 82.9272C53.5644 83.3419 53.269 83.7648 52.8913 84.1912C51.5468 85.7096 50.2023 87.228 48.8576 88.7464C47.9986 89.7165 46.9006 90.7783 45.6216 90.5708C44.8829 90.4508 44.242 89.8626 44.0591 89.1369C43.9495 88.701 44.0115 88.2318 44.205 87.8269C43.4958 88.3684 42.3984 88.4399 41.7016 87.8549C40.9111 87.1914 40.8653 85.8756 41.4918 85.0852C40.8877 85.4395 39.9671 85.2777 39.5166 84.6921C39.22 84.3065 39.1133 83.8223 39.147 83.3363C37.6523 84.9702 36.3379 86.7758 35.2183 88.6875C34.2048 90.3586 33.429 92.1606 32.7193 93.9796C32.5549 94.4392 32.4179 94.909 32.2658 95.3731C32.1285 95.8417 31.9418 96.2966 31.8453 96.7765C31.6333 97.7299 31.3453 98.6681 31.2219 99.6391L30.9845 101.085C30.924 101.569 30.8947 102.057 30.848 102.543C30.7308 103.515 30.7439 104.491 30.7324 105.467C30.7112 105.955 30.7484 106.442 30.7849 106.928L30.8857 108.386ZM199.745 95.7043C199.722 95.7873 199.665 95.8566 199.588 95.8956C198.778 96.3047 197.867 96.5148 196.958 96.5148C196.442 96.5148 195.926 96.447 195.429 96.3105C194.056 95.9314 192.831 95.0247 192.068 93.8227C192.022 93.7482 192.009 93.6576 192.033 93.573C192.057 93.4885 192.117 93.4188 192.197 93.3814C193.06 92.9747 194.042 92.7416 195.199 92.6681C195.331 92.6586 195.448 92.7335 195.499 92.8514C195.55 92.9698 195.522 93.1078 195.429 93.196C195.102 93.5045 195.023 94.0505 195.248 94.4388C195.473 94.8269 195.986 95.0289 196.416 94.9C196.846 94.7701 197.161 94.3175 197.133 93.8698C197.126 93.7577 197.181 93.6506 197.276 93.5909C197.371 93.5318 197.491 93.529 197.589 93.5838C198.347 94.011 199.13 94.5339 199.71 95.4595C199.755 95.5325 199.768 95.6212 199.745 95.7043ZM188.893 86.9094C188.985 86.8956 189.073 86.9278 189.134 86.9885L189.145 86.9993C189.954 87.8121 190.883 88.1941 191.892 88.4832C192.887 88.7608 193.976 88.8934 195.168 89.1068C195.762 89.2138 196.378 89.3447 196.997 89.5426C197.613 89.7337 198.251 90.0322 198.815 90.4082C199.376 90.7942 199.891 91.2719 200.275 91.8605C200.662 92.4425 200.903 93.1488 200.888 93.84C200.882 94.0863 200.678 94.2814 200.432 94.276C200.251 94.2719 200.098 94.161 200.031 94.0051L200.02 93.9785C199.615 93.0264 198.814 92.4047 197.901 91.9782C197.001 91.5518 195.955 91.3883 194.811 91.1988C193.68 91.0099 192.4 90.8371 191.194 90.2232C190.601 89.9229 190.035 89.5309 189.573 89.0226C189.109 88.5213 188.755 87.893 188.656 87.2311C188.632 87.0765 188.739 86.9326 188.893 86.9094ZM145.249 79.6122C146.084 79.2119 147.048 79.1918 147.972 79.253C150.683 79.4322 154.337 80.1927 156.598 81.8459C156.833 82.0175 157.043 82.1921 157.239 82.3682C156.746 82.1614 156.248 81.9636 155.734 81.8064C154.328 81.3622 152.854 81.0986 151.382 81.0794C149.912 81.0579 148.45 81.2771 147.094 81.7426C146.986 81.7798 146.908 81.8827 146.909 82.0031C146.91 82.1544 147.033 82.2762 147.184 82.2753H147.187C148.576 82.2672 149.922 82.3761 151.223 82.6399C151.591 82.7139 151.954 82.8027 152.314 82.8997C152.014 82.9284 151.714 82.9624 151.416 83.0075C150.088 83.2051 148.783 83.5456 147.565 84.1006C147.432 84.1614 147.34 84.295 147.339 84.4504C147.338 84.6637 147.51 84.8373 147.724 84.8382H147.726C149.022 84.8432 150.274 84.8427 151.516 84.9052C152.393 84.9516 153.26 85.0295 154.122 85.1264C153.147 85.2035 152.179 85.3567 151.233 85.6003C150.095 85.9079 148.982 86.3092 147.958 86.9184C147.806 87.0095 147.702 87.1748 147.698 87.3651C147.692 87.659 147.925 87.9021 148.219 87.9081L148.225 87.9082C149.373 87.9316 150.468 87.8808 151.557 87.8702C152.644 87.8457 153.716 87.8315 154.787 87.8348L156.887 87.8567C156.471 88.0865 155.997 88.2892 155.451 88.4514C153.507 89.029 151.563 89.6067 149.619 90.1845C148.377 90.5536 146.883 90.8743 145.907 90.0216C145.344 89.5291 145.111 88.6909 145.339 87.9783C145.477 87.5503 145.778 87.1851 146.156 86.9436C145.268 87.0282 144.299 86.5086 144.016 85.6435C143.696 84.6621 144.353 83.5215 145.303 83.1818C144.603 83.1631 143.907 82.5387 143.835 81.8037C143.743 80.8814 144.414 80.0127 145.249 79.6122ZM145.665 112.572C145.927 112.696 146.167 112.829 146.392 112.965C145.868 112.854 145.342 112.753 144.808 112.694C143.344 112.519 141.847 112.535 140.398 112.79C138.949 113.043 137.554 113.531 136.308 114.241C136.209 114.298 136.152 114.413 136.175 114.532C136.204 114.68 136.348 114.777 136.496 114.748L136.499 114.747C137.862 114.48 139.205 114.337 140.532 114.353C140.907 114.358 141.28 114.377 141.652 114.405C141.363 114.489 141.074 114.579 140.79 114.678C139.523 115.12 138.303 115.698 137.21 116.47C137.091 116.555 137.025 116.703 137.053 116.856C137.092 117.066 137.294 117.204 137.503 117.165L137.506 117.165C138.78 116.928 140.01 116.694 141.241 116.525C142.112 116.407 142.978 116.322 143.844 116.256C142.9 116.513 141.977 116.845 141.093 117.26C140.033 117.774 139.013 118.376 138.121 119.165C137.989 119.283 137.917 119.465 137.949 119.653C137.998 119.943 138.272 120.138 138.562 120.089L138.568 120.088C139.7 119.897 140.766 119.643 141.835 119.43C142.897 119.204 143.949 118.99 145.001 118.793L147.068 118.423C146.703 118.726 146.274 119.014 145.768 119.275C143.966 120.205 142.163 121.135 140.361 122.065C139.209 122.659 137.802 123.252 136.684 122.596C136.039 122.217 135.654 121.437 135.746 120.695C135.801 120.248 136.028 119.833 136.355 119.526C135.498 119.774 134.449 119.445 134.011 118.647C133.513 117.743 133.946 116.5 134.816 115.989C134.125 116.101 133.325 115.617 133.116 114.909C132.855 114.02 133.352 113.042 134.098 112.493C134.843 111.943 135.787 111.744 136.706 111.632C139.404 111.303 143.135 111.369 145.665 112.572ZM124.794 91.7942C125.54 91.2453 126.483 91.0459 127.403 90.9338C130.1 90.6046 133.831 90.6711 136.361 91.8738C136.624 91.9987 136.863 92.1311 137.088 92.2675C136.565 92.1564 136.039 92.0547 135.504 91.996C134.04 91.8215 132.543 91.8373 131.094 92.0925C129.646 92.3453 128.25 92.8331 127.004 93.5431C126.905 93.5999 126.848 93.7155 126.871 93.8337C126.9 93.9821 127.044 94.0788 127.192 94.0498L127.195 94.0493C128.558 93.7825 129.901 93.6386 131.228 93.6554C131.603 93.6596 131.977 93.6792 132.349 93.7074C132.059 93.7916 131.771 93.8809 131.486 93.9807C130.219 94.4223 128.999 95.0001 127.907 95.7724C127.788 95.8568 127.721 96.0054 127.75 96.1583C127.789 96.368 127.99 96.5063 128.2 96.4675L128.203 96.467C129.476 96.2305 130.707 95.9964 131.938 95.8268C132.809 95.7088 133.675 95.6239 134.54 95.5584C133.597 95.8158 132.674 96.147 131.79 96.5624C130.729 97.0766 129.71 97.6783 128.818 98.4678C128.685 98.5857 128.614 98.7675 128.645 98.9551C128.694 99.2449 128.969 99.4404 129.259 99.3915L129.264 99.3906C130.397 99.1994 131.463 98.9456 132.531 98.7323C133.594 98.5061 134.645 98.2919 135.698 98.0957L137.765 97.7259C137.399 98.029 136.971 98.3167 136.465 98.5778C134.662 99.5076 132.86 100.438 131.058 101.367C129.906 101.961 128.498 102.555 127.381 101.899C126.736 101.52 126.351 100.74 126.442 99.9972C126.498 99.5512 126.725 99.136 127.052 98.8284C126.195 99.0771 125.146 98.7472 124.707 97.9498C124.21 97.0453 124.643 95.8022 125.513 95.2915C124.821 95.4037 124.021 94.9198 123.813 94.2112C123.552 93.3216 124.048 92.3433 124.794 91.7942ZM109.591 107.33C110.419 106.915 111.383 106.878 112.308 106.923C115.022 107.055 118.688 107.751 120.978 109.365C121.215 109.532 121.429 109.703 121.628 109.876C121.131 109.678 120.63 109.488 120.113 109.34C118.699 108.921 117.221 108.683 115.749 108.69C114.279 108.694 112.822 108.939 111.473 109.428C111.366 109.467 111.29 109.571 111.293 109.691C111.296 109.843 111.422 109.962 111.573 109.959H111.576C112.964 109.926 114.312 110.012 115.617 110.253C115.987 110.32 116.351 110.403 116.713 110.493C116.413 110.527 116.114 110.566 115.817 110.617C114.493 110.838 113.193 111.201 111.986 111.777C111.854 111.84 111.764 111.975 111.766 112.131C111.769 112.344 111.944 112.514 112.157 112.512H112.16C113.455 112.494 114.707 112.471 115.95 112.512C116.828 112.543 117.696 112.606 118.56 112.688C117.586 112.782 116.621 112.952 115.679 113.212C114.547 113.539 113.441 113.96 112.428 114.587C112.277 114.681 112.176 114.848 112.175 115.038C112.175 115.332 112.412 115.572 112.706 115.572H112.712C113.861 115.576 114.954 115.505 116.043 115.476C117.129 115.433 118.201 115.399 119.272 115.384L121.371 115.369C120.96 115.606 120.489 115.817 119.946 115.989C118.012 116.601 116.079 117.212 114.145 117.824C112.91 118.215 111.422 118.561 110.431 117.726C109.859 117.243 109.612 116.409 109.828 115.693C109.958 115.263 110.252 114.892 110.626 114.644C109.739 114.744 108.761 114.241 108.464 113.382C108.127 112.406 108.764 111.254 109.707 110.898C109.007 110.891 108.3 110.279 108.215 109.546C108.108 108.625 108.763 107.745 109.591 107.33ZM90.8819 88.0293C91.694 87.5843 92.6558 87.5119 93.5816 87.5227C96.2986 87.5543 99.988 88.1152 102.336 89.6428C102.58 89.8015 102.799 89.9644 103.005 90.1295C102.5 89.9501 101.993 89.7794 101.471 89.6504C100.042 89.2831 98.5566 89.1002 97.0863 89.1609C95.6173 89.2193 94.1695 89.5176 92.8403 90.0562C92.7345 90.0992 92.6624 90.2061 92.6698 90.3265C92.6789 90.4774 92.8085 90.5924 92.9594 90.5832L92.9625 90.583C94.3485 90.4993 95.6987 90.5351 97.0119 90.7277C97.3835 90.7818 97.7509 90.8506 98.1158 90.9278C97.8174 90.9727 97.5199 91.0231 97.2247 91.0841C95.9102 91.3538 94.6246 91.7646 93.439 92.385C93.3098 92.4527 93.2244 92.5914 93.2323 92.7467C93.2431 92.9596 93.4244 93.1236 93.6375 93.1128L93.6404 93.1127C94.934 93.0473 96.1845 92.9786 97.4275 92.9738C98.3061 92.9722 99.1759 93.0031 100.042 93.0528C99.0731 93.1827 98.1142 93.3885 97.1832 93.6829C96.0638 94.052 94.9735 94.5132 93.9844 95.1771C93.8375 95.2763 93.7426 95.4471 93.7491 95.6372C93.7591 95.931 94.0053 96.1612 94.2992 96.1511L94.3048 96.1509C95.4527 96.1119 96.543 96.0016 97.6302 95.9319C98.7136 95.8485 99.7841 95.7759 100.853 95.7211L102.951 95.6288C102.549 95.8807 102.086 96.1089 101.55 96.3006C99.6398 96.983 97.7299 97.6656 95.8202 98.348C94.5998 98.784 93.126 99.1852 92.1054 98.387C91.5161 97.9259 91.2378 97.1016 91.4275 96.3775C91.5414 95.9427 91.8219 95.5614 92.1866 95.3C91.3043 95.4328 90.3083 94.9665 89.9795 94.1181C89.6065 93.1556 90.2005 91.9809 91.1305 91.5901C90.4305 91.6095 89.7019 91.0238 89.5893 90.2938C89.4477 89.3785 90.0697 88.4744 90.8819 88.0293ZM84.308 108.618C83.8008 108.447 83.29 108.285 82.7657 108.165C81.3313 107.824 79.8426 107.667 78.3736 107.753C76.9058 107.838 75.4634 108.162 74.1439 108.724C74.039 108.768 73.9687 108.877 73.9782 108.997C73.9901 109.148 74.1216 109.26 74.2724 109.248L74.2754 109.248C75.6598 109.14 77.0104 109.152 78.3269 109.321C78.6993 109.369 79.0677 109.431 79.434 109.502C79.1365 109.552 78.8398 109.608 78.5457 109.674C77.2361 109.967 75.9581 110.4 74.7834 111.041C74.6554 111.112 74.5726 111.252 74.583 111.407C74.5976 111.619 74.7819 111.78 74.9945 111.766L74.9973 111.766C76.2896 111.677 77.5388 111.587 78.7816 111.56C79.66 111.543 80.5302 111.558 81.3975 111.593C80.4307 111.74 79.4755 111.962 78.5497 112.273C77.4369 112.662 76.3551 113.142 75.3779 113.824C75.2327 113.925 75.1409 114.098 75.1506 114.288C75.1657 114.581 75.416 114.807 75.7097 114.792L75.7153 114.792C76.8623 114.732 77.9504 114.603 79.0364 114.514C80.118 114.412 81.1871 114.32 82.2551 114.246L84.3509 114.117C83.9531 114.376 83.4946 114.612 82.9617 114.814C81.0642 115.53 79.1665 116.246 77.2689 116.962C76.0567 117.419 74.59 117.846 73.5557 117.066C72.9581 116.616 72.6654 115.796 72.8424 115.069C72.9485 114.632 73.2222 114.246 73.5824 113.978C72.7026 114.127 71.6986 113.678 71.3548 112.836C70.9649 111.88 71.5383 110.695 72.4611 110.288C71.7616 110.319 71.0226 109.747 70.8974 109.019C70.7402 108.106 71.3462 107.191 72.1504 106.732C72.9546 106.272 73.9146 106.183 74.8408 106.177C77.558 106.161 81.2568 106.657 83.6313 108.143C83.8773 108.297 84.0999 108.456 84.308 108.618ZM63.9374 78.6104C64.6832 78.0615 65.6267 77.862 66.5461 77.7499C69.2433 77.4207 72.9746 77.487 75.5044 78.69C75.7669 78.8148 76.0062 78.9471 76.2315 79.0836C75.7079 78.9726 75.1819 78.8709 74.6475 78.8121C73.1834 78.6377 71.6863 78.6535 70.2371 78.9086C68.7889 79.1614 67.3934 79.6492 66.1474 80.3593C66.0484 80.4161 65.9911 80.5316 66.0142 80.6498C66.0432 80.7982 66.1871 80.8949 66.3355 80.8658L66.3386 80.8653C67.7012 80.5984 69.0442 80.4547 70.3715 80.4714C70.7468 80.4757 71.12 80.4951 71.4921 80.5233C71.2023 80.6076 70.9139 80.6969 70.6295 80.7966C69.3623 81.2383 68.1428 81.8161 67.0497 82.5883C66.9308 82.6728 66.8646 82.8214 66.8928 82.9743C66.9318 83.1839 67.1334 83.3223 67.3431 83.2835L67.3458 83.2829C68.6195 83.0465 69.8499 82.8125 71.0812 82.6428C71.9521 82.5247 72.8181 82.4399 73.6834 82.3741C72.7399 82.6316 71.817 82.9628 70.933 83.3782C69.8724 83.8924 68.8531 84.4941 67.9608 85.2836C67.8284 85.4015 67.7569 85.5833 67.7885 85.7709C67.8374 86.0607 68.1121 86.2562 68.4019 86.2073L68.4075 86.2064C69.5401 86.0154 70.606 85.7613 71.6745 85.5481C72.7372 85.3219 73.7885 85.1077 74.8408 84.9115L76.9078 84.5415C76.5425 84.8447 76.1144 85.1323 75.6081 85.3934C73.8056 86.3232 72.0031 87.2532 70.2008 88.183C69.0493 88.777 67.6417 89.3702 66.5242 88.7144C65.8788 88.3357 65.4937 87.5556 65.5855 86.8128C65.6409 86.3667 65.8684 85.9516 66.1952 85.644C65.3381 85.8927 64.2892 85.5628 63.8506 84.7654C63.3533 83.8609 63.7861 82.6178 64.6561 82.1072C63.9647 82.2193 63.1648 81.7354 62.9566 81.0268C62.695 80.1379 63.1916 79.1594 63.9374 78.6104ZM38.6855 99.8301C39.6871 99.2055 40.9369 99.0571 42.0712 99.3441C41.9381 98.2274 42.2354 97.0577 42.9563 96.1745C44.1393 94.7259 46.3043 94.2414 47.992 95.0445C49.026 95.5377 49.7966 96.4749 50.1513 97.5475C51.1086 96.8414 52.3742 96.5521 53.488 96.6103C54.6963 96.6749 55.7538 97.1584 56.4652 97.9719C57.1779 98.7873 57.5031 99.8563 57.4052 101.063C57.3542 101.694 57.1704 102.306 56.8757 102.858C58.0837 102.958 59.2868 103.512 60.0387 104.425C61.2815 105.933 61.2666 108.273 60.0044 109.752C59.3665 110.499 58.4484 110.962 57.485 111.106C57.8111 111.775 57.9399 112.542 57.7987 113.286C57.4803 114.962 55.8705 116.278 54.1341 116.28C54.1321 116.28 54.1307 116.28 54.1289 116.28C53.3369 116.28 52.5668 116.017 51.9209 115.567C51.7322 116.516 51.2773 117.422 50.5913 118.133C49.795 118.958 48.7991 119.389 47.7455 119.389C47.3344 119.389 46.9143 119.323 46.4942 119.189C45.2611 118.798 44.3234 117.849 43.9229 116.586C43.8022 116.206 43.7357 115.816 43.7219 115.427C42.4868 116.01 41.0074 116.061 39.6586 115.462C37.76 114.618 36.5653 112.433 36.8799 110.379C37.0828 109.055 37.7497 107.915 38.6803 107.169C37.8286 106.658 37.1654 105.828 36.8417 104.786C36.2764 102.967 37.0693 100.837 38.6855 99.8301ZM38.2424 104.35C37.8748 103.168 38.41 101.73 39.4608 101.075C40.3571 100.517 41.5965 100.551 42.5003 101.1C42.1043 101.511 41.7439 101.968 41.4368 102.478C40.7407 103.633 40.3672 104.919 40.3217 106.231C39.3488 106.08 38.5642 105.385 38.2424 104.35ZM163.925 114.2C164.802 114.2 165.676 114.042 166.51 113.741C166.778 114.871 166.427 116.191 165.591 117.058C165.176 117.487 164.285 118.146 162.992 117.735C162.219 117.49 161.63 116.889 161.375 116.086C161.137 115.338 161.217 114.538 161.583 113.877C161.595 113.861 161.605 113.842 161.617 113.825C162.37 114.076 163.148 114.2 163.925 114.2Z" fill="#270303" stroke="black" stroke-width="1.62" mask="url(#path-1-inside-1_7_291)"/>
<circle cx="121.5" cy="121.5" r="120.69" stroke="black" stroke-width="1.62" stroke-linecap="square" stroke-dasharray="16.2 16.2"/>
</svg>
