<svg width="243" height="243" viewBox="0 0 243 243" fill="none" xmlns="http://www.w3.org/2000/svg">
<mask id="path-1-inside-1_7_297" fill="white">
<path d="M149.099 191.294C149.661 192.044 149.897 192.968 149.764 193.897C149.49 195.812 147.719 197.153 145.792 196.874C143.877 196.6 142.541 194.818 142.815 192.902C143.066 191.154 144.571 189.89 146.288 189.89C146.452 189.89 146.62 189.901 146.787 189.925C147.715 190.058 148.536 190.544 149.099 191.294ZM125.718 192.604C125.149 195.567 125.091 198.607 125.421 201.586C125.759 204.564 126.482 207.509 127.708 210.242C128.189 211.326 128.742 212.379 129.359 213.389C124.587 213.198 119.896 214.299 115.351 215.37C114.051 215.677 112.706 215.993 111.39 216.271C109.77 216.614 107.961 216.997 106.299 217.784C107.544 208.95 106.736 196.229 103.356 187.092C104.38 187.475 105.481 187.688 106.6 187.67C108.009 187.647 109.398 187.289 110.644 186.624C111.555 186.143 112.397 185.469 113.073 184.662C113.13 185.132 113.215 185.609 113.349 186.094C113.557 186.816 113.877 187.568 114.419 188.223C114.954 188.876 115.679 189.406 116.475 189.689C117.272 189.981 118.081 190.041 118.824 190.008C119.567 189.967 120.265 189.84 120.924 189.681C121.588 189.521 122.201 189.346 122.837 189.153C123.47 188.957 124.108 188.738 124.743 188.471C125.649 188.087 126.574 187.599 127.398 186.919C126.652 188.75 126.086 190.66 125.718 192.604ZM114.467 199.813C114.337 198.535 114.103 197.261 113.613 196.035C113.583 195.963 113.519 195.904 113.438 195.885C113.304 195.854 113.171 195.937 113.14 196.071C112.842 197.344 112.702 198.579 112.566 199.809C112.439 201.037 112.352 202.257 112.274 203.48L112.043 207.162C111.987 208.4 111.907 209.642 111.931 210.931C111.933 211.016 111.979 211.099 112.06 211.143C112.179 211.207 112.328 211.162 112.392 211.043C113.01 209.896 113.428 208.678 113.771 207.441C114.105 206.201 114.32 204.933 114.445 203.656C114.57 202.38 114.588 201.092 114.467 199.813ZM120.969 208.837C120.963 207.682 120.874 206.581 120.799 205.486L120.55 202.234L120.299 198.984C120.203 197.892 120.109 196.793 119.909 195.649C119.892 195.556 119.83 195.468 119.736 195.426C119.586 195.359 119.409 195.426 119.341 195.577C118.858 196.655 118.596 197.794 118.449 198.942C118.303 200.091 118.291 201.255 118.391 202.407C118.49 203.561 118.7 204.705 119.024 205.815C119.358 206.924 119.791 208.005 120.42 208.999C120.474 209.082 120.569 209.138 120.675 209.137C120.839 209.136 120.971 209.001 120.969 208.837ZM155.22 169.234C157.611 176.654 159.226 183.773 159.134 191.054C158.981 203.207 153.983 213.819 145.761 219.442C144.747 220.135 143.771 220.832 142.81 221.517C138.583 224.531 134.933 227.134 129.937 228.321C123.913 229.752 118.048 230.068 109.788 230.387C109.137 230.412 108.482 230.494 107.85 230.573C106.179 230.781 104.737 230.961 103.76 230.158C102.593 229.196 102.408 227.398 102.624 226.035C103.006 223.618 104.564 221.365 106.691 220.155C108.235 219.277 110.079 218.887 111.864 218.51C113.205 218.226 114.563 217.907 115.876 217.597C120.557 216.495 125.401 215.355 130.151 215.727C130.406 215.746 130.646 215.678 130.846 215.553C131.406 216.283 132.003 216.984 132.646 217.639C132.832 217.83 133.134 217.866 133.362 217.711C133.619 217.537 133.686 217.187 133.508 216.924C130.33 212.23 128.205 206.915 127.678 201.35C127.127 195.8 128.226 190.146 130.908 185.281C132.219 182.833 133.876 180.569 135.797 178.582C137.753 176.641 139.966 174.94 142.449 173.835C143.675 173.292 145.017 172.789 146.201 172.699C146.794 172.652 147.355 172.714 147.818 172.904C148.295 173.099 148.708 173.434 148.926 173.804C149.15 174.169 149.199 174.573 149.093 175.056C148.983 175.537 148.669 176.031 148.275 176.442C147.461 177.276 146.116 177.773 144.768 178.329C144.631 178.386 144.535 178.524 144.539 178.681C144.543 178.887 144.714 179.049 144.924 179.044C145.661 179.026 146.404 178.956 147.168 178.79C147.928 178.61 148.706 178.335 149.42 177.808C150.128 177.29 150.709 176.576 151.04 175.674C151.379 174.786 151.336 173.622 150.82 172.732C150.323 171.836 149.536 171.233 148.691 170.858C147.818 170.48 146.9 170.388 146.055 170.436C144.341 170.555 142.929 171.096 141.505 171.678C140.082 172.261 138.763 173.05 137.509 173.91C136.256 174.78 135.129 175.797 134.044 176.849C132.481 178.46 131.066 180.213 129.872 182.104C129.879 182.026 129.889 181.946 129.895 181.868C130 180.455 129.835 179.171 129.856 177.955C129.821 176.723 129.897 175.49 129.988 174.261C130.441 169.342 131.939 164.525 134.26 160.151C135.432 157.968 136.832 155.909 138.412 154.004L139.005 153.289C139.208 153.055 139.425 152.834 139.635 152.607C140.063 152.16 140.465 151.688 140.91 151.257L141.549 150.579C141.758 150.348 141.956 150.103 142.178 149.886C142.606 149.43 143.027 148.962 143.414 148.439L143.434 148.413C143.539 148.27 143.563 148.075 143.48 147.904C143.361 147.66 143.066 147.559 142.822 147.679C142.23 147.968 141.672 148.313 141.121 148.67C140.576 149.034 140.088 149.468 139.585 149.887C139.077 150.302 138.649 150.797 138.193 151.265C137.97 151.504 137.739 151.735 137.522 151.979L136.89 152.728C135.205 154.722 133.71 156.879 132.452 159.169C129.962 163.759 128.33 168.83 127.801 174.05C127.691 175.356 127.6 176.665 127.624 177.979C127.598 179.306 127.737 180.566 127.634 181.695C127.548 182.836 127.231 183.779 126.561 184.535C125.9 185.298 124.925 185.872 123.847 186.313C122.777 186.75 121.552 187.091 120.385 187.372C119.237 187.64 118.11 187.745 117.309 187.431C116.509 187.126 115.967 186.447 115.699 185.43C115.422 184.427 115.39 183.24 115.449 182.031C115.688 176.994 116.215 171.972 117.035 166.997C117.444 164.51 117.932 162.035 118.473 159.574C119.017 157.116 119.639 154.691 120.45 152.347C121.259 150.003 122.263 147.75 123.543 145.658C124.835 143.563 126.313 141.543 128.038 139.876C128.895 139.042 129.837 138.319 130.816 137.841C131.683 137.407 132.783 137.322 133.563 137.691C133.947 137.88 134.249 138.156 134.444 138.544C134.626 138.937 134.699 139.425 134.606 139.88C134.452 140.774 133.474 141.612 132.306 141.634C132.194 141.636 132.091 141.707 132.053 141.819C132.006 141.962 132.082 142.116 132.225 142.163C133.582 142.617 135.36 141.912 135.991 140.343C136.308 139.591 136.338 138.736 136.087 137.935C135.84 137.128 135.247 136.391 134.512 135.974C133.032 135.12 131.306 135.214 129.899 135.864C128.574 136.478 127.485 137.343 126.507 138.266C124.556 140.125 122.993 142.24 121.596 144.457C120.198 146.697 119.1 149.111 118.229 151.567C117.354 154.027 116.69 156.535 116.112 159.04C115.529 161.543 115.051 164.067 114.627 166.6C114.555 167.036 114.498 167.474 114.431 167.911C114.036 164.571 113.538 161.238 112.859 157.931C112.621 156.738 112.351 155.55 112.071 154.364C111.795 153.201 111.468 151.939 111.035 150.774C110.192 148.422 109.117 146.258 108.32 144.076C108.224 143.81 108.117 143.516 108.039 143.272C107.961 143.026 107.894 142.777 107.848 142.527C107.75 142.028 107.72 141.526 107.76 141.046C107.804 140.57 107.923 140.113 108.122 139.717C108.312 139.339 108.602 138.984 108.949 138.722C109.64 138.191 110.51 137.993 111.192 138.275C111.931 138.591 112.686 139.371 112.64 140.454L112.639 140.482C112.636 140.57 112.674 140.659 112.749 140.717C112.874 140.814 113.053 140.791 113.149 140.667C113.589 140.098 113.68 139.255 113.468 138.533C113.259 137.802 112.804 137.137 112.14 136.673C111.808 136.441 111.422 136.264 111.001 136.162C110.599 136.078 110.187 136.048 109.783 136.092C108.977 136.179 108.233 136.506 107.624 136.967C107.008 137.425 106.504 138.016 106.144 138.707C105.794 139.384 105.603 140.11 105.527 140.829C105.456 141.548 105.496 142.259 105.62 142.941C105.68 143.284 105.764 143.618 105.864 143.947C105.966 144.276 106.062 144.549 106.166 144.85C106.996 147.199 108.041 149.371 108.792 151.563C109.183 152.661 109.446 153.736 109.712 154.916C109.971 156.076 110.221 157.238 110.438 158.407C111.318 163.083 111.94 167.817 112.361 172.579C112.559 174.974 112.833 177.334 112.518 179.477C112.367 180.546 112.048 181.537 111.536 182.378C111.02 183.209 110.305 183.882 109.426 184.361C108.554 184.837 107.551 185.105 106.554 185.13C105.564 185.154 104.554 184.921 103.627 184.483C102.7 184.046 101.854 183.405 101.167 182.629C100.477 181.859 99.9591 180.931 99.5805 179.922C98.8262 177.884 98.6696 175.593 98.6725 173.224C98.654 170.793 98.5545 168.357 98.3575 165.927C98.2555 164.709 98.1401 163.509 97.9844 162.282C97.8149 161.007 97.5202 159.76 97.1274 158.565C96.348 156.168 95.2514 153.957 94.1843 151.801C93.1134 149.651 92.0956 147.529 91.2854 145.358C90.4775 143.186 89.9452 140.952 89.9255 138.607C89.9238 138.402 89.7845 138.217 89.5768 138.165C89.3303 138.103 89.0806 138.254 89.0192 138.5C88.4063 140.956 88.7196 143.58 89.3964 145.969C90.0732 148.381 91.1502 150.609 92.1994 152.775C93.2489 154.936 94.2739 157.065 94.9643 159.257C95.3141 160.35 95.5625 161.458 95.7014 162.569C95.8393 163.731 95.9448 164.927 96.0336 166.107C96.1301 167.436 96.1941 168.766 96.2339 170.099C95.5062 168.956 94.5573 167.915 93.275 167.197C92.2932 166.699 91.1789 166.468 90.0422 166.699C89.4806 166.817 88.9121 167.058 88.4514 167.455C87.9856 167.842 87.641 168.354 87.4387 168.884C87.0248 169.946 87.0868 171.083 87.379 172.06C87.6698 173.042 88.1496 173.883 88.6047 174.673C88.7919 174.996 89.2039 175.118 89.5362 174.942C89.8768 174.762 90.0069 174.339 89.8263 173.999C89.4085 173.205 89.0234 172.433 88.8325 171.661C88.6363 170.901 88.6591 170.126 88.9365 169.498C89.2097 168.875 89.709 168.502 90.3671 168.399C91.0195 168.285 91.7812 168.465 92.3911 168.813C93.6686 169.6 94.622 171.02 95.23 172.575C95.8532 174.143 96.2093 175.857 96.4728 177.602C96.475 177.616 96.4787 177.638 96.4814 177.652C96.4982 177.739 96.5259 177.819 96.56 177.896C96.7112 178.857 96.9388 179.819 97.2797 180.768C97.733 182.013 98.3913 183.23 99.301 184.264C99.5064 184.5 99.7252 184.724 99.9509 184.94C100.059 185.158 100.165 185.378 100.268 185.603C99.984 185.443 99.6226 185.385 99.1919 185.466C98.2214 185.647 97.6443 185.922 96.7281 186.447C96.68 186.471 96.6328 186.5 96.5848 186.524C96.1241 185.992 95.5692 185.544 94.9427 185.211C95.4375 183.96 95.5374 182.961 95.5485 182.364C95.5641 181.52 95.1237 181.016 94.465 180.888C94.4038 180.099 93.8015 179.455 93.0254 179.402C92.2472 179.348 91.5612 179.905 91.3938 180.681C90.7424 180.737 90.2645 181.183 90.1594 181.992C90.0318 182.97 90.1149 183.605 90.3314 184.638C90.3427 184.717 90.3611 184.797 90.3749 184.877C89.7063 185.114 89.0948 185.47 88.5668 185.923C87.5458 185.087 86.6418 184.691 86.0835 184.498C85.2856 184.223 84.67 184.486 84.3451 185.072C83.5756 184.887 82.7771 185.261 82.4865 185.982C82.1949 186.706 82.5126 187.531 83.1994 187.929C83.0512 188.566 83.3273 189.158 84.064 189.509C84.9386 189.924 85.5626 190.045 86.577 190.156C86.5766 190.187 86.5723 190.216 86.5723 190.247C86.5723 191.023 86.7293 191.763 87.0116 192.438C86.0816 193.086 85.5115 193.732 85.1887 194.159C84.6798 194.833 84.7399 195.5 85.1976 195.99C84.7834 196.665 84.8924 197.54 85.4886 198.039C86.0867 198.54 86.969 198.493 87.5608 197.963C88.1206 198.301 88.7691 198.221 89.3299 197.628C89.9314 196.993 90.2401 196.478 90.6035 195.698C91.1323 195.861 91.6932 195.949 92.2747 195.949C92.5471 195.949 92.813 195.924 93.0753 195.886C93.3979 196.886 93.8091 197.578 94.1007 197.996C94.5842 198.688 95.2366 198.837 95.8448 198.553C96.3581 199.156 97.2239 199.322 97.8832 198.91C98.5444 198.496 98.772 197.642 98.451 196.915C98.9452 196.487 99.0698 195.846 98.6796 195.13C98.2382 194.319 97.8212 193.858 97.1299 193.223C97.5343 192.566 97.8081 191.823 97.9177 191.026C99.1024 191.062 99.9762 190.866 100.503 190.706C101.311 190.46 101.654 189.885 101.572 189.22C101.606 189.205 101.636 189.186 101.669 189.17C104.576 197.907 105.2 209.596 103.995 217.735C101.493 216.327 98.7322 214.99 95.6995 214.629C93.6415 214.385 91.7082 214.668 90.0377 215.415C84.0822 207.663 79.2727 196.218 77.7563 186.14C77.5224 184.587 77.3515 182.988 77.2189 181.36C77.3652 181.431 77.5175 181.491 77.681 181.523C78.8343 181.747 79.8881 180.877 80.2425 179.833C81.1157 182.717 84.0319 180.98 85.0615 179.213C86.0141 177.578 85.9813 175.515 85.4075 173.712C84.8337 171.909 83.773 170.306 82.7252 168.73C83.5581 170.663 84.1967 175.077 82.4606 176.791C80.475 178.751 80.3843 174.156 80.0278 173.086C79.9004 172.699 79.7643 172.305 79.5938 171.934C79.713 173.097 79.5694 174.345 79.435 175.504C79.3541 176.204 79.4305 177.763 78.3061 177.567C77.6925 177.46 77.4446 176.728 77.3196 176.118C77.1914 175.492 77.0705 174.865 76.95 174.238C76.978 169.826 77.3439 165.15 78.0315 160.207C79.0092 160.584 80.1362 160.106 80.7451 159.291C80.6831 162.303 83.9934 161.554 85.5197 160.193C86.9316 158.933 87.5388 156.961 87.5512 155.069C87.5637 153.177 87.0512 151.325 86.5427 149.501C86.7363 151.597 85.9772 155.993 83.796 157.085C81.3014 158.334 82.6373 153.937 82.6293 152.809C82.6281 152.401 82.6205 151.984 82.5731 151.579C82.3266 152.721 81.8037 153.864 81.3172 154.925C81.0237 155.565 80.6139 157.071 79.6053 156.537C79.0549 156.245 79.0457 155.472 79.1155 154.853C79.2462 153.697 79.3945 152.543 79.5507 151.39C80.8967 144.764 82.7572 137.696 85.1614 130.127C88.0884 120.911 92.11 111.709 97.0578 102.829C97.4482 103.306 98.0406 103.623 98.6589 103.647C99.1625 103.666 99.663 103.49 100.063 103.184C99.6322 104.087 99.8075 105.308 100.611 105.937C101.535 106.662 102.87 106.368 103.66 105.6C103.124 108.565 106.512 108.347 108.233 107.243C109.826 106.222 110.736 104.37 111.047 102.504C111.358 100.637 111.143 98.7271 110.928 96.8467C110.79 98.9463 109.347 103.168 107.021 103.902C104.361 104.743 106.373 100.611 106.543 99.4962C106.606 99.0932 106.664 98.6801 106.681 98.2728C106.258 99.3618 105.561 100.408 104.914 101.379C104.523 101.964 103.881 103.388 102.969 102.701C102.471 102.326 102.584 101.562 102.751 100.961C103.2 99.3446 103.674 97.7353 104.175 96.134C103.282 97.2734 102.39 98.4129 101.497 99.5525C101.25 99.8681 100.979 100.201 100.595 100.318C99.3142 100.708 99.8128 98.588 100.024 97.7404C103.186 92.5215 106.661 87.4359 110.427 82.5561C110.652 82.2645 110.71 81.9002 110.624 81.5696C110.702 81.3359 110.711 81.0773 110.622 80.827C109.377 77.3088 109.621 73.2569 109.837 69.6815C110.009 66.8169 110.176 64.12 110.343 61.4229C110.456 59.5958 110.569 57.7641 110.683 55.8842C112.301 58.3007 113.651 60.7693 113.819 63.5345L113.821 63.5663C113.84 63.8832 114.074 64.1573 114.401 64.2142C114.782 64.2805 115.145 64.0252 115.212 63.6435C115.552 61.6911 115.157 59.6348 114.385 57.8827C113.626 56.1074 112.572 54.5388 111.515 53.0452C110.456 51.5519 109.36 50.1189 108.43 48.6553C107.531 47.1911 106.736 45.6397 106.158 44.0077C103.754 37.5119 104.022 30.0302 106.927 23.7722C107.633 22.2479 108.57 20.8432 109.796 20.2462C111.001 19.6302 112.512 19.8535 113.895 20.6437C115.294 21.4067 116.478 22.6117 117.539 23.9616C118.592 25.3047 119.471 26.7895 120.137 28.3647C120.801 29.9411 121.283 31.5914 121.522 33.29C121.769 34.9963 121.821 36.7725 121.892 38.589C121.974 40.4012 122.038 42.2738 122.489 44.1817C122.899 45.9949 123.797 47.737 124.96 49.1643C125.025 49.273 125.107 49.3689 125.203 49.4501C125.44 49.6863 125.769 49.7813 126.083 49.7247C131.075 49.6648 136.098 50.8805 140.507 53.2529C142.739 54.428 144.796 55.9201 146.65 57.619C148.489 59.3356 150.104 61.2979 151.446 63.4333C152.787 65.5684 153.865 67.8721 154.633 70.2743C154.827 70.8744 154.998 71.4812 155.153 72.0919C155.286 72.6142 155.338 73.1867 155.38 73.8315C155.423 74.4713 155.451 75.1588 155.573 75.8978C155.85 77.6901 157.025 79.0162 157.887 80.5512C158.236 81.1738 158.619 81.6647 158.781 82.3952C158.79 82.4344 158.793 82.4748 158.801 82.5142C158.313 82.3045 157.588 82.2253 157.231 82.2329C156.631 82.2458 155.993 82.6039 155.862 83.1898C155.783 83.5448 155.898 83.9126 156.033 84.2501C156.265 84.8295 156.562 85.3831 156.916 85.897C157.152 86.2386 157.472 86.5875 157.875 86.6222C156.966 87.8457 155.584 88.6425 154.118 89.002C152.721 89.3446 151.047 89.6591 149.626 89.3801C147.88 89.046 146.272 87.6698 145.673 85.9341C145.52 85.4946 145.046 85.2512 144.597 85.3885C144.138 85.529 143.88 86.015 144.02 86.474C144.613 88.411 146.053 90.0152 147.896 90.8734C147.507 91.3091 147.038 91.6788 146.465 91.982C146.01 92.2208 145.508 92.4186 144.984 92.6091C144.721 92.7025 144.449 92.7886 144.174 92.872C143.909 92.9506 143.648 93.0185 143.379 93.0798C141.231 93.5621 138.838 93.5139 136.411 93.4894C134 93.4515 131.601 93.3873 129.229 93.1381C126.858 92.8855 124.509 92.4837 122.228 91.7971C121.889 91.6963 121.524 91.8703 121.392 92.2054C121.254 92.5588 121.428 92.9575 121.782 93.096C124.103 94.0045 126.536 94.6079 128.982 94.9955C131.43 95.3897 133.892 95.6023 136.339 95.7205C137.561 95.7796 138.776 95.8469 140.041 95.8508C140.607 95.85 141.183 95.8346 141.763 95.7965C141.903 100.784 143.733 105.41 145.513 109.893C146.098 111.367 146.702 112.891 147.237 114.403C150.399 123.354 151.526 132.041 151.733 140.761C149.727 142.055 150.192 137.718 149.982 136.644C149.905 136.243 149.82 135.835 149.699 135.446C149.668 136.614 149.365 137.833 149.084 138.966C148.913 139.649 148.789 141.205 147.699 140.866C147.104 140.682 146.952 139.924 146.907 139.303C146.783 137.63 146.687 135.955 146.617 134.279C146.162 135.652 145.706 137.026 145.251 138.4C145.125 138.781 144.982 139.186 144.66 139.425C143.476 140.306 143.298 137.582 143.229 136.966C143.082 135.642 143.209 134.286 143.623 133.019C142.832 135.441 139.522 140.075 141.674 142.564C142.223 143.199 143.161 143.465 143.962 143.212C144.442 143.061 144.854 142.726 145.127 142.303C145.026 143.298 145.604 144.388 146.572 144.71C147.687 145.08 148.844 144.352 149.329 143.363C149.601 144.991 150.659 145.317 151.766 145.018C151.738 148.825 151.571 152.649 151.354 156.512C151.34 156.463 151.33 156.413 151.315 156.365C151.284 157.533 150.982 158.752 150.7 159.885C150.53 160.568 150.406 162.125 149.315 161.786C148.721 161.601 148.569 160.843 148.523 160.222C148.4 158.549 148.303 156.874 148.234 155.198C147.778 156.572 147.323 157.946 146.867 159.319C146.741 159.7 146.598 160.105 146.276 160.344C145.093 161.225 144.914 158.501 144.845 157.885C144.698 156.561 144.825 155.205 145.239 153.938C144.448 156.36 141.138 160.994 143.29 163.483C143.839 164.118 144.777 164.384 145.578 164.131C146.058 163.98 146.47 163.645 146.743 163.222C146.642 164.217 147.22 165.307 148.188 165.629C149.303 165.999 150.46 165.271 150.945 164.282C151.22 165.931 152.303 166.247 153.425 165.927C154.057 166.93 154.659 168.042 155.22 169.234ZM89.1553 208.075C89.3244 208.555 89.7894 208.89 90.2856 209.005C90.7818 209.119 91.3045 209.038 91.7906 208.886C92.056 208.803 92.3654 208.675 92.68 208.519C92.64 208.659 92.6062 208.794 92.5811 208.919C92.4796 209.418 92.4531 209.946 92.6174 210.428C92.7816 210.91 93.1633 211.338 93.6583 211.457C94.2877 211.608 94.9561 211.223 95.2979 210.673C95.5766 210.225 95.6714 209.693 95.688 209.161C95.7662 209.237 95.8442 209.312 95.9179 209.375C96.3033 209.708 96.7508 209.99 97.2514 210.083C97.7521 210.176 98.3121 210.053 98.6585 209.68C99.0989 209.205 99.0899 208.434 98.7782 207.866C98.4779 207.32 97.9516 206.937 97.4006 206.641C97.7716 206.596 98.1215 206.526 98.4032 206.442C98.8912 206.297 99.3698 206.072 99.718 205.7C100.066 205.329 100.264 204.791 100.136 204.298C99.9739 203.671 99.3191 203.263 98.6731 203.22C98.0271 203.177 97.3969 203.431 96.8352 203.753C96.7104 203.825 96.554 203.917 96.385 204.022C96.6497 203.453 96.8418 202.828 96.7535 202.208C96.662 201.567 96.2056 200.945 95.5686 200.83C95.0675 200.74 94.5458 200.978 94.2013 201.353C93.8569 201.728 93.6685 202.222 93.5602 202.72C93.5395 202.815 93.522 202.921 93.5052 203.029C93.1725 202.614 92.7773 202.246 92.2852 202.055C91.6817 201.821 90.9158 201.914 90.5035 202.413C90.1791 202.805 90.1311 203.377 90.2893 203.861C90.4475 204.345 90.7859 204.751 91.1666 205.089C91.4083 205.304 91.7305 205.538 92.086 205.752C91.898 205.759 91.7266 205.769 91.5897 205.779C90.9441 205.826 90.279 205.967 89.7672 206.363C89.2554 206.76 88.9402 207.464 89.1553 208.075ZM98.3829 117.296C98.1455 118.159 97.9657 119.044 97.881 119.951C97.8022 120.857 97.7933 121.791 98.0063 122.724C98.0273 122.814 98.0864 122.897 98.175 122.942C98.3355 123.025 98.5325 122.962 98.6152 122.802L98.6191 122.794C99.039 121.98 99.3805 121.187 99.7039 120.382C100.024 119.577 100.308 118.764 100.567 117.94C100.826 117.116 101.054 116.28 101.21 115.416C101.365 114.55 101.478 113.667 101.423 112.715C101.418 112.632 101.382 112.549 101.317 112.488C101.181 112.362 100.969 112.369 100.843 112.505C100.19 113.206 99.7248 113.985 99.324 114.788C98.9257 115.593 98.6216 116.433 98.3829 117.296ZM92.7982 124.004C92.8231 124.101 92.8969 124.185 92.9991 124.217C93.1559 124.265 93.3219 124.177 93.3698 124.02C93.719 122.913 94.0316 121.853 94.3774 120.817C94.719 119.782 95.086 118.772 95.4882 117.781C95.8873 116.787 96.3458 115.829 96.7568 114.83C97.1726 113.829 97.5976 112.825 97.931 111.661L97.9321 111.657C97.9534 111.582 97.9464 111.498 97.9058 111.424C97.8239 111.274 97.6359 111.219 97.4861 111.301C96.3946 111.899 95.5434 112.777 94.844 113.748C94.1397 114.721 93.6433 115.826 93.2579 116.958C92.8756 118.092 92.6287 119.271 92.537 120.459C92.45 121.646 92.5103 122.846 92.7982 124.004ZM98.6829 134.939C99.1545 135.065 99.6987 134.988 100.057 134.656C100.512 134.235 100.559 133.497 100.303 132.932C100.055 132.388 99.5805 131.984 99.0755 131.661C99.4332 131.645 99.7728 131.604 100.048 131.544C100.525 131.441 100.998 131.261 101.358 130.931C101.718 130.601 101.946 130.101 101.86 129.621C101.75 129.01 101.154 128.573 100.54 128.485C99.9261 128.397 99.3053 128.594 98.7453 128.861C98.6208 128.92 98.4646 128.997 98.2957 129.085C98.5898 128.561 98.819 127.977 98.7796 127.379C98.7388 126.76 98.348 126.132 97.7476 125.976C97.2754 125.853 96.7597 126.043 96.4032 126.376C96.0468 126.709 95.8307 127.168 95.6913 127.635C95.6645 127.725 95.6402 127.825 95.6162 127.927C95.3285 127.506 94.9776 127.125 94.5214 126.907C93.9618 126.64 93.2232 126.673 92.7929 127.12C92.4545 127.471 92.3671 128.014 92.483 128.488C92.5988 128.962 92.8928 129.375 93.2319 129.725C93.4473 129.948 93.7381 130.196 94.0623 130.426C93.882 130.419 93.7176 130.416 93.5859 130.416C92.9657 130.413 92.3199 130.499 91.8023 130.841C91.2844 131.182 90.9322 131.833 91.0933 132.431C91.22 132.903 91.6398 133.257 92.1058 133.402C92.5717 133.547 93.0769 133.508 93.5524 133.398C93.812 133.338 94.1169 133.239 94.4289 133.112C94.3806 133.243 94.3384 133.37 94.3053 133.487C94.1721 133.957 94.1083 134.459 94.2304 134.932C94.3523 135.404 94.6858 135.841 95.1502 135.991C95.7406 136.181 96.4073 135.861 96.7738 135.361C97.0726 134.953 97.2019 134.451 97.2563 133.944C97.3255 134.023 97.3946 134.1 97.4605 134.166C97.8042 134.512 98.2113 134.814 98.6829 134.939ZM105.083 152.956C104.453 151.193 103.671 149.481 102.713 147.874C101.766 146.263 100.667 144.739 99.3527 143.405C99.2861 143.339 99.1826 143.314 99.0905 143.353C98.9698 143.405 98.9132 143.544 98.9645 143.665C99.6835 145.37 100.423 147.015 101.109 148.675C101.785 150.338 102.432 151.999 103.018 153.684C103.606 155.367 104.138 157.067 104.653 158.787L106.141 164.03C106.168 164.121 106.247 164.192 106.346 164.202C106.476 164.215 106.593 164.12 106.606 163.989C106.81 162.125 106.716 160.247 106.441 158.397C106.178 156.545 105.71 154.721 105.083 152.956ZM133.053 148.181C132.959 147.998 132.736 147.925 132.553 148.018C131.33 148.641 130.283 149.518 129.341 150.49C128.409 151.472 127.609 152.577 126.939 153.753C126.265 154.927 125.711 156.171 125.308 157.46C124.906 158.747 124.627 160.074 124.583 161.424C124.579 161.562 124.653 161.697 124.784 161.763C124.964 161.854 125.185 161.782 125.276 161.601C125.875 160.431 126.425 159.286 127.022 158.173C127.619 157.061 128.236 155.975 128.891 154.914C129.55 153.854 130.237 152.818 130.936 151.774C131.626 150.72 132.355 149.689 133.039 148.543L133.042 148.538C133.104 148.432 133.112 148.298 133.053 148.181ZM125.051 102.223C125.161 103.07 125.333 103.893 125.452 104.734C125.575 105.573 125.671 106.42 125.749 107.284L125.978 109.957C125.987 110.054 126.042 110.147 126.134 110.198C126.282 110.28 126.468 110.228 126.551 110.08C127.021 109.239 127.315 108.32 127.499 107.379C127.675 106.437 127.729 105.471 127.67 104.51C127.608 103.552 127.461 102.588 127.115 101.685C126.761 100.788 126.259 99.934 125.464 99.2754C125.413 99.2331 125.348 99.2056 125.277 99.2007C125.096 99.1882 124.94 99.3245 124.928 99.5051L124.927 99.5104C124.859 100.508 124.949 101.37 125.051 102.223ZM134.073 82.7088C132.449 82.3804 130.785 82.2409 129.119 82.2512L127.868 82.2785L126.62 82.371L125.373 82.5054L124.134 82.7037C122.482 82.9854 120.86 83.4287 119.273 83.975C117.687 84.5073 116.16 85.299 115.041 86.7201C115.003 86.7697 114.979 86.8344 114.983 86.9019C114.99 87.0525 115.118 87.1685 115.268 87.1613C117.046 87.0895 118.517 86.5873 120.002 86.031C121.487 85.4888 123.009 85.049 124.545 84.6587C125.318 84.4804 126.092 84.3047 126.872 84.1426C127.654 83.9975 128.44 83.8635 129.23 83.735C130.814 83.5017 132.415 83.3361 134.044 83.2044C134.152 83.1957 134.247 83.1163 134.27 83.0043C134.297 82.8686 134.209 82.7363 134.073 82.7088ZM147.414 73.3072C146.614 72.1799 145.54 71.1863 144.131 70.2704C143.973 70.1676 143.769 70.175 143.621 70.2885C143.472 70.4009 143.41 70.5953 143.465 70.774C143.658 71.395 143.369 72.1407 142.809 72.4715C142.248 72.8017 141.457 72.6921 141.006 72.2226C140.557 71.7537 140.481 70.9575 140.834 70.411C140.923 70.2745 140.93 70.1011 140.851 69.9581C140.774 69.8152 140.624 69.7264 140.462 69.7264C140.459 69.7264 140.456 69.7264 140.453 69.7264C139.194 69.7264 137.837 69.8313 136.45 70.5856C136.341 70.6451 136.261 70.7479 136.231 70.8694C136.201 70.9903 136.224 71.1182 136.293 71.2222C137.441 72.9374 139.248 74.2066 141.25 74.7055C141.907 74.8688 142.584 74.9497 143.261 74.9497C144.649 74.9497 146.04 74.6109 147.262 73.9556C147.374 73.8951 147.455 73.7896 147.484 73.6653C147.513 73.5417 147.488 73.411 147.414 73.3072ZM129.403 65.4218C129.889 66.2854 130.745 66.9663 131.68 67.3759C132.618 67.8017 133.628 68.003 134.622 68.0709C136.652 68.1854 138.466 67.758 140.114 67.5803C141.772 67.3857 143.182 67.4612 144.613 68.027C146.038 68.5585 147.322 69.5013 148.388 70.7346L148.416 70.7676C148.647 71.0346 149.03 71.1426 149.379 71.0096C149.827 70.8393 150.052 70.3385 149.881 69.8908C149.161 67.9967 147.644 66.4159 145.794 65.4549C144.868 64.9691 143.845 64.6496 142.785 64.5123C141.725 64.373 140.697 64.4389 139.735 64.5653C137.813 64.8315 136.126 65.3728 134.548 65.6043C132.936 65.8302 131.347 65.8684 129.767 65.0592L129.756 65.0533C129.679 65.0147 129.585 65.0139 129.505 65.059C129.377 65.1313 129.331 65.2936 129.403 65.4218ZM129.217 74.153C128.076 73.4481 126.862 72.8508 125.596 72.4057C124.331 71.9659 123.034 71.5949 121.702 71.4473C120.372 71.3094 119.013 71.3558 117.685 71.7904C117.621 71.812 117.563 71.86 117.533 71.9265C117.476 72.0535 117.532 72.2029 117.659 72.26C118.91 72.8337 120.12 73.1791 121.331 73.4999C122.541 73.8112 123.756 74.0601 124.948 74.4139C126.139 74.7625 127.328 75.1323 128.494 75.5887C129.667 76.0309 130.817 76.5452 131.995 77.102C132.078 77.1412 132.182 77.1315 132.256 77.0677C132.357 76.9813 132.368 76.8296 132.282 76.7287C131.41 75.7145 130.349 74.8721 129.217 74.153ZM115.487 51.0785C115.696 51.7809 115.912 52.4815 116.136 53.1801C116.394 53.9443 116.667 54.7034 116.945 55.4614C117.224 56.2182 117.527 57.0046 117.92 57.7922C118.688 59.3455 119.986 60.9872 121.934 61.7243C122.419 61.9076 122.942 62.0319 123.485 62.0701C123.756 62.0916 124.026 62.0869 124.32 62.0428L124.75 61.9802C124.891 61.9517 125.023 61.9026 125.159 61.8618C126.241 61.5121 127.09 60.8093 127.693 59.9792C128.295 59.1475 128.683 58.1366 128.661 57.0206C128.652 56.7415 128.632 56.4657 128.55 56.185C128.512 56.0465 128.488 55.9071 128.433 55.7736L128.246 55.3808C128.135 55.1134 127.928 54.9045 127.758 54.6808C127.579 54.4631 127.346 54.3149 127.138 54.1435C126.92 53.9933 126.685 53.8936 126.459 53.7768C126.23 53.6654 125.942 53.5901 125.683 53.5443C125.151 53.4594 124.63 53.532 124.16 53.6845C123.223 53.9773 122.439 54.7631 122.274 55.6707C122.258 55.7584 122.292 55.8517 122.368 55.9084C122.475 55.988 122.627 55.9656 122.707 55.8581L122.717 55.8446C123.151 55.2591 123.816 55.0056 124.433 54.9935C124.741 54.9859 125.036 55.0557 125.277 55.1632C125.399 55.2277 125.495 55.2763 125.604 55.3759C125.71 55.4776 125.836 55.5568 125.925 55.6576C126.285 56.0615 126.369 56.4776 126.31 56.9589C126.252 57.4389 125.994 57.9728 125.624 58.3949C125.257 58.8206 124.789 59.1343 124.349 59.2612C123.945 59.3837 123.419 59.3658 122.896 59.1692C122.372 58.979 121.859 58.6203 121.416 58.1846C120.975 57.7489 120.588 57.1811 120.242 56.5624C119.554 55.3231 118.964 53.7957 118.372 52.3541C118.19 51.9196 118.019 51.4797 117.844 51.0417C118.171 46.8891 116.959 37.8771 116.7 36.5533C116.343 34.7251 115.867 32.8506 114.876 31.4382C113.884 30.0259 112.246 29.213 110.979 29.9863C109.888 30.6518 109.343 32.3163 109.355 33.9192C109.368 35.5219 109.841 37.0858 110.346 38.5827C111.214 41.1568 112.199 43.6707 113.293 46.1068C113.601 46.7943 114.562 49.2609 115.487 51.0785ZM114.232 81.457C114.245 81.6285 114.395 81.7568 114.566 81.7437L114.573 81.7431C116.193 81.6207 117.417 81.1397 118.724 80.6659C120.031 80.23 121.383 79.9035 122.766 79.7036C123.458 79.6103 124.156 79.5298 124.859 79.4837C125.562 79.441 126.269 79.4211 126.981 79.4188C128.405 79.4258 129.84 79.5259 131.298 79.6706C131.417 79.6823 131.537 79.6166 131.586 79.5005C131.646 79.3579 131.579 79.1939 131.436 79.1342C130.058 78.5569 128.599 78.1584 127.106 77.9236C126.36 77.8019 125.604 77.7198 124.844 77.693C124.084 77.6569 123.319 77.6554 122.556 77.7199C121.029 77.8278 119.501 78.103 118.031 78.5938C116.562 79.0457 115.117 79.8175 114.273 81.2774C114.243 81.3302 114.227 81.3921 114.232 81.457ZM132.245 115.401C131.573 113.917 129.773 113.186 128.152 113.357C126.532 113.529 125.078 114.432 123.823 115.471C123.545 115.702 123.201 115.993 122.828 116.326C123.238 114.803 123.441 113.172 122.956 111.676C122.453 110.126 121.054 108.779 119.424 108.768C118.142 108.759 116.951 109.574 116.258 110.653C115.565 111.731 115.31 113.038 115.256 114.318C115.245 114.562 115.244 114.825 115.249 115.098C114.247 114.214 113.106 113.479 111.807 113.218C110.209 112.897 108.35 113.457 107.542 114.873C106.906 115.986 107.033 117.424 107.634 118.556C108.234 119.689 109.249 120.551 110.339 121.226C111.029 121.653 111.92 122.099 112.892 122.476C112.432 122.574 112.018 122.672 111.685 122.755C110.104 123.149 108.515 123.784 107.416 124.988C106.317 126.191 105.839 128.074 106.635 129.495C107.262 130.614 108.559 131.247 109.839 131.316C111.119 131.385 112.381 130.96 113.521 130.374C114.142 130.054 114.854 129.613 115.566 129.089C115.528 129.452 115.504 129.798 115.495 130.115C115.458 131.396 115.62 132.718 116.235 133.842C116.85 134.967 117.98 135.864 119.26 135.947C120.886 136.051 122.378 134.807 122.989 133.296C123.486 132.068 123.5 130.711 123.314 129.388C123.539 129.542 123.759 129.686 123.968 129.811C125.067 130.471 126.299 130.977 127.58 130.992C128.862 131.007 130.198 130.461 130.897 129.386C131.785 128.02 131.431 126.11 130.413 124.837C129.437 123.616 127.976 122.89 126.489 122.394C127.385 122.123 128.211 121.794 128.87 121.466C130.018 120.896 131.108 120.132 131.812 119.06C132.515 117.989 132.775 116.569 132.245 115.401ZM132.648 99.5057C132.897 100.892 133.216 102.214 133.487 103.542C133.77 104.864 134.042 106.176 134.29 107.493L135.012 111.457C135.261 112.786 135.498 114.125 135.854 115.501C135.88 115.6 135.956 115.686 136.062 115.716C136.222 115.763 136.39 115.671 136.436 115.511C136.841 114.126 136.978 112.701 136.981 111.28C136.982 109.858 136.815 108.439 136.524 107.048C136.231 105.657 135.818 104.29 135.27 102.979C134.709 101.673 134.051 100.407 133.181 99.2695C133.114 99.1839 133.003 99.1359 132.889 99.157C132.726 99.1868 132.618 99.3431 132.648 99.5057ZM140.571 129.005C140.62 128.41 140.402 127.825 140.118 127.298C140.438 127.458 140.755 127.587 141.024 127.669C141.491 127.811 141.992 127.884 142.467 127.771C142.942 127.658 143.385 127.333 143.543 126.871C143.745 126.285 143.437 125.612 142.944 125.236C142.45 124.86 141.812 124.731 141.193 124.691C141.055 124.682 140.882 124.673 140.691 124.668C141.203 124.353 141.687 123.955 141.944 123.413C142.21 122.853 142.174 122.114 141.726 121.686C141.373 121.348 140.831 121.263 140.357 121.38C139.883 121.498 139.472 121.793 139.122 122.134C139.055 122.199 138.985 122.275 138.914 122.352C138.868 121.844 138.747 121.341 138.455 120.928C138.096 120.422 137.435 120.091 136.841 120.272C136.375 120.414 136.034 120.846 135.905 121.316C135.775 121.787 135.831 122.29 135.956 122.762C136.036 123.061 136.169 123.419 136.34 123.778C136.186 123.684 136.044 123.601 135.929 123.537C135.389 123.233 134.783 122.994 134.164 123.04C133.545 123.086 132.921 123.482 132.77 124.084C132.652 124.557 132.846 125.071 133.182 125.425C133.518 125.779 133.978 125.99 134.447 126.126C134.703 126.2 135.018 126.262 135.352 126.303C135.246 126.394 135.148 126.484 135.062 126.57C134.717 126.915 134.416 127.323 134.293 127.795C134.169 128.267 134.248 128.811 134.581 129.168C135.004 129.622 135.742 129.667 136.306 129.408C136.765 129.197 137.122 128.823 137.417 128.406C137.439 128.509 137.462 128.609 137.487 128.699C137.619 129.169 137.828 129.631 138.179 129.97C138.53 130.309 139.042 130.507 139.516 130.392C140.119 130.245 140.52 129.624 140.571 129.005ZM116.137 221.399C116.12 221.565 116.24 221.713 116.405 221.731C117.066 221.801 117.7 221.751 118.33 221.686C118.959 221.611 119.577 221.488 120.189 221.34C120.801 221.193 121.409 221.022 122.009 220.821C122.61 220.619 123.206 220.399 123.787 220.107C123.88 220.06 123.945 219.964 123.949 219.853C123.954 219.69 123.827 219.553 123.664 219.548C123.014 219.526 122.38 219.577 121.751 219.646C121.121 219.715 120.498 219.815 119.881 219.939C119.262 220.061 118.65 220.21 118.048 220.405C117.449 220.611 116.852 220.831 116.282 221.172C116.205 221.219 116.148 221.302 116.137 221.399ZM128.51 222.792C128.503 222.639 128.372 222.522 128.219 222.529C127.043 222.586 125.918 222.733 124.801 222.881C123.686 223.033 122.585 223.208 121.484 223.384C120.384 223.561 119.288 223.746 118.188 223.979C117.088 224.215 115.984 224.466 114.86 224.866C114.779 224.895 114.71 224.962 114.683 225.051C114.639 225.2 114.724 225.356 114.872 225.4C116.029 225.745 117.205 225.855 118.375 225.866C119.546 225.873 120.712 225.749 121.86 225.533C123.008 225.316 124.14 225.014 125.237 224.607C126.332 224.197 127.4 223.702 128.388 223.037C128.466 222.984 128.516 222.892 128.51 222.792ZM133.719 195.307C133.672 194.555 133.607 193.796 133.377 192.978L133.375 192.972C133.35 192.882 133.295 192.8 133.213 192.741C133.021 192.603 132.753 192.647 132.615 192.839C132.106 193.548 131.833 194.33 131.65 195.125C131.47 195.922 131.429 196.739 131.459 197.551C131.489 198.364 131.598 199.174 131.795 199.965C132.003 200.754 132.269 201.53 132.699 202.248C132.76 202.35 132.866 202.425 132.993 202.444C133.217 202.475 133.424 202.32 133.456 202.096L133.457 202.091C133.571 201.289 133.599 200.527 133.645 199.772C133.68 199.018 133.703 198.276 133.722 197.535C133.741 196.794 133.764 196.057 133.719 195.307ZM147.157 207.439C146.585 207.136 145.906 207.112 145.262 207.177C145.118 207.192 144.938 207.212 144.741 207.24C145.214 206.828 145.645 206.335 145.817 205.733C145.994 205.111 145.831 204.357 145.296 203.992C144.875 203.706 144.302 203.71 143.834 203.912C143.367 204.115 142.993 204.489 142.692 204.899C142.634 204.978 142.575 205.068 142.516 205.16C142.381 204.645 142.17 204.148 141.799 203.773C141.343 203.313 140.606 203.086 140.026 203.373C139.569 203.6 139.293 204.102 139.24 204.608C139.187 205.115 139.331 205.624 139.541 206.088C139.674 206.382 139.873 206.728 140.11 207.068C139.936 206.998 139.775 206.937 139.646 206.89C139.037 206.67 138.372 206.528 137.744 206.681C137.115 206.834 136.54 207.349 136.488 207.995C136.446 208.502 136.734 208.998 137.141 209.304C137.548 209.611 138.058 209.75 138.564 209.809C138.84 209.842 139.174 209.851 139.525 209.836C139.432 209.949 139.346 210.058 139.272 210.162C138.976 210.576 138.737 211.047 138.69 211.555C138.644 212.062 138.818 212.608 139.222 212.918C139.735 213.313 140.502 213.233 141.039 212.871C141.476 212.575 141.779 212.128 142.011 211.649C142.051 211.75 142.092 211.85 142.133 211.938C142.35 212.399 142.644 212.839 143.063 213.128C143.482 213.417 144.044 213.532 144.512 213.333C145.108 213.079 145.414 212.371 145.361 211.725C145.309 211.104 144.984 210.54 144.602 210.045C144.959 210.155 145.307 210.234 145.598 210.272C146.103 210.338 146.632 210.328 147.101 210.13C147.571 209.933 147.971 209.522 148.055 209.02C148.161 208.381 147.73 207.741 147.157 207.439ZM155.318 190.638C155.151 190.006 154.63 189.612 153.815 189.646C152.829 189.688 152.219 189.879 151.237 190.269C151.187 190.285 151.137 190.307 151.086 190.324C151.012 190.208 150.937 190.091 150.853 189.979C150.507 189.517 150.101 189.118 149.648 188.787C150.313 187.622 150.552 186.649 150.648 186.059C150.783 185.226 150.419 184.665 149.785 184.445C149.836 183.655 149.331 182.932 148.57 182.769C147.807 182.606 147.049 183.06 146.774 183.805C146.121 183.768 145.585 184.141 145.366 184.927C145.101 185.878 145.093 186.518 145.161 187.571C145.161 187.65 145.168 187.731 145.17 187.811C144.486 187.947 143.83 188.209 143.231 188.592C142.339 187.621 141.501 187.101 140.976 186.831C140.225 186.445 139.579 186.618 139.174 187.153C138.438 186.861 137.595 187.118 137.205 187.791C136.814 188.466 137.011 189.327 137.635 189.819C137.398 190.429 137.587 191.054 138.267 191.505C139.074 192.04 139.674 192.248 140.662 192.502C140.658 192.532 140.65 192.561 140.645 192.591C140.535 193.36 140.586 194.114 140.77 194.823C139.757 195.332 139.101 195.891 138.721 196.268C138.122 196.863 138.087 197.532 138.471 198.082C137.965 198.691 137.949 199.573 138.469 200.151C138.99 200.732 139.87 200.81 140.531 200.369C141.037 200.783 141.69 200.796 142.329 200.289C143.015 199.745 143.393 199.279 143.864 198.559C144.364 198.795 144.907 198.962 145.482 199.044C145.752 199.083 146.019 199.101 146.285 199.102C146.463 200.134 146.771 200.875 147 201.329C147.38 202.083 148.005 202.323 148.647 202.128C149.07 202.797 149.904 203.085 150.615 202.77C151.328 202.454 151.674 201.64 151.459 200.876C152.009 200.522 152.223 199.905 151.938 199.14C151.617 198.277 151.27 197.762 150.677 197.037C151.171 196.444 151.544 195.744 151.766 194.97C152.934 195.174 153.826 195.104 154.371 195.02C155.205 194.891 155.627 194.37 155.64 193.7C156.407 193.504 156.938 192.8 156.858 192.027C156.777 191.251 156.111 190.67 155.318 190.638ZM92.2752 186.737C90.34 186.737 88.7656 188.311 88.7656 190.247C88.7656 192.182 90.34 193.756 92.2752 193.756C94.2107 193.756 95.7851 192.182 95.7851 190.247C95.7851 188.311 94.2107 186.737 92.2752 186.737ZM120.737 117.364C119.509 116.903 118.256 116.983 117.212 117.587C115.723 118.449 115.046 120.373 115.703 121.876C116.055 122.68 116.806 123.307 117.712 123.553C118.568 123.786 119.435 123.646 120.092 123.168C120.46 122.901 120.542 122.387 120.275 122.02C120.009 121.652 119.495 121.571 119.127 121.837C118.874 122.021 118.515 122.068 118.143 121.967C117.719 121.851 117.362 121.564 117.21 121.217C116.888 120.482 117.274 119.451 118.036 119.01C118.819 118.556 119.624 118.703 120.16 118.903C121.136 119.269 121.968 120.095 122.279 121.008C122.737 122.35 122.346 124.017 121.305 125.156C120.096 126.478 118.104 127.012 116.456 126.454C116.026 126.307 115.559 126.537 115.413 126.968C115.267 127.398 115.497 127.864 115.927 128.011C116.527 128.215 117.161 128.313 117.799 128.313C119.545 128.313 121.32 127.577 122.519 126.266C123.975 124.672 124.492 122.401 123.836 120.478C123.364 119.096 122.177 117.903 120.737 117.364ZM165.903 175.756C165.597 174.771 164.636 173.935 163.612 174.059C164.476 173.955 164.719 172.237 164.584 171.625C164.36 170.616 163.37 169.832 162.328 169.903C162.583 168.811 162.424 167.634 161.324 167.041C160.14 166.404 158.706 167.082 158.012 168.142C159.533 173.44 160.728 178.851 161.573 184.305C161.578 184.301 161.581 184.298 161.585 184.295C161.73 184.165 161.926 183.96 162.223 183.678C162.39 183.519 162.552 183.293 162.707 183.027C164.005 181.874 165.029 180.411 165.635 178.782C165.994 177.815 166.21 176.741 165.903 175.756ZM119.36 22.5434C120.532 24.0534 121.504 25.715 122.239 27.4763C122.978 29.2338 123.481 31.0983 123.723 32.9871C123.967 34.8691 123.99 36.7189 124.038 38.517C124.09 40.3146 124.14 42.0834 124.505 43.7099C124.799 45.0662 125.366 46.3046 126.164 47.4345C127.886 47.4201 129.607 47.5464 131.307 47.8082C131.739 40.1076 131.016 32.4094 129.15 24.9229C128.499 22.3099 127.793 20.2329 126.464 18.5889C125.268 17.1102 123.146 15.8276 121.089 16.2992C119.332 16.7026 118.475 19.377 118.658 21.6891C118.9 21.9713 119.136 22.2561 119.36 22.5434ZM103.258 219.947C100.845 218.571 98.1958 217.23 95.4297 216.901C92.9624 216.61 90.7475 217.231 89.1908 218.656C87.6696 220.048 86.8721 222.138 86.9449 224.539C86.9743 225.52 87.31 226.357 87.8662 226.835C88.4329 227.322 89.2731 227.521 90.3603 227.672C93.6552 228.128 96.9877 228.094 100.271 227.582C100.232 226.971 100.26 226.332 100.364 225.677C100.706 223.511 101.741 221.501 103.258 219.947Z"/>
</mask>
<path d="M149.099 191.294C149.661 192.044 149.897 192.968 149.764 193.897C149.49 195.812 147.719 197.153 145.792 196.874C143.877 196.6 142.541 194.818 142.815 192.902C143.066 191.154 144.571 189.89 146.288 189.89C146.452 189.89 146.62 189.901 146.787 189.925C147.715 190.058 148.536 190.544 149.099 191.294ZM125.718 192.604C125.149 195.567 125.091 198.607 125.421 201.586C125.759 204.564 126.482 207.509 127.708 210.242C128.189 211.326 128.742 212.379 129.359 213.389C124.587 213.198 119.896 214.299 115.351 215.37C114.051 215.677 112.706 215.993 111.39 216.271C109.77 216.614 107.961 216.997 106.299 217.784C107.544 208.95 106.736 196.229 103.356 187.092C104.38 187.475 105.481 187.688 106.6 187.67C108.009 187.647 109.398 187.289 110.644 186.624C111.555 186.143 112.397 185.469 113.073 184.662C113.13 185.132 113.215 185.609 113.349 186.094C113.557 186.816 113.877 187.568 114.419 188.223C114.954 188.876 115.679 189.406 116.475 189.689C117.272 189.981 118.081 190.041 118.824 190.008C119.567 189.967 120.265 189.84 120.924 189.681C121.588 189.521 122.201 189.346 122.837 189.153C123.47 188.957 124.108 188.738 124.743 188.471C125.649 188.087 126.574 187.599 127.398 186.919C126.652 188.75 126.086 190.66 125.718 192.604ZM114.467 199.813C114.337 198.535 114.103 197.261 113.613 196.035C113.583 195.963 113.519 195.904 113.438 195.885C113.304 195.854 113.171 195.937 113.14 196.071C112.842 197.344 112.702 198.579 112.566 199.809C112.439 201.037 112.352 202.257 112.274 203.48L112.043 207.162C111.987 208.4 111.907 209.642 111.931 210.931C111.933 211.016 111.979 211.099 112.06 211.143C112.179 211.207 112.328 211.162 112.392 211.043C113.01 209.896 113.428 208.678 113.771 207.441C114.105 206.201 114.32 204.933 114.445 203.656C114.57 202.38 114.588 201.092 114.467 199.813ZM120.969 208.837C120.963 207.682 120.874 206.581 120.799 205.486L120.55 202.234L120.299 198.984C120.203 197.892 120.109 196.793 119.909 195.649C119.892 195.556 119.83 195.468 119.736 195.426C119.586 195.359 119.409 195.426 119.341 195.577C118.858 196.655 118.596 197.794 118.449 198.942C118.303 200.091 118.291 201.255 118.391 202.407C118.49 203.561 118.7 204.705 119.024 205.815C119.358 206.924 119.791 208.005 120.42 208.999C120.474 209.082 120.569 209.138 120.675 209.137C120.839 209.136 120.971 209.001 120.969 208.837ZM155.22 169.234C157.611 176.654 159.226 183.773 159.134 191.054C158.981 203.207 153.983 213.819 145.761 219.442C144.747 220.135 143.771 220.832 142.81 221.517C138.583 224.531 134.933 227.134 129.937 228.321C123.913 229.752 118.048 230.068 109.788 230.387C109.137 230.412 108.482 230.494 107.85 230.573C106.179 230.781 104.737 230.961 103.76 230.158C102.593 229.196 102.408 227.398 102.624 226.035C103.006 223.618 104.564 221.365 106.691 220.155C108.235 219.277 110.079 218.887 111.864 218.51C113.205 218.226 114.563 217.907 115.876 217.597C120.557 216.495 125.401 215.355 130.151 215.727C130.406 215.746 130.646 215.678 130.846 215.553C131.406 216.283 132.003 216.984 132.646 217.639C132.832 217.83 133.134 217.866 133.362 217.711C133.619 217.537 133.686 217.187 133.508 216.924C130.33 212.23 128.205 206.915 127.678 201.35C127.127 195.8 128.226 190.146 130.908 185.281C132.219 182.833 133.876 180.569 135.797 178.582C137.753 176.641 139.966 174.94 142.449 173.835C143.675 173.292 145.017 172.789 146.201 172.699C146.794 172.652 147.355 172.714 147.818 172.904C148.295 173.099 148.708 173.434 148.926 173.804C149.15 174.169 149.199 174.573 149.093 175.056C148.983 175.537 148.669 176.031 148.275 176.442C147.461 177.276 146.116 177.773 144.768 178.329C144.631 178.386 144.535 178.524 144.539 178.681C144.543 178.887 144.714 179.049 144.924 179.044C145.661 179.026 146.404 178.956 147.168 178.79C147.928 178.61 148.706 178.335 149.42 177.808C150.128 177.29 150.709 176.576 151.04 175.674C151.379 174.786 151.336 173.622 150.82 172.732C150.323 171.836 149.536 171.233 148.691 170.858C147.818 170.48 146.9 170.388 146.055 170.436C144.341 170.555 142.929 171.096 141.505 171.678C140.082 172.261 138.763 173.05 137.509 173.91C136.256 174.78 135.129 175.797 134.044 176.849C132.481 178.46 131.066 180.213 129.872 182.104C129.879 182.026 129.889 181.946 129.895 181.868C130 180.455 129.835 179.171 129.856 177.955C129.821 176.723 129.897 175.49 129.988 174.261C130.441 169.342 131.939 164.525 134.26 160.151C135.432 157.968 136.832 155.909 138.412 154.004L139.005 153.289C139.208 153.055 139.425 152.834 139.635 152.607C140.063 152.16 140.465 151.688 140.91 151.257L141.549 150.579C141.758 150.348 141.956 150.103 142.178 149.886C142.606 149.43 143.027 148.962 143.414 148.439L143.434 148.413C143.539 148.27 143.563 148.075 143.48 147.904C143.361 147.66 143.066 147.559 142.822 147.679C142.23 147.968 141.672 148.313 141.121 148.67C140.576 149.034 140.088 149.468 139.585 149.887C139.077 150.302 138.649 150.797 138.193 151.265C137.97 151.504 137.739 151.735 137.522 151.979L136.89 152.728C135.205 154.722 133.71 156.879 132.452 159.169C129.962 163.759 128.33 168.83 127.801 174.05C127.691 175.356 127.6 176.665 127.624 177.979C127.598 179.306 127.737 180.566 127.634 181.695C127.548 182.836 127.231 183.779 126.561 184.535C125.9 185.298 124.925 185.872 123.847 186.313C122.777 186.75 121.552 187.091 120.385 187.372C119.237 187.64 118.11 187.745 117.309 187.431C116.509 187.126 115.967 186.447 115.699 185.43C115.422 184.427 115.39 183.24 115.449 182.031C115.688 176.994 116.215 171.972 117.035 166.997C117.444 164.51 117.932 162.035 118.473 159.574C119.017 157.116 119.639 154.691 120.45 152.347C121.259 150.003 122.263 147.75 123.543 145.658C124.835 143.563 126.313 141.543 128.038 139.876C128.895 139.042 129.837 138.319 130.816 137.841C131.683 137.407 132.783 137.322 133.563 137.691C133.947 137.88 134.249 138.156 134.444 138.544C134.626 138.937 134.699 139.425 134.606 139.88C134.452 140.774 133.474 141.612 132.306 141.634C132.194 141.636 132.091 141.707 132.053 141.819C132.006 141.962 132.082 142.116 132.225 142.163C133.582 142.617 135.36 141.912 135.991 140.343C136.308 139.591 136.338 138.736 136.087 137.935C135.84 137.128 135.247 136.391 134.512 135.974C133.032 135.12 131.306 135.214 129.899 135.864C128.574 136.478 127.485 137.343 126.507 138.266C124.556 140.125 122.993 142.24 121.596 144.457C120.198 146.697 119.1 149.111 118.229 151.567C117.354 154.027 116.69 156.535 116.112 159.04C115.529 161.543 115.051 164.067 114.627 166.6C114.555 167.036 114.498 167.474 114.431 167.911C114.036 164.571 113.538 161.238 112.859 157.931C112.621 156.738 112.351 155.55 112.071 154.364C111.795 153.201 111.468 151.939 111.035 150.774C110.192 148.422 109.117 146.258 108.32 144.076C108.224 143.81 108.117 143.516 108.039 143.272C107.961 143.026 107.894 142.777 107.848 142.527C107.75 142.028 107.72 141.526 107.76 141.046C107.804 140.57 107.923 140.113 108.122 139.717C108.312 139.339 108.602 138.984 108.949 138.722C109.64 138.191 110.51 137.993 111.192 138.275C111.931 138.591 112.686 139.371 112.64 140.454L112.639 140.482C112.636 140.57 112.674 140.659 112.749 140.717C112.874 140.814 113.053 140.791 113.149 140.667C113.589 140.098 113.68 139.255 113.468 138.533C113.259 137.802 112.804 137.137 112.14 136.673C111.808 136.441 111.422 136.264 111.001 136.162C110.599 136.078 110.187 136.048 109.783 136.092C108.977 136.179 108.233 136.506 107.624 136.967C107.008 137.425 106.504 138.016 106.144 138.707C105.794 139.384 105.603 140.11 105.527 140.829C105.456 141.548 105.496 142.259 105.62 142.941C105.68 143.284 105.764 143.618 105.864 143.947C105.966 144.276 106.062 144.549 106.166 144.85C106.996 147.199 108.041 149.371 108.792 151.563C109.183 152.661 109.446 153.736 109.712 154.916C109.971 156.076 110.221 157.238 110.438 158.407C111.318 163.083 111.94 167.817 112.361 172.579C112.559 174.974 112.833 177.334 112.518 179.477C112.367 180.546 112.048 181.537 111.536 182.378C111.02 183.209 110.305 183.882 109.426 184.361C108.554 184.837 107.551 185.105 106.554 185.13C105.564 185.154 104.554 184.921 103.627 184.483C102.7 184.046 101.854 183.405 101.167 182.629C100.477 181.859 99.9591 180.931 99.5805 179.922C98.8262 177.884 98.6696 175.593 98.6725 173.224C98.654 170.793 98.5545 168.357 98.3575 165.927C98.2555 164.709 98.1401 163.509 97.9844 162.282C97.8149 161.007 97.5202 159.76 97.1274 158.565C96.348 156.168 95.2514 153.957 94.1843 151.801C93.1134 149.651 92.0956 147.529 91.2854 145.358C90.4775 143.186 89.9452 140.952 89.9255 138.607C89.9238 138.402 89.7845 138.217 89.5768 138.165C89.3303 138.103 89.0806 138.254 89.0192 138.5C88.4063 140.956 88.7196 143.58 89.3964 145.969C90.0732 148.381 91.1502 150.609 92.1994 152.775C93.2489 154.936 94.2739 157.065 94.9643 159.257C95.3141 160.35 95.5625 161.458 95.7014 162.569C95.8393 163.731 95.9448 164.927 96.0336 166.107C96.1301 167.436 96.1941 168.766 96.2339 170.099C95.5062 168.956 94.5573 167.915 93.275 167.197C92.2932 166.699 91.1789 166.468 90.0422 166.699C89.4806 166.817 88.9121 167.058 88.4514 167.455C87.9856 167.842 87.641 168.354 87.4387 168.884C87.0248 169.946 87.0868 171.083 87.379 172.06C87.6698 173.042 88.1496 173.883 88.6047 174.673C88.7919 174.996 89.2039 175.118 89.5362 174.942C89.8768 174.762 90.0069 174.339 89.8263 173.999C89.4085 173.205 89.0234 172.433 88.8325 171.661C88.6363 170.901 88.6591 170.126 88.9365 169.498C89.2097 168.875 89.709 168.502 90.3671 168.399C91.0195 168.285 91.7812 168.465 92.3911 168.813C93.6686 169.6 94.622 171.02 95.23 172.575C95.8532 174.143 96.2093 175.857 96.4728 177.602C96.475 177.616 96.4787 177.638 96.4814 177.652C96.4982 177.739 96.5259 177.819 96.56 177.896C96.7112 178.857 96.9388 179.819 97.2797 180.768C97.733 182.013 98.3913 183.23 99.301 184.264C99.5064 184.5 99.7252 184.724 99.9509 184.94C100.059 185.158 100.165 185.378 100.268 185.603C99.984 185.443 99.6226 185.385 99.1919 185.466C98.2214 185.647 97.6443 185.922 96.7281 186.447C96.68 186.471 96.6328 186.5 96.5848 186.524C96.1241 185.992 95.5692 185.544 94.9427 185.211C95.4375 183.96 95.5374 182.961 95.5485 182.364C95.5641 181.52 95.1237 181.016 94.465 180.888C94.4038 180.099 93.8015 179.455 93.0254 179.402C92.2472 179.348 91.5612 179.905 91.3938 180.681C90.7424 180.737 90.2645 181.183 90.1594 181.992C90.0318 182.97 90.1149 183.605 90.3314 184.638C90.3427 184.717 90.3611 184.797 90.3749 184.877C89.7063 185.114 89.0948 185.47 88.5668 185.923C87.5458 185.087 86.6418 184.691 86.0835 184.498C85.2856 184.223 84.67 184.486 84.3451 185.072C83.5756 184.887 82.7771 185.261 82.4865 185.982C82.1949 186.706 82.5126 187.531 83.1994 187.929C83.0512 188.566 83.3273 189.158 84.064 189.509C84.9386 189.924 85.5626 190.045 86.577 190.156C86.5766 190.187 86.5723 190.216 86.5723 190.247C86.5723 191.023 86.7293 191.763 87.0116 192.438C86.0816 193.086 85.5115 193.732 85.1887 194.159C84.6798 194.833 84.7399 195.5 85.1976 195.99C84.7834 196.665 84.8924 197.54 85.4886 198.039C86.0867 198.54 86.969 198.493 87.5608 197.963C88.1206 198.301 88.7691 198.221 89.3299 197.628C89.9314 196.993 90.2401 196.478 90.6035 195.698C91.1323 195.861 91.6932 195.949 92.2747 195.949C92.5471 195.949 92.813 195.924 93.0753 195.886C93.3979 196.886 93.8091 197.578 94.1007 197.996C94.5842 198.688 95.2366 198.837 95.8448 198.553C96.3581 199.156 97.2239 199.322 97.8832 198.91C98.5444 198.496 98.772 197.642 98.451 196.915C98.9452 196.487 99.0698 195.846 98.6796 195.13C98.2382 194.319 97.8212 193.858 97.1299 193.223C97.5343 192.566 97.8081 191.823 97.9177 191.026C99.1024 191.062 99.9762 190.866 100.503 190.706C101.311 190.46 101.654 189.885 101.572 189.22C101.606 189.205 101.636 189.186 101.669 189.17C104.576 197.907 105.2 209.596 103.995 217.735C101.493 216.327 98.7322 214.99 95.6995 214.629C93.6415 214.385 91.7082 214.668 90.0377 215.415C84.0822 207.663 79.2727 196.218 77.7563 186.14C77.5224 184.587 77.3515 182.988 77.2189 181.36C77.3652 181.431 77.5175 181.491 77.681 181.523C78.8343 181.747 79.8881 180.877 80.2425 179.833C81.1157 182.717 84.0319 180.98 85.0615 179.213C86.0141 177.578 85.9813 175.515 85.4075 173.712C84.8337 171.909 83.773 170.306 82.7252 168.73C83.5581 170.663 84.1967 175.077 82.4606 176.791C80.475 178.751 80.3843 174.156 80.0278 173.086C79.9004 172.699 79.7643 172.305 79.5938 171.934C79.713 173.097 79.5694 174.345 79.435 175.504C79.3541 176.204 79.4305 177.763 78.3061 177.567C77.6925 177.46 77.4446 176.728 77.3196 176.118C77.1914 175.492 77.0705 174.865 76.95 174.238C76.978 169.826 77.3439 165.15 78.0315 160.207C79.0092 160.584 80.1362 160.106 80.7451 159.291C80.6831 162.303 83.9934 161.554 85.5197 160.193C86.9316 158.933 87.5388 156.961 87.5512 155.069C87.5637 153.177 87.0512 151.325 86.5427 149.501C86.7363 151.597 85.9772 155.993 83.796 157.085C81.3014 158.334 82.6373 153.937 82.6293 152.809C82.6281 152.401 82.6205 151.984 82.5731 151.579C82.3266 152.721 81.8037 153.864 81.3172 154.925C81.0237 155.565 80.6139 157.071 79.6053 156.537C79.0549 156.245 79.0457 155.472 79.1155 154.853C79.2462 153.697 79.3945 152.543 79.5507 151.39C80.8967 144.764 82.7572 137.696 85.1614 130.127C88.0884 120.911 92.11 111.709 97.0578 102.829C97.4482 103.306 98.0406 103.623 98.6589 103.647C99.1625 103.666 99.663 103.49 100.063 103.184C99.6322 104.087 99.8075 105.308 100.611 105.937C101.535 106.662 102.87 106.368 103.66 105.6C103.124 108.565 106.512 108.347 108.233 107.243C109.826 106.222 110.736 104.37 111.047 102.504C111.358 100.637 111.143 98.7271 110.928 96.8467C110.79 98.9463 109.347 103.168 107.021 103.902C104.361 104.743 106.373 100.611 106.543 99.4962C106.606 99.0932 106.664 98.6801 106.681 98.2728C106.258 99.3618 105.561 100.408 104.914 101.379C104.523 101.964 103.881 103.388 102.969 102.701C102.471 102.326 102.584 101.562 102.751 100.961C103.2 99.3446 103.674 97.7353 104.175 96.134C103.282 97.2734 102.39 98.4129 101.497 99.5525C101.25 99.8681 100.979 100.201 100.595 100.318C99.3142 100.708 99.8128 98.588 100.024 97.7404C103.186 92.5215 106.661 87.4359 110.427 82.5561C110.652 82.2645 110.71 81.9002 110.624 81.5696C110.702 81.3359 110.711 81.0773 110.622 80.827C109.377 77.3088 109.621 73.2569 109.837 69.6815C110.009 66.8169 110.176 64.12 110.343 61.4229C110.456 59.5958 110.569 57.7641 110.683 55.8842C112.301 58.3007 113.651 60.7693 113.819 63.5345L113.821 63.5663C113.84 63.8832 114.074 64.1573 114.401 64.2142C114.782 64.2805 115.145 64.0252 115.212 63.6435C115.552 61.6911 115.157 59.6348 114.385 57.8827C113.626 56.1074 112.572 54.5388 111.515 53.0452C110.456 51.5519 109.36 50.1189 108.43 48.6553C107.531 47.1911 106.736 45.6397 106.158 44.0077C103.754 37.5119 104.022 30.0302 106.927 23.7722C107.633 22.2479 108.57 20.8432 109.796 20.2462C111.001 19.6302 112.512 19.8535 113.895 20.6437C115.294 21.4067 116.478 22.6117 117.539 23.9616C118.592 25.3047 119.471 26.7895 120.137 28.3647C120.801 29.9411 121.283 31.5914 121.522 33.29C121.769 34.9963 121.821 36.7725 121.892 38.589C121.974 40.4012 122.038 42.2738 122.489 44.1817C122.899 45.9949 123.797 47.737 124.96 49.1643C125.025 49.273 125.107 49.3689 125.203 49.4501C125.44 49.6863 125.769 49.7813 126.083 49.7247C131.075 49.6648 136.098 50.8805 140.507 53.2529C142.739 54.428 144.796 55.9201 146.65 57.619C148.489 59.3356 150.104 61.2979 151.446 63.4333C152.787 65.5684 153.865 67.8721 154.633 70.2743C154.827 70.8744 154.998 71.4812 155.153 72.0919C155.286 72.6142 155.338 73.1867 155.38 73.8315C155.423 74.4713 155.451 75.1588 155.573 75.8978C155.85 77.6901 157.025 79.0162 157.887 80.5512C158.236 81.1738 158.619 81.6647 158.781 82.3952C158.79 82.4344 158.793 82.4748 158.801 82.5142C158.313 82.3045 157.588 82.2253 157.231 82.2329C156.631 82.2458 155.993 82.6039 155.862 83.1898C155.783 83.5448 155.898 83.9126 156.033 84.2501C156.265 84.8295 156.562 85.3831 156.916 85.897C157.152 86.2386 157.472 86.5875 157.875 86.6222C156.966 87.8457 155.584 88.6425 154.118 89.002C152.721 89.3446 151.047 89.6591 149.626 89.3801C147.88 89.046 146.272 87.6698 145.673 85.9341C145.52 85.4946 145.046 85.2512 144.597 85.3885C144.138 85.529 143.88 86.015 144.02 86.474C144.613 88.411 146.053 90.0152 147.896 90.8734C147.507 91.3091 147.038 91.6788 146.465 91.982C146.01 92.2208 145.508 92.4186 144.984 92.6091C144.721 92.7025 144.449 92.7886 144.174 92.872C143.909 92.9506 143.648 93.0185 143.379 93.0798C141.231 93.5621 138.838 93.5139 136.411 93.4894C134 93.4515 131.601 93.3873 129.229 93.1381C126.858 92.8855 124.509 92.4837 122.228 91.7971C121.889 91.6963 121.524 91.8703 121.392 92.2054C121.254 92.5588 121.428 92.9575 121.782 93.096C124.103 94.0045 126.536 94.6079 128.982 94.9955C131.43 95.3897 133.892 95.6023 136.339 95.7205C137.561 95.7796 138.776 95.8469 140.041 95.8508C140.607 95.85 141.183 95.8346 141.763 95.7965C141.903 100.784 143.733 105.41 145.513 109.893C146.098 111.367 146.702 112.891 147.237 114.403C150.399 123.354 151.526 132.041 151.733 140.761C149.727 142.055 150.192 137.718 149.982 136.644C149.905 136.243 149.82 135.835 149.699 135.446C149.668 136.614 149.365 137.833 149.084 138.966C148.913 139.649 148.789 141.205 147.699 140.866C147.104 140.682 146.952 139.924 146.907 139.303C146.783 137.63 146.687 135.955 146.617 134.279C146.162 135.652 145.706 137.026 145.251 138.4C145.125 138.781 144.982 139.186 144.66 139.425C143.476 140.306 143.298 137.582 143.229 136.966C143.082 135.642 143.209 134.286 143.623 133.019C142.832 135.441 139.522 140.075 141.674 142.564C142.223 143.199 143.161 143.465 143.962 143.212C144.442 143.061 144.854 142.726 145.127 142.303C145.026 143.298 145.604 144.388 146.572 144.71C147.687 145.08 148.844 144.352 149.329 143.363C149.601 144.991 150.659 145.317 151.766 145.018C151.738 148.825 151.571 152.649 151.354 156.512C151.34 156.463 151.33 156.413 151.315 156.365C151.284 157.533 150.982 158.752 150.7 159.885C150.53 160.568 150.406 162.125 149.315 161.786C148.721 161.601 148.569 160.843 148.523 160.222C148.4 158.549 148.303 156.874 148.234 155.198C147.778 156.572 147.323 157.946 146.867 159.319C146.741 159.7 146.598 160.105 146.276 160.344C145.093 161.225 144.914 158.501 144.845 157.885C144.698 156.561 144.825 155.205 145.239 153.938C144.448 156.36 141.138 160.994 143.29 163.483C143.839 164.118 144.777 164.384 145.578 164.131C146.058 163.98 146.47 163.645 146.743 163.222C146.642 164.217 147.22 165.307 148.188 165.629C149.303 165.999 150.46 165.271 150.945 164.282C151.22 165.931 152.303 166.247 153.425 165.927C154.057 166.93 154.659 168.042 155.22 169.234ZM89.1553 208.075C89.3244 208.555 89.7894 208.89 90.2856 209.005C90.7818 209.119 91.3045 209.038 91.7906 208.886C92.056 208.803 92.3654 208.675 92.68 208.519C92.64 208.659 92.6062 208.794 92.5811 208.919C92.4796 209.418 92.4531 209.946 92.6174 210.428C92.7816 210.91 93.1633 211.338 93.6583 211.457C94.2877 211.608 94.9561 211.223 95.2979 210.673C95.5766 210.225 95.6714 209.693 95.688 209.161C95.7662 209.237 95.8442 209.312 95.9179 209.375C96.3033 209.708 96.7508 209.99 97.2514 210.083C97.7521 210.176 98.3121 210.053 98.6585 209.68C99.0989 209.205 99.0899 208.434 98.7782 207.866C98.4779 207.32 97.9516 206.937 97.4006 206.641C97.7716 206.596 98.1215 206.526 98.4032 206.442C98.8912 206.297 99.3698 206.072 99.718 205.7C100.066 205.329 100.264 204.791 100.136 204.298C99.9739 203.671 99.3191 203.263 98.6731 203.22C98.0271 203.177 97.3969 203.431 96.8352 203.753C96.7104 203.825 96.554 203.917 96.385 204.022C96.6497 203.453 96.8418 202.828 96.7535 202.208C96.662 201.567 96.2056 200.945 95.5686 200.83C95.0675 200.74 94.5458 200.978 94.2013 201.353C93.8569 201.728 93.6685 202.222 93.5602 202.72C93.5395 202.815 93.522 202.921 93.5052 203.029C93.1725 202.614 92.7773 202.246 92.2852 202.055C91.6817 201.821 90.9158 201.914 90.5035 202.413C90.1791 202.805 90.1311 203.377 90.2893 203.861C90.4475 204.345 90.7859 204.751 91.1666 205.089C91.4083 205.304 91.7305 205.538 92.086 205.752C91.898 205.759 91.7266 205.769 91.5897 205.779C90.9441 205.826 90.279 205.967 89.7672 206.363C89.2554 206.76 88.9402 207.464 89.1553 208.075ZM98.3829 117.296C98.1455 118.159 97.9657 119.044 97.881 119.951C97.8022 120.857 97.7933 121.791 98.0063 122.724C98.0273 122.814 98.0864 122.897 98.175 122.942C98.3355 123.025 98.5325 122.962 98.6152 122.802L98.6191 122.794C99.039 121.98 99.3805 121.187 99.7039 120.382C100.024 119.577 100.308 118.764 100.567 117.94C100.826 117.116 101.054 116.28 101.21 115.416C101.365 114.55 101.478 113.667 101.423 112.715C101.418 112.632 101.382 112.549 101.317 112.488C101.181 112.362 100.969 112.369 100.843 112.505C100.19 113.206 99.7248 113.985 99.324 114.788C98.9257 115.593 98.6216 116.433 98.3829 117.296ZM92.7982 124.004C92.8231 124.101 92.8969 124.185 92.9991 124.217C93.1559 124.265 93.3219 124.177 93.3698 124.02C93.719 122.913 94.0316 121.853 94.3774 120.817C94.719 119.782 95.086 118.772 95.4882 117.781C95.8873 116.787 96.3458 115.829 96.7568 114.83C97.1726 113.829 97.5976 112.825 97.931 111.661L97.9321 111.657C97.9534 111.582 97.9464 111.498 97.9058 111.424C97.8239 111.274 97.6359 111.219 97.4861 111.301C96.3946 111.899 95.5434 112.777 94.844 113.748C94.1397 114.721 93.6433 115.826 93.2579 116.958C92.8756 118.092 92.6287 119.271 92.537 120.459C92.45 121.646 92.5103 122.846 92.7982 124.004ZM98.6829 134.939C99.1545 135.065 99.6987 134.988 100.057 134.656C100.512 134.235 100.559 133.497 100.303 132.932C100.055 132.388 99.5805 131.984 99.0755 131.661C99.4332 131.645 99.7728 131.604 100.048 131.544C100.525 131.441 100.998 131.261 101.358 130.931C101.718 130.601 101.946 130.101 101.86 129.621C101.75 129.01 101.154 128.573 100.54 128.485C99.9261 128.397 99.3053 128.594 98.7453 128.861C98.6208 128.92 98.4646 128.997 98.2957 129.085C98.5898 128.561 98.819 127.977 98.7796 127.379C98.7388 126.76 98.348 126.132 97.7476 125.976C97.2754 125.853 96.7597 126.043 96.4032 126.376C96.0468 126.709 95.8307 127.168 95.6913 127.635C95.6645 127.725 95.6402 127.825 95.6162 127.927C95.3285 127.506 94.9776 127.125 94.5214 126.907C93.9618 126.64 93.2232 126.673 92.7929 127.12C92.4545 127.471 92.3671 128.014 92.483 128.488C92.5988 128.962 92.8928 129.375 93.2319 129.725C93.4473 129.948 93.7381 130.196 94.0623 130.426C93.882 130.419 93.7176 130.416 93.5859 130.416C92.9657 130.413 92.3199 130.499 91.8023 130.841C91.2844 131.182 90.9322 131.833 91.0933 132.431C91.22 132.903 91.6398 133.257 92.1058 133.402C92.5717 133.547 93.0769 133.508 93.5524 133.398C93.812 133.338 94.1169 133.239 94.4289 133.112C94.3806 133.243 94.3384 133.37 94.3053 133.487C94.1721 133.957 94.1083 134.459 94.2304 134.932C94.3523 135.404 94.6858 135.841 95.1502 135.991C95.7406 136.181 96.4073 135.861 96.7738 135.361C97.0726 134.953 97.2019 134.451 97.2563 133.944C97.3255 134.023 97.3946 134.1 97.4605 134.166C97.8042 134.512 98.2113 134.814 98.6829 134.939ZM105.083 152.956C104.453 151.193 103.671 149.481 102.713 147.874C101.766 146.263 100.667 144.739 99.3527 143.405C99.2861 143.339 99.1826 143.314 99.0905 143.353C98.9698 143.405 98.9132 143.544 98.9645 143.665C99.6835 145.37 100.423 147.015 101.109 148.675C101.785 150.338 102.432 151.999 103.018 153.684C103.606 155.367 104.138 157.067 104.653 158.787L106.141 164.03C106.168 164.121 106.247 164.192 106.346 164.202C106.476 164.215 106.593 164.12 106.606 163.989C106.81 162.125 106.716 160.247 106.441 158.397C106.178 156.545 105.71 154.721 105.083 152.956ZM133.053 148.181C132.959 147.998 132.736 147.925 132.553 148.018C131.33 148.641 130.283 149.518 129.341 150.49C128.409 151.472 127.609 152.577 126.939 153.753C126.265 154.927 125.711 156.171 125.308 157.46C124.906 158.747 124.627 160.074 124.583 161.424C124.579 161.562 124.653 161.697 124.784 161.763C124.964 161.854 125.185 161.782 125.276 161.601C125.875 160.431 126.425 159.286 127.022 158.173C127.619 157.061 128.236 155.975 128.891 154.914C129.55 153.854 130.237 152.818 130.936 151.774C131.626 150.72 132.355 149.689 133.039 148.543L133.042 148.538C133.104 148.432 133.112 148.298 133.053 148.181ZM125.051 102.223C125.161 103.07 125.333 103.893 125.452 104.734C125.575 105.573 125.671 106.42 125.749 107.284L125.978 109.957C125.987 110.054 126.042 110.147 126.134 110.198C126.282 110.28 126.468 110.228 126.551 110.08C127.021 109.239 127.315 108.32 127.499 107.379C127.675 106.437 127.729 105.471 127.67 104.51C127.608 103.552 127.461 102.588 127.115 101.685C126.761 100.788 126.259 99.934 125.464 99.2754C125.413 99.2331 125.348 99.2056 125.277 99.2007C125.096 99.1882 124.94 99.3245 124.928 99.5051L124.927 99.5104C124.859 100.508 124.949 101.37 125.051 102.223ZM134.073 82.7088C132.449 82.3804 130.785 82.2409 129.119 82.2512L127.868 82.2785L126.62 82.371L125.373 82.5054L124.134 82.7037C122.482 82.9854 120.86 83.4287 119.273 83.975C117.687 84.5073 116.16 85.299 115.041 86.7201C115.003 86.7697 114.979 86.8344 114.983 86.9019C114.99 87.0525 115.118 87.1685 115.268 87.1613C117.046 87.0895 118.517 86.5873 120.002 86.031C121.487 85.4888 123.009 85.049 124.545 84.6587C125.318 84.4804 126.092 84.3047 126.872 84.1426C127.654 83.9975 128.44 83.8635 129.23 83.735C130.814 83.5017 132.415 83.3361 134.044 83.2044C134.152 83.1957 134.247 83.1163 134.27 83.0043C134.297 82.8686 134.209 82.7363 134.073 82.7088ZM147.414 73.3072C146.614 72.1799 145.54 71.1863 144.131 70.2704C143.973 70.1676 143.769 70.175 143.621 70.2885C143.472 70.4009 143.41 70.5953 143.465 70.774C143.658 71.395 143.369 72.1407 142.809 72.4715C142.248 72.8017 141.457 72.6921 141.006 72.2226C140.557 71.7537 140.481 70.9575 140.834 70.411C140.923 70.2745 140.93 70.1011 140.851 69.9581C140.774 69.8152 140.624 69.7264 140.462 69.7264C140.459 69.7264 140.456 69.7264 140.453 69.7264C139.194 69.7264 137.837 69.8313 136.45 70.5856C136.341 70.6451 136.261 70.7479 136.231 70.8694C136.201 70.9903 136.224 71.1182 136.293 71.2222C137.441 72.9374 139.248 74.2066 141.25 74.7055C141.907 74.8688 142.584 74.9497 143.261 74.9497C144.649 74.9497 146.04 74.6109 147.262 73.9556C147.374 73.8951 147.455 73.7896 147.484 73.6653C147.513 73.5417 147.488 73.411 147.414 73.3072ZM129.403 65.4218C129.889 66.2854 130.745 66.9663 131.68 67.3759C132.618 67.8017 133.628 68.003 134.622 68.0709C136.652 68.1854 138.466 67.758 140.114 67.5803C141.772 67.3857 143.182 67.4612 144.613 68.027C146.038 68.5585 147.322 69.5013 148.388 70.7346L148.416 70.7676C148.647 71.0346 149.03 71.1426 149.379 71.0096C149.827 70.8393 150.052 70.3385 149.881 69.8908C149.161 67.9967 147.644 66.4159 145.794 65.4549C144.868 64.9691 143.845 64.6496 142.785 64.5123C141.725 64.373 140.697 64.4389 139.735 64.5653C137.813 64.8315 136.126 65.3728 134.548 65.6043C132.936 65.8302 131.347 65.8684 129.767 65.0592L129.756 65.0533C129.679 65.0147 129.585 65.0139 129.505 65.059C129.377 65.1313 129.331 65.2936 129.403 65.4218ZM129.217 74.153C128.076 73.4481 126.862 72.8508 125.596 72.4057C124.331 71.9659 123.034 71.5949 121.702 71.4473C120.372 71.3094 119.013 71.3558 117.685 71.7904C117.621 71.812 117.563 71.86 117.533 71.9265C117.476 72.0535 117.532 72.2029 117.659 72.26C118.91 72.8337 120.12 73.1791 121.331 73.4999C122.541 73.8112 123.756 74.0601 124.948 74.4139C126.139 74.7625 127.328 75.1323 128.494 75.5887C129.667 76.0309 130.817 76.5452 131.995 77.102C132.078 77.1412 132.182 77.1315 132.256 77.0677C132.357 76.9813 132.368 76.8296 132.282 76.7287C131.41 75.7145 130.349 74.8721 129.217 74.153ZM115.487 51.0785C115.696 51.7809 115.912 52.4815 116.136 53.1801C116.394 53.9443 116.667 54.7034 116.945 55.4614C117.224 56.2182 117.527 57.0046 117.92 57.7922C118.688 59.3455 119.986 60.9872 121.934 61.7243C122.419 61.9076 122.942 62.0319 123.485 62.0701C123.756 62.0916 124.026 62.0869 124.32 62.0428L124.75 61.9802C124.891 61.9517 125.023 61.9026 125.159 61.8618C126.241 61.5121 127.09 60.8093 127.693 59.9792C128.295 59.1475 128.683 58.1366 128.661 57.0206C128.652 56.7415 128.632 56.4657 128.55 56.185C128.512 56.0465 128.488 55.9071 128.433 55.7736L128.246 55.3808C128.135 55.1134 127.928 54.9045 127.758 54.6808C127.579 54.4631 127.346 54.3149 127.138 54.1435C126.92 53.9933 126.685 53.8936 126.459 53.7768C126.23 53.6654 125.942 53.5901 125.683 53.5443C125.151 53.4594 124.63 53.532 124.16 53.6845C123.223 53.9773 122.439 54.7631 122.274 55.6707C122.258 55.7584 122.292 55.8517 122.368 55.9084C122.475 55.988 122.627 55.9656 122.707 55.8581L122.717 55.8446C123.151 55.2591 123.816 55.0056 124.433 54.9935C124.741 54.9859 125.036 55.0557 125.277 55.1632C125.399 55.2277 125.495 55.2763 125.604 55.3759C125.71 55.4776 125.836 55.5568 125.925 55.6576C126.285 56.0615 126.369 56.4776 126.31 56.9589C126.252 57.4389 125.994 57.9728 125.624 58.3949C125.257 58.8206 124.789 59.1343 124.349 59.2612C123.945 59.3837 123.419 59.3658 122.896 59.1692C122.372 58.979 121.859 58.6203 121.416 58.1846C120.975 57.7489 120.588 57.1811 120.242 56.5624C119.554 55.3231 118.964 53.7957 118.372 52.3541C118.19 51.9196 118.019 51.4797 117.844 51.0417C118.171 46.8891 116.959 37.8771 116.7 36.5533C116.343 34.7251 115.867 32.8506 114.876 31.4382C113.884 30.0259 112.246 29.213 110.979 29.9863C109.888 30.6518 109.343 32.3163 109.355 33.9192C109.368 35.5219 109.841 37.0858 110.346 38.5827C111.214 41.1568 112.199 43.6707 113.293 46.1068C113.601 46.7943 114.562 49.2609 115.487 51.0785ZM114.232 81.457C114.245 81.6285 114.395 81.7568 114.566 81.7437L114.573 81.7431C116.193 81.6207 117.417 81.1397 118.724 80.6659C120.031 80.23 121.383 79.9035 122.766 79.7036C123.458 79.6103 124.156 79.5298 124.859 79.4837C125.562 79.441 126.269 79.4211 126.981 79.4188C128.405 79.4258 129.84 79.5259 131.298 79.6706C131.417 79.6823 131.537 79.6166 131.586 79.5005C131.646 79.3579 131.579 79.1939 131.436 79.1342C130.058 78.5569 128.599 78.1584 127.106 77.9236C126.36 77.8019 125.604 77.7198 124.844 77.693C124.084 77.6569 123.319 77.6554 122.556 77.7199C121.029 77.8278 119.501 78.103 118.031 78.5938C116.562 79.0457 115.117 79.8175 114.273 81.2774C114.243 81.3302 114.227 81.3921 114.232 81.457ZM132.245 115.401C131.573 113.917 129.773 113.186 128.152 113.357C126.532 113.529 125.078 114.432 123.823 115.471C123.545 115.702 123.201 115.993 122.828 116.326C123.238 114.803 123.441 113.172 122.956 111.676C122.453 110.126 121.054 108.779 119.424 108.768C118.142 108.759 116.951 109.574 116.258 110.653C115.565 111.731 115.31 113.038 115.256 114.318C115.245 114.562 115.244 114.825 115.249 115.098C114.247 114.214 113.106 113.479 111.807 113.218C110.209 112.897 108.35 113.457 107.542 114.873C106.906 115.986 107.033 117.424 107.634 118.556C108.234 119.689 109.249 120.551 110.339 121.226C111.029 121.653 111.92 122.099 112.892 122.476C112.432 122.574 112.018 122.672 111.685 122.755C110.104 123.149 108.515 123.784 107.416 124.988C106.317 126.191 105.839 128.074 106.635 129.495C107.262 130.614 108.559 131.247 109.839 131.316C111.119 131.385 112.381 130.96 113.521 130.374C114.142 130.054 114.854 129.613 115.566 129.089C115.528 129.452 115.504 129.798 115.495 130.115C115.458 131.396 115.62 132.718 116.235 133.842C116.85 134.967 117.98 135.864 119.26 135.947C120.886 136.051 122.378 134.807 122.989 133.296C123.486 132.068 123.5 130.711 123.314 129.388C123.539 129.542 123.759 129.686 123.968 129.811C125.067 130.471 126.299 130.977 127.58 130.992C128.862 131.007 130.198 130.461 130.897 129.386C131.785 128.02 131.431 126.11 130.413 124.837C129.437 123.616 127.976 122.89 126.489 122.394C127.385 122.123 128.211 121.794 128.87 121.466C130.018 120.896 131.108 120.132 131.812 119.06C132.515 117.989 132.775 116.569 132.245 115.401ZM132.648 99.5057C132.897 100.892 133.216 102.214 133.487 103.542C133.77 104.864 134.042 106.176 134.29 107.493L135.012 111.457C135.261 112.786 135.498 114.125 135.854 115.501C135.88 115.6 135.956 115.686 136.062 115.716C136.222 115.763 136.39 115.671 136.436 115.511C136.841 114.126 136.978 112.701 136.981 111.28C136.982 109.858 136.815 108.439 136.524 107.048C136.231 105.657 135.818 104.29 135.27 102.979C134.709 101.673 134.051 100.407 133.181 99.2695C133.114 99.1839 133.003 99.1359 132.889 99.157C132.726 99.1868 132.618 99.3431 132.648 99.5057ZM140.571 129.005C140.62 128.41 140.402 127.825 140.118 127.298C140.438 127.458 140.755 127.587 141.024 127.669C141.491 127.811 141.992 127.884 142.467 127.771C142.942 127.658 143.385 127.333 143.543 126.871C143.745 126.285 143.437 125.612 142.944 125.236C142.45 124.86 141.812 124.731 141.193 124.691C141.055 124.682 140.882 124.673 140.691 124.668C141.203 124.353 141.687 123.955 141.944 123.413C142.21 122.853 142.174 122.114 141.726 121.686C141.373 121.348 140.831 121.263 140.357 121.38C139.883 121.498 139.472 121.793 139.122 122.134C139.055 122.199 138.985 122.275 138.914 122.352C138.868 121.844 138.747 121.341 138.455 120.928C138.096 120.422 137.435 120.091 136.841 120.272C136.375 120.414 136.034 120.846 135.905 121.316C135.775 121.787 135.831 122.29 135.956 122.762C136.036 123.061 136.169 123.419 136.34 123.778C136.186 123.684 136.044 123.601 135.929 123.537C135.389 123.233 134.783 122.994 134.164 123.04C133.545 123.086 132.921 123.482 132.77 124.084C132.652 124.557 132.846 125.071 133.182 125.425C133.518 125.779 133.978 125.99 134.447 126.126C134.703 126.2 135.018 126.262 135.352 126.303C135.246 126.394 135.148 126.484 135.062 126.57C134.717 126.915 134.416 127.323 134.293 127.795C134.169 128.267 134.248 128.811 134.581 129.168C135.004 129.622 135.742 129.667 136.306 129.408C136.765 129.197 137.122 128.823 137.417 128.406C137.439 128.509 137.462 128.609 137.487 128.699C137.619 129.169 137.828 129.631 138.179 129.97C138.53 130.309 139.042 130.507 139.516 130.392C140.119 130.245 140.52 129.624 140.571 129.005ZM116.137 221.399C116.12 221.565 116.24 221.713 116.405 221.731C117.066 221.801 117.7 221.751 118.33 221.686C118.959 221.611 119.577 221.488 120.189 221.34C120.801 221.193 121.409 221.022 122.009 220.821C122.61 220.619 123.206 220.399 123.787 220.107C123.88 220.06 123.945 219.964 123.949 219.853C123.954 219.69 123.827 219.553 123.664 219.548C123.014 219.526 122.38 219.577 121.751 219.646C121.121 219.715 120.498 219.815 119.881 219.939C119.262 220.061 118.65 220.21 118.048 220.405C117.449 220.611 116.852 220.831 116.282 221.172C116.205 221.219 116.148 221.302 116.137 221.399ZM128.51 222.792C128.503 222.639 128.372 222.522 128.219 222.529C127.043 222.586 125.918 222.733 124.801 222.881C123.686 223.033 122.585 223.208 121.484 223.384C120.384 223.561 119.288 223.746 118.188 223.979C117.088 224.215 115.984 224.466 114.86 224.866C114.779 224.895 114.71 224.962 114.683 225.051C114.639 225.2 114.724 225.356 114.872 225.4C116.029 225.745 117.205 225.855 118.375 225.866C119.546 225.873 120.712 225.749 121.86 225.533C123.008 225.316 124.14 225.014 125.237 224.607C126.332 224.197 127.4 223.702 128.388 223.037C128.466 222.984 128.516 222.892 128.51 222.792ZM133.719 195.307C133.672 194.555 133.607 193.796 133.377 192.978L133.375 192.972C133.35 192.882 133.295 192.8 133.213 192.741C133.021 192.603 132.753 192.647 132.615 192.839C132.106 193.548 131.833 194.33 131.65 195.125C131.47 195.922 131.429 196.739 131.459 197.551C131.489 198.364 131.598 199.174 131.795 199.965C132.003 200.754 132.269 201.53 132.699 202.248C132.76 202.35 132.866 202.425 132.993 202.444C133.217 202.475 133.424 202.32 133.456 202.096L133.457 202.091C133.571 201.289 133.599 200.527 133.645 199.772C133.68 199.018 133.703 198.276 133.722 197.535C133.741 196.794 133.764 196.057 133.719 195.307ZM147.157 207.439C146.585 207.136 145.906 207.112 145.262 207.177C145.118 207.192 144.938 207.212 144.741 207.24C145.214 206.828 145.645 206.335 145.817 205.733C145.994 205.111 145.831 204.357 145.296 203.992C144.875 203.706 144.302 203.71 143.834 203.912C143.367 204.115 142.993 204.489 142.692 204.899C142.634 204.978 142.575 205.068 142.516 205.16C142.381 204.645 142.17 204.148 141.799 203.773C141.343 203.313 140.606 203.086 140.026 203.373C139.569 203.6 139.293 204.102 139.24 204.608C139.187 205.115 139.331 205.624 139.541 206.088C139.674 206.382 139.873 206.728 140.11 207.068C139.936 206.998 139.775 206.937 139.646 206.89C139.037 206.67 138.372 206.528 137.744 206.681C137.115 206.834 136.54 207.349 136.488 207.995C136.446 208.502 136.734 208.998 137.141 209.304C137.548 209.611 138.058 209.75 138.564 209.809C138.84 209.842 139.174 209.851 139.525 209.836C139.432 209.949 139.346 210.058 139.272 210.162C138.976 210.576 138.737 211.047 138.69 211.555C138.644 212.062 138.818 212.608 139.222 212.918C139.735 213.313 140.502 213.233 141.039 212.871C141.476 212.575 141.779 212.128 142.011 211.649C142.051 211.75 142.092 211.85 142.133 211.938C142.35 212.399 142.644 212.839 143.063 213.128C143.482 213.417 144.044 213.532 144.512 213.333C145.108 213.079 145.414 212.371 145.361 211.725C145.309 211.104 144.984 210.54 144.602 210.045C144.959 210.155 145.307 210.234 145.598 210.272C146.103 210.338 146.632 210.328 147.101 210.13C147.571 209.933 147.971 209.522 148.055 209.02C148.161 208.381 147.73 207.741 147.157 207.439ZM155.318 190.638C155.151 190.006 154.63 189.612 153.815 189.646C152.829 189.688 152.219 189.879 151.237 190.269C151.187 190.285 151.137 190.307 151.086 190.324C151.012 190.208 150.937 190.091 150.853 189.979C150.507 189.517 150.101 189.118 149.648 188.787C150.313 187.622 150.552 186.649 150.648 186.059C150.783 185.226 150.419 184.665 149.785 184.445C149.836 183.655 149.331 182.932 148.57 182.769C147.807 182.606 147.049 183.06 146.774 183.805C146.121 183.768 145.585 184.141 145.366 184.927C145.101 185.878 145.093 186.518 145.161 187.571C145.161 187.65 145.168 187.731 145.17 187.811C144.486 187.947 143.83 188.209 143.231 188.592C142.339 187.621 141.501 187.101 140.976 186.831C140.225 186.445 139.579 186.618 139.174 187.153C138.438 186.861 137.595 187.118 137.205 187.791C136.814 188.466 137.011 189.327 137.635 189.819C137.398 190.429 137.587 191.054 138.267 191.505C139.074 192.04 139.674 192.248 140.662 192.502C140.658 192.532 140.65 192.561 140.645 192.591C140.535 193.36 140.586 194.114 140.77 194.823C139.757 195.332 139.101 195.891 138.721 196.268C138.122 196.863 138.087 197.532 138.471 198.082C137.965 198.691 137.949 199.573 138.469 200.151C138.99 200.732 139.87 200.81 140.531 200.369C141.037 200.783 141.69 200.796 142.329 200.289C143.015 199.745 143.393 199.279 143.864 198.559C144.364 198.795 144.907 198.962 145.482 199.044C145.752 199.083 146.019 199.101 146.285 199.102C146.463 200.134 146.771 200.875 147 201.329C147.38 202.083 148.005 202.323 148.647 202.128C149.07 202.797 149.904 203.085 150.615 202.77C151.328 202.454 151.674 201.64 151.459 200.876C152.009 200.522 152.223 199.905 151.938 199.14C151.617 198.277 151.27 197.762 150.677 197.037C151.171 196.444 151.544 195.744 151.766 194.97C152.934 195.174 153.826 195.104 154.371 195.02C155.205 194.891 155.627 194.37 155.64 193.7C156.407 193.504 156.938 192.8 156.858 192.027C156.777 191.251 156.111 190.67 155.318 190.638ZM92.2752 186.737C90.34 186.737 88.7656 188.311 88.7656 190.247C88.7656 192.182 90.34 193.756 92.2752 193.756C94.2107 193.756 95.7851 192.182 95.7851 190.247C95.7851 188.311 94.2107 186.737 92.2752 186.737ZM120.737 117.364C119.509 116.903 118.256 116.983 117.212 117.587C115.723 118.449 115.046 120.373 115.703 121.876C116.055 122.68 116.806 123.307 117.712 123.553C118.568 123.786 119.435 123.646 120.092 123.168C120.46 122.901 120.542 122.387 120.275 122.02C120.009 121.652 119.495 121.571 119.127 121.837C118.874 122.021 118.515 122.068 118.143 121.967C117.719 121.851 117.362 121.564 117.21 121.217C116.888 120.482 117.274 119.451 118.036 119.01C118.819 118.556 119.624 118.703 120.16 118.903C121.136 119.269 121.968 120.095 122.279 121.008C122.737 122.35 122.346 124.017 121.305 125.156C120.096 126.478 118.104 127.012 116.456 126.454C116.026 126.307 115.559 126.537 115.413 126.968C115.267 127.398 115.497 127.864 115.927 128.011C116.527 128.215 117.161 128.313 117.799 128.313C119.545 128.313 121.32 127.577 122.519 126.266C123.975 124.672 124.492 122.401 123.836 120.478C123.364 119.096 122.177 117.903 120.737 117.364ZM165.903 175.756C165.597 174.771 164.636 173.935 163.612 174.059C164.476 173.955 164.719 172.237 164.584 171.625C164.36 170.616 163.37 169.832 162.328 169.903C162.583 168.811 162.424 167.634 161.324 167.041C160.14 166.404 158.706 167.082 158.012 168.142C159.533 173.44 160.728 178.851 161.573 184.305C161.578 184.301 161.581 184.298 161.585 184.295C161.73 184.165 161.926 183.96 162.223 183.678C162.39 183.519 162.552 183.293 162.707 183.027C164.005 181.874 165.029 180.411 165.635 178.782C165.994 177.815 166.21 176.741 165.903 175.756ZM119.36 22.5434C120.532 24.0534 121.504 25.715 122.239 27.4763C122.978 29.2338 123.481 31.0983 123.723 32.9871C123.967 34.8691 123.99 36.7189 124.038 38.517C124.09 40.3146 124.14 42.0834 124.505 43.7099C124.799 45.0662 125.366 46.3046 126.164 47.4345C127.886 47.4201 129.607 47.5464 131.307 47.8082C131.739 40.1076 131.016 32.4094 129.15 24.9229C128.499 22.3099 127.793 20.2329 126.464 18.5889C125.268 17.1102 123.146 15.8276 121.089 16.2992C119.332 16.7026 118.475 19.377 118.658 21.6891C118.9 21.9713 119.136 22.2561 119.36 22.5434ZM103.258 219.947C100.845 218.571 98.1958 217.23 95.4297 216.901C92.9624 216.61 90.7475 217.231 89.1908 218.656C87.6696 220.048 86.8721 222.138 86.9449 224.539C86.9743 225.52 87.31 226.357 87.8662 226.835C88.4329 227.322 89.2731 227.521 90.3603 227.672C93.6552 228.128 96.9877 228.094 100.271 227.582C100.232 226.971 100.26 226.332 100.364 225.677C100.706 223.511 101.741 221.501 103.258 219.947Z" fill="#270303" stroke="black" stroke-width="1.8" mask="url(#path-1-inside-1_7_297)"/>
<circle cx="121.5" cy="121.5" r="120.6" stroke="black" stroke-width="1.8" stroke-linecap="square" stroke-dasharray="18 18"/>
</svg>
