<svg width="243" height="243" viewBox="0 0 243 243" fill="none" xmlns="http://www.w3.org/2000/svg">
<mask id="path-1-inside-1_7_296" fill="white">
<path d="M153.541 75.7054C156.247 75.8144 158.924 76.5853 161.282 77.9175C162.426 78.5642 163.496 79.3443 164.454 80.2444C164.698 80.4735 164.992 80.7128 165.191 80.9849C165.332 81.1789 165.374 81.1554 165.391 81.3829C165.407 81.5928 165.275 81.8712 165.228 82.0837C165.045 82.9102 164.891 83.7435 164.773 84.5819C161.81 80.7872 158.028 77.5416 153.541 75.7054ZM166.084 78.9117C165.603 78.4467 165.095 78.0084 164.565 77.5998C164.261 77.3652 164.038 77.2844 163.961 76.9346C163.897 76.6494 163.974 76.2497 163.988 75.9583C164.047 74.7745 164.198 73.5954 164.436 72.4344C164.909 70.1382 165.725 67.914 166.842 65.8533C169.023 61.8293 172.369 58.4149 176.469 56.3462C186.118 51.4777 197.743 55.612 203.784 64.1617C205.33 66.3508 206.499 68.8082 207.185 71.4011C207.35 72.0274 207.488 72.6613 207.596 73.3001C207.65 73.6199 207.696 73.941 207.736 74.2631C207.759 74.457 207.923 75.0633 207.832 75.2331C207.728 75.4279 207.074 75.67 206.875 75.8092C206.622 75.9861 206.377 76.1773 206.145 76.3813C205.553 76.9011 205.029 77.5043 204.625 78.1822C203.707 76.2131 202.707 74.262 201.626 72.377C200.748 70.847 199.724 69.3327 198.305 68.2532C195.225 65.9099 191.101 66.8186 188.451 69.3829C187.146 70.6455 185.949 72.1334 184.982 73.6661C183.4 71.774 181.834 70.0497 179.579 68.944C177.659 68.0021 175.598 67.6536 173.564 68.4525C169.304 70.1253 167.369 74.881 166.084 78.9117ZM190.299 63.0778C188.401 61.5421 185.623 61.2263 183.301 61.7536C182.179 62.0083 181.077 62.4749 180.16 63.1781C179.936 63.3503 179.025 63.9571 179.347 64.2889C179.566 64.515 180.631 64.1773 180.913 64.134C183.107 63.7964 185.302 63.5366 187.525 63.5036C188.086 63.4952 188.647 63.4909 189.208 63.4846C189.268 63.4837 190.851 63.5213 190.299 63.0778ZM176.418 59.736C176.538 60.067 179.079 59.0885 179.498 58.9786C180.631 58.6815 181.788 58.4644 182.953 58.3365C185.285 58.0804 187.647 58.1984 189.955 58.606C190.529 58.7074 191.099 58.8241 191.669 58.9477C192.14 59.0501 192.559 58.9979 192.083 58.5167C191.382 57.8068 190.329 57.3095 189.413 56.9485C187.213 56.0812 184.764 55.9104 182.449 56.3624C181.21 56.6041 180.01 57.026 178.904 57.6353C178.416 57.9045 177.946 58.2095 177.507 58.5539C177.299 58.7167 176.298 59.4028 176.418 59.736ZM164.54 86.8879C161.444 82.7728 157.796 79.1448 152.953 77.1609C155.353 80.3418 156.083 84.2737 157.538 87.8983C158.788 91.0133 161.35 94.7531 165.171 94.5491C164.565 92.0439 164.379 89.4578 164.54 86.8879ZM175.153 96.8154C176.643 99.0406 179.661 98.5999 181.857 97.9314C184.526 97.119 186.888 95.8337 189.746 96.6353C190.997 96.9862 192.177 97.5536 193.497 97.5819C193.836 97.5892 194.179 97.5771 194.511 97.5056C194.939 97.4137 195.152 97.3515 195.34 96.9812C195.628 96.4103 195.635 95.5066 195.627 94.8814C195.597 92.5228 194.337 90.3722 192.352 89.1285C192.23 89.7206 191.601 90 191.141 90.301C190.674 90.6065 190.217 90.9515 189.73 91.2241C188.98 91.6438 187.992 91.282 188.032 90.3109C188.073 89.3231 188.971 88.3583 189.855 88.0399C187.018 87.2259 183.869 87.3742 181.057 88.2167C181.972 88.588 183.091 89.4962 182.922 90.6216C182.789 91.5013 181.847 91.6984 181.163 91.3548C180.626 91.0851 180.115 90.7469 179.595 90.4458C179.167 90.1976 178.5 89.9425 178.265 89.475C177.072 90.2332 176.012 91.2606 175.433 92.5666C175.137 93.2322 174.969 93.9485 174.92 94.6746C174.879 95.2633 174.813 96.3157 175.153 96.8154ZM194.66 98.6436C193.157 99.4462 191.503 98.9609 189.987 98.4732C188.291 97.9276 186.834 97.8113 185.107 98.3337C182.205 99.212 178.914 101.328 176.082 99.0387C180.079 105.184 191.088 105.247 194.66 98.6436ZM63.0352 99.0196C69.9258 86.848 81.183 76.929 94.7185 72.955C96.7634 72.3546 98.8403 71.8678 100.933 71.468C101.463 71.3668 101.994 71.2712 102.525 71.1807C102.894 71.118 103.666 70.874 103.882 71.0627C103.947 71.1188 103.997 71.448 104.04 71.5373C104.142 71.751 104.282 71.941 104.443 72.113C104.745 72.434 105.13 72.675 105.553 72.8024C102.732 73.7633 104.856 76.7511 106.633 77.5406C110.054 79.0603 113.541 76.7299 116.228 74.808C114.918 75.4267 113.385 75.7152 111.944 75.7534C110.715 75.7859 108.859 75.6276 108.175 74.4023C107.639 73.4425 109.047 73.06 109.721 72.8851C110.872 72.5866 111.989 72.4677 113.068 71.9252C111.931 72.0812 110.794 71.9631 109.657 71.8906C109.121 71.8564 108.371 71.9415 107.921 71.587C107.701 71.4134 107.606 71.1616 107.652 70.8809C107.757 70.2353 108.476 70.3603 108.991 70.3061C110.153 70.1837 111.316 70.0774 112.481 69.9828C117.314 69.5901 122.167 69.3383 127.016 69.2609C126.724 70.4105 127.618 71.4899 128.69 71.8034C125.878 72.7885 128.027 75.7579 129.811 76.5321C133.245 78.0225 136.712 75.6622 139.382 73.7172C138.077 74.347 136.547 74.6489 135.107 74.6993C133.878 74.7424 132.02 74.5998 131.326 73.3804C130.782 72.4253 132.186 72.0307 132.858 71.8501C134.007 71.5416 135.122 71.4132 136.197 70.8615C134.94 71.045 133.677 70.8955 132.417 70.8415C131.776 70.814 130.518 70.7544 130.797 69.7701C130.998 69.0562 131.735 69.2512 132.324 69.2602C133.12 69.2726 133.917 69.2908 134.713 69.3153C136.227 69.3617 137.741 69.4305 139.253 69.5235C144.824 69.8664 150.377 70.5393 155.85 71.6343C157.301 71.9245 158.746 72.2442 160.183 72.5946C160.539 72.6813 160.894 72.7698 161.248 72.8601C161.568 72.9418 162.089 72.9844 162.167 73.2423C162.253 73.5273 162.036 74.1803 162.004 74.486C161.955 74.9497 161.919 75.4149 161.896 75.8804C159.72 74.7236 157.322 73.9814 154.872 73.7137C153.669 73.5824 152.453 73.5646 151.248 73.6712C150.402 73.7459 148.635 73.7158 148.13 74.5329C147.483 75.5808 148.738 76.0709 149.408 76.5499C150.162 77.0891 150.806 77.7691 151.356 78.5125C152.741 80.3847 153.523 82.6021 154.242 84.7928C155.662 89.1142 157.279 93.8661 161.728 95.9277C162.714 96.3849 163.795 96.6576 164.886 96.6534C165.056 96.6527 165.496 96.5425 165.651 96.6044C165.858 96.6866 165.92 97.0458 166.016 97.3007C166.249 97.9201 166.51 98.5294 166.798 99.1253C167.803 101.205 169.145 103.13 170.818 104.728C174.61 108.349 179.708 110.372 184.944 110.398C180.827 118.956 175.28 126.767 168.478 133.401C166.503 135.327 164.431 137.154 162.28 138.882C162.9 136.732 163.629 134.613 164.439 132.527C164.586 132.148 165.719 129.914 165.18 129.819C164.738 129.742 163.704 131.808 163.509 132.132C161.299 135.797 159.692 139.822 158.611 143.957C157.425 148.493 156.79 153.346 156.891 158.046C156.974 161.941 157.324 165.796 158.2 169.602C156.247 169.596 154.642 169.071 153.612 167.325C152.821 165.984 152.45 164.422 152.173 162.903C151.563 159.562 151.197 156.191 151.242 152.79C151.357 144.069 154.184 135.744 157.772 127.889C157.891 127.63 158.281 127.046 157.768 126.933C157.453 126.863 157.163 127.447 157.013 127.642C156.399 128.442 155.814 129.264 155.257 130.105C154.186 131.725 153.223 133.418 152.379 135.167C150.576 138.904 149.312 142.895 148.691 146.999C148.047 151.256 147.979 155.631 148.533 159.902C148.889 162.643 149.281 165.591 150.503 168.093C151.49 170.114 153.123 171.718 155.334 172.302C157.581 172.896 159.859 172.381 162.135 172.428C164.314 172.473 166.494 173.432 168.238 174.701C169.055 175.296 169.926 176.041 170.372 176.97C170.54 177.319 170.754 177.912 170.505 178.282C170.355 178.506 169.332 178.82 169.29 178.777C169.028 178.537 169.087 177.967 168.924 177.6C168.747 177.202 168.479 176.853 168.172 176.548C167.528 175.908 166.505 175.205 165.595 175.034C165.318 174.982 164.932 175.054 165.128 175.451C165.258 175.716 165.868 175.905 166.105 176.07C166.781 176.541 167.731 177.325 167.79 178.223C167.843 179.022 167.147 178.967 166.562 178.953C166.119 178.943 165.679 178.899 165.251 178.778C165.128 178.743 164.799 178.69 164.706 178.6C164.552 178.453 164.499 177.91 164.344 177.694C163.792 176.925 162.803 176.691 161.928 176.517C161.669 176.465 160.722 176.141 160.8 176.706C160.847 177.054 161.948 177.249 162.232 177.373C162.763 177.604 164.024 178.312 163.393 179.047C162.834 179.699 161.556 179.146 160.96 178.908C160.161 178.59 159.277 178.36 158.437 178.685C158.364 178.718 158.292 178.75 158.219 178.783C158.055 178.975 157.939 178.949 157.872 178.706C157.712 178.586 157.565 178.276 157.441 178.115C157.092 177.662 156.716 177.229 156.311 176.826C153.299 173.829 148.54 173.001 144.493 172.468C143.286 172.309 142.071 172.205 140.856 172.139C140.216 172.104 139.575 172.081 138.934 172.066C138.568 172.058 137.503 172.202 137.273 171.982C136.955 171.678 136.782 170.793 136.624 170.395C136.379 169.777 136.141 169.156 135.911 168.532C135.452 167.291 135.023 166.039 134.624 164.777C135.684 164.828 136.596 164.098 136.77 163.051C137.081 164.027 138.11 164.794 139.154 164.583C140.158 164.38 140.808 163.366 140.854 162.387C141.554 163.47 142.663 163.704 143.669 162.877C144.671 162.054 145.224 160.739 145.262 159.462C145.364 156.039 142.592 153.571 140.209 151.544C141.111 152.645 141.752 154.03 142.143 155.39C142.488 156.592 142.791 158.371 141.828 159.392C141.045 160.223 140.328 159.053 139.968 158.405C139.375 157.34 138.987 156.248 138.179 155.31C138.637 156.45 138.788 157.662 139.018 158.859C139.121 159.391 139.407 160.268 138.885 160.674C137.975 161.381 137.246 159.85 136.933 159.246C136.283 157.991 135.651 156.727 135.037 155.454C135.146 156.693 135.255 157.932 135.364 159.171C135.41 159.684 135.595 161.216 134.65 161.034C134.129 160.934 133.719 160.168 133.47 159.763C133.035 159.054 132.868 158.354 132.691 157.539C131.638 152.695 131.034 147.748 130.976 142.789C131.946 143.833 133.669 143.635 134.336 142.354C134.328 143.379 135.07 144.426 136.127 144.549C137.145 144.666 138.077 143.904 138.424 142.988C139.184 145.86 142.303 143.968 143.219 142.253C144.985 138.945 142.9 135.294 141.168 132.477C141.693 133.825 141.874 135.371 141.813 136.808C141.76 138.039 141.476 139.87 140.211 140.479C139.239 140.946 138.944 139.594 138.811 138.912C138.579 137.719 138.549 136.569 138.072 135.429C138.154 136.655 137.922 137.855 137.771 139.064C137.702 139.619 137.696 140.59 137.019 140.763C135.95 141.035 135.778 139.455 135.668 138.786C135.439 137.392 135.229 135.994 135.039 134.594C134.78 135.716 134.521 136.838 134.262 137.96C134.14 138.489 133.984 139.953 133.154 139.86C132.638 139.803 132.428 138.979 132.311 138.578C132.238 138.324 132.133 138.027 132.119 137.761C132.091 137.25 132.314 136.656 132.414 136.146C132.873 133.809 133.194 131.427 133.203 129.042C133.207 127.907 133.151 126.771 133.01 125.645C132.936 125.055 132.84 124.469 132.717 123.887C132.664 123.635 132.536 123.338 132.529 123.082C132.521 122.79 132.648 122.437 132.707 122.15C133.629 117.651 135.561 113.445 138.283 109.749C139.456 108.155 140.97 106.184 142.866 105.409C143.632 105.097 144.668 105.226 144.87 106.165C144.96 106.58 144.825 106.999 144.534 107.303C144.229 107.622 143.784 107.563 143.493 107.799C142.929 108.256 143.821 108.381 144.149 108.345C144.627 108.292 145.089 108.071 145.437 107.74C146.205 107.01 146.333 105.777 145.824 104.864C144.468 102.435 141.372 103.786 139.693 104.984C140.704 103.479 140.747 101.562 139.777 100.026C142.32 99.1863 143.779 96.6407 143.277 94.0227C142.75 91.2719 140.263 89.5621 137.521 89.6491C138.306 87.2576 137.502 84.358 135.225 83.1002C132.979 81.859 129.884 82.4466 128.037 84.1585C126.791 81.8295 124.086 80.7269 121.581 81.5787C118.943 82.4758 117.447 85.1969 118.085 87.9145C116.869 87.8227 115.646 87.6093 114.392 87.5904C113.018 87.5697 111.644 87.6602 110.284 87.854C107.611 88.2347 104.833 88.9502 102.509 90.3656C100.424 91.6356 98.7108 93.5853 98.1808 96.0163C97.6639 98.3865 98.5327 101.04 100.618 102.39C102.653 103.707 105.5 103.305 107.01 101.372C107.686 100.507 108.019 99.4038 107.953 98.3099C107.925 97.8355 107.821 97.3657 107.638 96.9266C107.51 96.6193 106.975 95.853 106.726 96.5493C106.594 96.9182 106.872 97.5199 106.858 97.9295C106.838 98.5217 106.679 99.1161 106.39 99.6341C105.854 100.594 104.855 101.205 103.762 101.289C101.335 101.475 99.8319 98.8919 100.157 96.72C100.581 93.8814 103.089 92.0161 105.537 90.9238C108.418 89.6384 111.601 88.9459 114.734 88.6805C111.047 90.8604 111.297 96.6684 115.214 98.4658C112.988 100.991 113.167 104.915 115.578 107.241C110.222 105.678 104.6 105.542 99.0629 105.707C96.3345 105.788 93.4782 105.736 90.7919 106.265C88.3261 106.75 86.0128 108.039 84.884 110.376C84.1458 108.536 82.2904 107.537 80.5034 106.941C82.1277 106.449 83.8306 105.728 85.0166 104.472C86.1593 103.262 86.7654 101.308 85.7516 99.8289C84.8809 98.5587 83.1871 98.1076 81.728 98.3658C79.8791 98.6931 78.3691 99.9321 77.0081 101.147C77.6926 98.6032 77.5371 94.4808 74.1763 93.965C70.8647 93.4567 69.7294 97.4594 69.772 99.9747C67.9779 98.3916 65.1141 97.1885 63.0352 99.0196ZM160.202 113.744C160.16 115.112 161.487 116.132 162.797 115.792C162.007 116.495 161.742 117.792 162.42 118.658C163.031 119.439 164.176 119.599 165.066 119.252C163.352 121.879 167.227 122.827 169.106 122.242C172.557 121.167 173.796 117.352 174.707 114.248C174.069 115.52 173.064 116.67 171.981 117.58C171.024 118.384 169.523 119.385 168.198 118.922C167.12 118.545 167.897 117.414 168.341 116.821C169.073 115.845 169.913 115.047 170.441 113.927C169.642 114.752 168.674 115.357 167.734 116.003C167.246 116.339 166.466 117.097 165.826 116.749C164.726 116.149 166.075 114.719 166.515 114.17C167.34 113.141 168.178 112.123 169.03 111.115C167.761 111.82 166.51 112.611 165.202 113.24C164.459 113.597 163.537 113.524 163.858 112.521C164.058 111.894 164.519 111.333 164.912 110.815C165.685 109.795 166.62 108.924 167.739 108.295C166.302 109.102 164.678 109.537 163.211 110.289C161.851 110.986 160.254 112.044 160.202 113.744ZM154.698 121.009C154.722 119.614 152.923 119.509 151.904 119.544C151.747 119.549 151.131 119.705 151.007 119.614C150.858 119.503 150.787 118.92 150.7 118.723C150.62 118.543 150.098 117.864 150.107 117.702C150.116 117.527 150.775 116.936 150.896 116.769C151.18 116.378 151.469 115.94 151.637 115.483C151.742 115.198 151.806 114.901 151.732 114.6C151.653 114.284 151.301 114.128 151.22 113.883C151.154 113.685 151.328 113.257 151.271 113.004C151.207 112.722 151.068 112.46 150.858 112.259C150.423 111.843 149.766 111.756 149.227 112.01C149.072 112.082 148.964 112.207 148.823 112.289C148.599 112.418 148.683 112.422 148.442 112.466C148.216 112.506 147.993 112.429 147.757 112.522C147.135 112.766 146.808 113.509 146.575 114.087C146.452 114.391 146.361 114.706 146.282 115.023C146.277 115.044 146.213 115.477 146.17 115.512C146.098 115.572 145.604 115.497 145.482 115.502C145.097 115.52 144.638 115.71 144.27 115.694C143.897 115.678 144.206 115.921 143.874 115.532C143.721 115.353 143.604 115.091 143.466 114.897C143.15 114.449 142.766 113.946 142.309 113.628C142.074 113.465 141.8 113.348 141.509 113.352C141.381 113.353 141.247 113.38 141.125 113.423C140.812 113.533 140.871 113.569 140.598 113.507C139.992 113.367 139.529 113.141 138.946 113.567C138.431 113.942 138.241 114.624 138.437 115.222C138.475 115.339 138.593 115.474 138.608 115.584C138.631 115.765 138.541 115.819 138.47 116.02C138.382 116.269 138.383 116.535 138.46 116.788C138.662 117.453 139.371 118.014 139.917 118.399C140.05 118.494 140.639 118.748 140.691 118.887C140.746 119.036 140.407 119.804 140.376 119.973C140.339 120.181 140.406 120.905 140.291 121.072C140.184 121.227 139.335 121.304 139.1 121.385C138.607 121.556 138.011 121.771 137.625 122.137C137.443 122.309 137.299 122.521 137.241 122.767C137.214 122.88 137.205 123.002 137.212 123.118C137.232 123.44 137.268 123.374 137.128 123.605C136.805 124.137 136.452 124.515 136.674 125.195C136.873 125.805 137.462 126.19 138.091 126.191C138.545 126.192 138.498 126.111 138.83 126.382C139.011 126.53 139.231 126.621 139.464 126.647C140.142 126.721 140.883 126.253 141.415 125.879C141.643 125.719 141.863 125.436 142.111 125.323C142.431 125.177 142.292 125.163 142.599 125.381C142.736 125.479 142.877 125.57 143.023 125.654C143.328 125.831 143.727 125.907 144.015 126.093C144.344 126.306 144.166 126.097 144.202 126.438C144.226 126.667 144.159 126.967 144.156 127.201C144.148 127.745 144.163 128.357 144.333 128.88C144.546 129.533 144.892 129.567 145.418 129.829C145.854 130.047 146.006 130.72 146.648 130.898C147.266 131.069 147.91 130.794 148.251 130.262C148.34 130.123 148.405 129.975 148.447 129.815C148.512 129.565 148.493 129.523 148.655 129.356C148.844 129.16 149.085 129.096 149.231 128.832C149.555 128.249 149.363 127.425 149.197 126.822C149.098 126.459 148.884 126.112 148.805 125.751C148.658 125.081 148.641 125.73 148.788 125.425C148.848 125.301 149.136 125.174 149.255 125.073C149.532 124.839 149.849 124.28 150.141 124.117C150.36 123.995 150.933 124.344 151.242 124.45C151.803 124.642 152.497 124.86 153.1 124.797C153.384 124.767 153.657 124.665 153.866 124.466C153.949 124.386 153.989 124.292 154.065 124.213C154.326 123.942 154.038 124.047 154.403 123.897C155.042 123.635 155.613 123.486 155.752 122.683C155.881 121.946 155.395 121.236 154.698 121.009ZM156.863 102.4C155.648 102.176 154.448 101.896 153.247 101.609C152.657 101.469 152.071 101.314 151.48 101.181C151.175 101.113 150.701 100.872 150.605 101.276C150.54 101.551 151.152 102.175 151.319 102.351C152.645 103.746 154.712 104.374 156.6 104.154C157.087 104.097 157.573 103.982 158.028 103.8C158.266 103.705 159.121 103.389 159.162 103.079C159.224 102.62 157.204 102.467 156.863 102.4ZM149.151 93.6484C148.609 93.4661 147.323 92.7193 146.87 92.9395C146.212 93.2602 147.264 94.3002 147.551 94.5997C148.838 95.9418 150.746 96.7172 152.602 96.6951C153.504 96.6843 154.427 96.4878 155.216 96.0387C155.548 95.8493 155.751 95.805 155.665 95.4437C155.575 95.0642 155.309 95.1205 154.928 95.0416C152.98 94.6393 151.038 94.2941 149.151 93.6484ZM142.138 85.5495C142.517 86.6198 143.95 86.2286 144.677 85.8637C144.478 86.5699 144.445 87.6571 145.301 87.9485C146.299 88.2881 146.822 87.109 146.845 86.3216C147.4 86.8598 148.568 87.4433 149.101 86.5317C149.595 85.6873 148.754 84.8665 148.074 84.5038C148.904 84.4009 150.566 83.7948 149.97 82.628C149.43 81.5728 148.057 82.1692 147.339 82.619C147.663 81.9164 147.838 80.7524 146.934 80.3779C145.955 79.9726 145.379 81.1474 145.263 81.9087C144.754 81.2772 143.491 80.6262 142.983 81.6533C142.522 82.5874 143.546 83.4544 144.245 83.8723C143.402 83.9057 141.691 84.2902 142.138 85.5495ZM83.6683 83.9215C84.0117 84.2562 84.4843 84.4522 84.9596 84.4903C83.9825 84.8952 83.3066 86.0333 83.6629 87.0735C83.9842 88.0118 85.0132 88.5387 85.9672 88.5032C84.9092 89.3217 84.8244 90.4803 85.7825 91.4113C86.7233 92.3256 88.0858 92.74 89.3775 92.6396C92.7414 92.378 94.9184 89.4602 96.7165 86.9399C95.6964 87.9315 94.3706 88.6883 93.0483 89.1928C91.8801 89.6385 90.1338 90.0914 89.0346 89.2192C88.14 88.5091 89.2447 87.6962 89.8596 87.2817C90.8705 86.6003 91.9258 86.1219 92.7925 85.237C91.7303 85.7719 90.5766 86.0253 89.4392 86.3414C88.8894 86.4941 87.9308 86.9189 87.4805 86.3565C86.7498 85.4436 88.3089 84.6159 88.884 84.2539C90.0401 83.5261 91.206 82.814 92.3817 82.118C90.9523 82.3677 89.5105 82.704 88.0691 82.8687C87.3321 82.953 86.3961 82.6435 86.9932 81.8007C87.3721 81.2661 87.9928 80.884 88.5298 80.5242C89.6151 79.7971 90.7963 79.2619 92.0881 79.0302C90.1291 79.3814 88.1112 79.1569 86.1589 79.6079C85.2646 79.8145 84.3328 80.1556 83.702 80.8535C82.9254 81.7129 82.7922 83.0679 83.6683 83.9215ZM172.412 103.352C168.869 100.062 167.003 95.2374 166.644 90.4803C166.449 87.903 166.678 85.3043 167.216 82.7796C167.802 80.0262 168.681 77.1529 170.041 74.6767C171.247 76.4751 173.612 76.0035 175.431 75.9413C176.483 75.9053 177.559 76.1359 178.514 76.5752C178.971 76.7851 179.352 77.0521 179.744 77.3638C179.97 77.5444 180.347 77.8814 180.522 77.3982C180.765 76.7268 179.642 75.6285 179.206 75.2637C178.417 74.6033 177.437 74.1574 176.427 73.969C174.533 73.6157 172.317 74.7458 170.544 73.8342C171.936 71.6881 174.255 69.5414 177.022 70.2049C178.4 70.5353 179.706 71.318 180.792 72.2097C181.963 73.1703 182.814 74.4012 183.819 75.5186C184.236 75.9825 184.71 76.627 185.422 76.4779C186.034 76.3497 186.187 75.7717 186.45 75.2906C186.996 74.2919 187.718 73.3822 188.445 72.5108C189.794 70.8945 191.326 69.3482 193.514 69.0069C196.79 68.4956 198.759 71.4817 200.123 73.9781C199.773 74.0576 199.472 74.2895 199.107 74.3645C198.661 74.456 198.198 74.4448 197.747 74.4094C196.735 74.3296 195.744 74.0914 194.721 74.1475C193.653 74.2062 192.593 74.5607 191.7 75.1488C191.007 75.6048 189.984 76.4809 189.894 77.3795C189.771 78.6017 191.293 77.1346 191.672 76.9422C192.632 76.4543 193.754 76.1893 194.829 76.208C196.699 76.2405 199.491 76.8342 200.496 74.6706C202.645 78.7195 204.894 82.9634 205.264 87.6163C205.566 91.4108 204.286 94.9747 202.197 98.1008C200.051 101.312 197.32 104.4 193.854 106.202C190.813 107.783 187.33 108.495 183.913 108.286C179.632 108.025 175.554 106.27 172.412 103.352ZM189.048 81.6863C189.087 82.0469 190.026 82.4224 190.323 82.5731C190.884 82.8574 191.476 83.0819 192.084 83.2413C193.142 83.5183 194.25 83.6014 195.336 83.4705C196.363 83.3468 197.365 83.0338 198.285 82.5615C198.762 82.3166 199.218 82.0283 199.643 81.7016C199.948 81.4672 200.702 80.9783 200.819 80.6097C201.021 79.9714 198.975 79.2501 198.486 79.0615C197.988 78.8697 197.478 78.7091 196.962 78.5737C196.307 78.4015 196.07 78.4356 196.369 79.0808C197.298 81.0873 194.442 82.7737 193.27 80.8595C193.148 80.66 193.065 80.4372 193.022 80.2078C192.981 79.9893 193.104 79.632 193.026 79.453C192.831 79.0047 192.192 79.432 191.848 79.5813C191.306 79.8159 190.78 80.0898 190.298 80.4304C189.996 80.644 189.005 81.2771 189.048 81.6863ZM176.095 83.6022C177.227 83.7227 178.383 83.6113 179.475 83.2919C180.038 83.1273 182.304 82.4106 182.24 81.7122C182.207 81.3568 181.471 80.885 181.198 80.6785C180.787 80.3685 180.341 80.1087 179.879 79.8852C179.605 79.7533 178.778 79.2471 178.477 79.346C178.138 79.457 178.344 80.1463 178.277 80.4238C177.756 82.5964 174.466 81.9757 174.774 79.7674C174.811 79.5015 175.256 78.8679 175.114 78.6705C174.889 78.3558 173.935 78.804 173.629 78.9004C172.664 79.2051 171.519 79.6028 170.721 80.251C170.173 80.6961 170.826 81.0981 171.232 81.4541C171.663 81.8332 172.132 82.1701 172.629 82.4586C173.688 83.0738 174.877 83.4723 176.095 83.6022ZM182.097 105.328C187.044 106.476 192.811 105.011 195.83 100.722C198.27 97.2543 198.413 92.4526 195.58 89.1584C192.481 85.5559 187.031 84.9343 182.612 85.7014C178.079 86.4882 173.368 89.2276 172.858 94.2349C172.284 99.8621 176.985 104.142 182.097 105.328ZM207.135 85.7166C207.661 88.8254 207.38 91.9504 206.244 94.8951C209.677 94.4036 211.779 91.0175 212.891 88.0519C214.238 84.4557 214.862 80.5866 217.08 77.3659C213.141 79.2681 209.768 82.244 207.135 85.7166ZM69.7006 136.138C70.9605 137.012 72.296 137.775 73.6795 138.435C74.3748 138.767 75.0826 139.073 75.7996 139.355C76.119 139.48 76.4403 139.601 76.7632 139.716C77.035 139.814 77.8257 139.923 77.983 140.129C78.1052 140.288 78.0096 141.121 78.0127 141.341C78.0185 141.743 78.0202 142.146 78.0179 142.548C78.0132 143.347 77.9919 144.145 77.9542 144.943C77.88 146.513 77.742 148.08 77.5376 149.638C77.1459 152.625 76.5121 155.585 75.6008 158.458C75.1681 159.821 74.6735 161.166 74.1099 162.481C73.8364 163.119 73.5469 163.75 73.2403 164.373C72.991 164.88 72.7009 165.788 72.2904 166.178C72.1068 166.352 72.0797 166.429 71.8584 166.168C71.7441 166.033 71.7116 165.844 71.6885 165.675C71.6236 165.199 71.7562 164.682 71.868 164.224C72.141 163.103 72.5292 162.089 72.552 160.918C72.145 162.038 71.477 163.016 70.8646 164.028C70.5624 164.527 70.1411 165.527 69.4022 165.369C68.2683 165.126 68.8927 163.421 69.0682 162.746C69.4001 161.47 69.7487 160.197 70.1142 158.93C69.2439 160.093 68.4195 161.317 67.4899 162.434C66.9859 163.039 66.0948 163.388 65.9719 162.361C65.8962 161.727 66.0732 161.056 66.2109 160.441C66.4981 159.158 66.9967 157.945 67.7833 156.884C66.4658 158.661 64.5963 159.974 63.5134 161.941C63.0397 162.801 62.7396 163.818 63.074 164.782C63.5419 166.132 65.2094 166.65 66.3383 165.746C65.9318 166.65 66.1549 167.852 67.0056 168.42C67.8945 169.012 69.1089 168.701 69.8234 167.976C69.7491 168.446 69.8122 168.822 69.93 169.271C70.036 169.674 70.1314 169.352 69.9354 169.796C69.8347 170.024 69.5744 170.269 69.4192 170.464C68.7436 171.314 68.0154 172.121 67.2478 172.888C65.8955 174.239 64.4131 175.46 62.8275 176.527C59.6925 178.638 56.1402 180.159 52.4178 180.846C45.3366 182.154 37.7611 180.142 32.479 175.183C26.7835 169.836 25.1663 161.87 26.2231 154.353C27.4559 145.585 32.0236 137.81 35.991 130.055C40.1049 122.013 43.7104 113.655 45.875 104.862C46.0236 106.234 46.1631 107.61 46.3928 108.972C46.4485 109.301 46.4431 110.392 46.966 110.273C47.3485 110.185 47.5972 108.981 47.688 108.651C48.4084 106.032 48.1906 103.057 47.1763 100.543C47.0457 100.219 46.9533 100.012 46.9622 99.669C46.9701 99.3583 47.0701 99.0313 47.1193 98.7228C47.2346 97.999 47.3391 97.2736 47.431 96.5465C47.6065 95.1568 47.7343 93.7613 47.81 92.3626C47.9623 89.5508 47.908 86.7274 47.6336 83.9246C47.3572 81.1001 46.8588 78.2958 46.1186 75.5556C45.7782 74.2956 45.3747 73.0819 44.8862 71.8729C44.4635 70.8269 43.9434 69.5086 44.4352 68.3969C44.8789 67.3942 46.1386 66.8826 47.158 67.2652C47.985 67.5758 48.5894 68.3309 49.0534 69.0491C50.3406 71.0415 51.0262 73.4312 51.6826 75.6882C52.9288 79.9728 53.744 84.2969 53.9833 88.7592C54.2532 93.7921 53.903 98.8448 53.1658 103.826C51.4899 115.15 47.7536 126.013 44.585 136.973C43.2457 141.607 41.6827 146.374 41.2812 151.207C41.1262 153.073 41.1064 155.114 41.8394 156.873C42.638 158.788 44.3827 159.613 46.4047 159.457C47.6722 159.359 48.8637 158.827 49.8664 158.059C48.7373 160.282 47.1997 162.403 44.9399 163.576C42.8458 164.663 40.2938 164.792 38.0805 163.989C35.6059 163.092 33.9725 160.98 33.0598 158.576C32.2569 156.461 31.9447 153.323 34.111 151.872C34.9973 151.278 36.1526 151.158 37.0312 151.824C37.8836 152.47 38.3207 153.601 37.9907 154.635C37.6831 155.6 36.8363 156.392 35.864 156.659C35.5777 156.738 34.8878 156.846 35.3668 157.239C35.7277 157.536 36.8331 157.163 37.1904 157.016C39.5276 156.056 40.3096 153.219 38.9494 151.132C37.5771 149.026 34.8658 148.63 32.7534 149.846C28.1889 152.473 29.3967 158.978 31.8381 162.636C34.6351 166.827 40.1633 168.453 44.8613 166.715C49.9568 164.83 52.4738 159.468 53.8335 154.578C54.6113 151.782 55.1346 148.939 55.3558 146.043C55.4674 144.583 55.5059 143.117 55.4705 141.653C55.4354 140.204 55.1662 138.732 55.1895 137.291C55.3674 126.26 55.7334 114.823 60.2444 104.579C60.8068 103.301 61.4145 102.045 62.0606 100.808C61.5582 104.026 64.9937 106.039 67.5212 107.019C64.7301 107.613 60.2698 109.299 61.2767 113.044C61.7009 114.621 63.3204 115.461 64.8684 115.466C66.7746 115.472 68.5833 114.43 70.0749 113.333C69.8128 115.836 70.4503 119.794 73.7068 119.883C76.953 119.971 77.8252 116.126 77.4719 113.618C79.4391 114.964 82.5733 116.089 84.4532 113.953C85.0476 116.331 87.4428 118.029 89.887 117.738C89.8031 118.159 89.9632 118.385 90.0405 118.774C90.1234 119.19 90.11 118.82 90.0478 119.134C90.0165 119.292 89.9235 119.424 89.9063 119.593C89.8313 120.335 90.4868 120.941 91.0036 121.377C91.2465 121.582 91.5072 121.762 91.7757 121.931C91.7908 121.941 92.1688 122.131 92.1865 122.179C92.2197 122.268 91.979 122.781 91.9503 122.892C91.8683 123.213 91.8151 123.541 91.7931 123.87C91.7743 124.152 91.8436 124.253 91.6509 124.392C91.4898 124.508 91.1165 124.516 90.9177 124.575C90.3712 124.739 89.7544 124.951 89.2878 125.294C89.0499 125.469 88.8549 125.69 88.7639 125.975C88.7182 126.118 88.6994 126.259 88.7084 126.41C88.7255 126.697 88.771 126.655 88.6236 126.898C88.3002 127.43 87.9459 127.802 88.1699 128.488C88.379 129.128 89.0239 129.524 89.6863 129.483C89.7122 129.482 90.04 129.392 90.0834 129.408C90.1682 129.438 90.3048 129.66 90.3964 129.724C90.6197 129.882 90.8741 129.952 91.1461 129.945C91.8315 129.925 92.5504 129.446 93.081 129.047C93.2306 128.935 93.3738 128.814 93.5163 128.693C93.8084 128.444 93.6682 128.494 93.9935 128.602C94.2882 128.7 94.5668 128.988 94.8572 129.128C95.019 129.205 95.2543 129.248 95.3999 129.348C95.7322 129.576 95.6482 129.258 95.6983 129.731C95.7393 130.118 95.6413 130.546 95.6588 130.94C95.6826 131.476 95.7144 132.142 96.029 132.596C96.1727 132.803 96.3581 132.96 96.5946 133.05C96.6753 133.08 96.8367 133.08 96.9141 133.121C97.0765 133.075 97.157 133.14 97.1554 133.319C97.194 133.412 97.2432 133.498 97.303 133.578C97.6413 134.07 98.2345 134.334 98.8244 134.207C99.1122 134.144 99.3708 133.999 99.5727 133.784C99.8643 133.474 99.7893 133.116 99.987 132.808C100.118 132.605 100.46 132.506 100.642 132.26C100.816 132.023 100.881 131.73 100.891 131.441C100.922 130.562 100.508 129.858 100.301 129.043C100.769 130.887 100.191 128.78 100.189 128.787C100.23 128.657 100.724 128.393 100.845 128.285C101.014 128.135 101.521 127.365 101.704 127.311C101.908 127.25 102.648 127.717 102.908 127.799C103.269 127.914 103.639 128.001 104.014 128.056C103.341 128.997 103.191 130.277 103.688 131.33C103.842 131.658 104.217 132.325 104.64 132.331C105.307 132.34 105.007 131.722 104.876 131.387C104.014 129.177 106.979 127.723 108.332 129.57C109.023 130.513 108.884 131.628 108.553 132.679C108.358 133.294 108.108 133.893 107.838 134.479C107.724 134.724 107.633 135.03 107.473 135.246C107.221 135.586 106.858 135.651 106.442 135.797C103.785 136.725 101.043 137.539 98.2664 138.016C93.538 138.83 88.7529 139.245 83.9588 138.831C82.0073 138.662 80.0611 138.425 78.1378 138.048C76.587 137.744 75.051 137.366 73.5347 136.921C72.7692 136.696 72.0089 136.454 71.2542 136.195C70.8971 136.073 70.5448 135.933 70.1858 135.817C70.1489 135.805 69.8707 135.669 69.7658 135.714C69.6012 135.786 69.5232 136.014 69.7006 136.138ZM73.9294 126.663C74.665 128.849 76.8395 130.286 78.9506 130.935C80.1502 131.305 81.4362 131.46 82.6862 131.314C82.8748 131.292 84.2188 131.168 84.0987 130.815C84.0615 130.706 83.8024 130.662 83.7221 130.626C82.5705 130.123 81.3483 129.768 80.1873 129.281C78.9892 128.779 77.8339 128.191 76.6678 127.621C76.1915 127.388 75.7155 127.153 75.2348 126.929C75.1045 126.868 73.7693 126.186 73.9294 126.663ZM41.8676 130.992C40.9036 132.442 40.4865 134.292 40.6412 136.018C40.6784 136.433 40.7813 138.07 41.4058 137.994C41.8796 137.937 42.1284 136.216 42.245 135.833C42.7462 134.187 43.3518 132.568 43.7983 130.905C43.9045 130.51 44.4296 129.176 43.5917 129.339C42.9355 129.468 42.2165 130.485 41.8676 130.992ZM36.2303 138.985C36.28 139.282 36.5511 139.164 36.6905 139.037C36.888 138.856 37.0027 138.238 37.0969 137.984C37.3199 137.382 37.5295 136.776 37.746 136.172C38.1704 134.989 38.5946 133.806 39.044 132.632C39.5247 131.377 40.0293 130.13 40.5352 128.885C40.7757 128.293 41.0206 127.702 41.254 127.107C41.3516 126.858 41.9261 125.766 41.7067 125.556C41.2361 125.105 39.5903 127.327 39.3153 127.699C38.5305 128.758 37.8847 129.921 37.383 131.139C36.3813 133.572 35.8127 136.361 36.2303 138.985ZM60.2735 125.196C60.673 126.576 62.5074 126.199 63.4698 125.785C63.1598 126.68 63.0451 128.171 64.2108 128.52C65.4176 128.881 66.099 127.493 66.1839 126.528C66.8382 127.241 68.2281 128.061 68.9982 127.009C69.7522 125.979 68.7278 124.835 67.8792 124.315C68.9372 124.247 70.9019 123.695 70.4722 122.223C70.0198 120.675 68.0431 121.348 67.0878 121.87C67.5655 120.979 67.8688 119.367 66.6001 118.944C65.4254 118.552 64.7094 119.88 64.5089 120.814C63.9321 120.004 62.5578 119.125 61.7386 120.173C60.8553 121.304 62.1946 122.63 63.0712 123.228C61.9887 123.207 59.8049 123.578 60.2735 125.196ZM48.6548 170.841C50.6755 171.42 52.9997 170.85 54.7533 169.768C55.5676 169.265 56.3172 168.604 56.8594 167.811C57.0053 167.597 57.5175 166.945 57.2552 166.692C57.0065 166.452 56.3243 166.874 56.0978 166.963C54.6464 167.531 53.249 168.233 51.8294 168.875C51.4688 169.038 51.1082 169.201 50.7478 169.364C50.2781 169.577 49.8063 169.786 49.3412 170.008C49.2953 170.03 47.9188 170.63 48.6548 170.841ZM60.5214 170.805C60.3233 170.467 59.0374 171.404 58.7812 171.546C58.1618 171.887 57.5357 172.215 56.896 172.518C55.6356 173.113 54.3336 173.628 52.992 174.01C51.5807 174.412 50.1243 174.672 48.6624 174.796C47.9385 174.857 47.2126 174.851 46.4888 174.899C45.6277 174.957 46.2022 175.372 46.6883 175.576C49.2151 176.634 52.1751 176.525 54.7364 175.652C55.9904 175.224 57.1756 174.594 58.2089 173.763C58.7113 173.358 59.18 172.91 59.5926 172.414C59.8001 172.164 60.7239 171.151 60.5214 170.805ZM71.2582 139.183C71.4134 140.618 71.1857 142.155 70.7539 143.525C70.3811 144.707 69.6566 146.327 68.3039 146.642C67.2021 146.898 67.2524 145.508 67.3047 144.78C67.3919 143.568 67.6621 142.45 67.4995 141.225C67.2581 142.434 66.7197 143.538 66.2554 144.669C66.0387 145.198 65.7712 146.152 65.0415 146.098C63.9889 146.021 64.2341 144.52 64.3031 143.839C64.4454 142.433 64.6074 141.029 64.7893 139.627C64.0973 140.923 63.4731 142.293 62.6941 143.537C62.3084 144.153 61.5198 144.623 61.2272 143.702C61.0332 143.091 61.1135 142.378 61.1563 141.75C61.2463 140.423 61.552 139.137 62.1762 137.957C61.1286 139.938 59.4459 141.536 58.6894 143.685C58.3556 144.633 58.2402 145.728 58.7955 146.621C59.5177 147.782 61.1611 147.941 62.0864 146.935C61.821 147.891 62.2231 149.045 63.1499 149.478C64.118 149.929 65.2714 149.438 65.8684 148.613C65.8539 151.396 69.0303 150.687 70.4393 149.404C73.3276 146.774 72.2116 142.407 71.2582 139.183ZM206.703 83.7319C209.334 80.5334 212.592 77.8058 216.327 75.9871C214.031 76.0641 211.601 75.972 209.427 76.8103C208.154 77.3013 206.965 78.2173 206.321 79.4398C206.016 80.0184 205.813 80.7406 205.961 81.3862C206.142 82.1752 206.495 82.9447 206.703 83.7319ZM125.287 105.693C124.398 108.073 126.556 110.822 129.115 109.976C131.153 109.302 131.9 106.621 131.237 104.75C129.404 105.691 127.321 106.038 125.287 105.693ZM123.34 86.6653C124.343 86.258 125.413 86.0213 126.493 85.9551C126.023 84.0122 124.011 82.8882 122.133 83.6022C120.199 84.3379 119.459 86.6401 120.526 88.4077C121.36 87.6778 122.312 87.0827 123.34 86.6653ZM130.975 86.7175C132.599 87.4034 134.028 88.521 135.064 89.95C136.1 88.38 135.967 85.8539 134.157 84.8988C132.572 84.0629 130.121 84.6804 129.08 86.129C129.729 86.262 130.365 86.4597 130.975 86.7175ZM136.231 92.0762C136.945 93.9273 137.059 95.9729 136.59 97.8982C137.212 97.9813 137.731 98.2638 138.371 98.2025C138.944 98.1476 139.507 97.9477 139.983 97.6221C140.941 96.9666 141.393 95.8372 141.267 94.6971C141.145 93.5936 140.508 92.6166 139.504 92.128C138.975 91.8709 138.38 91.7439 137.793 91.735C137.62 91.7323 136.158 91.8885 136.231 92.0762ZM115.72 102.77C115.685 106.681 121.035 108.335 123.209 105.095C120.61 103.996 118.582 101.795 117.669 99.1279C116.413 99.8432 115.733 101.363 115.72 102.77ZM117.904 92.0266C118.172 91.3927 118.507 90.7879 118.898 90.2219C116.898 89.4792 114.707 90.614 114.254 92.7065C113.839 94.6224 115.116 96.7055 117.164 96.8244C117.011 95.1942 117.267 93.5351 117.904 92.0266ZM108.819 126.944C108.248 126.681 107.617 126.553 106.989 126.571C107.26 126.203 107.337 125.733 107.2 125.299C107.132 125.085 107.016 124.887 106.862 124.723C106.696 124.546 106.312 124.461 106.194 124.3C106.134 124.219 106.16 123.937 106.117 123.822C106.051 123.645 105.944 123.496 105.807 123.368C105.457 123.04 104.945 122.953 104.486 122.887C103.967 122.813 103.451 122.823 102.929 122.866C102.662 122.888 102.604 122.952 102.473 122.792C102.32 122.606 102.258 122.146 102.146 121.909C102.031 121.665 101.839 121.434 101.74 121.189C101.613 120.876 101.719 120.885 101.957 120.61C102.298 120.217 102.602 119.791 102.857 119.337C103.043 119.007 103.24 118.647 103.26 118.261C103.269 118.08 103.243 117.892 103.173 117.724C103.088 117.519 102.773 117.345 102.716 117.175C102.666 117.025 102.818 116.683 102.798 116.487C102.775 116.264 102.71 116.045 102.593 115.851C102.357 115.457 101.931 115.193 101.472 115.159C100.999 115.124 100.694 115.345 100.319 115.58C100.253 115.622 100.183 115.786 100.116 115.806C100.074 115.819 99.8372 115.738 99.7632 115.734C99.5293 115.721 99.2975 115.776 99.0938 115.892C98.2854 116.354 97.9524 117.595 97.751 118.433C97.736 118.496 97.7133 118.767 97.6674 118.804C97.6142 118.847 97.0898 118.788 96.9784 118.794C96.6132 118.81 96.2528 118.863 95.8983 118.952C95.4395 119.067 95.4774 118.989 95.2345 118.597C95.0706 118.334 94.8916 118.078 94.6977 117.835C94.3989 117.461 94.0388 117.019 93.6054 116.796C93.3894 116.685 93.1505 116.63 92.9086 116.653C92.5478 116.688 92.3813 116.964 92.0727 116.79C92.9571 116.03 93.578 114.901 93.5222 113.712C93.5071 113.391 93.416 112.362 92.8721 112.623C92.7119 112.699 92.5827 113.087 92.5063 113.207C92.3427 113.465 92.1535 113.709 91.9403 113.927C91.2321 114.654 90.1481 115.246 89.1075 115.02C88.0201 114.783 87.1602 113.736 87.2807 112.614C87.5332 110.259 90.1449 109.26 92.141 108.918C94.8038 108.463 97.5922 108.419 100.287 108.31C110.115 107.915 121.73 109.499 127.778 118.275C130.956 122.887 131.284 128.52 130.475 133.91C129.634 139.513 127.873 145.001 126.229 150.41C124.576 155.851 122.784 161.25 120.856 166.6C120.39 167.893 119.916 169.184 119.435 170.471C119.143 171.25 118.256 172.718 119.419 173.231C119.943 173.463 120.687 173.313 121.251 173.325C121.954 173.34 122.656 173.374 123.357 173.42C124.774 173.513 126.187 173.655 127.601 173.778C133.103 174.259 138.634 173.659 144.125 174.303C146.717 174.607 149.39 175.07 151.829 176.023C154.289 176.983 156.163 178.714 157.4 181.048C157.893 181.978 158.566 183.359 158.259 184.433C157.548 182.805 156.442 181.356 155.069 180.23C154.4 179.681 153.667 179.209 152.889 178.831C152.51 178.646 150.987 177.815 150.618 178.159C150.133 178.611 151.966 179.31 152.278 179.515C153.015 180.001 153.687 180.587 154.271 181.249C155.402 182.531 156.067 183.995 156.494 185.634C154.142 185.85 152.696 183.599 151.025 182.382C150.728 182.165 148.715 180.716 148.64 181.565C148.612 181.89 149.597 182.381 149.815 182.553C150.267 182.909 150.691 183.301 151.081 183.725C151.033 183.692 150.984 183.659 150.935 183.626C151.317 184.272 151.335 184.728 151.214 185.461C151.117 186.047 150.954 186.626 150.698 187.163C150.262 188.075 149.23 189.357 148.06 188.979C146.934 188.616 146.762 186.984 146.49 186.024C146.146 184.81 145.566 183.74 144.555 182.958C141.753 180.792 137.737 181.159 134.368 181.067C130.372 180.959 126.376 180.85 122.38 180.742C118.357 180.633 114.331 180.556 110.309 180.41C107.711 180.315 104.821 180.073 102.546 178.695C100.416 177.405 99.5934 175.252 99.5941 172.838C99.5948 170.048 100.298 167.207 100.865 164.488C101.452 161.669 102.124 158.864 102.874 156.083C104.207 151.138 105.822 146.266 107.729 141.512C108.436 139.749 109.284 138.074 110.1 136.358C111.141 134.168 112.174 131.518 111.036 129.164C110.57 128.201 109.79 127.4 108.819 126.944ZM106.562 162.459C106.638 161.937 106.102 162.433 106.042 162.501C105.853 162.717 105.703 162.985 105.553 163.229C105.248 163.729 104.985 164.252 104.756 164.791C104.249 165.985 103.924 167.251 103.766 168.538C103.53 170.468 103.373 173.975 105.486 175.024C105.803 175.181 106.597 175.42 106.425 174.829C106.392 174.716 106.151 174.531 106.079 174.409C105.963 174.213 105.898 174.002 105.847 173.782C105.577 172.614 105.731 171.313 105.745 170.125C105.778 167.537 106.183 165.012 106.562 162.459ZM110.754 162.111C110.804 161.469 110.122 161.922 109.955 162.103C109.612 162.477 109.324 162.896 109.08 163.34C108.596 164.216 108.285 165.186 108.134 166.174C107.953 167.353 107.997 168.58 108.321 169.731C108.443 170.161 109.068 172.198 109.647 171.251C109.853 170.913 109.816 170.047 109.857 169.662C109.888 169.375 109.917 169.087 109.947 168.8C110.002 168.279 110.059 167.757 110.115 167.236C110.298 165.525 110.612 163.826 110.754 162.111ZM122.259 120.52C122.936 122.918 123.738 125.273 124.086 127.751C124.259 128.978 124.341 130.218 124.346 131.457C124.347 131.839 124.138 132.886 124.342 133.183C124.709 133.715 125.045 132.782 125.186 132.477C126.2 130.292 126.329 127.705 125.779 125.379C125.509 124.241 125.058 123.144 124.412 122.167C124.106 121.704 123.761 121.266 123.365 120.876C123.239 120.752 122.053 119.791 122.259 120.52ZM120.176 144.406C119.864 142.056 119.003 139.769 117.64 137.826C117.328 137.382 116.99 136.955 116.626 136.551C116.306 136.196 115.722 135.931 115.949 136.641C116.134 137.22 116.508 137.787 116.739 138.356C117.004 139.012 117.235 139.681 117.427 140.362C118.109 142.777 118.437 145.546 117.742 147.996C117.126 150.17 115.454 152.341 113.014 152.407C110.861 152.465 108.665 150.241 109.946 148.082C110.46 147.213 111.557 146.778 112.537 146.886C112.992 146.937 113.326 147.265 113.731 147.34C114.514 147.486 113.897 146.703 113.624 146.484C111.673 144.92 108.75 146.128 107.956 148.327C107.106 150.683 108.408 153.29 110.616 154.311C113.301 155.553 116.378 154.542 118.227 152.356C120.067 150.181 120.581 147.17 120.176 144.406ZM109.615 119.674C109.895 119.585 110.166 119.467 110.428 119.336C110.171 120.247 110.145 121.743 111.329 122.022C112.555 122.311 113.153 120.886 113.181 119.917C113.877 120.591 115.312 121.327 116.019 120.232C116.711 119.159 115.621 118.077 114.743 117.609C115.795 117.478 117.724 116.811 117.208 115.367C116.665 113.848 114.732 114.637 113.809 115.215C114.233 114.297 114.441 112.67 113.149 112.322C111.954 112 111.316 113.368 111.172 114.312C110.548 113.537 109.125 112.741 108.369 113.836C107.554 115.017 108.969 116.262 109.879 116.806C108.831 116.848 107.347 117.083 107.155 118.363C106.945 119.767 108.644 119.98 109.615 119.674ZM119.833 92.8413C117.489 98.3909 122.411 104.931 128.471 103.553C131.436 102.878 133.783 100.433 134.528 97.5091C134.734 96.7005 134.814 95.8601 134.757 95.0273C134.721 94.5122 134.562 94.4483 134.232 94.0731C133.919 93.7167 133.602 93.3754 133.238 93.069C132.003 92.0284 130.399 91.3588 128.765 91.4679C127.299 91.566 125.811 92.2779 124.977 93.517C124.044 94.9029 124.022 96.8567 125.212 98.0989C126.263 99.1964 128.037 99.403 129.19 98.3205C129.731 97.8127 130.031 97.0001 129.715 96.2881C129.586 95.9976 129.365 95.7327 129.041 95.6616C128.578 95.56 128.41 95.8295 128.147 96.118C127.721 96.5848 127.025 96.7271 126.546 96.2302C125.979 95.6425 126.349 94.86 126.84 94.3673C128.066 93.135 130.14 93.37 131.184 94.6996C133.512 97.6662 130.277 101.293 127.062 101.135C123.141 100.942 121.229 96.4887 122.769 93.1804C124.442 89.5862 128.972 88.5512 132.401 90.0902C128.454 86.4559 121.906 87.9303 119.833 92.8413ZM136.354 107.137C135.406 107.274 134.425 107.111 133.557 106.711C133.345 109.346 131.5 111.9 128.742 112.185C126.063 112.462 123.667 110.633 123.107 108.02C122.202 108.58 121.153 108.9 120.09 108.945C124.535 111.053 128.744 114.434 130.967 118.911C132.024 114.402 134.423 110.04 137.67 106.732C137.255 106.929 136.81 107.071 136.354 107.137ZM133.04 103.563C134.04 105.243 136.424 105.633 137.741 104.108C138.35 103.403 138.579 102.463 138.23 101.581C138.056 101.14 137.76 100.741 137.387 100.447C136.95 100.103 136.388 100.112 135.912 99.8313C135.269 101.271 134.255 102.564 133.04 103.563ZM75.0127 102.137C73.184 101.452 71.01 102.108 70.2285 103.986C69.5343 105.653 70.3328 107.561 72.1236 108.047C72.8629 108.248 74.2076 108.203 74.6295 107.412C74.8 107.093 74.722 106.686 74.449 106.449C74.0441 106.098 73.7208 106.341 73.3185 106.498C72.5692 106.79 71.6661 106.269 71.5501 105.476C71.4214 104.595 72.0612 103.762 72.8822 103.514C74.591 102.999 76.387 104.581 76.6275 106.212C76.8943 108.022 75.8114 109.808 74.1904 110.579C73.4318 110.939 72.5695 111.096 71.7337 110.997C71.1153 110.924 69.7419 110.45 69.8942 111.659C70.0087 112.57 71.5312 112.591 72.2077 112.591C73.2002 112.592 74.1923 112.344 75.0727 111.887C78.944 109.877 79.48 103.811 75.0127 102.137ZM148.746 122.39C149.506 120.819 148.891 118.863 147.367 118.01C145.6 117.021 143.303 117.865 142.593 119.757C141.978 121.393 142.769 123.281 144.365 123.992C145.995 124.719 147.969 123.999 148.746 122.39ZM100.243 125.683C100.911 124.27 100.519 122.541 99.2789 121.579C97.8207 120.448 95.6528 120.738 94.5459 122.213C93.4032 123.735 93.7903 125.979 95.3824 127.024C97.0522 128.121 99.3741 127.48 100.243 125.683Z"/>
</mask>
<path d="M153.541 75.7054C156.247 75.8144 158.924 76.5853 161.282 77.9175C162.426 78.5642 163.496 79.3443 164.454 80.2444C164.698 80.4735 164.992 80.7128 165.191 80.9849C165.332 81.1789 165.374 81.1554 165.391 81.3829C165.407 81.5928 165.275 81.8712 165.228 82.0837C165.045 82.9102 164.891 83.7435 164.773 84.5819C161.81 80.7872 158.028 77.5416 153.541 75.7054ZM166.084 78.9117C165.603 78.4467 165.095 78.0084 164.565 77.5998C164.261 77.3652 164.038 77.2844 163.961 76.9346C163.897 76.6494 163.974 76.2497 163.988 75.9583C164.047 74.7745 164.198 73.5954 164.436 72.4344C164.909 70.1382 165.725 67.914 166.842 65.8533C169.023 61.8293 172.369 58.4149 176.469 56.3462C186.118 51.4777 197.743 55.612 203.784 64.1617C205.33 66.3508 206.499 68.8082 207.185 71.4011C207.35 72.0274 207.488 72.6613 207.596 73.3001C207.65 73.6199 207.696 73.941 207.736 74.2631C207.759 74.457 207.923 75.0633 207.832 75.2331C207.728 75.4279 207.074 75.67 206.875 75.8092C206.622 75.9861 206.377 76.1773 206.145 76.3813C205.553 76.9011 205.029 77.5043 204.625 78.1822C203.707 76.2131 202.707 74.262 201.626 72.377C200.748 70.847 199.724 69.3327 198.305 68.2532C195.225 65.9099 191.101 66.8186 188.451 69.3829C187.146 70.6455 185.949 72.1334 184.982 73.6661C183.4 71.774 181.834 70.0497 179.579 68.944C177.659 68.0021 175.598 67.6536 173.564 68.4525C169.304 70.1253 167.369 74.881 166.084 78.9117ZM190.299 63.0778C188.401 61.5421 185.623 61.2263 183.301 61.7536C182.179 62.0083 181.077 62.4749 180.16 63.1781C179.936 63.3503 179.025 63.9571 179.347 64.2889C179.566 64.515 180.631 64.1773 180.913 64.134C183.107 63.7964 185.302 63.5366 187.525 63.5036C188.086 63.4952 188.647 63.4909 189.208 63.4846C189.268 63.4837 190.851 63.5213 190.299 63.0778ZM176.418 59.736C176.538 60.067 179.079 59.0885 179.498 58.9786C180.631 58.6815 181.788 58.4644 182.953 58.3365C185.285 58.0804 187.647 58.1984 189.955 58.606C190.529 58.7074 191.099 58.8241 191.669 58.9477C192.14 59.0501 192.559 58.9979 192.083 58.5167C191.382 57.8068 190.329 57.3095 189.413 56.9485C187.213 56.0812 184.764 55.9104 182.449 56.3624C181.21 56.6041 180.01 57.026 178.904 57.6353C178.416 57.9045 177.946 58.2095 177.507 58.5539C177.299 58.7167 176.298 59.4028 176.418 59.736ZM164.54 86.8879C161.444 82.7728 157.796 79.1448 152.953 77.1609C155.353 80.3418 156.083 84.2737 157.538 87.8983C158.788 91.0133 161.35 94.7531 165.171 94.5491C164.565 92.0439 164.379 89.4578 164.54 86.8879ZM175.153 96.8154C176.643 99.0406 179.661 98.5999 181.857 97.9314C184.526 97.119 186.888 95.8337 189.746 96.6353C190.997 96.9862 192.177 97.5536 193.497 97.5819C193.836 97.5892 194.179 97.5771 194.511 97.5056C194.939 97.4137 195.152 97.3515 195.34 96.9812C195.628 96.4103 195.635 95.5066 195.627 94.8814C195.597 92.5228 194.337 90.3722 192.352 89.1285C192.23 89.7206 191.601 90 191.141 90.301C190.674 90.6065 190.217 90.9515 189.73 91.2241C188.98 91.6438 187.992 91.282 188.032 90.3109C188.073 89.3231 188.971 88.3583 189.855 88.0399C187.018 87.2259 183.869 87.3742 181.057 88.2167C181.972 88.588 183.091 89.4962 182.922 90.6216C182.789 91.5013 181.847 91.6984 181.163 91.3548C180.626 91.0851 180.115 90.7469 179.595 90.4458C179.167 90.1976 178.5 89.9425 178.265 89.475C177.072 90.2332 176.012 91.2606 175.433 92.5666C175.137 93.2322 174.969 93.9485 174.92 94.6746C174.879 95.2633 174.813 96.3157 175.153 96.8154ZM194.66 98.6436C193.157 99.4462 191.503 98.9609 189.987 98.4732C188.291 97.9276 186.834 97.8113 185.107 98.3337C182.205 99.212 178.914 101.328 176.082 99.0387C180.079 105.184 191.088 105.247 194.66 98.6436ZM63.0352 99.0196C69.9258 86.848 81.183 76.929 94.7185 72.955C96.7634 72.3546 98.8403 71.8678 100.933 71.468C101.463 71.3668 101.994 71.2712 102.525 71.1807C102.894 71.118 103.666 70.874 103.882 71.0627C103.947 71.1188 103.997 71.448 104.04 71.5373C104.142 71.751 104.282 71.941 104.443 72.113C104.745 72.434 105.13 72.675 105.553 72.8024C102.732 73.7633 104.856 76.7511 106.633 77.5406C110.054 79.0603 113.541 76.7299 116.228 74.808C114.918 75.4267 113.385 75.7152 111.944 75.7534C110.715 75.7859 108.859 75.6276 108.175 74.4023C107.639 73.4425 109.047 73.06 109.721 72.8851C110.872 72.5866 111.989 72.4677 113.068 71.9252C111.931 72.0812 110.794 71.9631 109.657 71.8906C109.121 71.8564 108.371 71.9415 107.921 71.587C107.701 71.4134 107.606 71.1616 107.652 70.8809C107.757 70.2353 108.476 70.3603 108.991 70.3061C110.153 70.1837 111.316 70.0774 112.481 69.9828C117.314 69.5901 122.167 69.3383 127.016 69.2609C126.724 70.4105 127.618 71.4899 128.69 71.8034C125.878 72.7885 128.027 75.7579 129.811 76.5321C133.245 78.0225 136.712 75.6622 139.382 73.7172C138.077 74.347 136.547 74.6489 135.107 74.6993C133.878 74.7424 132.02 74.5998 131.326 73.3804C130.782 72.4253 132.186 72.0307 132.858 71.8501C134.007 71.5416 135.122 71.4132 136.197 70.8615C134.94 71.045 133.677 70.8955 132.417 70.8415C131.776 70.814 130.518 70.7544 130.797 69.7701C130.998 69.0562 131.735 69.2512 132.324 69.2602C133.12 69.2726 133.917 69.2908 134.713 69.3153C136.227 69.3617 137.741 69.4305 139.253 69.5235C144.824 69.8664 150.377 70.5393 155.85 71.6343C157.301 71.9245 158.746 72.2442 160.183 72.5946C160.539 72.6813 160.894 72.7698 161.248 72.8601C161.568 72.9418 162.089 72.9844 162.167 73.2423C162.253 73.5273 162.036 74.1803 162.004 74.486C161.955 74.9497 161.919 75.4149 161.896 75.8804C159.72 74.7236 157.322 73.9814 154.872 73.7137C153.669 73.5824 152.453 73.5646 151.248 73.6712C150.402 73.7459 148.635 73.7158 148.13 74.5329C147.483 75.5808 148.738 76.0709 149.408 76.5499C150.162 77.0891 150.806 77.7691 151.356 78.5125C152.741 80.3847 153.523 82.6021 154.242 84.7928C155.662 89.1142 157.279 93.8661 161.728 95.9277C162.714 96.3849 163.795 96.6576 164.886 96.6534C165.056 96.6527 165.496 96.5425 165.651 96.6044C165.858 96.6866 165.92 97.0458 166.016 97.3007C166.249 97.9201 166.51 98.5294 166.798 99.1253C167.803 101.205 169.145 103.13 170.818 104.728C174.61 108.349 179.708 110.372 184.944 110.398C180.827 118.956 175.28 126.767 168.478 133.401C166.503 135.327 164.431 137.154 162.28 138.882C162.9 136.732 163.629 134.613 164.439 132.527C164.586 132.148 165.719 129.914 165.18 129.819C164.738 129.742 163.704 131.808 163.509 132.132C161.299 135.797 159.692 139.822 158.611 143.957C157.425 148.493 156.79 153.346 156.891 158.046C156.974 161.941 157.324 165.796 158.2 169.602C156.247 169.596 154.642 169.071 153.612 167.325C152.821 165.984 152.45 164.422 152.173 162.903C151.563 159.562 151.197 156.191 151.242 152.79C151.357 144.069 154.184 135.744 157.772 127.889C157.891 127.63 158.281 127.046 157.768 126.933C157.453 126.863 157.163 127.447 157.013 127.642C156.399 128.442 155.814 129.264 155.257 130.105C154.186 131.725 153.223 133.418 152.379 135.167C150.576 138.904 149.312 142.895 148.691 146.999C148.047 151.256 147.979 155.631 148.533 159.902C148.889 162.643 149.281 165.591 150.503 168.093C151.49 170.114 153.123 171.718 155.334 172.302C157.581 172.896 159.859 172.381 162.135 172.428C164.314 172.473 166.494 173.432 168.238 174.701C169.055 175.296 169.926 176.041 170.372 176.97C170.54 177.319 170.754 177.912 170.505 178.282C170.355 178.506 169.332 178.82 169.29 178.777C169.028 178.537 169.087 177.967 168.924 177.6C168.747 177.202 168.479 176.853 168.172 176.548C167.528 175.908 166.505 175.205 165.595 175.034C165.318 174.982 164.932 175.054 165.128 175.451C165.258 175.716 165.868 175.905 166.105 176.07C166.781 176.541 167.731 177.325 167.79 178.223C167.843 179.022 167.147 178.967 166.562 178.953C166.119 178.943 165.679 178.899 165.251 178.778C165.128 178.743 164.799 178.69 164.706 178.6C164.552 178.453 164.499 177.91 164.344 177.694C163.792 176.925 162.803 176.691 161.928 176.517C161.669 176.465 160.722 176.141 160.8 176.706C160.847 177.054 161.948 177.249 162.232 177.373C162.763 177.604 164.024 178.312 163.393 179.047C162.834 179.699 161.556 179.146 160.96 178.908C160.161 178.59 159.277 178.36 158.437 178.685C158.364 178.718 158.292 178.75 158.219 178.783C158.055 178.975 157.939 178.949 157.872 178.706C157.712 178.586 157.565 178.276 157.441 178.115C157.092 177.662 156.716 177.229 156.311 176.826C153.299 173.829 148.54 173.001 144.493 172.468C143.286 172.309 142.071 172.205 140.856 172.139C140.216 172.104 139.575 172.081 138.934 172.066C138.568 172.058 137.503 172.202 137.273 171.982C136.955 171.678 136.782 170.793 136.624 170.395C136.379 169.777 136.141 169.156 135.911 168.532C135.452 167.291 135.023 166.039 134.624 164.777C135.684 164.828 136.596 164.098 136.77 163.051C137.081 164.027 138.11 164.794 139.154 164.583C140.158 164.38 140.808 163.366 140.854 162.387C141.554 163.47 142.663 163.704 143.669 162.877C144.671 162.054 145.224 160.739 145.262 159.462C145.364 156.039 142.592 153.571 140.209 151.544C141.111 152.645 141.752 154.03 142.143 155.39C142.488 156.592 142.791 158.371 141.828 159.392C141.045 160.223 140.328 159.053 139.968 158.405C139.375 157.34 138.987 156.248 138.179 155.31C138.637 156.45 138.788 157.662 139.018 158.859C139.121 159.391 139.407 160.268 138.885 160.674C137.975 161.381 137.246 159.85 136.933 159.246C136.283 157.991 135.651 156.727 135.037 155.454C135.146 156.693 135.255 157.932 135.364 159.171C135.41 159.684 135.595 161.216 134.65 161.034C134.129 160.934 133.719 160.168 133.47 159.763C133.035 159.054 132.868 158.354 132.691 157.539C131.638 152.695 131.034 147.748 130.976 142.789C131.946 143.833 133.669 143.635 134.336 142.354C134.328 143.379 135.07 144.426 136.127 144.549C137.145 144.666 138.077 143.904 138.424 142.988C139.184 145.86 142.303 143.968 143.219 142.253C144.985 138.945 142.9 135.294 141.168 132.477C141.693 133.825 141.874 135.371 141.813 136.808C141.76 138.039 141.476 139.87 140.211 140.479C139.239 140.946 138.944 139.594 138.811 138.912C138.579 137.719 138.549 136.569 138.072 135.429C138.154 136.655 137.922 137.855 137.771 139.064C137.702 139.619 137.696 140.59 137.019 140.763C135.95 141.035 135.778 139.455 135.668 138.786C135.439 137.392 135.229 135.994 135.039 134.594C134.78 135.716 134.521 136.838 134.262 137.96C134.14 138.489 133.984 139.953 133.154 139.86C132.638 139.803 132.428 138.979 132.311 138.578C132.238 138.324 132.133 138.027 132.119 137.761C132.091 137.25 132.314 136.656 132.414 136.146C132.873 133.809 133.194 131.427 133.203 129.042C133.207 127.907 133.151 126.771 133.01 125.645C132.936 125.055 132.84 124.469 132.717 123.887C132.664 123.635 132.536 123.338 132.529 123.082C132.521 122.79 132.648 122.437 132.707 122.15C133.629 117.651 135.561 113.445 138.283 109.749C139.456 108.155 140.97 106.184 142.866 105.409C143.632 105.097 144.668 105.226 144.87 106.165C144.96 106.58 144.825 106.999 144.534 107.303C144.229 107.622 143.784 107.563 143.493 107.799C142.929 108.256 143.821 108.381 144.149 108.345C144.627 108.292 145.089 108.071 145.437 107.74C146.205 107.01 146.333 105.777 145.824 104.864C144.468 102.435 141.372 103.786 139.693 104.984C140.704 103.479 140.747 101.562 139.777 100.026C142.32 99.1863 143.779 96.6407 143.277 94.0227C142.75 91.2719 140.263 89.5621 137.521 89.6491C138.306 87.2576 137.502 84.358 135.225 83.1002C132.979 81.859 129.884 82.4466 128.037 84.1585C126.791 81.8295 124.086 80.7269 121.581 81.5787C118.943 82.4758 117.447 85.1969 118.085 87.9145C116.869 87.8227 115.646 87.6093 114.392 87.5904C113.018 87.5697 111.644 87.6602 110.284 87.854C107.611 88.2347 104.833 88.9502 102.509 90.3656C100.424 91.6356 98.7108 93.5853 98.1808 96.0163C97.6639 98.3865 98.5327 101.04 100.618 102.39C102.653 103.707 105.5 103.305 107.01 101.372C107.686 100.507 108.019 99.4038 107.953 98.3099C107.925 97.8355 107.821 97.3657 107.638 96.9266C107.51 96.6193 106.975 95.853 106.726 96.5493C106.594 96.9182 106.872 97.5199 106.858 97.9295C106.838 98.5217 106.679 99.1161 106.39 99.6341C105.854 100.594 104.855 101.205 103.762 101.289C101.335 101.475 99.8319 98.8919 100.157 96.72C100.581 93.8814 103.089 92.0161 105.537 90.9238C108.418 89.6384 111.601 88.9459 114.734 88.6805C111.047 90.8604 111.297 96.6684 115.214 98.4658C112.988 100.991 113.167 104.915 115.578 107.241C110.222 105.678 104.6 105.542 99.0629 105.707C96.3345 105.788 93.4782 105.736 90.7919 106.265C88.3261 106.75 86.0128 108.039 84.884 110.376C84.1458 108.536 82.2904 107.537 80.5034 106.941C82.1277 106.449 83.8306 105.728 85.0166 104.472C86.1593 103.262 86.7654 101.308 85.7516 99.8289C84.8809 98.5587 83.1871 98.1076 81.728 98.3658C79.8791 98.6931 78.3691 99.9321 77.0081 101.147C77.6926 98.6032 77.5371 94.4808 74.1763 93.965C70.8647 93.4567 69.7294 97.4594 69.772 99.9747C67.9779 98.3916 65.1141 97.1885 63.0352 99.0196ZM160.202 113.744C160.16 115.112 161.487 116.132 162.797 115.792C162.007 116.495 161.742 117.792 162.42 118.658C163.031 119.439 164.176 119.599 165.066 119.252C163.352 121.879 167.227 122.827 169.106 122.242C172.557 121.167 173.796 117.352 174.707 114.248C174.069 115.52 173.064 116.67 171.981 117.58C171.024 118.384 169.523 119.385 168.198 118.922C167.12 118.545 167.897 117.414 168.341 116.821C169.073 115.845 169.913 115.047 170.441 113.927C169.642 114.752 168.674 115.357 167.734 116.003C167.246 116.339 166.466 117.097 165.826 116.749C164.726 116.149 166.075 114.719 166.515 114.17C167.34 113.141 168.178 112.123 169.03 111.115C167.761 111.82 166.51 112.611 165.202 113.24C164.459 113.597 163.537 113.524 163.858 112.521C164.058 111.894 164.519 111.333 164.912 110.815C165.685 109.795 166.62 108.924 167.739 108.295C166.302 109.102 164.678 109.537 163.211 110.289C161.851 110.986 160.254 112.044 160.202 113.744ZM154.698 121.009C154.722 119.614 152.923 119.509 151.904 119.544C151.747 119.549 151.131 119.705 151.007 119.614C150.858 119.503 150.787 118.92 150.7 118.723C150.62 118.543 150.098 117.864 150.107 117.702C150.116 117.527 150.775 116.936 150.896 116.769C151.18 116.378 151.469 115.94 151.637 115.483C151.742 115.198 151.806 114.901 151.732 114.6C151.653 114.284 151.301 114.128 151.22 113.883C151.154 113.685 151.328 113.257 151.271 113.004C151.207 112.722 151.068 112.46 150.858 112.259C150.423 111.843 149.766 111.756 149.227 112.01C149.072 112.082 148.964 112.207 148.823 112.289C148.599 112.418 148.683 112.422 148.442 112.466C148.216 112.506 147.993 112.429 147.757 112.522C147.135 112.766 146.808 113.509 146.575 114.087C146.452 114.391 146.361 114.706 146.282 115.023C146.277 115.044 146.213 115.477 146.17 115.512C146.098 115.572 145.604 115.497 145.482 115.502C145.097 115.52 144.638 115.71 144.27 115.694C143.897 115.678 144.206 115.921 143.874 115.532C143.721 115.353 143.604 115.091 143.466 114.897C143.15 114.449 142.766 113.946 142.309 113.628C142.074 113.465 141.8 113.348 141.509 113.352C141.381 113.353 141.247 113.38 141.125 113.423C140.812 113.533 140.871 113.569 140.598 113.507C139.992 113.367 139.529 113.141 138.946 113.567C138.431 113.942 138.241 114.624 138.437 115.222C138.475 115.339 138.593 115.474 138.608 115.584C138.631 115.765 138.541 115.819 138.47 116.02C138.382 116.269 138.383 116.535 138.46 116.788C138.662 117.453 139.371 118.014 139.917 118.399C140.05 118.494 140.639 118.748 140.691 118.887C140.746 119.036 140.407 119.804 140.376 119.973C140.339 120.181 140.406 120.905 140.291 121.072C140.184 121.227 139.335 121.304 139.1 121.385C138.607 121.556 138.011 121.771 137.625 122.137C137.443 122.309 137.299 122.521 137.241 122.767C137.214 122.88 137.205 123.002 137.212 123.118C137.232 123.44 137.268 123.374 137.128 123.605C136.805 124.137 136.452 124.515 136.674 125.195C136.873 125.805 137.462 126.19 138.091 126.191C138.545 126.192 138.498 126.111 138.83 126.382C139.011 126.53 139.231 126.621 139.464 126.647C140.142 126.721 140.883 126.253 141.415 125.879C141.643 125.719 141.863 125.436 142.111 125.323C142.431 125.177 142.292 125.163 142.599 125.381C142.736 125.479 142.877 125.57 143.023 125.654C143.328 125.831 143.727 125.907 144.015 126.093C144.344 126.306 144.166 126.097 144.202 126.438C144.226 126.667 144.159 126.967 144.156 127.201C144.148 127.745 144.163 128.357 144.333 128.88C144.546 129.533 144.892 129.567 145.418 129.829C145.854 130.047 146.006 130.72 146.648 130.898C147.266 131.069 147.91 130.794 148.251 130.262C148.34 130.123 148.405 129.975 148.447 129.815C148.512 129.565 148.493 129.523 148.655 129.356C148.844 129.16 149.085 129.096 149.231 128.832C149.555 128.249 149.363 127.425 149.197 126.822C149.098 126.459 148.884 126.112 148.805 125.751C148.658 125.081 148.641 125.73 148.788 125.425C148.848 125.301 149.136 125.174 149.255 125.073C149.532 124.839 149.849 124.28 150.141 124.117C150.36 123.995 150.933 124.344 151.242 124.45C151.803 124.642 152.497 124.86 153.1 124.797C153.384 124.767 153.657 124.665 153.866 124.466C153.949 124.386 153.989 124.292 154.065 124.213C154.326 123.942 154.038 124.047 154.403 123.897C155.042 123.635 155.613 123.486 155.752 122.683C155.881 121.946 155.395 121.236 154.698 121.009ZM156.863 102.4C155.648 102.176 154.448 101.896 153.247 101.609C152.657 101.469 152.071 101.314 151.48 101.181C151.175 101.113 150.701 100.872 150.605 101.276C150.54 101.551 151.152 102.175 151.319 102.351C152.645 103.746 154.712 104.374 156.6 104.154C157.087 104.097 157.573 103.982 158.028 103.8C158.266 103.705 159.121 103.389 159.162 103.079C159.224 102.62 157.204 102.467 156.863 102.4ZM149.151 93.6484C148.609 93.4661 147.323 92.7193 146.87 92.9395C146.212 93.2602 147.264 94.3002 147.551 94.5997C148.838 95.9418 150.746 96.7172 152.602 96.6951C153.504 96.6843 154.427 96.4878 155.216 96.0387C155.548 95.8493 155.751 95.805 155.665 95.4437C155.575 95.0642 155.309 95.1205 154.928 95.0416C152.98 94.6393 151.038 94.2941 149.151 93.6484ZM142.138 85.5495C142.517 86.6198 143.95 86.2286 144.677 85.8637C144.478 86.5699 144.445 87.6571 145.301 87.9485C146.299 88.2881 146.822 87.109 146.845 86.3216C147.4 86.8598 148.568 87.4433 149.101 86.5317C149.595 85.6873 148.754 84.8665 148.074 84.5038C148.904 84.4009 150.566 83.7948 149.97 82.628C149.43 81.5728 148.057 82.1692 147.339 82.619C147.663 81.9164 147.838 80.7524 146.934 80.3779C145.955 79.9726 145.379 81.1474 145.263 81.9087C144.754 81.2772 143.491 80.6262 142.983 81.6533C142.522 82.5874 143.546 83.4544 144.245 83.8723C143.402 83.9057 141.691 84.2902 142.138 85.5495ZM83.6683 83.9215C84.0117 84.2562 84.4843 84.4522 84.9596 84.4903C83.9825 84.8952 83.3066 86.0333 83.6629 87.0735C83.9842 88.0118 85.0132 88.5387 85.9672 88.5032C84.9092 89.3217 84.8244 90.4803 85.7825 91.4113C86.7233 92.3256 88.0858 92.74 89.3775 92.6396C92.7414 92.378 94.9184 89.4602 96.7165 86.9399C95.6964 87.9315 94.3706 88.6883 93.0483 89.1928C91.8801 89.6385 90.1338 90.0914 89.0346 89.2192C88.14 88.5091 89.2447 87.6962 89.8596 87.2817C90.8705 86.6003 91.9258 86.1219 92.7925 85.237C91.7303 85.7719 90.5766 86.0253 89.4392 86.3414C88.8894 86.4941 87.9308 86.9189 87.4805 86.3565C86.7498 85.4436 88.3089 84.6159 88.884 84.2539C90.0401 83.5261 91.206 82.814 92.3817 82.118C90.9523 82.3677 89.5105 82.704 88.0691 82.8687C87.3321 82.953 86.3961 82.6435 86.9932 81.8007C87.3721 81.2661 87.9928 80.884 88.5298 80.5242C89.6151 79.7971 90.7963 79.2619 92.0881 79.0302C90.1291 79.3814 88.1112 79.1569 86.1589 79.6079C85.2646 79.8145 84.3328 80.1556 83.702 80.8535C82.9254 81.7129 82.7922 83.0679 83.6683 83.9215ZM172.412 103.352C168.869 100.062 167.003 95.2374 166.644 90.4803C166.449 87.903 166.678 85.3043 167.216 82.7796C167.802 80.0262 168.681 77.1529 170.041 74.6767C171.247 76.4751 173.612 76.0035 175.431 75.9413C176.483 75.9053 177.559 76.1359 178.514 76.5752C178.971 76.7851 179.352 77.0521 179.744 77.3638C179.97 77.5444 180.347 77.8814 180.522 77.3982C180.765 76.7268 179.642 75.6285 179.206 75.2637C178.417 74.6033 177.437 74.1574 176.427 73.969C174.533 73.6157 172.317 74.7458 170.544 73.8342C171.936 71.6881 174.255 69.5414 177.022 70.2049C178.4 70.5353 179.706 71.318 180.792 72.2097C181.963 73.1703 182.814 74.4012 183.819 75.5186C184.236 75.9825 184.71 76.627 185.422 76.4779C186.034 76.3497 186.187 75.7717 186.45 75.2906C186.996 74.2919 187.718 73.3822 188.445 72.5108C189.794 70.8945 191.326 69.3482 193.514 69.0069C196.79 68.4956 198.759 71.4817 200.123 73.9781C199.773 74.0576 199.472 74.2895 199.107 74.3645C198.661 74.456 198.198 74.4448 197.747 74.4094C196.735 74.3296 195.744 74.0914 194.721 74.1475C193.653 74.2062 192.593 74.5607 191.7 75.1488C191.007 75.6048 189.984 76.4809 189.894 77.3795C189.771 78.6017 191.293 77.1346 191.672 76.9422C192.632 76.4543 193.754 76.1893 194.829 76.208C196.699 76.2405 199.491 76.8342 200.496 74.6706C202.645 78.7195 204.894 82.9634 205.264 87.6163C205.566 91.4108 204.286 94.9747 202.197 98.1008C200.051 101.312 197.32 104.4 193.854 106.202C190.813 107.783 187.33 108.495 183.913 108.286C179.632 108.025 175.554 106.27 172.412 103.352ZM189.048 81.6863C189.087 82.0469 190.026 82.4224 190.323 82.5731C190.884 82.8574 191.476 83.0819 192.084 83.2413C193.142 83.5183 194.25 83.6014 195.336 83.4705C196.363 83.3468 197.365 83.0338 198.285 82.5615C198.762 82.3166 199.218 82.0283 199.643 81.7016C199.948 81.4672 200.702 80.9783 200.819 80.6097C201.021 79.9714 198.975 79.2501 198.486 79.0615C197.988 78.8697 197.478 78.7091 196.962 78.5737C196.307 78.4015 196.07 78.4356 196.369 79.0808C197.298 81.0873 194.442 82.7737 193.27 80.8595C193.148 80.66 193.065 80.4372 193.022 80.2078C192.981 79.9893 193.104 79.632 193.026 79.453C192.831 79.0047 192.192 79.432 191.848 79.5813C191.306 79.8159 190.78 80.0898 190.298 80.4304C189.996 80.644 189.005 81.2771 189.048 81.6863ZM176.095 83.6022C177.227 83.7227 178.383 83.6113 179.475 83.2919C180.038 83.1273 182.304 82.4106 182.24 81.7122C182.207 81.3568 181.471 80.885 181.198 80.6785C180.787 80.3685 180.341 80.1087 179.879 79.8852C179.605 79.7533 178.778 79.2471 178.477 79.346C178.138 79.457 178.344 80.1463 178.277 80.4238C177.756 82.5964 174.466 81.9757 174.774 79.7674C174.811 79.5015 175.256 78.8679 175.114 78.6705C174.889 78.3558 173.935 78.804 173.629 78.9004C172.664 79.2051 171.519 79.6028 170.721 80.251C170.173 80.6961 170.826 81.0981 171.232 81.4541C171.663 81.8332 172.132 82.1701 172.629 82.4586C173.688 83.0738 174.877 83.4723 176.095 83.6022ZM182.097 105.328C187.044 106.476 192.811 105.011 195.83 100.722C198.27 97.2543 198.413 92.4526 195.58 89.1584C192.481 85.5559 187.031 84.9343 182.612 85.7014C178.079 86.4882 173.368 89.2276 172.858 94.2349C172.284 99.8621 176.985 104.142 182.097 105.328ZM207.135 85.7166C207.661 88.8254 207.38 91.9504 206.244 94.8951C209.677 94.4036 211.779 91.0175 212.891 88.0519C214.238 84.4557 214.862 80.5866 217.08 77.3659C213.141 79.2681 209.768 82.244 207.135 85.7166ZM69.7006 136.138C70.9605 137.012 72.296 137.775 73.6795 138.435C74.3748 138.767 75.0826 139.073 75.7996 139.355C76.119 139.48 76.4403 139.601 76.7632 139.716C77.035 139.814 77.8257 139.923 77.983 140.129C78.1052 140.288 78.0096 141.121 78.0127 141.341C78.0185 141.743 78.0202 142.146 78.0179 142.548C78.0132 143.347 77.9919 144.145 77.9542 144.943C77.88 146.513 77.742 148.08 77.5376 149.638C77.1459 152.625 76.5121 155.585 75.6008 158.458C75.1681 159.821 74.6735 161.166 74.1099 162.481C73.8364 163.119 73.5469 163.75 73.2403 164.373C72.991 164.88 72.7009 165.788 72.2904 166.178C72.1068 166.352 72.0797 166.429 71.8584 166.168C71.7441 166.033 71.7116 165.844 71.6885 165.675C71.6236 165.199 71.7562 164.682 71.868 164.224C72.141 163.103 72.5292 162.089 72.552 160.918C72.145 162.038 71.477 163.016 70.8646 164.028C70.5624 164.527 70.1411 165.527 69.4022 165.369C68.2683 165.126 68.8927 163.421 69.0682 162.746C69.4001 161.47 69.7487 160.197 70.1142 158.93C69.2439 160.093 68.4195 161.317 67.4899 162.434C66.9859 163.039 66.0948 163.388 65.9719 162.361C65.8962 161.727 66.0732 161.056 66.2109 160.441C66.4981 159.158 66.9967 157.945 67.7833 156.884C66.4658 158.661 64.5963 159.974 63.5134 161.941C63.0397 162.801 62.7396 163.818 63.074 164.782C63.5419 166.132 65.2094 166.65 66.3383 165.746C65.9318 166.65 66.1549 167.852 67.0056 168.42C67.8945 169.012 69.1089 168.701 69.8234 167.976C69.7491 168.446 69.8122 168.822 69.93 169.271C70.036 169.674 70.1314 169.352 69.9354 169.796C69.8347 170.024 69.5744 170.269 69.4192 170.464C68.7436 171.314 68.0154 172.121 67.2478 172.888C65.8955 174.239 64.4131 175.46 62.8275 176.527C59.6925 178.638 56.1402 180.159 52.4178 180.846C45.3366 182.154 37.7611 180.142 32.479 175.183C26.7835 169.836 25.1663 161.87 26.2231 154.353C27.4559 145.585 32.0236 137.81 35.991 130.055C40.1049 122.013 43.7104 113.655 45.875 104.862C46.0236 106.234 46.1631 107.61 46.3928 108.972C46.4485 109.301 46.4431 110.392 46.966 110.273C47.3485 110.185 47.5972 108.981 47.688 108.651C48.4084 106.032 48.1906 103.057 47.1763 100.543C47.0457 100.219 46.9533 100.012 46.9622 99.669C46.9701 99.3583 47.0701 99.0313 47.1193 98.7228C47.2346 97.999 47.3391 97.2736 47.431 96.5465C47.6065 95.1568 47.7343 93.7613 47.81 92.3626C47.9623 89.5508 47.908 86.7274 47.6336 83.9246C47.3572 81.1001 46.8588 78.2958 46.1186 75.5556C45.7782 74.2956 45.3747 73.0819 44.8862 71.8729C44.4635 70.8269 43.9434 69.5086 44.4352 68.3969C44.8789 67.3942 46.1386 66.8826 47.158 67.2652C47.985 67.5758 48.5894 68.3309 49.0534 69.0491C50.3406 71.0415 51.0262 73.4312 51.6826 75.6882C52.9288 79.9728 53.744 84.2969 53.9833 88.7592C54.2532 93.7921 53.903 98.8448 53.1658 103.826C51.4899 115.15 47.7536 126.013 44.585 136.973C43.2457 141.607 41.6827 146.374 41.2812 151.207C41.1262 153.073 41.1064 155.114 41.8394 156.873C42.638 158.788 44.3827 159.613 46.4047 159.457C47.6722 159.359 48.8637 158.827 49.8664 158.059C48.7373 160.282 47.1997 162.403 44.9399 163.576C42.8458 164.663 40.2938 164.792 38.0805 163.989C35.6059 163.092 33.9725 160.98 33.0598 158.576C32.2569 156.461 31.9447 153.323 34.111 151.872C34.9973 151.278 36.1526 151.158 37.0312 151.824C37.8836 152.47 38.3207 153.601 37.9907 154.635C37.6831 155.6 36.8363 156.392 35.864 156.659C35.5777 156.738 34.8878 156.846 35.3668 157.239C35.7277 157.536 36.8331 157.163 37.1904 157.016C39.5276 156.056 40.3096 153.219 38.9494 151.132C37.5771 149.026 34.8658 148.63 32.7534 149.846C28.1889 152.473 29.3967 158.978 31.8381 162.636C34.6351 166.827 40.1633 168.453 44.8613 166.715C49.9568 164.83 52.4738 159.468 53.8335 154.578C54.6113 151.782 55.1346 148.939 55.3558 146.043C55.4674 144.583 55.5059 143.117 55.4705 141.653C55.4354 140.204 55.1662 138.732 55.1895 137.291C55.3674 126.26 55.7334 114.823 60.2444 104.579C60.8068 103.301 61.4145 102.045 62.0606 100.808C61.5582 104.026 64.9937 106.039 67.5212 107.019C64.7301 107.613 60.2698 109.299 61.2767 113.044C61.7009 114.621 63.3204 115.461 64.8684 115.466C66.7746 115.472 68.5833 114.43 70.0749 113.333C69.8128 115.836 70.4503 119.794 73.7068 119.883C76.953 119.971 77.8252 116.126 77.4719 113.618C79.4391 114.964 82.5733 116.089 84.4532 113.953C85.0476 116.331 87.4428 118.029 89.887 117.738C89.8031 118.159 89.9632 118.385 90.0405 118.774C90.1234 119.19 90.11 118.82 90.0478 119.134C90.0165 119.292 89.9235 119.424 89.9063 119.593C89.8313 120.335 90.4868 120.941 91.0036 121.377C91.2465 121.582 91.5072 121.762 91.7757 121.931C91.7908 121.941 92.1688 122.131 92.1865 122.179C92.2197 122.268 91.979 122.781 91.9503 122.892C91.8683 123.213 91.8151 123.541 91.7931 123.87C91.7743 124.152 91.8436 124.253 91.6509 124.392C91.4898 124.508 91.1165 124.516 90.9177 124.575C90.3712 124.739 89.7544 124.951 89.2878 125.294C89.0499 125.469 88.8549 125.69 88.7639 125.975C88.7182 126.118 88.6994 126.259 88.7084 126.41C88.7255 126.697 88.771 126.655 88.6236 126.898C88.3002 127.43 87.9459 127.802 88.1699 128.488C88.379 129.128 89.0239 129.524 89.6863 129.483C89.7122 129.482 90.04 129.392 90.0834 129.408C90.1682 129.438 90.3048 129.66 90.3964 129.724C90.6197 129.882 90.8741 129.952 91.1461 129.945C91.8315 129.925 92.5504 129.446 93.081 129.047C93.2306 128.935 93.3738 128.814 93.5163 128.693C93.8084 128.444 93.6682 128.494 93.9935 128.602C94.2882 128.7 94.5668 128.988 94.8572 129.128C95.019 129.205 95.2543 129.248 95.3999 129.348C95.7322 129.576 95.6482 129.258 95.6983 129.731C95.7393 130.118 95.6413 130.546 95.6588 130.94C95.6826 131.476 95.7144 132.142 96.029 132.596C96.1727 132.803 96.3581 132.96 96.5946 133.05C96.6753 133.08 96.8367 133.08 96.9141 133.121C97.0765 133.075 97.157 133.14 97.1554 133.319C97.194 133.412 97.2432 133.498 97.303 133.578C97.6413 134.07 98.2345 134.334 98.8244 134.207C99.1122 134.144 99.3708 133.999 99.5727 133.784C99.8643 133.474 99.7893 133.116 99.987 132.808C100.118 132.605 100.46 132.506 100.642 132.26C100.816 132.023 100.881 131.73 100.891 131.441C100.922 130.562 100.508 129.858 100.301 129.043C100.769 130.887 100.191 128.78 100.189 128.787C100.23 128.657 100.724 128.393 100.845 128.285C101.014 128.135 101.521 127.365 101.704 127.311C101.908 127.25 102.648 127.717 102.908 127.799C103.269 127.914 103.639 128.001 104.014 128.056C103.341 128.997 103.191 130.277 103.688 131.33C103.842 131.658 104.217 132.325 104.64 132.331C105.307 132.34 105.007 131.722 104.876 131.387C104.014 129.177 106.979 127.723 108.332 129.57C109.023 130.513 108.884 131.628 108.553 132.679C108.358 133.294 108.108 133.893 107.838 134.479C107.724 134.724 107.633 135.03 107.473 135.246C107.221 135.586 106.858 135.651 106.442 135.797C103.785 136.725 101.043 137.539 98.2664 138.016C93.538 138.83 88.7529 139.245 83.9588 138.831C82.0073 138.662 80.0611 138.425 78.1378 138.048C76.587 137.744 75.051 137.366 73.5347 136.921C72.7692 136.696 72.0089 136.454 71.2542 136.195C70.8971 136.073 70.5448 135.933 70.1858 135.817C70.1489 135.805 69.8707 135.669 69.7658 135.714C69.6012 135.786 69.5232 136.014 69.7006 136.138ZM73.9294 126.663C74.665 128.849 76.8395 130.286 78.9506 130.935C80.1502 131.305 81.4362 131.46 82.6862 131.314C82.8748 131.292 84.2188 131.168 84.0987 130.815C84.0615 130.706 83.8024 130.662 83.7221 130.626C82.5705 130.123 81.3483 129.768 80.1873 129.281C78.9892 128.779 77.8339 128.191 76.6678 127.621C76.1915 127.388 75.7155 127.153 75.2348 126.929C75.1045 126.868 73.7693 126.186 73.9294 126.663ZM41.8676 130.992C40.9036 132.442 40.4865 134.292 40.6412 136.018C40.6784 136.433 40.7813 138.07 41.4058 137.994C41.8796 137.937 42.1284 136.216 42.245 135.833C42.7462 134.187 43.3518 132.568 43.7983 130.905C43.9045 130.51 44.4296 129.176 43.5917 129.339C42.9355 129.468 42.2165 130.485 41.8676 130.992ZM36.2303 138.985C36.28 139.282 36.5511 139.164 36.6905 139.037C36.888 138.856 37.0027 138.238 37.0969 137.984C37.3199 137.382 37.5295 136.776 37.746 136.172C38.1704 134.989 38.5946 133.806 39.044 132.632C39.5247 131.377 40.0293 130.13 40.5352 128.885C40.7757 128.293 41.0206 127.702 41.254 127.107C41.3516 126.858 41.9261 125.766 41.7067 125.556C41.2361 125.105 39.5903 127.327 39.3153 127.699C38.5305 128.758 37.8847 129.921 37.383 131.139C36.3813 133.572 35.8127 136.361 36.2303 138.985ZM60.2735 125.196C60.673 126.576 62.5074 126.199 63.4698 125.785C63.1598 126.68 63.0451 128.171 64.2108 128.52C65.4176 128.881 66.099 127.493 66.1839 126.528C66.8382 127.241 68.2281 128.061 68.9982 127.009C69.7522 125.979 68.7278 124.835 67.8792 124.315C68.9372 124.247 70.9019 123.695 70.4722 122.223C70.0198 120.675 68.0431 121.348 67.0878 121.87C67.5655 120.979 67.8688 119.367 66.6001 118.944C65.4254 118.552 64.7094 119.88 64.5089 120.814C63.9321 120.004 62.5578 119.125 61.7386 120.173C60.8553 121.304 62.1946 122.63 63.0712 123.228C61.9887 123.207 59.8049 123.578 60.2735 125.196ZM48.6548 170.841C50.6755 171.42 52.9997 170.85 54.7533 169.768C55.5676 169.265 56.3172 168.604 56.8594 167.811C57.0053 167.597 57.5175 166.945 57.2552 166.692C57.0065 166.452 56.3243 166.874 56.0978 166.963C54.6464 167.531 53.249 168.233 51.8294 168.875C51.4688 169.038 51.1082 169.201 50.7478 169.364C50.2781 169.577 49.8063 169.786 49.3412 170.008C49.2953 170.03 47.9188 170.63 48.6548 170.841ZM60.5214 170.805C60.3233 170.467 59.0374 171.404 58.7812 171.546C58.1618 171.887 57.5357 172.215 56.896 172.518C55.6356 173.113 54.3336 173.628 52.992 174.01C51.5807 174.412 50.1243 174.672 48.6624 174.796C47.9385 174.857 47.2126 174.851 46.4888 174.899C45.6277 174.957 46.2022 175.372 46.6883 175.576C49.2151 176.634 52.1751 176.525 54.7364 175.652C55.9904 175.224 57.1756 174.594 58.2089 173.763C58.7113 173.358 59.18 172.91 59.5926 172.414C59.8001 172.164 60.7239 171.151 60.5214 170.805ZM71.2582 139.183C71.4134 140.618 71.1857 142.155 70.7539 143.525C70.3811 144.707 69.6566 146.327 68.3039 146.642C67.2021 146.898 67.2524 145.508 67.3047 144.78C67.3919 143.568 67.6621 142.45 67.4995 141.225C67.2581 142.434 66.7197 143.538 66.2554 144.669C66.0387 145.198 65.7712 146.152 65.0415 146.098C63.9889 146.021 64.2341 144.52 64.3031 143.839C64.4454 142.433 64.6074 141.029 64.7893 139.627C64.0973 140.923 63.4731 142.293 62.6941 143.537C62.3084 144.153 61.5198 144.623 61.2272 143.702C61.0332 143.091 61.1135 142.378 61.1563 141.75C61.2463 140.423 61.552 139.137 62.1762 137.957C61.1286 139.938 59.4459 141.536 58.6894 143.685C58.3556 144.633 58.2402 145.728 58.7955 146.621C59.5177 147.782 61.1611 147.941 62.0864 146.935C61.821 147.891 62.2231 149.045 63.1499 149.478C64.118 149.929 65.2714 149.438 65.8684 148.613C65.8539 151.396 69.0303 150.687 70.4393 149.404C73.3276 146.774 72.2116 142.407 71.2582 139.183ZM206.703 83.7319C209.334 80.5334 212.592 77.8058 216.327 75.9871C214.031 76.0641 211.601 75.972 209.427 76.8103C208.154 77.3013 206.965 78.2173 206.321 79.4398C206.016 80.0184 205.813 80.7406 205.961 81.3862C206.142 82.1752 206.495 82.9447 206.703 83.7319ZM125.287 105.693C124.398 108.073 126.556 110.822 129.115 109.976C131.153 109.302 131.9 106.621 131.237 104.75C129.404 105.691 127.321 106.038 125.287 105.693ZM123.34 86.6653C124.343 86.258 125.413 86.0213 126.493 85.9551C126.023 84.0122 124.011 82.8882 122.133 83.6022C120.199 84.3379 119.459 86.6401 120.526 88.4077C121.36 87.6778 122.312 87.0827 123.34 86.6653ZM130.975 86.7175C132.599 87.4034 134.028 88.521 135.064 89.95C136.1 88.38 135.967 85.8539 134.157 84.8988C132.572 84.0629 130.121 84.6804 129.08 86.129C129.729 86.262 130.365 86.4597 130.975 86.7175ZM136.231 92.0762C136.945 93.9273 137.059 95.9729 136.59 97.8982C137.212 97.9813 137.731 98.2638 138.371 98.2025C138.944 98.1476 139.507 97.9477 139.983 97.6221C140.941 96.9666 141.393 95.8372 141.267 94.6971C141.145 93.5936 140.508 92.6166 139.504 92.128C138.975 91.8709 138.38 91.7439 137.793 91.735C137.62 91.7323 136.158 91.8885 136.231 92.0762ZM115.72 102.77C115.685 106.681 121.035 108.335 123.209 105.095C120.61 103.996 118.582 101.795 117.669 99.1279C116.413 99.8432 115.733 101.363 115.72 102.77ZM117.904 92.0266C118.172 91.3927 118.507 90.7879 118.898 90.2219C116.898 89.4792 114.707 90.614 114.254 92.7065C113.839 94.6224 115.116 96.7055 117.164 96.8244C117.011 95.1942 117.267 93.5351 117.904 92.0266ZM108.819 126.944C108.248 126.681 107.617 126.553 106.989 126.571C107.26 126.203 107.337 125.733 107.2 125.299C107.132 125.085 107.016 124.887 106.862 124.723C106.696 124.546 106.312 124.461 106.194 124.3C106.134 124.219 106.16 123.937 106.117 123.822C106.051 123.645 105.944 123.496 105.807 123.368C105.457 123.04 104.945 122.953 104.486 122.887C103.967 122.813 103.451 122.823 102.929 122.866C102.662 122.888 102.604 122.952 102.473 122.792C102.32 122.606 102.258 122.146 102.146 121.909C102.031 121.665 101.839 121.434 101.74 121.189C101.613 120.876 101.719 120.885 101.957 120.61C102.298 120.217 102.602 119.791 102.857 119.337C103.043 119.007 103.24 118.647 103.26 118.261C103.269 118.08 103.243 117.892 103.173 117.724C103.088 117.519 102.773 117.345 102.716 117.175C102.666 117.025 102.818 116.683 102.798 116.487C102.775 116.264 102.71 116.045 102.593 115.851C102.357 115.457 101.931 115.193 101.472 115.159C100.999 115.124 100.694 115.345 100.319 115.58C100.253 115.622 100.183 115.786 100.116 115.806C100.074 115.819 99.8372 115.738 99.7632 115.734C99.5293 115.721 99.2975 115.776 99.0938 115.892C98.2854 116.354 97.9524 117.595 97.751 118.433C97.736 118.496 97.7133 118.767 97.6674 118.804C97.6142 118.847 97.0898 118.788 96.9784 118.794C96.6132 118.81 96.2528 118.863 95.8983 118.952C95.4395 119.067 95.4774 118.989 95.2345 118.597C95.0706 118.334 94.8916 118.078 94.6977 117.835C94.3989 117.461 94.0388 117.019 93.6054 116.796C93.3894 116.685 93.1505 116.63 92.9086 116.653C92.5478 116.688 92.3813 116.964 92.0727 116.79C92.9571 116.03 93.578 114.901 93.5222 113.712C93.5071 113.391 93.416 112.362 92.8721 112.623C92.7119 112.699 92.5827 113.087 92.5063 113.207C92.3427 113.465 92.1535 113.709 91.9403 113.927C91.2321 114.654 90.1481 115.246 89.1075 115.02C88.0201 114.783 87.1602 113.736 87.2807 112.614C87.5332 110.259 90.1449 109.26 92.141 108.918C94.8038 108.463 97.5922 108.419 100.287 108.31C110.115 107.915 121.73 109.499 127.778 118.275C130.956 122.887 131.284 128.52 130.475 133.91C129.634 139.513 127.873 145.001 126.229 150.41C124.576 155.851 122.784 161.25 120.856 166.6C120.39 167.893 119.916 169.184 119.435 170.471C119.143 171.25 118.256 172.718 119.419 173.231C119.943 173.463 120.687 173.313 121.251 173.325C121.954 173.34 122.656 173.374 123.357 173.42C124.774 173.513 126.187 173.655 127.601 173.778C133.103 174.259 138.634 173.659 144.125 174.303C146.717 174.607 149.39 175.07 151.829 176.023C154.289 176.983 156.163 178.714 157.4 181.048C157.893 181.978 158.566 183.359 158.259 184.433C157.548 182.805 156.442 181.356 155.069 180.23C154.4 179.681 153.667 179.209 152.889 178.831C152.51 178.646 150.987 177.815 150.618 178.159C150.133 178.611 151.966 179.31 152.278 179.515C153.015 180.001 153.687 180.587 154.271 181.249C155.402 182.531 156.067 183.995 156.494 185.634C154.142 185.85 152.696 183.599 151.025 182.382C150.728 182.165 148.715 180.716 148.64 181.565C148.612 181.89 149.597 182.381 149.815 182.553C150.267 182.909 150.691 183.301 151.081 183.725C151.033 183.692 150.984 183.659 150.935 183.626C151.317 184.272 151.335 184.728 151.214 185.461C151.117 186.047 150.954 186.626 150.698 187.163C150.262 188.075 149.23 189.357 148.06 188.979C146.934 188.616 146.762 186.984 146.49 186.024C146.146 184.81 145.566 183.74 144.555 182.958C141.753 180.792 137.737 181.159 134.368 181.067C130.372 180.959 126.376 180.85 122.38 180.742C118.357 180.633 114.331 180.556 110.309 180.41C107.711 180.315 104.821 180.073 102.546 178.695C100.416 177.405 99.5934 175.252 99.5941 172.838C99.5948 170.048 100.298 167.207 100.865 164.488C101.452 161.669 102.124 158.864 102.874 156.083C104.207 151.138 105.822 146.266 107.729 141.512C108.436 139.749 109.284 138.074 110.1 136.358C111.141 134.168 112.174 131.518 111.036 129.164C110.57 128.201 109.79 127.4 108.819 126.944ZM106.562 162.459C106.638 161.937 106.102 162.433 106.042 162.501C105.853 162.717 105.703 162.985 105.553 163.229C105.248 163.729 104.985 164.252 104.756 164.791C104.249 165.985 103.924 167.251 103.766 168.538C103.53 170.468 103.373 173.975 105.486 175.024C105.803 175.181 106.597 175.42 106.425 174.829C106.392 174.716 106.151 174.531 106.079 174.409C105.963 174.213 105.898 174.002 105.847 173.782C105.577 172.614 105.731 171.313 105.745 170.125C105.778 167.537 106.183 165.012 106.562 162.459ZM110.754 162.111C110.804 161.469 110.122 161.922 109.955 162.103C109.612 162.477 109.324 162.896 109.08 163.34C108.596 164.216 108.285 165.186 108.134 166.174C107.953 167.353 107.997 168.58 108.321 169.731C108.443 170.161 109.068 172.198 109.647 171.251C109.853 170.913 109.816 170.047 109.857 169.662C109.888 169.375 109.917 169.087 109.947 168.8C110.002 168.279 110.059 167.757 110.115 167.236C110.298 165.525 110.612 163.826 110.754 162.111ZM122.259 120.52C122.936 122.918 123.738 125.273 124.086 127.751C124.259 128.978 124.341 130.218 124.346 131.457C124.347 131.839 124.138 132.886 124.342 133.183C124.709 133.715 125.045 132.782 125.186 132.477C126.2 130.292 126.329 127.705 125.779 125.379C125.509 124.241 125.058 123.144 124.412 122.167C124.106 121.704 123.761 121.266 123.365 120.876C123.239 120.752 122.053 119.791 122.259 120.52ZM120.176 144.406C119.864 142.056 119.003 139.769 117.64 137.826C117.328 137.382 116.99 136.955 116.626 136.551C116.306 136.196 115.722 135.931 115.949 136.641C116.134 137.22 116.508 137.787 116.739 138.356C117.004 139.012 117.235 139.681 117.427 140.362C118.109 142.777 118.437 145.546 117.742 147.996C117.126 150.17 115.454 152.341 113.014 152.407C110.861 152.465 108.665 150.241 109.946 148.082C110.46 147.213 111.557 146.778 112.537 146.886C112.992 146.937 113.326 147.265 113.731 147.34C114.514 147.486 113.897 146.703 113.624 146.484C111.673 144.92 108.75 146.128 107.956 148.327C107.106 150.683 108.408 153.29 110.616 154.311C113.301 155.553 116.378 154.542 118.227 152.356C120.067 150.181 120.581 147.17 120.176 144.406ZM109.615 119.674C109.895 119.585 110.166 119.467 110.428 119.336C110.171 120.247 110.145 121.743 111.329 122.022C112.555 122.311 113.153 120.886 113.181 119.917C113.877 120.591 115.312 121.327 116.019 120.232C116.711 119.159 115.621 118.077 114.743 117.609C115.795 117.478 117.724 116.811 117.208 115.367C116.665 113.848 114.732 114.637 113.809 115.215C114.233 114.297 114.441 112.67 113.149 112.322C111.954 112 111.316 113.368 111.172 114.312C110.548 113.537 109.125 112.741 108.369 113.836C107.554 115.017 108.969 116.262 109.879 116.806C108.831 116.848 107.347 117.083 107.155 118.363C106.945 119.767 108.644 119.98 109.615 119.674ZM119.833 92.8413C117.489 98.3909 122.411 104.931 128.471 103.553C131.436 102.878 133.783 100.433 134.528 97.5091C134.734 96.7005 134.814 95.8601 134.757 95.0273C134.721 94.5122 134.562 94.4483 134.232 94.0731C133.919 93.7167 133.602 93.3754 133.238 93.069C132.003 92.0284 130.399 91.3588 128.765 91.4679C127.299 91.566 125.811 92.2779 124.977 93.517C124.044 94.9029 124.022 96.8567 125.212 98.0989C126.263 99.1964 128.037 99.403 129.19 98.3205C129.731 97.8127 130.031 97.0001 129.715 96.2881C129.586 95.9976 129.365 95.7327 129.041 95.6616C128.578 95.56 128.41 95.8295 128.147 96.118C127.721 96.5848 127.025 96.7271 126.546 96.2302C125.979 95.6425 126.349 94.86 126.84 94.3673C128.066 93.135 130.14 93.37 131.184 94.6996C133.512 97.6662 130.277 101.293 127.062 101.135C123.141 100.942 121.229 96.4887 122.769 93.1804C124.442 89.5862 128.972 88.5512 132.401 90.0902C128.454 86.4559 121.906 87.9303 119.833 92.8413ZM136.354 107.137C135.406 107.274 134.425 107.111 133.557 106.711C133.345 109.346 131.5 111.9 128.742 112.185C126.063 112.462 123.667 110.633 123.107 108.02C122.202 108.58 121.153 108.9 120.09 108.945C124.535 111.053 128.744 114.434 130.967 118.911C132.024 114.402 134.423 110.04 137.67 106.732C137.255 106.929 136.81 107.071 136.354 107.137ZM133.04 103.563C134.04 105.243 136.424 105.633 137.741 104.108C138.35 103.403 138.579 102.463 138.23 101.581C138.056 101.14 137.76 100.741 137.387 100.447C136.95 100.103 136.388 100.112 135.912 99.8313C135.269 101.271 134.255 102.564 133.04 103.563ZM75.0127 102.137C73.184 101.452 71.01 102.108 70.2285 103.986C69.5343 105.653 70.3328 107.561 72.1236 108.047C72.8629 108.248 74.2076 108.203 74.6295 107.412C74.8 107.093 74.722 106.686 74.449 106.449C74.0441 106.098 73.7208 106.341 73.3185 106.498C72.5692 106.79 71.6661 106.269 71.5501 105.476C71.4214 104.595 72.0612 103.762 72.8822 103.514C74.591 102.999 76.387 104.581 76.6275 106.212C76.8943 108.022 75.8114 109.808 74.1904 110.579C73.4318 110.939 72.5695 111.096 71.7337 110.997C71.1153 110.924 69.7419 110.45 69.8942 111.659C70.0087 112.57 71.5312 112.591 72.2077 112.591C73.2002 112.592 74.1923 112.344 75.0727 111.887C78.944 109.877 79.48 103.811 75.0127 102.137ZM148.746 122.39C149.506 120.819 148.891 118.863 147.367 118.01C145.6 117.021 143.303 117.865 142.593 119.757C141.978 121.393 142.769 123.281 144.365 123.992C145.995 124.719 147.969 123.999 148.746 122.39ZM100.243 125.683C100.911 124.27 100.519 122.541 99.2789 121.579C97.8207 120.448 95.6528 120.738 94.5459 122.213C93.4032 123.735 93.7903 125.979 95.3824 127.024C97.0522 128.121 99.3741 127.48 100.243 125.683Z" fill="#270303" stroke="black" stroke-width="1.8" mask="url(#path-1-inside-1_7_296)"/>
<circle cx="121.5" cy="121.5" r="120.6" stroke="black" stroke-width="1.8" stroke-linecap="square" stroke-dasharray="18 18"/>
</svg>
