<svg width="243" height="243" viewBox="0 0 243 243" fill="none" xmlns="http://www.w3.org/2000/svg">
<mask id="path-1-inside-1_7_293" fill="white">
<path d="M125.85 164.768C125.544 165.196 125.279 165.656 125.069 166.151C124.582 167.306 124.426 168.518 124.553 169.684C123.656 169.674 122.853 169.15 122.428 168.258C121.942 167.238 122.239 165.869 123.103 165.141C123.839 164.52 124.963 164.391 125.85 164.768ZM49.6541 172.246C48.2639 171.751 46.9122 171.154 45.6325 170.411C43.4298 169.132 41.6014 167.471 40.2659 165.601C37.5329 166.738 35.6757 166.191 34.5961 165.522C32.6791 164.334 31.4707 161.731 31.2809 158.381L31.2456 157.719C31.1467 155.799 31.0536 153.986 30.303 152.402C29.8984 151.547 29.1891 150.751 28.3597 150.276C29.2221 151.881 29.3523 153.913 29.1089 155.545L28.9853 156.363C28.0271 162.684 27.27 167.677 33.6484 170.844C37.2463 172.631 41.5458 172.686 44.8894 172.535C45.8803 172.491 46.8931 172.423 47.8732 172.358C48.4629 172.319 49.0574 172.281 49.6541 172.246ZM156.517 69.462C160.664 67.839 165.928 67.0545 171.342 67.2632C173.215 67.3338 175.361 67.5519 177.073 68.6309C178.493 69.527 179.704 71.3465 179.268 73.0918C178.75 75.1709 176.231 76.1989 174.11 76.2743C171.262 76.3763 168.576 75.3884 165.724 74.3437C164.019 73.7191 162.255 73.0727 160.444 72.6733C158.989 72.3522 157.505 72.1933 156.023 72.1933C154.33 72.1933 152.64 72.4006 150.997 72.8101C152.693 71.4718 154.433 70.2782 156.517 69.462ZM166.553 71.3668C166.546 71.7196 166.708 72.0804 167.008 72.3822C167.557 72.9336 168.486 73.2468 169.566 73.2468C169.591 73.2468 169.617 73.2468 169.642 73.2463C170.751 73.2315 171.806 72.873 172.329 72.3341C172.555 72.101 172.672 71.8405 172.667 71.5806C172.661 71.2325 172.456 70.8897 172.072 70.5896C171.762 70.3468 171.311 70.1295 170.781 69.9796C170.384 70.4072 169.987 70.8347 169.59 71.2623C169.267 70.8389 169.067 70.3264 169.002 69.7979C168.735 69.8155 168.463 69.8461 168.188 69.9088C167.176 70.1401 166.565 70.6855 166.553 71.3668ZM135.735 96.5916C135.62 106.427 140.525 114.888 144.661 120.255C149.289 126.258 156.432 132.114 162.734 137.281C163.163 137.633 163.587 137.98 164.006 138.325C163.242 133.833 161.729 129.466 159.491 125.457C158.024 122.831 156.193 120.26 154.42 117.774C150.663 112.5 146.777 107.047 145.734 100.358C144.344 91.4404 147.493 79.9524 156.027 73.9799C153.228 73.9793 150.435 74.5961 147.894 75.808C147.08 76.1962 146.295 76.6483 145.543 77.158C145.387 77.27 145.229 77.3806 145.069 77.49C139.472 81.5396 135.826 88.8202 135.735 96.5916ZM84.9402 136.091C85.2447 135.609 85.4199 135.063 85.4757 134.505C91.2278 134.548 96.9489 135.052 102.628 135.847C101.84 136.525 101.222 137.425 100.891 138.454C100.513 139.688 100.57 141.006 101.003 142.16C101.425 143.313 102.224 144.337 103.279 144.915C103.485 145.027 103.747 145.015 103.945 144.863C104.212 144.657 104.262 144.274 104.056 144.007L104.036 143.981C103.467 143.242 103.099 142.426 102.921 141.584C102.753 140.743 102.769 139.883 103.019 139.122C103.248 138.356 103.727 137.641 104.346 137.047C104.664 136.748 105.018 136.484 105.406 136.258C114.348 137.656 123.18 139.702 131.854 141.712C133.542 142.103 135.278 142.498 137.036 142.894C137.007 142.973 136.975 143.05 136.949 143.131C136.571 144.365 136.628 145.683 137.061 146.837C137.483 147.99 138.283 149.014 139.336 149.591C139.543 149.704 139.805 149.692 140.003 149.54C140.27 149.334 140.32 148.95 140.114 148.683L140.095 148.658C139.525 147.918 139.157 147.103 138.979 146.26C138.811 145.42 138.827 144.559 139.077 143.799C139.119 143.659 139.177 143.524 139.235 143.388C142.245 144.06 145.299 144.733 148.299 145.394C153.684 146.579 159.245 147.804 164.399 148.996C164.182 151.299 163.772 153.588 163.154 155.832C162.743 155.749 162.332 155.667 161.924 155.584C159.017 154.999 156.035 154.398 153.046 153.915C153.315 153.661 153.588 153.423 153.873 153.2C154.202 152.943 154.544 152.705 154.909 152.479C155.275 152.249 155.659 152.041 156.098 151.798L156.152 151.768C156.294 151.689 156.405 151.556 156.454 151.389C156.552 151.05 156.357 150.696 156.019 150.598C155.417 150.423 154.773 150.456 154.169 150.611C153.564 150.769 152.994 151.057 152.5 151.442C152.007 151.827 151.589 152.31 151.288 152.858C151.16 153.095 151.058 153.345 150.979 153.602C150.746 153.569 150.513 153.534 150.281 153.503C139.667 152.086 131.16 151.96 123.515 153.109C121.342 153.435 119.168 153.776 116.992 154.118C116.909 154.131 116.824 154.144 116.741 154.157C116.314 153.514 116.02 152.827 115.871 152.116C115.703 151.276 115.718 150.415 115.968 149.655C116.198 148.888 116.677 148.174 117.295 147.58C117.923 146.99 118.691 146.531 119.581 146.25L119.612 146.24C119.836 146.169 120.008 145.972 120.034 145.723C120.071 145.388 119.828 145.087 119.493 145.051C118.298 144.922 117.056 145.305 116.051 146.01C115.036 146.709 114.236 147.758 113.84 148.987C113.463 150.221 113.519 151.539 113.952 152.693C114.186 153.331 114.539 153.927 114.983 154.432C109.07 155.356 103.005 156.269 97.0141 156.83C86.8512 157.781 76.124 158.32 65.9065 156.206C66.1726 155.723 66.3071 155.319 66.45 154.905C66.6182 154.41 66.8792 153.935 67.2235 153.507C67.5588 153.071 67.9785 152.692 68.4468 152.365C68.9193 152.042 69.4462 151.796 70.0263 151.602L70.0715 151.588C70.2923 151.514 70.4605 151.316 70.4847 151.069C70.5176 150.734 70.2729 150.436 69.938 150.403C69.1652 150.327 68.3574 150.451 67.6235 150.755C66.8866 151.053 66.2019 151.506 65.6391 152.091C65.0726 152.672 64.6188 153.383 64.345 154.175C64.1499 154.704 64.0886 155.288 64.2166 155.836C63.584 155.685 62.9526 155.528 62.3248 155.356C58.6479 154.346 54.0907 152.313 53.2591 148.364C52.6044 145.254 54.6599 142.171 56.9878 140.495C59.4934 138.69 62.3878 137.203 64.9887 136.354C65.1052 136.418 65.224 136.478 65.3464 136.53C64.6033 137.325 64.149 138.441 64.1377 139.663C64.1207 141.56 65.4836 143.377 67.308 143.892C68.604 144.258 69.9319 144.02 70.973 143.332C71.0357 143.681 71.1459 144.025 71.3045 144.353C71.8307 145.442 72.8003 146.177 73.9651 146.37C74.1821 146.406 74.396 146.424 74.6058 146.424C75.7663 146.424 76.8077 145.883 77.5279 144.884C78.0554 144.154 78.3481 143.276 78.3955 142.394C79.0381 142.717 79.7685 142.855 80.4873 142.751C82.0555 142.522 83.3379 141.125 83.4071 139.57C83.4385 138.88 83.222 138.204 82.8405 137.642C83.6927 137.387 84.4616 136.849 84.9402 136.091ZM87.3626 149.585C87.7845 150.738 88.5841 151.762 89.6382 152.339C89.8443 152.452 90.1063 152.44 90.3043 152.288C90.5716 152.082 90.6213 151.698 90.4156 151.431L90.3961 151.406C89.8265 150.666 89.4583 149.851 89.2807 149.008C89.1128 148.167 89.1284 147.307 89.3782 146.547C89.6079 145.78 90.087 145.065 90.7052 144.472C91.3327 143.882 92.1009 143.423 92.9911 143.142L93.0221 143.132C93.2458 143.061 93.4179 142.863 93.4446 142.615C93.4807 142.28 93.2382 141.979 92.9028 141.943C91.7078 141.814 90.4665 142.197 89.4614 142.902C88.4459 143.601 87.6463 144.65 87.2503 145.878C86.873 147.113 86.9292 148.431 87.3626 149.585ZM134.602 171.149C135.295 171.185 135.989 171.22 136.681 171.261C136.694 171.233 136.71 171.208 136.723 171.18C137.221 170.109 137.389 168.968 137.232 167.871C137.139 167.828 137.053 167.766 136.986 167.679C136.075 166.512 134.804 165.767 133.5 165.634C132.128 165.499 130.736 166.103 130.034 167.145C129.537 167.884 129.388 168.836 129.646 169.631C129.83 170.198 130.234 170.683 130.73 170.979C131.398 171.003 132.064 171.032 132.731 171.061C132.835 171.01 132.938 170.957 133.031 170.889C133.304 170.693 133.642 170.345 133.711 169.798C133.766 169.353 133.566 168.9 133.235 168.72C133.085 168.639 132.879 168.625 132.696 168.685C132.612 168.712 132.46 168.779 132.392 168.922C132.233 169.255 131.834 169.396 131.5 169.237C131.167 169.077 131.025 168.677 131.185 168.344C131.395 167.904 131.786 167.573 132.284 167.412C132.82 167.238 133.399 167.286 133.873 167.543C134.682 167.982 135.162 168.977 135.039 169.963C134.985 170.39 134.834 170.791 134.602 171.149ZM128.373 170.044C127.985 168.85 128.191 167.486 128.924 166.398C129.91 164.935 131.76 164.115 133.635 164.303C134.427 164.384 135.204 164.641 135.925 165.04C135.378 164.425 134.693 163.926 133.894 163.588C130.951 162.346 127.545 163.728 126.302 166.672C125.715 168.062 125.72 169.553 126.193 170.873C127.06 170.883 127.926 170.899 128.792 170.922C128.617 170.651 128.474 170.356 128.373 170.044ZM129.625 159.865C128.587 159.54 127.331 160.018 126.769 160.951C126.285 161.756 126.344 162.855 126.864 163.635C127.473 163.086 128.174 162.635 128.956 162.318C129.719 162.008 130.514 161.843 131.313 161.805C131.14 160.927 130.481 160.131 129.625 159.865ZM212.605 167.621C206.824 173.021 199.347 174.902 191.207 175.231C191.083 175.028 190.969 174.82 190.871 174.606C190.524 173.822 190.352 172.979 190.43 172.182C190.487 171.384 190.799 170.582 191.273 169.868C191.756 169.155 192.406 168.54 193.214 168.072L193.242 168.056C193.445 167.938 193.57 167.707 193.542 167.459C193.504 167.124 193.201 166.883 192.866 166.921C191.672 167.056 190.544 167.7 189.717 168.607C188.878 169.511 188.326 170.709 188.208 171.994C188.118 173.158 188.392 174.31 188.944 175.284C183.086 175.326 176.942 174.679 170.878 174.037C167.495 173.679 164.3 173.34 161.139 173.117C157.822 172.883 154.452 172.607 151.187 172.338C151.118 171.967 151.089 171.595 151.118 171.231C151.16 170.431 151.456 169.624 151.917 168.901C152.387 168.179 153.025 167.552 153.823 167.068L153.851 167.052C154.052 166.93 154.173 166.697 154.14 166.45C154.095 166.115 153.789 165.88 153.454 165.924C152.263 166.081 151.147 166.747 150.337 167.669C149.516 168.589 148.987 169.797 148.892 171.084C148.871 171.445 148.888 171.802 148.934 172.154C146.429 171.95 143.912 171.751 141.385 171.571C141.948 171.277 142.441 170.85 142.783 170.307C143.73 168.808 143.44 166.693 142.122 165.492C141.324 164.766 140.165 164.425 139.062 164.489C139.256 163.952 139.343 163.376 139.306 162.799C139.238 161.696 138.805 160.773 138.056 160.13C137.308 159.487 136.292 159.189 135.189 159.287C134.183 159.377 133.072 159.804 132.298 160.566C131.839 159.644 131.021 158.898 130.023 158.587C128.393 158.079 126.502 158.799 125.623 160.262C125.086 161.153 124.969 162.248 125.234 163.239C124.174 163.126 123.064 163.425 122.241 164.118C120.912 165.237 120.472 167.264 121.219 168.833C121.647 169.732 122.354 170.396 123.189 170.746C123.155 170.782 123.124 170.823 123.091 170.862C117.067 170.897 111.03 171.265 105.022 172.198C102.684 172.561 100.362 172.868 98.055 173.132C97.5954 172.427 97.2919 171.639 97.2365 170.854C97.1591 170.058 97.3322 169.215 97.6799 168.431C98.0378 167.648 98.5753 166.933 99.2931 166.336L99.318 166.315C99.4982 166.165 99.5829 165.917 99.5136 165.677C99.4201 165.353 99.0817 165.166 98.7576 165.259C97.6027 165.592 96.5983 166.416 95.9344 167.449C95.259 168.48 94.9157 169.754 95.0138 171.041C95.0903 171.878 95.3534 172.676 95.7571 173.383C86.6533 174.297 77.8083 174.428 69.299 173.778C68.9427 173.383 68.6412 172.956 68.4105 172.497C68.0337 171.727 67.8291 170.891 67.8765 170.092C67.9028 169.292 68.1836 168.479 68.6299 167.747C69.086 167.017 69.7116 166.377 70.5007 165.878L70.5281 165.861C70.7262 165.735 70.8423 165.5 70.8048 165.253C70.754 164.919 70.4427 164.69 70.1093 164.741C68.921 164.922 67.8184 165.609 67.0267 166.547C66.2234 167.482 65.7182 168.701 65.6489 169.99C65.5991 171.279 65.99 172.539 66.7037 173.545C66.7067 173.549 66.7101 173.553 66.7132 173.557C63.9007 173.287 61.1264 172.931 58.3934 172.487C53.7012 171.727 49.888 170.82 46.5281 168.869C42.6866 166.637 40.1223 163.158 39.6679 159.56C39.132 155.314 41.4422 151.274 43.4742 148.633C46.7283 144.402 50.9024 141.449 55.5145 139.377C52.9035 141.455 50.7358 145.038 51.5135 148.731C51.6226 149.249 51.7879 149.733 51.9859 150.196C51.115 149.988 50.1742 150.024 49.2976 150.272C48.1081 150.597 47.0074 151.324 46.2285 152.353C45.4652 153.394 45.0838 154.657 45.1123 155.889C45.1302 157.117 45.5477 158.347 46.3522 159.24C46.5095 159.414 46.7608 159.489 46.9981 159.411C47.3182 159.304 47.4916 158.959 47.3856 158.639L47.3756 158.609C47.0818 157.722 47.0032 156.831 47.1133 155.977C47.2322 155.128 47.5304 154.321 48.017 153.685C48.4866 153.037 49.1746 152.521 49.9542 152.164C50.7412 151.814 51.6175 151.634 52.5509 151.662L52.5832 151.663C52.6521 151.665 52.7192 151.652 52.7841 151.632C54.8178 154.562 58.6342 156.192 61.8526 157.076C68.692 158.955 75.7819 159.518 82.8223 159.445C82.4753 159.702 82.1556 160 81.8761 160.331C81.0728 161.266 80.5676 162.485 80.4983 163.773C80.4485 165.063 80.8394 166.323 81.5531 167.328C82.2553 168.335 83.2898 169.121 84.4564 169.41C84.6843 169.467 84.9346 169.388 85.0872 169.19C85.293 168.923 85.2434 168.54 84.9761 168.334L84.9509 168.314C84.2113 167.745 83.6471 167.05 83.2603 166.281C82.8835 165.511 82.6787 164.675 82.7263 163.876C82.7526 163.076 83.0334 162.263 83.4796 161.531C83.9357 160.8 84.5614 160.161 85.3504 159.662L85.3779 159.644C85.4771 159.581 85.5557 159.491 85.6048 159.385C89.5083 159.257 93.3847 158.961 97.1813 158.606C100.765 158.27 104.367 157.809 107.944 157.297C107.491 157.849 107.131 158.488 106.905 159.188C106.528 160.422 106.584 161.74 107.018 162.894C107.439 164.047 108.239 165.071 109.293 165.649C109.499 165.761 109.761 165.749 109.959 165.597C110.227 165.391 110.276 165.008 110.071 164.74L110.051 164.715C109.482 163.975 109.113 163.16 108.936 162.317C108.768 161.477 108.783 160.616 109.033 159.856C109.263 159.089 109.742 158.375 110.36 157.781C110.829 157.34 111.376 156.973 111.994 156.698C113.764 156.429 115.525 156.153 117.269 155.879C119.441 155.539 121.611 155.198 123.78 154.872C131.358 153.735 139.458 153.858 150.045 155.271C153.893 155.785 157.796 156.572 161.571 157.333C165.092 158.043 168.697 158.764 172.329 159.285C172.02 159.509 171.73 159.763 171.472 160.045C170.633 160.949 170.082 162.147 169.963 163.432C169.864 164.719 170.206 165.993 170.88 167.025C171.543 168.059 172.547 168.883 173.701 169.217C173.927 169.282 174.18 169.214 174.34 169.022C174.556 168.763 174.521 168.378 174.262 168.162L174.238 168.141C173.521 167.544 172.984 166.828 172.627 166.044C172.28 165.26 172.107 164.417 172.186 163.621C172.243 162.823 172.554 162.021 173.028 161.306C173.481 160.64 174.084 160.064 174.82 159.609C175.631 159.701 176.443 159.786 177.255 159.851C179.094 159.998 180.91 160.071 182.697 160.071C185.539 160.071 188.306 159.886 190.966 159.514L191.46 159.446C195.315 158.914 200.594 158.185 203.632 155.537C204.949 154.388 205.001 153.268 204.814 152.53C204.758 152.313 204.675 152.103 204.568 151.901C205.872 152.318 207.176 152.85 208.415 153.533C208.339 153.607 208.263 153.68 208.192 153.757C207.354 154.661 206.802 155.859 206.683 157.145C206.584 158.431 206.926 159.705 207.601 160.738C208.264 161.771 209.267 162.596 210.422 162.93C210.648 162.995 210.901 162.926 211.061 162.734C211.277 162.475 211.242 162.09 210.983 161.874L210.958 161.854C210.241 161.256 209.704 160.54 209.347 159.756C209 158.972 208.828 158.13 208.906 157.333C208.963 156.535 209.275 155.733 209.749 155.019C209.851 154.869 209.964 154.726 210.08 154.585C212.123 156.083 213.585 157.981 214.254 160.043C215.152 162.815 214.489 165.86 212.605 167.621ZM57.1181 158.418C55.923 158.289 54.6818 158.672 53.6766 159.377C52.6611 160.076 51.8615 161.125 51.4656 162.354C51.0882 163.588 51.1445 164.906 51.5779 166.06C51.9997 167.213 52.7995 168.237 53.8534 168.815C54.0595 168.927 54.3215 168.915 54.5195 168.763C54.7868 168.557 54.8366 168.174 54.6308 167.906L54.6115 167.881C54.0419 167.141 53.6737 166.326 53.4961 165.483C53.3282 164.643 53.3436 163.782 53.5936 163.022C53.8233 162.255 54.3024 161.541 54.9206 160.947C55.5481 160.357 56.3163 159.898 57.2065 159.617L57.2375 159.607C57.4612 159.536 57.6334 159.339 57.66 159.09C57.6959 158.755 57.4534 158.454 57.1181 158.418ZM137.184 161.144C136.706 160.734 136.057 160.553 135.31 160.619C134.389 160.702 133.402 161.164 132.938 161.915C133.439 162.009 133.934 162.152 134.414 162.355C135.654 162.878 136.677 163.715 137.41 164.766C137.802 164.225 138.012 163.545 137.971 162.881C137.925 162.148 137.654 161.547 137.184 161.144ZM182.795 158.284C185.52 158.28 188.171 158.103 190.719 157.748L191.216 157.679C194.848 157.178 199.823 156.491 202.459 154.192C203.225 153.524 203.119 153.107 203.084 152.97C202.86 152.089 201.239 151.17 199.865 150.864C199.713 150.83 199.581 150.756 199.472 150.66C195.009 149.791 190.452 149.326 185.908 149.282C185.466 152.403 184.493 155.511 182.795 158.284ZM141.652 169.593C142.253 168.641 142.06 167.245 141.221 166.482C140.444 165.774 139.054 165.622 138.129 166.09C138.142 166.122 138.158 166.152 138.171 166.184C138.697 167.55 138.768 169.028 138.396 170.457C138.428 170.456 138.459 170.448 138.492 170.452C138.761 170.487 139.022 170.561 139.268 170.668C140.168 170.787 141.164 170.364 141.652 169.593ZM77.9833 140.232C78.4311 141.047 79.4046 141.555 80.2946 141.426C81.2329 141.289 82.0295 140.429 82.0709 139.51C82.103 138.787 81.6522 138.072 81.0273 137.741C80.7754 137.693 80.5281 137.616 80.291 137.511C80.2341 137.485 80.1881 137.447 80.142 137.409C80.1246 137.448 80.1118 137.488 80.0937 137.527C79.5846 138.623 78.8514 139.533 77.9833 140.232ZM172.514 78.0093C170.924 77.8699 169.381 77.4768 167.873 76.9897C166.063 83.6079 165.717 90.64 166.883 97.3697C167.988 103.752 170.607 108.957 173.81 114.273C170.295 102.554 169.818 89.9807 172.514 78.0093ZM72.4361 141.695C72.4272 141.713 72.42 141.732 72.4107 141.749C72.1663 142.393 72.1982 143.126 72.5096 143.77C72.8441 144.462 73.4545 144.928 74.185 145.05C75.409 145.251 76.1247 144.542 76.4431 144.101C77.0865 143.209 77.2322 141.971 76.8433 140.986C75.8434 141.517 74.7356 141.805 73.6105 141.805C73.2196 141.805 72.827 141.765 72.4361 141.695ZM67.6716 142.604C69.0392 142.99 70.4063 142.449 71.1112 141.312C71.0819 141.3 71.0519 141.292 71.0226 141.279C69.044 140.444 67.6437 138.812 67.0245 136.914C66.1052 137.382 65.4875 138.447 65.4762 139.675C65.4645 140.967 66.4288 142.253 67.6716 142.604ZM177.042 127.908C176.544 128.646 176.396 129.599 176.653 130.393C176.916 131.202 177.622 131.852 178.41 132.011C178.961 132.124 179.571 131.988 180.039 131.651C180.311 131.456 180.65 131.107 180.719 130.56C180.774 130.115 180.574 129.661 180.243 129.482C180.093 129.401 179.887 129.387 179.704 129.447C179.62 129.474 179.468 129.541 179.4 129.684C179.24 130.018 178.84 130.159 178.507 129.998C178.174 129.839 178.033 129.439 178.193 129.106C178.404 128.666 178.794 128.335 179.291 128.174C179.479 128.113 179.673 128.089 179.865 128.082C179.603 127.563 179.336 127.044 179.059 126.526C178.228 126.754 177.492 127.239 177.042 127.908ZM180.821 132.737C180.235 133.159 179.51 133.386 178.793 133.386C178.575 133.386 178.358 133.366 178.146 133.323C176.88 133.067 175.794 132.08 175.381 130.807C174.993 129.612 175.199 128.249 175.932 127.16C176.512 126.298 177.395 125.667 178.405 125.326C178.156 124.879 177.901 124.432 177.642 123.984C177.245 124.055 176.851 124.164 176.467 124.32C175.033 124.902 173.912 126.008 173.31 127.434C172.068 130.377 173.451 133.783 176.395 135.025C178.454 135.896 180.767 135.365 182.371 133.841C182.136 133.189 181.883 132.543 181.618 131.9C181.414 132.218 181.147 132.503 180.821 132.737ZM71.8032 135.415C72.0659 136.223 72.772 136.874 73.56 137.033C74.1128 137.146 74.7208 137.01 75.1888 136.673C75.461 136.477 75.7999 136.129 75.8683 135.582C75.9006 135.321 75.8437 135.059 75.7258 134.849C75.2608 134.884 74.7944 134.922 74.3259 134.964C74.1377 135.094 73.8896 135.126 73.6679 135.024C73.0326 135.085 72.3948 135.154 71.7556 135.229C71.7707 135.291 71.7834 135.354 71.8032 135.415ZM77.1959 135.747C77.0962 136.548 76.6611 137.262 75.9702 137.759C75.3839 138.181 74.659 138.408 73.9426 138.408C73.7243 138.408 73.5075 138.388 73.2953 138.345C72.029 138.089 70.944 137.101 70.5306 135.828C70.4847 135.686 70.4483 135.542 70.4189 135.397C69.6454 135.5 68.8712 135.616 68.0974 135.745C68.1687 136.133 68.2779 136.516 68.4297 136.89C69.0121 138.323 70.1176 139.445 71.5433 140.047H71.5438C74.3115 141.215 77.5341 139.86 78.8806 136.964C79.2323 136.207 79.419 135.415 79.4444 134.628C78.6762 134.662 77.8998 134.704 77.1163 134.753C77.2047 135.071 77.2379 135.409 77.1959 135.747ZM83.809 135.376C83.976 135.112 84.0756 134.813 84.1234 134.504C83.2208 134.509 82.3178 134.523 81.4137 134.552C81.2044 134.558 80.9924 134.567 80.7815 134.574C80.7713 135.131 80.6965 135.689 80.5532 136.24C80.5857 136.24 80.6165 136.231 80.6497 136.236C80.9185 136.271 81.179 136.345 81.4248 136.451C82.3249 136.568 83.3216 136.148 83.809 135.376ZM172.522 137.583C173.888 137.968 175.256 137.427 175.962 136.29C175.932 136.278 175.903 136.27 175.873 136.258C173.894 135.422 172.493 133.788 171.874 131.889C170.868 132.402 170.336 133.602 170.327 134.654C170.315 135.945 171.279 137.232 172.522 137.583ZM173.777 121.713C173.292 122.519 173.352 123.62 173.873 124.4C174.749 123.612 175.803 123.057 176.935 122.775C176.5 122.04 176.054 121.302 175.598 120.559C174.861 120.663 174.158 121.079 173.777 121.713ZM177.286 136.673C177.277 136.691 177.27 136.71 177.261 136.727C177.017 137.371 177.049 138.104 177.36 138.749C177.695 139.44 178.305 139.907 179.035 140.028C180.26 140.23 180.975 139.52 181.294 139.079C181.937 138.188 182.083 136.95 181.694 135.964C180.694 136.495 179.586 136.784 178.461 136.784C178.07 136.784 177.677 136.744 177.286 136.673ZM182.837 135.215C182.836 135.213 182.836 135.211 182.835 135.209C182.835 135.21 182.834 135.21 182.834 135.21C182.835 135.212 182.836 135.213 182.837 135.215ZM170.11 125.903C169.246 126.631 168.95 127.999 169.436 129.02C169.861 129.912 170.665 130.436 171.561 130.447C171.434 129.281 171.59 128.068 172.077 126.913C172.288 126.413 172.555 125.954 172.858 125.531C171.971 125.153 170.847 125.283 170.11 125.903ZM180.687 158.254C184.298 153.084 185.396 144.938 183.491 137.473C183.409 137.439 183.325 137.411 183.246 137.371C183.199 138.254 182.906 139.132 182.379 139.862C181.659 140.861 180.617 141.402 179.457 141.402C179.247 141.402 179.033 141.384 178.816 141.348C177.651 141.155 176.681 140.42 176.155 139.331C175.997 139.003 175.886 138.659 175.823 138.31C174.783 138.997 173.452 139.236 172.159 138.87C170.334 138.355 168.971 136.537 168.988 134.641C169 133.419 169.454 132.303 170.197 131.508C169.362 131.157 168.655 130.493 168.227 129.594C167.48 128.026 167.919 125.999 169.248 124.879C170.072 124.186 171.182 123.886 172.243 124.001C171.978 123.009 172.094 121.914 172.63 121.023C173.125 120.2 173.941 119.613 174.849 119.347C174.602 118.949 174.352 118.549 174.1 118.147C173.395 117.023 172.71 115.913 172.048 114.806C171.921 115.19 171.755 115.563 171.548 115.911C170.927 116.977 169.942 117.853 168.747 118.341C167.544 118.811 166.226 118.854 165.042 118.509C163.861 118.175 162.779 117.455 162.124 116.448C161.94 116.165 162.02 115.787 162.302 115.603C162.512 115.467 162.774 115.475 162.97 115.604L162.997 115.622C163.778 116.134 164.619 116.439 165.472 116.553C166.323 116.657 167.18 116.576 167.919 116.27C168.666 115.983 169.343 115.451 169.888 114.79C170.338 114.232 170.682 113.58 170.911 112.856C168.245 108.162 166.115 103.396 165.124 97.6744C164.642 94.8892 164.411 92.054 164.423 89.2162C164.186 89.4504 163.93 89.6658 163.655 89.8549C162.645 90.5621 161.383 90.9447 160.093 90.8864C158.805 90.8089 157.59 90.2957 156.66 89.4865C155.727 88.6885 155.047 87.5815 154.874 86.3921C154.825 86.0582 155.057 85.7483 155.39 85.6999C155.638 85.664 155.872 85.7815 155.996 85.9805L156.013 86.0081C156.508 86.8002 157.143 87.4301 157.87 87.8909C158.6 88.3418 159.411 88.6278 160.211 88.6595C161.009 88.7122 161.846 88.5128 162.619 88.1411C163.321 87.7937 163.957 87.2915 164.499 86.6512C164.695 83.1907 165.26 79.7488 166.181 76.4089C165.822 76.2801 165.465 76.1493 165.11 76.0191C163.459 75.4144 161.753 74.7893 160.059 74.4157C159.71 74.3386 159.359 74.2758 159.007 74.2192C158.978 74.2397 158.951 74.2618 158.919 74.279C149.571 79.3564 146.096 91.1039 147.496 100.084C147.719 101.512 148.092 102.886 148.568 104.22C148.598 104.244 148.629 104.265 148.653 104.294L148.674 104.318C149.286 105.023 150.012 105.546 150.803 105.887C151.594 106.219 152.44 106.374 153.235 106.28C154.032 106.207 154.827 105.879 155.532 105.391C156.235 104.893 156.837 104.231 157.289 103.415L157.305 103.387C157.468 103.092 157.84 102.985 158.135 103.148C158.353 103.269 158.468 103.505 158.447 103.739C158.336 104.936 157.714 106.076 156.824 106.922C155.937 107.778 154.75 108.354 153.467 108.498C152.293 108.612 151.124 108.354 150.132 107.809C151.74 110.938 153.826 113.866 155.873 116.739C157.672 119.264 159.533 121.876 161.048 124.587C164.475 130.726 166.276 137.667 166.366 144.645C166.764 145.209 167.241 145.683 167.778 146.061C168.484 146.547 169.281 146.872 170.078 146.942C170.873 147.034 171.719 146.876 172.509 146.542C173.298 146.198 174.023 145.673 174.632 144.965L174.653 144.941C174.873 144.686 175.259 144.657 175.515 144.878C175.704 145.041 175.768 145.295 175.699 145.52C175.346 146.669 174.505 147.658 173.461 148.304C172.418 148.961 171.138 149.282 169.853 149.161C168.57 149.021 167.381 148.45 166.491 147.596C166.43 147.538 166.372 147.475 166.313 147.414C166.158 150.367 165.691 153.308 164.909 156.18C169.027 156.99 173.226 157.739 177.396 158.073C178.503 158.161 179.599 158.22 180.687 158.254Z"/>
</mask>
<path d="M125.85 164.768C125.544 165.196 125.279 165.656 125.069 166.151C124.582 167.306 124.426 168.518 124.553 169.684C123.656 169.674 122.853 169.15 122.428 168.258C121.942 167.238 122.239 165.869 123.103 165.141C123.839 164.52 124.963 164.391 125.85 164.768ZM49.6541 172.246C48.2639 171.751 46.9122 171.154 45.6325 170.411C43.4298 169.132 41.6014 167.471 40.2659 165.601C37.5329 166.738 35.6757 166.191 34.5961 165.522C32.6791 164.334 31.4707 161.731 31.2809 158.381L31.2456 157.719C31.1467 155.799 31.0536 153.986 30.303 152.402C29.8984 151.547 29.1891 150.751 28.3597 150.276C29.2221 151.881 29.3523 153.913 29.1089 155.545L28.9853 156.363C28.0271 162.684 27.27 167.677 33.6484 170.844C37.2463 172.631 41.5458 172.686 44.8894 172.535C45.8803 172.491 46.8931 172.423 47.8732 172.358C48.4629 172.319 49.0574 172.281 49.6541 172.246ZM156.517 69.462C160.664 67.839 165.928 67.0545 171.342 67.2632C173.215 67.3338 175.361 67.5519 177.073 68.6309C178.493 69.527 179.704 71.3465 179.268 73.0918C178.75 75.1709 176.231 76.1989 174.11 76.2743C171.262 76.3763 168.576 75.3884 165.724 74.3437C164.019 73.7191 162.255 73.0727 160.444 72.6733C158.989 72.3522 157.505 72.1933 156.023 72.1933C154.33 72.1933 152.64 72.4006 150.997 72.8101C152.693 71.4718 154.433 70.2782 156.517 69.462ZM166.553 71.3668C166.546 71.7196 166.708 72.0804 167.008 72.3822C167.557 72.9336 168.486 73.2468 169.566 73.2468C169.591 73.2468 169.617 73.2468 169.642 73.2463C170.751 73.2315 171.806 72.873 172.329 72.3341C172.555 72.101 172.672 71.8405 172.667 71.5806C172.661 71.2325 172.456 70.8897 172.072 70.5896C171.762 70.3468 171.311 70.1295 170.781 69.9796C170.384 70.4072 169.987 70.8347 169.59 71.2623C169.267 70.8389 169.067 70.3264 169.002 69.7979C168.735 69.8155 168.463 69.8461 168.188 69.9088C167.176 70.1401 166.565 70.6855 166.553 71.3668ZM135.735 96.5916C135.62 106.427 140.525 114.888 144.661 120.255C149.289 126.258 156.432 132.114 162.734 137.281C163.163 137.633 163.587 137.98 164.006 138.325C163.242 133.833 161.729 129.466 159.491 125.457C158.024 122.831 156.193 120.26 154.42 117.774C150.663 112.5 146.777 107.047 145.734 100.358C144.344 91.4404 147.493 79.9524 156.027 73.9799C153.228 73.9793 150.435 74.5961 147.894 75.808C147.08 76.1962 146.295 76.6483 145.543 77.158C145.387 77.27 145.229 77.3806 145.069 77.49C139.472 81.5396 135.826 88.8202 135.735 96.5916ZM84.9402 136.091C85.2447 135.609 85.4199 135.063 85.4757 134.505C91.2278 134.548 96.9489 135.052 102.628 135.847C101.84 136.525 101.222 137.425 100.891 138.454C100.513 139.688 100.57 141.006 101.003 142.16C101.425 143.313 102.224 144.337 103.279 144.915C103.485 145.027 103.747 145.015 103.945 144.863C104.212 144.657 104.262 144.274 104.056 144.007L104.036 143.981C103.467 143.242 103.099 142.426 102.921 141.584C102.753 140.743 102.769 139.883 103.019 139.122C103.248 138.356 103.727 137.641 104.346 137.047C104.664 136.748 105.018 136.484 105.406 136.258C114.348 137.656 123.18 139.702 131.854 141.712C133.542 142.103 135.278 142.498 137.036 142.894C137.007 142.973 136.975 143.05 136.949 143.131C136.571 144.365 136.628 145.683 137.061 146.837C137.483 147.99 138.283 149.014 139.336 149.591C139.543 149.704 139.805 149.692 140.003 149.54C140.27 149.334 140.32 148.95 140.114 148.683L140.095 148.658C139.525 147.918 139.157 147.103 138.979 146.26C138.811 145.42 138.827 144.559 139.077 143.799C139.119 143.659 139.177 143.524 139.235 143.388C142.245 144.06 145.299 144.733 148.299 145.394C153.684 146.579 159.245 147.804 164.399 148.996C164.182 151.299 163.772 153.588 163.154 155.832C162.743 155.749 162.332 155.667 161.924 155.584C159.017 154.999 156.035 154.398 153.046 153.915C153.315 153.661 153.588 153.423 153.873 153.2C154.202 152.943 154.544 152.705 154.909 152.479C155.275 152.249 155.659 152.041 156.098 151.798L156.152 151.768C156.294 151.689 156.405 151.556 156.454 151.389C156.552 151.05 156.357 150.696 156.019 150.598C155.417 150.423 154.773 150.456 154.169 150.611C153.564 150.769 152.994 151.057 152.5 151.442C152.007 151.827 151.589 152.31 151.288 152.858C151.16 153.095 151.058 153.345 150.979 153.602C150.746 153.569 150.513 153.534 150.281 153.503C139.667 152.086 131.16 151.96 123.515 153.109C121.342 153.435 119.168 153.776 116.992 154.118C116.909 154.131 116.824 154.144 116.741 154.157C116.314 153.514 116.02 152.827 115.871 152.116C115.703 151.276 115.718 150.415 115.968 149.655C116.198 148.888 116.677 148.174 117.295 147.58C117.923 146.99 118.691 146.531 119.581 146.25L119.612 146.24C119.836 146.169 120.008 145.972 120.034 145.723C120.071 145.388 119.828 145.087 119.493 145.051C118.298 144.922 117.056 145.305 116.051 146.01C115.036 146.709 114.236 147.758 113.84 148.987C113.463 150.221 113.519 151.539 113.952 152.693C114.186 153.331 114.539 153.927 114.983 154.432C109.07 155.356 103.005 156.269 97.0141 156.83C86.8512 157.781 76.124 158.32 65.9065 156.206C66.1726 155.723 66.3071 155.319 66.45 154.905C66.6182 154.41 66.8792 153.935 67.2235 153.507C67.5588 153.071 67.9785 152.692 68.4468 152.365C68.9193 152.042 69.4462 151.796 70.0263 151.602L70.0715 151.588C70.2923 151.514 70.4605 151.316 70.4847 151.069C70.5176 150.734 70.2729 150.436 69.938 150.403C69.1652 150.327 68.3574 150.451 67.6235 150.755C66.8866 151.053 66.2019 151.506 65.6391 152.091C65.0726 152.672 64.6188 153.383 64.345 154.175C64.1499 154.704 64.0886 155.288 64.2166 155.836C63.584 155.685 62.9526 155.528 62.3248 155.356C58.6479 154.346 54.0907 152.313 53.2591 148.364C52.6044 145.254 54.6599 142.171 56.9878 140.495C59.4934 138.69 62.3878 137.203 64.9887 136.354C65.1052 136.418 65.224 136.478 65.3464 136.53C64.6033 137.325 64.149 138.441 64.1377 139.663C64.1207 141.56 65.4836 143.377 67.308 143.892C68.604 144.258 69.9319 144.02 70.973 143.332C71.0357 143.681 71.1459 144.025 71.3045 144.353C71.8307 145.442 72.8003 146.177 73.9651 146.37C74.1821 146.406 74.396 146.424 74.6058 146.424C75.7663 146.424 76.8077 145.883 77.5279 144.884C78.0554 144.154 78.3481 143.276 78.3955 142.394C79.0381 142.717 79.7685 142.855 80.4873 142.751C82.0555 142.522 83.3379 141.125 83.4071 139.57C83.4385 138.88 83.222 138.204 82.8405 137.642C83.6927 137.387 84.4616 136.849 84.9402 136.091ZM87.3626 149.585C87.7845 150.738 88.5841 151.762 89.6382 152.339C89.8443 152.452 90.1063 152.44 90.3043 152.288C90.5716 152.082 90.6213 151.698 90.4156 151.431L90.3961 151.406C89.8265 150.666 89.4583 149.851 89.2807 149.008C89.1128 148.167 89.1284 147.307 89.3782 146.547C89.6079 145.78 90.087 145.065 90.7052 144.472C91.3327 143.882 92.1009 143.423 92.9911 143.142L93.0221 143.132C93.2458 143.061 93.4179 142.863 93.4446 142.615C93.4807 142.28 93.2382 141.979 92.9028 141.943C91.7078 141.814 90.4665 142.197 89.4614 142.902C88.4459 143.601 87.6463 144.65 87.2503 145.878C86.873 147.113 86.9292 148.431 87.3626 149.585ZM134.602 171.149C135.295 171.185 135.989 171.22 136.681 171.261C136.694 171.233 136.71 171.208 136.723 171.18C137.221 170.109 137.389 168.968 137.232 167.871C137.139 167.828 137.053 167.766 136.986 167.679C136.075 166.512 134.804 165.767 133.5 165.634C132.128 165.499 130.736 166.103 130.034 167.145C129.537 167.884 129.388 168.836 129.646 169.631C129.83 170.198 130.234 170.683 130.73 170.979C131.398 171.003 132.064 171.032 132.731 171.061C132.835 171.01 132.938 170.957 133.031 170.889C133.304 170.693 133.642 170.345 133.711 169.798C133.766 169.353 133.566 168.9 133.235 168.72C133.085 168.639 132.879 168.625 132.696 168.685C132.612 168.712 132.46 168.779 132.392 168.922C132.233 169.255 131.834 169.396 131.5 169.237C131.167 169.077 131.025 168.677 131.185 168.344C131.395 167.904 131.786 167.573 132.284 167.412C132.82 167.238 133.399 167.286 133.873 167.543C134.682 167.982 135.162 168.977 135.039 169.963C134.985 170.39 134.834 170.791 134.602 171.149ZM128.373 170.044C127.985 168.85 128.191 167.486 128.924 166.398C129.91 164.935 131.76 164.115 133.635 164.303C134.427 164.384 135.204 164.641 135.925 165.04C135.378 164.425 134.693 163.926 133.894 163.588C130.951 162.346 127.545 163.728 126.302 166.672C125.715 168.062 125.72 169.553 126.193 170.873C127.06 170.883 127.926 170.899 128.792 170.922C128.617 170.651 128.474 170.356 128.373 170.044ZM129.625 159.865C128.587 159.54 127.331 160.018 126.769 160.951C126.285 161.756 126.344 162.855 126.864 163.635C127.473 163.086 128.174 162.635 128.956 162.318C129.719 162.008 130.514 161.843 131.313 161.805C131.14 160.927 130.481 160.131 129.625 159.865ZM212.605 167.621C206.824 173.021 199.347 174.902 191.207 175.231C191.083 175.028 190.969 174.82 190.871 174.606C190.524 173.822 190.352 172.979 190.43 172.182C190.487 171.384 190.799 170.582 191.273 169.868C191.756 169.155 192.406 168.54 193.214 168.072L193.242 168.056C193.445 167.938 193.57 167.707 193.542 167.459C193.504 167.124 193.201 166.883 192.866 166.921C191.672 167.056 190.544 167.7 189.717 168.607C188.878 169.511 188.326 170.709 188.208 171.994C188.118 173.158 188.392 174.31 188.944 175.284C183.086 175.326 176.942 174.679 170.878 174.037C167.495 173.679 164.3 173.34 161.139 173.117C157.822 172.883 154.452 172.607 151.187 172.338C151.118 171.967 151.089 171.595 151.118 171.231C151.16 170.431 151.456 169.624 151.917 168.901C152.387 168.179 153.025 167.552 153.823 167.068L153.851 167.052C154.052 166.93 154.173 166.697 154.14 166.45C154.095 166.115 153.789 165.88 153.454 165.924C152.263 166.081 151.147 166.747 150.337 167.669C149.516 168.589 148.987 169.797 148.892 171.084C148.871 171.445 148.888 171.802 148.934 172.154C146.429 171.95 143.912 171.751 141.385 171.571C141.948 171.277 142.441 170.85 142.783 170.307C143.73 168.808 143.44 166.693 142.122 165.492C141.324 164.766 140.165 164.425 139.062 164.489C139.256 163.952 139.343 163.376 139.306 162.799C139.238 161.696 138.805 160.773 138.056 160.13C137.308 159.487 136.292 159.189 135.189 159.287C134.183 159.377 133.072 159.804 132.298 160.566C131.839 159.644 131.021 158.898 130.023 158.587C128.393 158.079 126.502 158.799 125.623 160.262C125.086 161.153 124.969 162.248 125.234 163.239C124.174 163.126 123.064 163.425 122.241 164.118C120.912 165.237 120.472 167.264 121.219 168.833C121.647 169.732 122.354 170.396 123.189 170.746C123.155 170.782 123.124 170.823 123.091 170.862C117.067 170.897 111.03 171.265 105.022 172.198C102.684 172.561 100.362 172.868 98.055 173.132C97.5954 172.427 97.2919 171.639 97.2365 170.854C97.1591 170.058 97.3322 169.215 97.6799 168.431C98.0378 167.648 98.5753 166.933 99.2931 166.336L99.318 166.315C99.4982 166.165 99.5829 165.917 99.5136 165.677C99.4201 165.353 99.0817 165.166 98.7576 165.259C97.6027 165.592 96.5983 166.416 95.9344 167.449C95.259 168.48 94.9157 169.754 95.0138 171.041C95.0903 171.878 95.3534 172.676 95.7571 173.383C86.6533 174.297 77.8083 174.428 69.299 173.778C68.9427 173.383 68.6412 172.956 68.4105 172.497C68.0337 171.727 67.8291 170.891 67.8765 170.092C67.9028 169.292 68.1836 168.479 68.6299 167.747C69.086 167.017 69.7116 166.377 70.5007 165.878L70.5281 165.861C70.7262 165.735 70.8423 165.5 70.8048 165.253C70.754 164.919 70.4427 164.69 70.1093 164.741C68.921 164.922 67.8184 165.609 67.0267 166.547C66.2234 167.482 65.7182 168.701 65.6489 169.99C65.5991 171.279 65.99 172.539 66.7037 173.545C66.7067 173.549 66.7101 173.553 66.7132 173.557C63.9007 173.287 61.1264 172.931 58.3934 172.487C53.7012 171.727 49.888 170.82 46.5281 168.869C42.6866 166.637 40.1223 163.158 39.6679 159.56C39.132 155.314 41.4422 151.274 43.4742 148.633C46.7283 144.402 50.9024 141.449 55.5145 139.377C52.9035 141.455 50.7358 145.038 51.5135 148.731C51.6226 149.249 51.7879 149.733 51.9859 150.196C51.115 149.988 50.1742 150.024 49.2976 150.272C48.1081 150.597 47.0074 151.324 46.2285 152.353C45.4652 153.394 45.0838 154.657 45.1123 155.889C45.1302 157.117 45.5477 158.347 46.3522 159.24C46.5095 159.414 46.7608 159.489 46.9981 159.411C47.3182 159.304 47.4916 158.959 47.3856 158.639L47.3756 158.609C47.0818 157.722 47.0032 156.831 47.1133 155.977C47.2322 155.128 47.5304 154.321 48.017 153.685C48.4866 153.037 49.1746 152.521 49.9542 152.164C50.7412 151.814 51.6175 151.634 52.5509 151.662L52.5832 151.663C52.6521 151.665 52.7192 151.652 52.7841 151.632C54.8178 154.562 58.6342 156.192 61.8526 157.076C68.692 158.955 75.7819 159.518 82.8223 159.445C82.4753 159.702 82.1556 160 81.8761 160.331C81.0728 161.266 80.5676 162.485 80.4983 163.773C80.4485 165.063 80.8394 166.323 81.5531 167.328C82.2553 168.335 83.2898 169.121 84.4564 169.41C84.6843 169.467 84.9346 169.388 85.0872 169.19C85.293 168.923 85.2434 168.54 84.9761 168.334L84.9509 168.314C84.2113 167.745 83.6471 167.05 83.2603 166.281C82.8835 165.511 82.6787 164.675 82.7263 163.876C82.7526 163.076 83.0334 162.263 83.4796 161.531C83.9357 160.8 84.5614 160.161 85.3504 159.662L85.3779 159.644C85.4771 159.581 85.5557 159.491 85.6048 159.385C89.5083 159.257 93.3847 158.961 97.1813 158.606C100.765 158.27 104.367 157.809 107.944 157.297C107.491 157.849 107.131 158.488 106.905 159.188C106.528 160.422 106.584 161.74 107.018 162.894C107.439 164.047 108.239 165.071 109.293 165.649C109.499 165.761 109.761 165.749 109.959 165.597C110.227 165.391 110.276 165.008 110.071 164.74L110.051 164.715C109.482 163.975 109.113 163.16 108.936 162.317C108.768 161.477 108.783 160.616 109.033 159.856C109.263 159.089 109.742 158.375 110.36 157.781C110.829 157.34 111.376 156.973 111.994 156.698C113.764 156.429 115.525 156.153 117.269 155.879C119.441 155.539 121.611 155.198 123.78 154.872C131.358 153.735 139.458 153.858 150.045 155.271C153.893 155.785 157.796 156.572 161.571 157.333C165.092 158.043 168.697 158.764 172.329 159.285C172.02 159.509 171.73 159.763 171.472 160.045C170.633 160.949 170.082 162.147 169.963 163.432C169.864 164.719 170.206 165.993 170.88 167.025C171.543 168.059 172.547 168.883 173.701 169.217C173.927 169.282 174.18 169.214 174.34 169.022C174.556 168.763 174.521 168.378 174.262 168.162L174.238 168.141C173.521 167.544 172.984 166.828 172.627 166.044C172.28 165.26 172.107 164.417 172.186 163.621C172.243 162.823 172.554 162.021 173.028 161.306C173.481 160.64 174.084 160.064 174.82 159.609C175.631 159.701 176.443 159.786 177.255 159.851C179.094 159.998 180.91 160.071 182.697 160.071C185.539 160.071 188.306 159.886 190.966 159.514L191.46 159.446C195.315 158.914 200.594 158.185 203.632 155.537C204.949 154.388 205.001 153.268 204.814 152.53C204.758 152.313 204.675 152.103 204.568 151.901C205.872 152.318 207.176 152.85 208.415 153.533C208.339 153.607 208.263 153.68 208.192 153.757C207.354 154.661 206.802 155.859 206.683 157.145C206.584 158.431 206.926 159.705 207.601 160.738C208.264 161.771 209.267 162.596 210.422 162.93C210.648 162.995 210.901 162.926 211.061 162.734C211.277 162.475 211.242 162.09 210.983 161.874L210.958 161.854C210.241 161.256 209.704 160.54 209.347 159.756C209 158.972 208.828 158.13 208.906 157.333C208.963 156.535 209.275 155.733 209.749 155.019C209.851 154.869 209.964 154.726 210.08 154.585C212.123 156.083 213.585 157.981 214.254 160.043C215.152 162.815 214.489 165.86 212.605 167.621ZM57.1181 158.418C55.923 158.289 54.6818 158.672 53.6766 159.377C52.6611 160.076 51.8615 161.125 51.4656 162.354C51.0882 163.588 51.1445 164.906 51.5779 166.06C51.9997 167.213 52.7995 168.237 53.8534 168.815C54.0595 168.927 54.3215 168.915 54.5195 168.763C54.7868 168.557 54.8366 168.174 54.6308 167.906L54.6115 167.881C54.0419 167.141 53.6737 166.326 53.4961 165.483C53.3282 164.643 53.3436 163.782 53.5936 163.022C53.8233 162.255 54.3024 161.541 54.9206 160.947C55.5481 160.357 56.3163 159.898 57.2065 159.617L57.2375 159.607C57.4612 159.536 57.6334 159.339 57.66 159.09C57.6959 158.755 57.4534 158.454 57.1181 158.418ZM137.184 161.144C136.706 160.734 136.057 160.553 135.31 160.619C134.389 160.702 133.402 161.164 132.938 161.915C133.439 162.009 133.934 162.152 134.414 162.355C135.654 162.878 136.677 163.715 137.41 164.766C137.802 164.225 138.012 163.545 137.971 162.881C137.925 162.148 137.654 161.547 137.184 161.144ZM182.795 158.284C185.52 158.28 188.171 158.103 190.719 157.748L191.216 157.679C194.848 157.178 199.823 156.491 202.459 154.192C203.225 153.524 203.119 153.107 203.084 152.97C202.86 152.089 201.239 151.17 199.865 150.864C199.713 150.83 199.581 150.756 199.472 150.66C195.009 149.791 190.452 149.326 185.908 149.282C185.466 152.403 184.493 155.511 182.795 158.284ZM141.652 169.593C142.253 168.641 142.06 167.245 141.221 166.482C140.444 165.774 139.054 165.622 138.129 166.09C138.142 166.122 138.158 166.152 138.171 166.184C138.697 167.55 138.768 169.028 138.396 170.457C138.428 170.456 138.459 170.448 138.492 170.452C138.761 170.487 139.022 170.561 139.268 170.668C140.168 170.787 141.164 170.364 141.652 169.593ZM77.9833 140.232C78.4311 141.047 79.4046 141.555 80.2946 141.426C81.2329 141.289 82.0295 140.429 82.0709 139.51C82.103 138.787 81.6522 138.072 81.0273 137.741C80.7754 137.693 80.5281 137.616 80.291 137.511C80.2341 137.485 80.1881 137.447 80.142 137.409C80.1246 137.448 80.1118 137.488 80.0937 137.527C79.5846 138.623 78.8514 139.533 77.9833 140.232ZM172.514 78.0093C170.924 77.8699 169.381 77.4768 167.873 76.9897C166.063 83.6079 165.717 90.64 166.883 97.3697C167.988 103.752 170.607 108.957 173.81 114.273C170.295 102.554 169.818 89.9807 172.514 78.0093ZM72.4361 141.695C72.4272 141.713 72.42 141.732 72.4107 141.749C72.1663 142.393 72.1982 143.126 72.5096 143.77C72.8441 144.462 73.4545 144.928 74.185 145.05C75.409 145.251 76.1247 144.542 76.4431 144.101C77.0865 143.209 77.2322 141.971 76.8433 140.986C75.8434 141.517 74.7356 141.805 73.6105 141.805C73.2196 141.805 72.827 141.765 72.4361 141.695ZM67.6716 142.604C69.0392 142.99 70.4063 142.449 71.1112 141.312C71.0819 141.3 71.0519 141.292 71.0226 141.279C69.044 140.444 67.6437 138.812 67.0245 136.914C66.1052 137.382 65.4875 138.447 65.4762 139.675C65.4645 140.967 66.4288 142.253 67.6716 142.604ZM177.042 127.908C176.544 128.646 176.396 129.599 176.653 130.393C176.916 131.202 177.622 131.852 178.41 132.011C178.961 132.124 179.571 131.988 180.039 131.651C180.311 131.456 180.65 131.107 180.719 130.56C180.774 130.115 180.574 129.661 180.243 129.482C180.093 129.401 179.887 129.387 179.704 129.447C179.62 129.474 179.468 129.541 179.4 129.684C179.24 130.018 178.84 130.159 178.507 129.998C178.174 129.839 178.033 129.439 178.193 129.106C178.404 128.666 178.794 128.335 179.291 128.174C179.479 128.113 179.673 128.089 179.865 128.082C179.603 127.563 179.336 127.044 179.059 126.526C178.228 126.754 177.492 127.239 177.042 127.908ZM180.821 132.737C180.235 133.159 179.51 133.386 178.793 133.386C178.575 133.386 178.358 133.366 178.146 133.323C176.88 133.067 175.794 132.08 175.381 130.807C174.993 129.612 175.199 128.249 175.932 127.16C176.512 126.298 177.395 125.667 178.405 125.326C178.156 124.879 177.901 124.432 177.642 123.984C177.245 124.055 176.851 124.164 176.467 124.32C175.033 124.902 173.912 126.008 173.31 127.434C172.068 130.377 173.451 133.783 176.395 135.025C178.454 135.896 180.767 135.365 182.371 133.841C182.136 133.189 181.883 132.543 181.618 131.9C181.414 132.218 181.147 132.503 180.821 132.737ZM71.8032 135.415C72.0659 136.223 72.772 136.874 73.56 137.033C74.1128 137.146 74.7208 137.01 75.1888 136.673C75.461 136.477 75.7999 136.129 75.8683 135.582C75.9006 135.321 75.8437 135.059 75.7258 134.849C75.2608 134.884 74.7944 134.922 74.3259 134.964C74.1377 135.094 73.8896 135.126 73.6679 135.024C73.0326 135.085 72.3948 135.154 71.7556 135.229C71.7707 135.291 71.7834 135.354 71.8032 135.415ZM77.1959 135.747C77.0962 136.548 76.6611 137.262 75.9702 137.759C75.3839 138.181 74.659 138.408 73.9426 138.408C73.7243 138.408 73.5075 138.388 73.2953 138.345C72.029 138.089 70.944 137.101 70.5306 135.828C70.4847 135.686 70.4483 135.542 70.4189 135.397C69.6454 135.5 68.8712 135.616 68.0974 135.745C68.1687 136.133 68.2779 136.516 68.4297 136.89C69.0121 138.323 70.1176 139.445 71.5433 140.047H71.5438C74.3115 141.215 77.5341 139.86 78.8806 136.964C79.2323 136.207 79.419 135.415 79.4444 134.628C78.6762 134.662 77.8998 134.704 77.1163 134.753C77.2047 135.071 77.2379 135.409 77.1959 135.747ZM83.809 135.376C83.976 135.112 84.0756 134.813 84.1234 134.504C83.2208 134.509 82.3178 134.523 81.4137 134.552C81.2044 134.558 80.9924 134.567 80.7815 134.574C80.7713 135.131 80.6965 135.689 80.5532 136.24C80.5857 136.24 80.6165 136.231 80.6497 136.236C80.9185 136.271 81.179 136.345 81.4248 136.451C82.3249 136.568 83.3216 136.148 83.809 135.376ZM172.522 137.583C173.888 137.968 175.256 137.427 175.962 136.29C175.932 136.278 175.903 136.27 175.873 136.258C173.894 135.422 172.493 133.788 171.874 131.889C170.868 132.402 170.336 133.602 170.327 134.654C170.315 135.945 171.279 137.232 172.522 137.583ZM173.777 121.713C173.292 122.519 173.352 123.62 173.873 124.4C174.749 123.612 175.803 123.057 176.935 122.775C176.5 122.04 176.054 121.302 175.598 120.559C174.861 120.663 174.158 121.079 173.777 121.713ZM177.286 136.673C177.277 136.691 177.27 136.71 177.261 136.727C177.017 137.371 177.049 138.104 177.36 138.749C177.695 139.44 178.305 139.907 179.035 140.028C180.26 140.23 180.975 139.52 181.294 139.079C181.937 138.188 182.083 136.95 181.694 135.964C180.694 136.495 179.586 136.784 178.461 136.784C178.07 136.784 177.677 136.744 177.286 136.673ZM182.837 135.215C182.836 135.213 182.836 135.211 182.835 135.209C182.835 135.21 182.834 135.21 182.834 135.21C182.835 135.212 182.836 135.213 182.837 135.215ZM170.11 125.903C169.246 126.631 168.95 127.999 169.436 129.02C169.861 129.912 170.665 130.436 171.561 130.447C171.434 129.281 171.59 128.068 172.077 126.913C172.288 126.413 172.555 125.954 172.858 125.531C171.971 125.153 170.847 125.283 170.11 125.903ZM180.687 158.254C184.298 153.084 185.396 144.938 183.491 137.473C183.409 137.439 183.325 137.411 183.246 137.371C183.199 138.254 182.906 139.132 182.379 139.862C181.659 140.861 180.617 141.402 179.457 141.402C179.247 141.402 179.033 141.384 178.816 141.348C177.651 141.155 176.681 140.42 176.155 139.331C175.997 139.003 175.886 138.659 175.823 138.31C174.783 138.997 173.452 139.236 172.159 138.87C170.334 138.355 168.971 136.537 168.988 134.641C169 133.419 169.454 132.303 170.197 131.508C169.362 131.157 168.655 130.493 168.227 129.594C167.48 128.026 167.919 125.999 169.248 124.879C170.072 124.186 171.182 123.886 172.243 124.001C171.978 123.009 172.094 121.914 172.63 121.023C173.125 120.2 173.941 119.613 174.849 119.347C174.602 118.949 174.352 118.549 174.1 118.147C173.395 117.023 172.71 115.913 172.048 114.806C171.921 115.19 171.755 115.563 171.548 115.911C170.927 116.977 169.942 117.853 168.747 118.341C167.544 118.811 166.226 118.854 165.042 118.509C163.861 118.175 162.779 117.455 162.124 116.448C161.94 116.165 162.02 115.787 162.302 115.603C162.512 115.467 162.774 115.475 162.97 115.604L162.997 115.622C163.778 116.134 164.619 116.439 165.472 116.553C166.323 116.657 167.18 116.576 167.919 116.27C168.666 115.983 169.343 115.451 169.888 114.79C170.338 114.232 170.682 113.58 170.911 112.856C168.245 108.162 166.115 103.396 165.124 97.6744C164.642 94.8892 164.411 92.054 164.423 89.2162C164.186 89.4504 163.93 89.6658 163.655 89.8549C162.645 90.5621 161.383 90.9447 160.093 90.8864C158.805 90.8089 157.59 90.2957 156.66 89.4865C155.727 88.6885 155.047 87.5815 154.874 86.3921C154.825 86.0582 155.057 85.7483 155.39 85.6999C155.638 85.664 155.872 85.7815 155.996 85.9805L156.013 86.0081C156.508 86.8002 157.143 87.4301 157.87 87.8909C158.6 88.3418 159.411 88.6278 160.211 88.6595C161.009 88.7122 161.846 88.5128 162.619 88.1411C163.321 87.7937 163.957 87.2915 164.499 86.6512C164.695 83.1907 165.26 79.7488 166.181 76.4089C165.822 76.2801 165.465 76.1493 165.11 76.0191C163.459 75.4144 161.753 74.7893 160.059 74.4157C159.71 74.3386 159.359 74.2758 159.007 74.2192C158.978 74.2397 158.951 74.2618 158.919 74.279C149.571 79.3564 146.096 91.1039 147.496 100.084C147.719 101.512 148.092 102.886 148.568 104.22C148.598 104.244 148.629 104.265 148.653 104.294L148.674 104.318C149.286 105.023 150.012 105.546 150.803 105.887C151.594 106.219 152.44 106.374 153.235 106.28C154.032 106.207 154.827 105.879 155.532 105.391C156.235 104.893 156.837 104.231 157.289 103.415L157.305 103.387C157.468 103.092 157.84 102.985 158.135 103.148C158.353 103.269 158.468 103.505 158.447 103.739C158.336 104.936 157.714 106.076 156.824 106.922C155.937 107.778 154.75 108.354 153.467 108.498C152.293 108.612 151.124 108.354 150.132 107.809C151.74 110.938 153.826 113.866 155.873 116.739C157.672 119.264 159.533 121.876 161.048 124.587C164.475 130.726 166.276 137.667 166.366 144.645C166.764 145.209 167.241 145.683 167.778 146.061C168.484 146.547 169.281 146.872 170.078 146.942C170.873 147.034 171.719 146.876 172.509 146.542C173.298 146.198 174.023 145.673 174.632 144.965L174.653 144.941C174.873 144.686 175.259 144.657 175.515 144.878C175.704 145.041 175.768 145.295 175.699 145.52C175.346 146.669 174.505 147.658 173.461 148.304C172.418 148.961 171.138 149.282 169.853 149.161C168.57 149.021 167.381 148.45 166.491 147.596C166.43 147.538 166.372 147.475 166.313 147.414C166.158 150.367 165.691 153.308 164.909 156.18C169.027 156.99 173.226 157.739 177.396 158.073C178.503 158.161 179.599 158.22 180.687 158.254Z" fill="#270303" stroke="black" stroke-width="1.8" mask="url(#path-1-inside-1_7_293)"/>
<circle cx="121.5" cy="121.5" r="120.6" stroke="black" stroke-width="1.8" stroke-linecap="square" stroke-dasharray="18 18"/>
</svg>
