<svg width="243" height="243" viewBox="0 0 243 243" fill="none" xmlns="http://www.w3.org/2000/svg">
<mask id="path-1-inside-1_7_294" fill="white">
<path d="M86.8564 116.589C83.843 117.847 81.8828 113.533 84.8136 112.091C87.8268 110.833 89.7871 115.147 86.8564 116.589ZM145.781 112.777C148.978 113.448 150.094 108.843 146.945 107.976C143.749 107.305 142.633 111.91 145.781 112.777ZM216.833 72.3471C216.833 72.3471 217.189 75.3129 216.982 76.8845C216.774 78.4564 215.172 79.5537 215.172 79.5537C213.927 84.4767 210.941 86.6219 210.941 86.6219C210.941 86.6219 211.396 82.8456 211.495 82.0942C211.594 81.3429 210.546 80.0873 208.084 81.333C205.623 82.5787 203.31 84.3876 201.679 88.1244C200.048 91.8613 202.034 95.9538 205.415 96.1615C208.796 96.3692 210.19 92.4544 210.19 92.4544C210.902 94.5304 209.982 96.5767 209.982 96.5767C209.982 96.5767 212.052 97.1343 211.43 99.0026C210.861 100.708 209.623 99.9732 208.149 101.567C208.014 101.744 207.87 101.919 207.717 102.091C207.469 102.432 207.267 102.622 207.103 102.7C206.176 103.529 204.957 104.18 203.23 104.278C198.327 104.554 197.18 101.51 192.831 101.035C188.481 100.561 184.487 103.922 183.262 109.3C182.036 114.677 179.465 117.485 179.465 117.485C182.906 122.823 191.447 127.687 198.446 133.796C205.445 139.905 203.369 149.455 202.716 152.213C202.064 154.971 203.339 157.462 203.191 161.792C203.043 166.122 200.374 167.397 200.374 167.397V165.321C198.594 165.707 197.497 164.402 197.497 164.402C195.807 166.3 193.79 165.914 193.79 165.914L194.679 163.038C193.078 162 193.434 159.835 193.434 159.835C191.654 160.309 190.794 159.775 190.794 159.775L192.425 157.699C189.549 154.348 193.028 151.887 193.463 150.068C193.898 148.249 193.542 144.848 191.012 143.504C188.481 142.159 183.064 141.052 179.109 138.956C176.712 137.686 175.124 136.629 173.704 135.612C176.088 130.179 174.477 127.139 174.477 127.139C173.839 129.137 173.019 131.081 172.085 132.958C171.221 134.695 170.437 136.324 168.879 137.566C168.256 138.061 167.583 138.492 166.885 138.872C166.732 138.955 165.079 139.675 165.083 139.725C164.815 137.096 164.204 133.741 162.812 132.088C162.944 138.755 162.422 145.38 162.422 152.045C162.422 159.954 162.235 163.038 164.933 167.219C167.632 171.401 173.089 169.592 175.817 172.914C178.546 176.235 176.855 180.12 176.855 180.12L175.462 178.785C173.56 178.864 173.238 177.959 173.187 177.737C173.566 179.479 172.318 180.15 172.318 180.15L171.102 178.637C169.174 179.764 167.78 178.133 167.78 178.133C168.314 179.764 167.276 180.238 167.276 180.238L165.704 178.904C165.704 178.904 165.349 179.972 162.917 179.675C160.485 179.378 159.951 177.036 158.646 175.256C157.341 173.477 154.731 174.129 152.596 172.409C150.461 170.689 146.843 162.504 144.292 156.394C141.742 150.285 139.428 146.608 139.428 146.608C139.428 146.608 136.931 142.213 135.271 140.611C135.271 140.611 136.456 143.898 137.172 147.037C128.951 148.36 121.352 146.657 116.296 145.243C113.73 144.526 112.205 144.293 110.798 144.212C112.269 134.101 106.681 130.765 106.681 130.765C110.062 138.12 107.874 144.235 107.874 144.235C107.874 144.235 107.636 146.133 105.205 149.672C102.951 152.952 98.7985 155.416 96.2481 157.166C93.6977 158.915 92.9562 160.902 96.2778 165.855C99.5995 170.808 104.611 170.215 108.407 172.735C112.204 175.256 110.128 179.527 110.128 179.527L108.734 177.856C106.687 178.954 105.58 177.648 105.58 177.648C105.541 179.527 104.315 180.08 104.315 180.08C104.315 180.08 103.603 178.321 103.524 178.301C102.336 179.338 99.8098 178.982 99.0556 177.668C99.1743 179.467 98.0077 180.041 98.0077 180.041L96.7424 178.38C90.7618 180.76 88.9981 175.204 86.0659 169.641C84.2865 166.28 81.4789 161.792 79.1064 159.479C76.734 157.165 77.683 155.089 78.6913 154.022C79.6995 152.954 83.7329 149.87 86.1055 144.294C88.478 138.719 85.0378 137.651 78.5133 139.371C71.9888 141.091 65.4051 144.887 59.7702 149.81C54.1353 154.734 48.0854 156.394 44.7342 157.64C41.383 158.885 40.6417 162.059 40.8492 166.982C41.0568 171.905 43.5579 172.35 45.8711 175.039C48.1843 177.727 46.1874 181.069 46.1874 181.069L44.7243 179.151C42.6879 180.219 41.7784 178.657 41.7784 178.657C41.9167 180.476 40.3549 181.445 40.3549 181.445L39.1291 179.25C37.2706 180.476 36.1831 179.092 36.1831 179.092C36.0448 180.733 34.463 181.148 34.463 181.148L33.8303 179.013C33.8303 179.013 32.1694 179.764 30.3901 177.589C28.6107 175.414 28.4526 172.37 29.7575 168.099C31.0624 163.829 31.0624 159.874 31.3787 153.231C31.695 146.588 38.18 145.718 42.8463 142.08C50.0454 136.139 48.6223 120.957 57.3977 113.293C57.3977 113.293 40.4142 118.434 31.2404 108.232C23.1998 99.2903 25.052 88.5398 31.6161 82.2129C40.0312 74.1018 60.6007 77.0328 70.5654 80.3544C80.5302 83.6759 89.5853 82.2129 92.1952 76.9933C94.805 71.7738 91.4834 68.373 87.4501 67.2659C83.4167 66.1587 82.1513 61.888 88.7944 61.5717C89.8547 61.5213 90.8843 61.6338 91.8688 61.8828C90.9168 63.8667 93.1174 66.5129 95.508 65.0962C95.8927 64.83 96.2982 64.6306 96.7158 64.4836C98.8074 66.3193 100.349 68.8518 101.022 71.5929C100.81 71.3537 100.561 71.1468 100.252 70.9984C97.2236 69.6107 95.0807 73.997 98.0337 75.5341C99.33 76.0968 100.23 77.1164 100.801 78.3445C100.015 80.6911 98.4173 82.901 95.8135 84.6731C95.9311 84.3427 95.993 83.9929 95.9595 83.6184C95.6011 80.3063 90.7361 80.7114 90.9274 84.0348C91.0864 85.2711 90.7811 86.4243 90.1843 87.4475C87.0636 88.5811 84.0205 89.0726 80.996 89.1299C81.2472 88.8606 81.4497 88.5472 81.567 88.1699C82.4959 84.9708 77.8427 83.494 76.7552 86.6403C76.5273 87.4884 76.1012 88.2101 75.5415 88.8152C72.4728 88.4299 69.3835 87.7398 66.2118 86.9698C66.5939 86.701 66.9158 86.3588 67.1156 85.9019C68.3934 82.8253 63.9328 80.8419 62.5029 83.8483C62.2082 84.6001 61.7579 85.2262 61.203 85.742C58.5739 85.1206 55.7087 84.4237 53.0031 84.0734C53.2777 83.7102 53.4758 83.2973 53.5306 82.814C53.8442 79.4974 48.9971 78.9174 48.5175 82.2118C48.4751 82.7818 48.3367 83.3133 48.128 83.8092C44.7881 83.897 42.0936 84.5772 40.012 85.565C39.8758 85.2273 39.6806 84.9147 39.3929 84.6509C36.8961 82.4454 33.5746 86.0229 35.9556 88.3495C35.9996 88.3868 36.0378 88.4277 36.0802 88.4661C34.28 90.4687 34.2788 92.7251 34.2903 95.0051C33.9705 94.978 33.6459 95.0006 33.3186 95.107C30.1701 96.1952 31.6502 100.847 34.8474 99.9192C35.0269 99.8531 35.207 99.8007 35.3872 99.756C36.2222 101.485 37.5045 102.835 39.1482 103.83C38.8877 104.074 38.6696 104.362 38.5274 104.717C37.3471 107.832 41.868 109.674 43.2025 106.624C43.3414 106.235 43.5256 105.879 43.7405 105.551C45.8629 105.983 48.2636 106.088 50.8566 105.893C50.8081 106.081 50.7737 106.276 50.7732 106.482C50.8241 109.813 55.7058 109.859 55.822 106.532C55.8054 106.06 55.857 105.608 55.9606 105.173C69.3246 102.489 69.7719 95.9005 87.0543 92.4547C91.7098 91.5257 99.7474 91.5057 110.365 92.8699C120.982 94.2341 132.963 92.9291 132.963 92.9291C139.428 89.311 153.486 85.159 159.239 83.9728C164.993 82.7865 171.695 77.8635 171.695 77.8635C168.729 76.6178 168.077 72.3473 170.39 70.0933C172.703 67.8394 180.295 71.428 180.295 71.428C186.159 66.5485 190.826 64.6595 198.831 66.5346C198.831 66.5346 202.597 66.06 205.652 66.4456C208.707 66.8312 211.969 66.0897 214.238 65.9563C216.506 65.8228 218.049 67.6616 216.373 69.5299C214.698 71.3982 210.753 70.7311 210.753 70.7311C212.666 73.0737 216.833 72.3471 216.833 72.3471ZM34.723 165.096C35.9773 165.653 37.4461 165.088 38.0035 163.834C38.2377 163.307 38.2732 162.74 38.1432 162.221C37.6198 160.037 37.4814 157.578 37.4269 155.276C35.9188 157.353 34.5327 159.403 33.4608 161.815C32.9037 163.07 33.4686 164.538 34.723 165.096ZM39.2683 173.086C39.0726 170.912 36.6801 168.889 36.6801 168.889C36.6801 168.889 37.9675 171.24 36.4751 171.843C34.4917 172.646 34.0727 169.065 34.0727 169.065C32.9991 170.761 32.7674 174.511 34.6267 175.246C36.514 175.993 36.771 174.174 36.771 174.174C37.5803 175.374 39.4639 175.259 39.2683 173.086ZM43.1356 150.542C43.079 147.193 38.0956 147.192 38.0384 150.542C38.0951 153.892 43.0784 153.893 43.1356 150.542ZM95.3591 99.2685C96.1932 99.6538 97.1064 99.4063 97.9816 99.7671C100.029 100.406 101.652 102.058 102.639 103.964C102.47 100.507 100.352 97.2052 97.15 95.7562C94.8231 94.6188 93.0695 98.0515 95.3591 99.2685ZM97.9373 129.978C97.9821 132.628 101.925 132.629 101.97 129.978C101.925 127.328 97.9825 127.328 97.9373 129.978ZM66.6789 128.407C66.7237 131.057 70.6665 131.057 70.7117 128.407C70.6669 125.757 66.7241 125.756 66.6789 128.407ZM63.6544 119.094C63.6992 121.744 67.642 121.745 67.6872 119.094C67.6425 116.444 63.6996 116.444 63.6544 119.094ZM62.6461 109.004C62.691 111.654 66.6337 111.654 66.6789 109.004C66.6341 106.354 62.6913 106.353 62.6461 109.004ZM47.0443 143.714C49.5751 142.441 51.9714 141.154 54.3404 139.446C57.2259 137.33 55.0725 133.928 52.0298 136.027C50.5568 137.217 50.3265 138.964 49.1674 140.519C48.505 141.584 47.7956 142.654 47.0443 143.714ZM57.498 141.846C55.7565 142.589 55.059 144.208 53.5198 145.388C52.5923 146.232 51.6183 147.068 50.6065 147.883C53.3884 147.347 56.0447 146.762 58.7896 145.764C62.1423 144.515 60.9976 140.655 57.498 141.846ZM57.0587 120.923C56.0667 124.305 57.1921 128.075 59.7106 130.464C58.907 128.467 58.712 126.153 59.5651 124.178C59.863 123.277 60.6485 122.744 60.9008 121.857C61.4724 119.321 57.7152 118.409 57.0587 120.923ZM71.3053 133.037C70.4065 133.24 69.8313 133.995 68.9151 134.243C66.896 134.986 64.5963 134.665 62.6461 133.753C64.8935 136.399 68.5961 137.729 72.0278 136.924C74.5733 136.407 73.8698 132.605 71.3053 133.037ZM81.8033 133.093C81.7585 130.442 77.8157 130.442 77.7706 133.092C77.8154 135.743 81.7582 135.743 81.8033 133.093ZM91.6132 162.431C90.1223 160.751 88.8415 158.648 87.7085 156.643C87.3646 159.134 87.1131 161.524 87.2796 164.106C87.2973 165.539 88.5143 166.688 89.9513 166.578C91.9852 166.476 92.9994 163.89 91.6132 162.431ZM92.2892 151.746C92.2325 148.397 87.249 148.396 87.1918 151.746C87.2486 155.096 92.232 155.097 92.2892 151.746ZM93.3946 168.316C93.3946 168.316 95.5817 169.865 94.5047 171.062C93.0733 172.652 91.1278 169.617 91.1278 169.617C90.9057 171.612 92.3406 175.084 94.3343 174.93C96.3578 174.774 95.7918 173.027 95.7918 173.027C97.0456 173.751 98.6882 172.822 97.5598 170.954C96.4315 169.086 93.3946 168.316 93.3946 168.316ZM94.0185 135.552C93.346 133.043 89.5947 133.978 90.1823 136.512C90.4403 137.396 91.2291 137.924 91.5327 138.823C92.3983 140.793 92.2181 143.108 91.4272 145.111C93.9306 142.705 95.0318 138.929 94.0185 135.552ZM90.5368 115.099C90.5368 115.099 97.4874 115.515 98.8048 113.676C100.122 111.838 97.9025 110.513 97.9025 110.513C97.9025 110.513 100.177 109.539 99.5985 108.591C99.0203 107.643 97.7677 108.006 97.7677 108.006C97.7677 108.006 97.8954 104.906 95.8528 105.155C93.1894 105.597 90.0469 109.209 90.0469 109.209C90.0469 109.209 92.9228 104.36 91.2369 102.468C89.6924 100.735 87.8817 102.427 87.8817 102.427C87.8817 102.427 88.0583 99.9551 86.87 100.2C85.6818 100.444 85.719 102.671 85.719 102.671C85.719 102.671 83.6032 101.979 83.0577 103.378C82.007 105.42 83.899 110.333 83.899 110.333C83.899 110.333 81.0071 104.649 78.2905 104.908C76.2263 105.106 76.047 107.477 76.047 107.477C72.5484 105.549 71.8609 107.502 74.1807 110.097C74.1807 110.097 72.7653 111.271 73.3624 112.683C74.6331 115.383 80.1936 115.729 80.1936 115.729C80.1936 115.729 75.1331 117.46 74.3938 119.537C73.6545 121.615 75.5945 122.181 75.5945 122.181C75.5945 122.181 74.0721 123.64 74.9085 124.766C75.7448 125.892 77.483 123.803 77.483 123.803C77.483 123.803 77.891 126.182 80.0655 125.848C82.7155 125.442 84.1701 119.349 84.1701 119.349C84.1701 119.349 85.1718 125.39 87.4433 126.1C89.7148 126.81 91.1572 124.59 91.1572 124.59C91.1572 124.59 92.5116 126.662 93.4388 125.951C94.3661 125.239 92.8663 123.283 92.8663 123.283C92.8663 123.283 95.2673 123.363 94.8977 120.319C94.6392 118.193 90.5368 115.099 90.5368 115.099ZM100.504 138.74C100.103 139.57 100.335 140.49 99.958 141.361C99.281 143.404 97.5965 145.002 95.6679 145.959C99.1378 145.85 102.486 143.783 103.995 140.598C105.176 138.284 101.765 136.466 100.504 138.74ZM199.084 151.694C199.084 151.694 199.382 155.287 197.279 154.893C195.697 154.597 196.493 152.038 196.493 152.038C196.493 152.038 194.549 154.495 194.787 156.664C195.026 158.834 196.895 158.574 197.45 157.236C197.45 157.236 198.063 158.969 199.765 157.863C201.441 156.774 200.472 153.144 199.084 151.694ZM194.535 137.691C195.043 139.606 195.519 141.669 195.612 143.599C195.629 144.059 195.794 144.518 196.114 144.897C198.004 147 201.138 144.354 199.381 142.139C198.616 141.218 197.79 140.424 196.965 139.689C196.17 138.985 195.362 138.32 194.535 137.691ZM175.317 76.5038C175.699 76.6372 176.105 76.6923 176.488 76.7662C176.882 76.8069 177.265 76.85 177.647 76.8387C179.108 76.8288 180.524 76.4631 181.772 75.781C180.477 75.8276 179.155 75.5588 178.03 74.99C177.759 74.8635 177.513 74.694 177.274 74.5411C177.049 74.3565 176.82 74.2048 176.633 73.9966C175.95 73.4304 175.782 72.5485 175.033 72.0809C174.115 71.5154 172.913 71.8012 172.347 72.7193C171.173 74.8562 173.662 75.9828 175.317 76.5038ZM149.849 91.712C149.905 95.0618 154.889 95.0623 154.946 91.7121C154.889 88.3625 149.906 88.362 149.849 91.712ZM119.112 133.645C116.299 133.107 113.539 129.18 115.65 124.893C115.65 124.893 111.932 124.945 111.053 120.812C110.174 116.679 112.714 115.771 112.714 115.771C112.714 115.771 109.097 113.846 110.097 109.847C110.535 107.545 113.043 106.522 113.043 106.522C113.043 106.522 110.512 103.825 112.378 101.291C114.243 98.7574 116.703 98.3176 116.703 98.3176C116.703 98.3176 112.242 96.8266 109.595 100.862C108.289 103.108 109.062 104.994 109.062 104.994C104.885 106.34 104.481 112.812 108.135 115.515C104.449 118.511 106.741 125.537 111.279 126.958C111.279 126.958 111.799 134.23 119.112 133.645ZM128.639 142.39C126.51 142.07 124.417 141.065 123.147 139.328C122.521 138.614 122.46 137.667 121.824 137C119.927 135.221 117.237 137.998 119.07 139.838C121.483 142.408 125.303 143.35 128.639 142.39ZM133.59 136.605C130.371 135.934 127.337 131.562 129.923 126.943C129.923 126.943 125.641 126.887 124.78 122.347C123.918 117.806 126.875 116.891 126.875 116.891C126.875 116.891 122.781 114.68 124.079 110.342C124.667 107.841 127.592 106.798 127.592 106.798C127.592 106.798 124.777 103.776 127.017 101.065C129.258 98.3539 132.106 97.9476 132.106 97.9476C132.106 97.9476 127.024 96.1849 123.829 100.513C122.243 102.927 123.065 105.01 123.065 105.01C118.206 106.355 117.505 113.411 121.613 116.474C117.259 119.635 119.642 127.379 124.816 129.067C124.816 129.067 125.149 137.025 133.59 136.605ZM140.039 129.978C139.982 126.629 134.999 126.628 134.941 129.978C134.998 133.328 139.981 133.328 140.039 129.978ZM144.551 121.888C144.551 121.888 144.339 124.375 145.518 124.387C146.697 124.398 146.722 121.912 146.722 121.912C146.722 121.912 148.579 123.469 150.178 120.822C151.295 118.972 149.961 113.964 149.961 113.964C149.961 113.964 155.222 118.616 157.412 117.975C159.601 117.334 158.662 114.902 158.662 114.902C158.662 114.902 161.074 115.543 161.204 114.43C161.334 113.318 160.114 112.826 160.114 112.826C160.114 112.826 162.143 110.444 160.366 109.372C157.976 108.067 153.234 108.982 153.234 108.982C153.234 108.982 158.533 106.918 158.37 104.368C158.221 102.031 155.731 102.249 155.731 102.249C155.731 102.249 157.408 100.396 156.313 99.8511C155.217 99.3064 153.862 101.098 153.862 101.098C153.862 101.098 152.612 99.2327 151.309 100.005C149.806 100.697 148.584 103.486 148.009 105.023C147.967 105.134 147.803 105.094 147.818 104.977C148.055 103.109 148.29 99.3556 146.571 98.2561C144.809 97.1293 143.192 98.9017 143.192 98.9017C141.618 95.1949 139.847 96.3252 140.081 99.8213C140.081 99.8213 138.226 99.874 137.823 101.367C137.153 104.301 141.354 108.034 141.354 108.034C141.354 108.034 136.259 106.261 134.38 107.452C132.501 108.642 133.69 110.298 133.69 110.298C133.69 110.298 131.574 110.51 131.538 111.924C131.502 113.338 134.181 112.76 134.181 112.76C134.181 112.76 133.026 114.903 134.96 115.991C137.318 117.316 142.262 113.381 142.262 113.381C142.262 113.381 139.301 118.801 140.663 120.778C142.025 122.754 144.551 121.888 144.551 121.888ZM144.505 140.383C142.458 138.784 140.025 141.789 142.019 143.458C142.758 144.009 143.705 143.956 144.489 144.491C146.366 145.543 147.616 147.5 148.189 149.575C148.741 146.148 147.347 142.469 144.505 140.383ZM153.088 132.825C153.031 129.476 148.048 129.475 147.99 132.825C148.047 136.175 153.03 136.176 153.088 132.825ZM155.104 154.981C155.059 152.331 151.116 152.33 151.071 154.981C151.116 157.631 155.059 157.631 155.104 154.981ZM158.238 164.922C156.935 163.453 155.815 161.614 154.824 159.861C154.524 162.04 154.304 164.129 154.449 166.387C154.464 167.639 155.529 168.644 156.785 168.548C158.563 168.459 159.45 166.197 158.238 164.922ZM155.637 137.927C153.187 140.461 152.431 144.322 153.551 147.608C153.768 145.466 154.671 143.327 156.344 141.974C157.026 141.314 157.969 141.208 158.605 140.54C160.29 138.559 157.386 136.007 155.637 137.927ZM161.901 169.516C161.901 169.516 164.389 170.513 163.621 171.927C162.6 173.807 160 171.31 160 171.31C160.249 173.301 162.454 176.343 164.357 175.729C166.288 175.106 165.331 173.538 165.331 173.538C166.719 173.95 168.099 172.664 166.567 171.111C165.034 169.557 161.901 169.516 161.901 169.516ZM163.962 126.617C163.905 123.267 158.922 123.267 158.865 126.617C158.921 129.967 163.905 129.967 163.962 126.617ZM164.586 97.3336C164.586 97.3336 162.731 96.569 162.8 94.7877C162.846 93.58 163.722 92.9741 163.722 92.9741C163.722 92.9741 162.188 92.4429 161.758 90.5462C161.454 89.2 162.541 87.5909 162.541 87.5909C162.541 87.5909 159.522 87.9021 159.734 90.8743C159.814 92.278 160.869 93.2626 160.869 93.2626C160.869 93.2626 160.067 94.021 160.875 95.9067C161.726 97.8958 163.686 98.0121 164.586 97.3336ZM166.996 108.185C171.064 109.613 175.74 108.48 178.819 105.557C176.329 106.411 173.49 106.5 171.132 105.332C170.05 104.911 169.45 103.917 168.384 103.552C165.322 102.691 163.969 107.222 166.996 108.185ZM177.505 111.269C173.264 111.462 169.205 114.046 167.414 117.967C166.008 120.816 170.211 122.982 171.714 120.179C172.191 119.158 171.891 118.036 172.337 116.965C173.13 114.455 175.163 112.472 177.505 111.269ZM184.353 135.338C183.006 133.846 181.662 132.452 179.987 131.24C177.87 129.787 175.664 132.834 177.705 134.392C178.07 134.657 178.498 134.776 178.917 134.76C179.753 134.73 180.668 134.799 181.582 134.904C182.499 135.013 183.427 135.157 184.353 135.338ZM186.831 134.813C186.876 137.463 190.818 137.464 190.864 134.813C190.819 132.163 186.876 132.163 186.831 134.813ZM179.322 125.189C178.798 126.128 179.134 127.313 180.072 127.837C181.877 128.845 183.707 129.477 185.628 130.07C184.58 128.602 183.513 126.998 182.815 125.383C182.255 123.925 180.049 123.781 179.322 125.189ZM184.074 98.9561C184.074 98.9561 181.826 100.073 179.821 98.4657C177.816 96.858 178.284 94.8699 178.284 94.8699C178.284 94.8699 175.302 95.3277 174.184 93.0789C173.067 90.8302 175.104 89.6009 175.104 89.6009C171.622 87.678 170.961 85.2766 174.169 82.4603C171.197 82.1722 167.555 87.1295 171.11 89.3659C171.11 89.3659 168.974 91.4313 170.188 94.2061C172.142 98.6721 175.952 97.9629 175.952 97.9629C175.952 97.9629 176.883 99.7112 179.052 100.606C182.495 102.008 184.074 98.9561 184.074 98.9561ZM195.451 90.3064C193.672 91.9789 190.369 91.078 189.968 88.5175C189.968 88.5175 187.758 89.5887 186.35 88.1079C184.942 86.6271 186.231 85.1823 186.231 85.1823C183.071 84.5327 181.969 82.7992 183.792 79.8534C181.411 80.3419 179.768 85.0709 183.069 85.9575C183.069 85.9575 181.903 88.0763 183.512 89.943C186.104 92.9476 188.897 91.4822 188.897 91.4822C188.897 91.4822 190.04 92.6188 191.941 92.7946C194.955 93.0588 195.451 90.3064 195.451 90.3064ZM200.558 77.2163C199.489 78.1742 198.173 78.8822 196.813 79.1953C196.492 79.2799 196.163 79.3095 195.852 79.3489C195.529 79.3512 195.226 79.3847 194.92 79.3397C193.937 79.3425 193.169 78.7108 192.201 78.8432C191.018 79.0127 190.198 80.1084 190.367 81.2904C190.536 82.4727 191.632 83.2936 192.814 83.1242C193.777 82.9897 194.723 82.7969 195.576 82.4065C195.996 82.2488 196.381 82.0085 196.759 81.7996C197.123 81.5551 197.48 81.3203 197.797 81.0397C198.442 80.4978 198.992 79.8918 199.451 79.2469C199.906 78.601 200.287 77.9217 200.558 77.2163ZM200.574 74.038C200.574 74.038 199.322 71.4492 196.345 70.6228C196.926 71.482 196.769 72.654 195.945 73.3144C194.057 74.7856 191.655 72.353 193.118 70.489C190.354 70.9794 188.666 72.8403 188.666 72.8403C188.666 72.8403 189.733 75.7305 193.902 76.131C198.432 76.566 200.574 74.038 200.574 74.038Z"/>
</mask>
<path d="M86.8564 116.589C83.843 117.847 81.8828 113.533 84.8136 112.091C87.8268 110.833 89.7871 115.147 86.8564 116.589ZM145.781 112.777C148.978 113.448 150.094 108.843 146.945 107.976C143.749 107.305 142.633 111.91 145.781 112.777ZM216.833 72.3471C216.833 72.3471 217.189 75.3129 216.982 76.8845C216.774 78.4564 215.172 79.5537 215.172 79.5537C213.927 84.4767 210.941 86.6219 210.941 86.6219C210.941 86.6219 211.396 82.8456 211.495 82.0942C211.594 81.3429 210.546 80.0873 208.084 81.333C205.623 82.5787 203.31 84.3876 201.679 88.1244C200.048 91.8613 202.034 95.9538 205.415 96.1615C208.796 96.3692 210.19 92.4544 210.19 92.4544C210.902 94.5304 209.982 96.5767 209.982 96.5767C209.982 96.5767 212.052 97.1343 211.43 99.0026C210.861 100.708 209.623 99.9732 208.149 101.567C208.014 101.744 207.87 101.919 207.717 102.091C207.469 102.432 207.267 102.622 207.103 102.7C206.176 103.529 204.957 104.18 203.23 104.278C198.327 104.554 197.18 101.51 192.831 101.035C188.481 100.561 184.487 103.922 183.262 109.3C182.036 114.677 179.465 117.485 179.465 117.485C182.906 122.823 191.447 127.687 198.446 133.796C205.445 139.905 203.369 149.455 202.716 152.213C202.064 154.971 203.339 157.462 203.191 161.792C203.043 166.122 200.374 167.397 200.374 167.397V165.321C198.594 165.707 197.497 164.402 197.497 164.402C195.807 166.3 193.79 165.914 193.79 165.914L194.679 163.038C193.078 162 193.434 159.835 193.434 159.835C191.654 160.309 190.794 159.775 190.794 159.775L192.425 157.699C189.549 154.348 193.028 151.887 193.463 150.068C193.898 148.249 193.542 144.848 191.012 143.504C188.481 142.159 183.064 141.052 179.109 138.956C176.712 137.686 175.124 136.629 173.704 135.612C176.088 130.179 174.477 127.139 174.477 127.139C173.839 129.137 173.019 131.081 172.085 132.958C171.221 134.695 170.437 136.324 168.879 137.566C168.256 138.061 167.583 138.492 166.885 138.872C166.732 138.955 165.079 139.675 165.083 139.725C164.815 137.096 164.204 133.741 162.812 132.088C162.944 138.755 162.422 145.38 162.422 152.045C162.422 159.954 162.235 163.038 164.933 167.219C167.632 171.401 173.089 169.592 175.817 172.914C178.546 176.235 176.855 180.12 176.855 180.12L175.462 178.785C173.56 178.864 173.238 177.959 173.187 177.737C173.566 179.479 172.318 180.15 172.318 180.15L171.102 178.637C169.174 179.764 167.78 178.133 167.78 178.133C168.314 179.764 167.276 180.238 167.276 180.238L165.704 178.904C165.704 178.904 165.349 179.972 162.917 179.675C160.485 179.378 159.951 177.036 158.646 175.256C157.341 173.477 154.731 174.129 152.596 172.409C150.461 170.689 146.843 162.504 144.292 156.394C141.742 150.285 139.428 146.608 139.428 146.608C139.428 146.608 136.931 142.213 135.271 140.611C135.271 140.611 136.456 143.898 137.172 147.037C128.951 148.36 121.352 146.657 116.296 145.243C113.73 144.526 112.205 144.293 110.798 144.212C112.269 134.101 106.681 130.765 106.681 130.765C110.062 138.12 107.874 144.235 107.874 144.235C107.874 144.235 107.636 146.133 105.205 149.672C102.951 152.952 98.7985 155.416 96.2481 157.166C93.6977 158.915 92.9562 160.902 96.2778 165.855C99.5995 170.808 104.611 170.215 108.407 172.735C112.204 175.256 110.128 179.527 110.128 179.527L108.734 177.856C106.687 178.954 105.58 177.648 105.58 177.648C105.541 179.527 104.315 180.08 104.315 180.08C104.315 180.08 103.603 178.321 103.524 178.301C102.336 179.338 99.8098 178.982 99.0556 177.668C99.1743 179.467 98.0077 180.041 98.0077 180.041L96.7424 178.38C90.7618 180.76 88.9981 175.204 86.0659 169.641C84.2865 166.28 81.4789 161.792 79.1064 159.479C76.734 157.165 77.683 155.089 78.6913 154.022C79.6995 152.954 83.7329 149.87 86.1055 144.294C88.478 138.719 85.0378 137.651 78.5133 139.371C71.9888 141.091 65.4051 144.887 59.7702 149.81C54.1353 154.734 48.0854 156.394 44.7342 157.64C41.383 158.885 40.6417 162.059 40.8492 166.982C41.0568 171.905 43.5579 172.35 45.8711 175.039C48.1843 177.727 46.1874 181.069 46.1874 181.069L44.7243 179.151C42.6879 180.219 41.7784 178.657 41.7784 178.657C41.9167 180.476 40.3549 181.445 40.3549 181.445L39.1291 179.25C37.2706 180.476 36.1831 179.092 36.1831 179.092C36.0448 180.733 34.463 181.148 34.463 181.148L33.8303 179.013C33.8303 179.013 32.1694 179.764 30.3901 177.589C28.6107 175.414 28.4526 172.37 29.7575 168.099C31.0624 163.829 31.0624 159.874 31.3787 153.231C31.695 146.588 38.18 145.718 42.8463 142.08C50.0454 136.139 48.6223 120.957 57.3977 113.293C57.3977 113.293 40.4142 118.434 31.2404 108.232C23.1998 99.2903 25.052 88.5398 31.6161 82.2129C40.0312 74.1018 60.6007 77.0328 70.5654 80.3544C80.5302 83.6759 89.5853 82.2129 92.1952 76.9933C94.805 71.7738 91.4834 68.373 87.4501 67.2659C83.4167 66.1587 82.1513 61.888 88.7944 61.5717C89.8547 61.5213 90.8843 61.6338 91.8688 61.8828C90.9168 63.8667 93.1174 66.5129 95.508 65.0962C95.8927 64.83 96.2982 64.6306 96.7158 64.4836C98.8074 66.3193 100.349 68.8518 101.022 71.5929C100.81 71.3537 100.561 71.1468 100.252 70.9984C97.2236 69.6107 95.0807 73.997 98.0337 75.5341C99.33 76.0968 100.23 77.1164 100.801 78.3445C100.015 80.6911 98.4173 82.901 95.8135 84.6731C95.9311 84.3427 95.993 83.9929 95.9595 83.6184C95.6011 80.3063 90.7361 80.7114 90.9274 84.0348C91.0864 85.2711 90.7811 86.4243 90.1843 87.4475C87.0636 88.5811 84.0205 89.0726 80.996 89.1299C81.2472 88.8606 81.4497 88.5472 81.567 88.1699C82.4959 84.9708 77.8427 83.494 76.7552 86.6403C76.5273 87.4884 76.1012 88.2101 75.5415 88.8152C72.4728 88.4299 69.3835 87.7398 66.2118 86.9698C66.5939 86.701 66.9158 86.3588 67.1156 85.9019C68.3934 82.8253 63.9328 80.8419 62.5029 83.8483C62.2082 84.6001 61.7579 85.2262 61.203 85.742C58.5739 85.1206 55.7087 84.4237 53.0031 84.0734C53.2777 83.7102 53.4758 83.2973 53.5306 82.814C53.8442 79.4974 48.9971 78.9174 48.5175 82.2118C48.4751 82.7818 48.3367 83.3133 48.128 83.8092C44.7881 83.897 42.0936 84.5772 40.012 85.565C39.8758 85.2273 39.6806 84.9147 39.3929 84.6509C36.8961 82.4454 33.5746 86.0229 35.9556 88.3495C35.9996 88.3868 36.0378 88.4277 36.0802 88.4661C34.28 90.4687 34.2788 92.7251 34.2903 95.0051C33.9705 94.978 33.6459 95.0006 33.3186 95.107C30.1701 96.1952 31.6502 100.847 34.8474 99.9192C35.0269 99.8531 35.207 99.8007 35.3872 99.756C36.2222 101.485 37.5045 102.835 39.1482 103.83C38.8877 104.074 38.6696 104.362 38.5274 104.717C37.3471 107.832 41.868 109.674 43.2025 106.624C43.3414 106.235 43.5256 105.879 43.7405 105.551C45.8629 105.983 48.2636 106.088 50.8566 105.893C50.8081 106.081 50.7737 106.276 50.7732 106.482C50.8241 109.813 55.7058 109.859 55.822 106.532C55.8054 106.06 55.857 105.608 55.9606 105.173C69.3246 102.489 69.7719 95.9005 87.0543 92.4547C91.7098 91.5257 99.7474 91.5057 110.365 92.8699C120.982 94.2341 132.963 92.9291 132.963 92.9291C139.428 89.311 153.486 85.159 159.239 83.9728C164.993 82.7865 171.695 77.8635 171.695 77.8635C168.729 76.6178 168.077 72.3473 170.39 70.0933C172.703 67.8394 180.295 71.428 180.295 71.428C186.159 66.5485 190.826 64.6595 198.831 66.5346C198.831 66.5346 202.597 66.06 205.652 66.4456C208.707 66.8312 211.969 66.0897 214.238 65.9563C216.506 65.8228 218.049 67.6616 216.373 69.5299C214.698 71.3982 210.753 70.7311 210.753 70.7311C212.666 73.0737 216.833 72.3471 216.833 72.3471ZM34.723 165.096C35.9773 165.653 37.4461 165.088 38.0035 163.834C38.2377 163.307 38.2732 162.74 38.1432 162.221C37.6198 160.037 37.4814 157.578 37.4269 155.276C35.9188 157.353 34.5327 159.403 33.4608 161.815C32.9037 163.07 33.4686 164.538 34.723 165.096ZM39.2683 173.086C39.0726 170.912 36.6801 168.889 36.6801 168.889C36.6801 168.889 37.9675 171.24 36.4751 171.843C34.4917 172.646 34.0727 169.065 34.0727 169.065C32.9991 170.761 32.7674 174.511 34.6267 175.246C36.514 175.993 36.771 174.174 36.771 174.174C37.5803 175.374 39.4639 175.259 39.2683 173.086ZM43.1356 150.542C43.079 147.193 38.0956 147.192 38.0384 150.542C38.0951 153.892 43.0784 153.893 43.1356 150.542ZM95.3591 99.2685C96.1932 99.6538 97.1064 99.4063 97.9816 99.7671C100.029 100.406 101.652 102.058 102.639 103.964C102.47 100.507 100.352 97.2052 97.15 95.7562C94.8231 94.6188 93.0695 98.0515 95.3591 99.2685ZM97.9373 129.978C97.9821 132.628 101.925 132.629 101.97 129.978C101.925 127.328 97.9825 127.328 97.9373 129.978ZM66.6789 128.407C66.7237 131.057 70.6665 131.057 70.7117 128.407C70.6669 125.757 66.7241 125.756 66.6789 128.407ZM63.6544 119.094C63.6992 121.744 67.642 121.745 67.6872 119.094C67.6425 116.444 63.6996 116.444 63.6544 119.094ZM62.6461 109.004C62.691 111.654 66.6337 111.654 66.6789 109.004C66.6341 106.354 62.6913 106.353 62.6461 109.004ZM47.0443 143.714C49.5751 142.441 51.9714 141.154 54.3404 139.446C57.2259 137.33 55.0725 133.928 52.0298 136.027C50.5568 137.217 50.3265 138.964 49.1674 140.519C48.505 141.584 47.7956 142.654 47.0443 143.714ZM57.498 141.846C55.7565 142.589 55.059 144.208 53.5198 145.388C52.5923 146.232 51.6183 147.068 50.6065 147.883C53.3884 147.347 56.0447 146.762 58.7896 145.764C62.1423 144.515 60.9976 140.655 57.498 141.846ZM57.0587 120.923C56.0667 124.305 57.1921 128.075 59.7106 130.464C58.907 128.467 58.712 126.153 59.5651 124.178C59.863 123.277 60.6485 122.744 60.9008 121.857C61.4724 119.321 57.7152 118.409 57.0587 120.923ZM71.3053 133.037C70.4065 133.24 69.8313 133.995 68.9151 134.243C66.896 134.986 64.5963 134.665 62.6461 133.753C64.8935 136.399 68.5961 137.729 72.0278 136.924C74.5733 136.407 73.8698 132.605 71.3053 133.037ZM81.8033 133.093C81.7585 130.442 77.8157 130.442 77.7706 133.092C77.8154 135.743 81.7582 135.743 81.8033 133.093ZM91.6132 162.431C90.1223 160.751 88.8415 158.648 87.7085 156.643C87.3646 159.134 87.1131 161.524 87.2796 164.106C87.2973 165.539 88.5143 166.688 89.9513 166.578C91.9852 166.476 92.9994 163.89 91.6132 162.431ZM92.2892 151.746C92.2325 148.397 87.249 148.396 87.1918 151.746C87.2486 155.096 92.232 155.097 92.2892 151.746ZM93.3946 168.316C93.3946 168.316 95.5817 169.865 94.5047 171.062C93.0733 172.652 91.1278 169.617 91.1278 169.617C90.9057 171.612 92.3406 175.084 94.3343 174.93C96.3578 174.774 95.7918 173.027 95.7918 173.027C97.0456 173.751 98.6882 172.822 97.5598 170.954C96.4315 169.086 93.3946 168.316 93.3946 168.316ZM94.0185 135.552C93.346 133.043 89.5947 133.978 90.1823 136.512C90.4403 137.396 91.2291 137.924 91.5327 138.823C92.3983 140.793 92.2181 143.108 91.4272 145.111C93.9306 142.705 95.0318 138.929 94.0185 135.552ZM90.5368 115.099C90.5368 115.099 97.4874 115.515 98.8048 113.676C100.122 111.838 97.9025 110.513 97.9025 110.513C97.9025 110.513 100.177 109.539 99.5985 108.591C99.0203 107.643 97.7677 108.006 97.7677 108.006C97.7677 108.006 97.8954 104.906 95.8528 105.155C93.1894 105.597 90.0469 109.209 90.0469 109.209C90.0469 109.209 92.9228 104.36 91.2369 102.468C89.6924 100.735 87.8817 102.427 87.8817 102.427C87.8817 102.427 88.0583 99.9551 86.87 100.2C85.6818 100.444 85.719 102.671 85.719 102.671C85.719 102.671 83.6032 101.979 83.0577 103.378C82.007 105.42 83.899 110.333 83.899 110.333C83.899 110.333 81.0071 104.649 78.2905 104.908C76.2263 105.106 76.047 107.477 76.047 107.477C72.5484 105.549 71.8609 107.502 74.1807 110.097C74.1807 110.097 72.7653 111.271 73.3624 112.683C74.6331 115.383 80.1936 115.729 80.1936 115.729C80.1936 115.729 75.1331 117.46 74.3938 119.537C73.6545 121.615 75.5945 122.181 75.5945 122.181C75.5945 122.181 74.0721 123.64 74.9085 124.766C75.7448 125.892 77.483 123.803 77.483 123.803C77.483 123.803 77.891 126.182 80.0655 125.848C82.7155 125.442 84.1701 119.349 84.1701 119.349C84.1701 119.349 85.1718 125.39 87.4433 126.1C89.7148 126.81 91.1572 124.59 91.1572 124.59C91.1572 124.59 92.5116 126.662 93.4388 125.951C94.3661 125.239 92.8663 123.283 92.8663 123.283C92.8663 123.283 95.2673 123.363 94.8977 120.319C94.6392 118.193 90.5368 115.099 90.5368 115.099ZM100.504 138.74C100.103 139.57 100.335 140.49 99.958 141.361C99.281 143.404 97.5965 145.002 95.6679 145.959C99.1378 145.85 102.486 143.783 103.995 140.598C105.176 138.284 101.765 136.466 100.504 138.74ZM199.084 151.694C199.084 151.694 199.382 155.287 197.279 154.893C195.697 154.597 196.493 152.038 196.493 152.038C196.493 152.038 194.549 154.495 194.787 156.664C195.026 158.834 196.895 158.574 197.45 157.236C197.45 157.236 198.063 158.969 199.765 157.863C201.441 156.774 200.472 153.144 199.084 151.694ZM194.535 137.691C195.043 139.606 195.519 141.669 195.612 143.599C195.629 144.059 195.794 144.518 196.114 144.897C198.004 147 201.138 144.354 199.381 142.139C198.616 141.218 197.79 140.424 196.965 139.689C196.17 138.985 195.362 138.32 194.535 137.691ZM175.317 76.5038C175.699 76.6372 176.105 76.6923 176.488 76.7662C176.882 76.8069 177.265 76.85 177.647 76.8387C179.108 76.8288 180.524 76.4631 181.772 75.781C180.477 75.8276 179.155 75.5588 178.03 74.99C177.759 74.8635 177.513 74.694 177.274 74.5411C177.049 74.3565 176.82 74.2048 176.633 73.9966C175.95 73.4304 175.782 72.5485 175.033 72.0809C174.115 71.5154 172.913 71.8012 172.347 72.7193C171.173 74.8562 173.662 75.9828 175.317 76.5038ZM149.849 91.712C149.905 95.0618 154.889 95.0623 154.946 91.7121C154.889 88.3625 149.906 88.362 149.849 91.712ZM119.112 133.645C116.299 133.107 113.539 129.18 115.65 124.893C115.65 124.893 111.932 124.945 111.053 120.812C110.174 116.679 112.714 115.771 112.714 115.771C112.714 115.771 109.097 113.846 110.097 109.847C110.535 107.545 113.043 106.522 113.043 106.522C113.043 106.522 110.512 103.825 112.378 101.291C114.243 98.7574 116.703 98.3176 116.703 98.3176C116.703 98.3176 112.242 96.8266 109.595 100.862C108.289 103.108 109.062 104.994 109.062 104.994C104.885 106.34 104.481 112.812 108.135 115.515C104.449 118.511 106.741 125.537 111.279 126.958C111.279 126.958 111.799 134.23 119.112 133.645ZM128.639 142.39C126.51 142.07 124.417 141.065 123.147 139.328C122.521 138.614 122.46 137.667 121.824 137C119.927 135.221 117.237 137.998 119.07 139.838C121.483 142.408 125.303 143.35 128.639 142.39ZM133.59 136.605C130.371 135.934 127.337 131.562 129.923 126.943C129.923 126.943 125.641 126.887 124.78 122.347C123.918 117.806 126.875 116.891 126.875 116.891C126.875 116.891 122.781 114.68 124.079 110.342C124.667 107.841 127.592 106.798 127.592 106.798C127.592 106.798 124.777 103.776 127.017 101.065C129.258 98.3539 132.106 97.9476 132.106 97.9476C132.106 97.9476 127.024 96.1849 123.829 100.513C122.243 102.927 123.065 105.01 123.065 105.01C118.206 106.355 117.505 113.411 121.613 116.474C117.259 119.635 119.642 127.379 124.816 129.067C124.816 129.067 125.149 137.025 133.59 136.605ZM140.039 129.978C139.982 126.629 134.999 126.628 134.941 129.978C134.998 133.328 139.981 133.328 140.039 129.978ZM144.551 121.888C144.551 121.888 144.339 124.375 145.518 124.387C146.697 124.398 146.722 121.912 146.722 121.912C146.722 121.912 148.579 123.469 150.178 120.822C151.295 118.972 149.961 113.964 149.961 113.964C149.961 113.964 155.222 118.616 157.412 117.975C159.601 117.334 158.662 114.902 158.662 114.902C158.662 114.902 161.074 115.543 161.204 114.43C161.334 113.318 160.114 112.826 160.114 112.826C160.114 112.826 162.143 110.444 160.366 109.372C157.976 108.067 153.234 108.982 153.234 108.982C153.234 108.982 158.533 106.918 158.37 104.368C158.221 102.031 155.731 102.249 155.731 102.249C155.731 102.249 157.408 100.396 156.313 99.8511C155.217 99.3064 153.862 101.098 153.862 101.098C153.862 101.098 152.612 99.2327 151.309 100.005C149.806 100.697 148.584 103.486 148.009 105.023C147.967 105.134 147.803 105.094 147.818 104.977C148.055 103.109 148.29 99.3556 146.571 98.2561C144.809 97.1293 143.192 98.9017 143.192 98.9017C141.618 95.1949 139.847 96.3252 140.081 99.8213C140.081 99.8213 138.226 99.874 137.823 101.367C137.153 104.301 141.354 108.034 141.354 108.034C141.354 108.034 136.259 106.261 134.38 107.452C132.501 108.642 133.69 110.298 133.69 110.298C133.69 110.298 131.574 110.51 131.538 111.924C131.502 113.338 134.181 112.76 134.181 112.76C134.181 112.76 133.026 114.903 134.96 115.991C137.318 117.316 142.262 113.381 142.262 113.381C142.262 113.381 139.301 118.801 140.663 120.778C142.025 122.754 144.551 121.888 144.551 121.888ZM144.505 140.383C142.458 138.784 140.025 141.789 142.019 143.458C142.758 144.009 143.705 143.956 144.489 144.491C146.366 145.543 147.616 147.5 148.189 149.575C148.741 146.148 147.347 142.469 144.505 140.383ZM153.088 132.825C153.031 129.476 148.048 129.475 147.99 132.825C148.047 136.175 153.03 136.176 153.088 132.825ZM155.104 154.981C155.059 152.331 151.116 152.33 151.071 154.981C151.116 157.631 155.059 157.631 155.104 154.981ZM158.238 164.922C156.935 163.453 155.815 161.614 154.824 159.861C154.524 162.04 154.304 164.129 154.449 166.387C154.464 167.639 155.529 168.644 156.785 168.548C158.563 168.459 159.45 166.197 158.238 164.922ZM155.637 137.927C153.187 140.461 152.431 144.322 153.551 147.608C153.768 145.466 154.671 143.327 156.344 141.974C157.026 141.314 157.969 141.208 158.605 140.54C160.29 138.559 157.386 136.007 155.637 137.927ZM161.901 169.516C161.901 169.516 164.389 170.513 163.621 171.927C162.6 173.807 160 171.31 160 171.31C160.249 173.301 162.454 176.343 164.357 175.729C166.288 175.106 165.331 173.538 165.331 173.538C166.719 173.95 168.099 172.664 166.567 171.111C165.034 169.557 161.901 169.516 161.901 169.516ZM163.962 126.617C163.905 123.267 158.922 123.267 158.865 126.617C158.921 129.967 163.905 129.967 163.962 126.617ZM164.586 97.3336C164.586 97.3336 162.731 96.569 162.8 94.7877C162.846 93.58 163.722 92.9741 163.722 92.9741C163.722 92.9741 162.188 92.4429 161.758 90.5462C161.454 89.2 162.541 87.5909 162.541 87.5909C162.541 87.5909 159.522 87.9021 159.734 90.8743C159.814 92.278 160.869 93.2626 160.869 93.2626C160.869 93.2626 160.067 94.021 160.875 95.9067C161.726 97.8958 163.686 98.0121 164.586 97.3336ZM166.996 108.185C171.064 109.613 175.74 108.48 178.819 105.557C176.329 106.411 173.49 106.5 171.132 105.332C170.05 104.911 169.45 103.917 168.384 103.552C165.322 102.691 163.969 107.222 166.996 108.185ZM177.505 111.269C173.264 111.462 169.205 114.046 167.414 117.967C166.008 120.816 170.211 122.982 171.714 120.179C172.191 119.158 171.891 118.036 172.337 116.965C173.13 114.455 175.163 112.472 177.505 111.269ZM184.353 135.338C183.006 133.846 181.662 132.452 179.987 131.24C177.87 129.787 175.664 132.834 177.705 134.392C178.07 134.657 178.498 134.776 178.917 134.76C179.753 134.73 180.668 134.799 181.582 134.904C182.499 135.013 183.427 135.157 184.353 135.338ZM186.831 134.813C186.876 137.463 190.818 137.464 190.864 134.813C190.819 132.163 186.876 132.163 186.831 134.813ZM179.322 125.189C178.798 126.128 179.134 127.313 180.072 127.837C181.877 128.845 183.707 129.477 185.628 130.07C184.58 128.602 183.513 126.998 182.815 125.383C182.255 123.925 180.049 123.781 179.322 125.189ZM184.074 98.9561C184.074 98.9561 181.826 100.073 179.821 98.4657C177.816 96.858 178.284 94.8699 178.284 94.8699C178.284 94.8699 175.302 95.3277 174.184 93.0789C173.067 90.8302 175.104 89.6009 175.104 89.6009C171.622 87.678 170.961 85.2766 174.169 82.4603C171.197 82.1722 167.555 87.1295 171.11 89.3659C171.11 89.3659 168.974 91.4313 170.188 94.2061C172.142 98.6721 175.952 97.9629 175.952 97.9629C175.952 97.9629 176.883 99.7112 179.052 100.606C182.495 102.008 184.074 98.9561 184.074 98.9561ZM195.451 90.3064C193.672 91.9789 190.369 91.078 189.968 88.5175C189.968 88.5175 187.758 89.5887 186.35 88.1079C184.942 86.6271 186.231 85.1823 186.231 85.1823C183.071 84.5327 181.969 82.7992 183.792 79.8534C181.411 80.3419 179.768 85.0709 183.069 85.9575C183.069 85.9575 181.903 88.0763 183.512 89.943C186.104 92.9476 188.897 91.4822 188.897 91.4822C188.897 91.4822 190.04 92.6188 191.941 92.7946C194.955 93.0588 195.451 90.3064 195.451 90.3064ZM200.558 77.2163C199.489 78.1742 198.173 78.8822 196.813 79.1953C196.492 79.2799 196.163 79.3095 195.852 79.3489C195.529 79.3512 195.226 79.3847 194.92 79.3397C193.937 79.3425 193.169 78.7108 192.201 78.8432C191.018 79.0127 190.198 80.1084 190.367 81.2904C190.536 82.4727 191.632 83.2936 192.814 83.1242C193.777 82.9897 194.723 82.7969 195.576 82.4065C195.996 82.2488 196.381 82.0085 196.759 81.7996C197.123 81.5551 197.48 81.3203 197.797 81.0397C198.442 80.4978 198.992 79.8918 199.451 79.2469C199.906 78.601 200.287 77.9217 200.558 77.2163ZM200.574 74.038C200.574 74.038 199.322 71.4492 196.345 70.6228C196.926 71.482 196.769 72.654 195.945 73.3144C194.057 74.7856 191.655 72.353 193.118 70.489C190.354 70.9794 188.666 72.8403 188.666 72.8403C188.666 72.8403 189.733 75.7305 193.902 76.131C198.432 76.566 200.574 74.038 200.574 74.038Z" fill="#270303" stroke="black" stroke-width="1.62" mask="url(#path-1-inside-1_7_294)"/>
<circle cx="121.5" cy="121.5" r="120.69" stroke="black" stroke-width="1.62" stroke-linecap="square" stroke-dasharray="16.2 16.2"/>
</svg>
